M48
METRIC,TZ
T1C0.400
T2C0.800
T3C1.000
T4C1.001
T5C1.780
%
G90
G05
T1
X46963Y-95867
X47972Y-99788
X52639Y-104887
X63424Y-99522
X65722Y-45796
X67437Y-47282
X70136Y-51864
X70790Y-157544
X71653Y-44272
X71857Y-162573
X73152Y-161049
X75885Y-99522
X80579Y-145064
X83429Y-55265
X83848Y-158224
X88500Y-99650
X89692Y-136192
X92308Y-64192
X98692Y-127192
X101308Y-73192
X109209Y-89038
X112058Y-87878
X112890Y-97498
X123596Y-26708
X124054Y-21179
X124282Y-19507
X125150Y-152500
X125150Y-165000
X125171Y-140147
X126492Y-22060
X126721Y-101651
X127518Y-181023
X128850Y-38000
X128850Y-50500
X128850Y-63000
X129921Y-176327
X130480Y-183538
X130647Y-181945
X153205Y-130295
X155282Y-75782
X162192Y-139308
X164308Y-66808
X165500Y-103350
X171233Y-148267
X173308Y-57808
X177394Y-46482
X178000Y-103350
X181127Y-42101
X182364Y-152357
X182613Y-40577
X183299Y-45072
X183426Y-157777
X186276Y-155849
X187452Y-157391
X190500Y-103350
X201280Y-97734
X206540Y-101308
X207091Y-97231
X209283Y-97803
T2
X83157Y-96135
X84330Y-98388
X85410Y-94962
X86583Y-97215
X87663Y-93789
X88836Y-96042
X89916Y-92616
X91089Y-94869
X92169Y-91443
X93342Y-93696
X94422Y-90271
X95595Y-92524
X96675Y-89098
X97848Y-91351
X98928Y-87925
X100101Y-90178
X101181Y-86752
X102354Y-89005
X103434Y-85579
X104607Y-87832
X107035Y-83705
X108208Y-85958
X109288Y-82532
X110461Y-84785
X111541Y-81359
X112375Y-132469
X112714Y-83612
X113548Y-134722
X113794Y-80186
X114628Y-131296
X114967Y-82439
X115801Y-133549
X116047Y-79013
X116881Y-130123
X117220Y-81266
X118054Y-132376
X118300Y-77840
X119134Y-128950
X119473Y-80093
X120307Y-131203
X120553Y-76668
X121387Y-127777
X121726Y-78921
X122560Y-130030
X122806Y-75495
X123640Y-126604
X123979Y-77748
X124813Y-128857
X125893Y-125432
X127066Y-127685
X128146Y-124259
X129319Y-126512
X132652Y-121913
X133825Y-124166
X134905Y-120740
X136078Y-122993
X137158Y-119567
X138331Y-121820
X139411Y-118394
X140584Y-120648
X141664Y-117222
X142837Y-119475
X143917Y-116049
X145090Y-118302
T3
X50005Y-101605
X72274Y-155960
X72540Y-46774
X126895Y-24505
X127105Y-178995
X181460Y-156226
X181726Y-47040
X203995Y-101395
T4
X64689Y-82116
X68631Y-130175
X100599Y-43340
X104445Y-162052
X112395Y-140703
X126756Y-101818
X132837Y-79637
X137439Y-93167
X145440Y-95390
X148961Y-41918
X153619Y-160223
X184724Y-74633
X187361Y-122326
T5
X79999Y-97779
X101157Y-141172
X132096Y-87840
X144998Y-112623
T0
M30
