G04 #@! TF.FileFunction,Copper,L2,Bot,Signal*
%FSLAX46Y46*%
G04 Gerber Fmt 4.6, Leading zero omitted, Abs format (unit mm)*
G04 Created by KiCad (PCBNEW 4.0.7) date 03/16/18 10:32:41*
%MOMM*%
%LPD*%
G01*
G04 APERTURE LIST*
%ADD10C,0.100000*%
%ADD11C,2.499360*%
%ADD12C,1.650000*%
%ADD13C,1.600000*%
%ADD14R,0.800000X0.800000*%
%ADD15C,0.600000*%
%ADD16C,0.250000*%
%ADD17C,0.400000*%
%ADD18C,1.000000*%
%ADD19C,0.254000*%
G04 APERTURE END LIST*
D10*
D11*
X126756160Y-101818440D03*
X68630800Y-130175000D03*
X64688720Y-82115660D03*
X100599240Y-43340020D03*
X148960840Y-41917620D03*
X184724040Y-74632820D03*
X187360560Y-122326400D03*
X153619200Y-160223200D03*
X104444800Y-162052000D03*
X132836920Y-79636620D03*
X137439400Y-93167200D03*
D10*
G36*
X83486971Y-146760345D02*
X82850575Y-146123949D01*
X83204129Y-145770395D01*
X83840525Y-146406791D01*
X83486971Y-146760345D01*
X83486971Y-146760345D01*
G37*
G36*
X84547631Y-145699685D02*
X83911235Y-145063289D01*
X84264789Y-144709735D01*
X84901185Y-145346131D01*
X84547631Y-145699685D01*
X84547631Y-145699685D01*
G37*
G36*
X92483651Y-137707785D02*
X91847255Y-137071389D01*
X92200809Y-136717835D01*
X92837205Y-137354231D01*
X92483651Y-137707785D01*
X92483651Y-137707785D01*
G37*
G36*
X93544311Y-136647125D02*
X92907915Y-136010729D01*
X93261469Y-135657175D01*
X93897865Y-136293571D01*
X93544311Y-136647125D01*
X93544311Y-136647125D01*
G37*
G36*
X101536211Y-128766985D02*
X100899815Y-128130589D01*
X101253369Y-127777035D01*
X101889765Y-128413431D01*
X101536211Y-128766985D01*
X101536211Y-128766985D01*
G37*
G36*
X102596871Y-127706325D02*
X101960475Y-127069929D01*
X102314029Y-126716375D01*
X102950425Y-127352771D01*
X102596871Y-127706325D01*
X102596871Y-127706325D01*
G37*
G36*
X118819427Y-136435053D02*
X118478934Y-135766798D01*
X119548141Y-135222009D01*
X119888634Y-135890264D01*
X118819427Y-136435053D01*
X118819427Y-136435053D01*
G37*
G36*
X120512339Y-135572471D02*
X120171846Y-134904216D01*
X121241053Y-134359427D01*
X121581546Y-135027682D01*
X120512339Y-135572471D01*
X120512339Y-135572471D01*
G37*
D12*
X72274481Y-155959798D03*
X127105000Y-178995000D03*
X181725519Y-47040202D03*
X203995000Y-101395000D03*
X181459798Y-156225519D03*
X126895000Y-24505000D03*
X72540202Y-46774481D03*
X50005000Y-101605000D03*
D11*
X112395000Y-140703300D03*
X145440400Y-95389700D03*
D13*
X121726111Y-78920525D02*
X121726111Y-78920525D01*
X123979119Y-77747684D02*
X123979119Y-77747684D01*
X88835749Y-96042164D02*
X88835749Y-96042164D01*
X91088757Y-94869323D02*
X91088757Y-94869323D01*
X93341764Y-93696481D02*
X93341764Y-93696481D01*
X95594772Y-92523640D02*
X95594772Y-92523640D01*
X97847779Y-91350798D02*
X97847779Y-91350798D01*
X100100787Y-90177957D02*
X100100787Y-90177957D01*
X102353795Y-89005115D02*
X102353795Y-89005115D01*
X104606802Y-87832274D02*
X104606802Y-87832274D01*
X108208066Y-85957574D02*
X108208066Y-85957574D01*
X110461074Y-84784733D02*
X110461074Y-84784733D01*
X112714081Y-83611891D02*
X112714081Y-83611891D01*
X114967089Y-82439050D02*
X114967089Y-82439050D01*
X117220096Y-81266208D02*
X117220096Y-81266208D01*
X119473104Y-80093367D02*
X119473104Y-80093367D01*
X86582742Y-97215006D02*
X86582742Y-97215006D01*
X84329734Y-98387847D02*
X84329734Y-98387847D01*
X143917424Y-116048812D02*
X143917424Y-116048812D01*
X141664416Y-117221653D02*
X141664416Y-117221653D01*
X139411409Y-118394495D02*
X139411409Y-118394495D01*
X137158401Y-119567336D02*
X137158401Y-119567336D01*
X134905394Y-120740178D02*
X134905394Y-120740178D01*
X132652386Y-121913019D02*
X132652386Y-121913019D01*
X128146371Y-124258702D02*
X128146371Y-124258702D01*
X125893364Y-125431544D02*
X125893364Y-125431544D01*
X123640356Y-126604385D02*
X123640356Y-126604385D01*
X121387349Y-127777227D02*
X121387349Y-127777227D01*
X119134341Y-128950068D02*
X119134341Y-128950068D01*
X116881334Y-130122910D02*
X116881334Y-130122910D01*
D10*
G36*
X113624788Y-130773342D02*
X115150735Y-130292213D01*
X115631864Y-131818160D01*
X114105917Y-132299289D01*
X113624788Y-130773342D01*
X113624788Y-130773342D01*
G37*
G36*
X111371781Y-131946183D02*
X112897728Y-131465054D01*
X113378857Y-132991001D01*
X111852910Y-133472130D01*
X111371781Y-131946183D01*
X111371781Y-131946183D01*
G37*
D13*
X83156893Y-96134840D02*
X83156893Y-96134840D01*
X85409900Y-94961998D02*
X85409900Y-94961998D01*
D10*
G36*
X112544622Y-134199191D02*
X114070569Y-133718062D01*
X114551698Y-135244009D01*
X113025751Y-135725138D01*
X112544622Y-134199191D01*
X112544622Y-134199191D01*
G37*
D13*
X118300262Y-77840359D02*
X118300262Y-77840359D01*
X115801168Y-133548759D02*
X115801168Y-133548759D01*
X116047255Y-79013201D02*
X116047255Y-79013201D01*
X118054175Y-132375917D02*
X118054175Y-132375917D01*
X113794247Y-80186042D02*
X113794247Y-80186042D01*
X120307183Y-131203076D02*
X120307183Y-131203076D01*
X111541240Y-81358884D02*
X111541240Y-81358884D01*
X122560190Y-130030234D02*
X122560190Y-130030234D01*
X109288232Y-82531725D02*
X109288232Y-82531725D01*
X124813198Y-128857393D02*
X124813198Y-128857393D01*
X107035225Y-83704567D02*
X107035225Y-83704567D01*
X127066205Y-127684551D02*
X127066205Y-127684551D01*
X103433961Y-85579266D02*
X103433961Y-85579266D01*
X129319213Y-126511710D02*
X129319213Y-126511710D01*
X101180953Y-86752108D02*
X101180953Y-86752108D01*
X133825228Y-124166027D02*
X133825228Y-124166027D01*
X98927946Y-87924949D02*
X98927946Y-87924949D01*
X136078235Y-122993185D02*
X136078235Y-122993185D01*
X96674938Y-89097791D02*
X96674938Y-89097791D01*
X138331243Y-121820344D02*
X138331243Y-121820344D01*
X94421930Y-90270632D02*
X94421930Y-90270632D01*
X140584250Y-120647502D02*
X140584250Y-120647502D01*
X92168923Y-91443474D02*
X92168923Y-91443474D01*
X142837258Y-119474661D02*
X142837258Y-119474661D01*
X89915915Y-92616315D02*
X89915915Y-92616315D01*
X145090265Y-118301819D02*
X145090265Y-118301819D01*
X87662908Y-93789157D02*
X87662908Y-93789157D01*
X122806277Y-75494677D02*
X122806277Y-75494677D01*
X120553270Y-76667518D02*
X120553270Y-76667518D01*
D10*
G36*
X101131370Y-129065685D02*
X100565685Y-129631370D01*
X100000000Y-129065685D01*
X100565685Y-128500000D01*
X101131370Y-129065685D01*
X101131370Y-129065685D01*
G37*
G36*
X100000000Y-127934315D02*
X99434315Y-128500000D01*
X98868630Y-127934315D01*
X99434315Y-127368630D01*
X100000000Y-127934315D01*
X100000000Y-127934315D01*
G37*
D14*
X127800000Y-140000000D03*
X126200000Y-140000000D03*
D10*
G36*
X155065685Y-127868630D02*
X155631370Y-128434315D01*
X155065685Y-129000000D01*
X154500000Y-128434315D01*
X155065685Y-127868630D01*
X155065685Y-127868630D01*
G37*
G36*
X153934315Y-129000000D02*
X154500000Y-129565685D01*
X153934315Y-130131370D01*
X153368630Y-129565685D01*
X153934315Y-129000000D01*
X153934315Y-129000000D01*
G37*
D14*
X165500000Y-100700000D03*
X165500000Y-102300000D03*
D10*
G36*
X92131370Y-138065685D02*
X91565685Y-138631370D01*
X91000000Y-138065685D01*
X91565685Y-137500000D01*
X92131370Y-138065685D01*
X92131370Y-138065685D01*
G37*
G36*
X91000000Y-136934315D02*
X90434315Y-137500000D01*
X89868630Y-136934315D01*
X90434315Y-136368630D01*
X91000000Y-136934315D01*
X91000000Y-136934315D01*
G37*
D14*
X127800000Y-152500000D03*
X126200000Y-152500000D03*
D10*
G36*
X164065685Y-136868630D02*
X164631370Y-137434315D01*
X164065685Y-138000000D01*
X163500000Y-137434315D01*
X164065685Y-136868630D01*
X164065685Y-136868630D01*
G37*
G36*
X162934315Y-138000000D02*
X163500000Y-138565685D01*
X162934315Y-139131370D01*
X162368630Y-138565685D01*
X162934315Y-138000000D01*
X162934315Y-138000000D01*
G37*
D14*
X178000000Y-100700000D03*
X178000000Y-102300000D03*
D10*
G36*
X83131370Y-147065685D02*
X82565685Y-147631370D01*
X82000000Y-147065685D01*
X82565685Y-146500000D01*
X83131370Y-147065685D01*
X83131370Y-147065685D01*
G37*
G36*
X82000000Y-145934315D02*
X81434315Y-146500000D01*
X80868630Y-145934315D01*
X81434315Y-145368630D01*
X82000000Y-145934315D01*
X82000000Y-145934315D01*
G37*
D14*
X127800000Y-165000000D03*
X126200000Y-165000000D03*
D10*
G36*
X173065685Y-145868630D02*
X173631370Y-146434315D01*
X173065685Y-147000000D01*
X172500000Y-146434315D01*
X173065685Y-145868630D01*
X173065685Y-145868630D01*
G37*
G36*
X171934315Y-147000000D02*
X172500000Y-147565685D01*
X171934315Y-148131370D01*
X171368630Y-147565685D01*
X171934315Y-147000000D01*
X171934315Y-147000000D01*
G37*
D14*
X190500000Y-100700000D03*
X190500000Y-102300000D03*
D10*
G36*
X152868630Y-73934315D02*
X153434315Y-73368630D01*
X154000000Y-73934315D01*
X153434315Y-74500000D01*
X152868630Y-73934315D01*
X152868630Y-73934315D01*
G37*
G36*
X154000000Y-75065685D02*
X154565685Y-74500000D01*
X155131370Y-75065685D01*
X154565685Y-75631370D01*
X154000000Y-75065685D01*
X154000000Y-75065685D01*
G37*
D14*
X126200000Y-63000000D03*
X127800000Y-63000000D03*
D10*
G36*
X99434315Y-75631370D02*
X98868630Y-75065685D01*
X99434315Y-74500000D01*
X100000000Y-75065685D01*
X99434315Y-75631370D01*
X99434315Y-75631370D01*
G37*
G36*
X100565685Y-74500000D02*
X100000000Y-73934315D01*
X100565685Y-73368630D01*
X101131370Y-73934315D01*
X100565685Y-74500000D01*
X100565685Y-74500000D01*
G37*
D14*
X88500000Y-102300000D03*
X88500000Y-100700000D03*
D10*
G36*
X161868630Y-64934315D02*
X162434315Y-64368630D01*
X163000000Y-64934315D01*
X162434315Y-65500000D01*
X161868630Y-64934315D01*
X161868630Y-64934315D01*
G37*
G36*
X163000000Y-66065685D02*
X163565685Y-65500000D01*
X164131370Y-66065685D01*
X163565685Y-66631370D01*
X163000000Y-66065685D01*
X163000000Y-66065685D01*
G37*
D14*
X126200000Y-50500000D03*
X127800000Y-50500000D03*
D10*
G36*
X90434315Y-66631370D02*
X89868630Y-66065685D01*
X90434315Y-65500000D01*
X91000000Y-66065685D01*
X90434315Y-66631370D01*
X90434315Y-66631370D01*
G37*
G36*
X91565685Y-65500000D02*
X91000000Y-64934315D01*
X91565685Y-64368630D01*
X92131370Y-64934315D01*
X91565685Y-65500000D01*
X91565685Y-65500000D01*
G37*
D14*
X76000000Y-102300000D03*
X76000000Y-100700000D03*
D10*
G36*
X170868630Y-55934315D02*
X171434315Y-55368630D01*
X172000000Y-55934315D01*
X171434315Y-56500000D01*
X170868630Y-55934315D01*
X170868630Y-55934315D01*
G37*
G36*
X172000000Y-57065685D02*
X172565685Y-56500000D01*
X173131370Y-57065685D01*
X172565685Y-57631370D01*
X172000000Y-57065685D01*
X172000000Y-57065685D01*
G37*
D14*
X126200000Y-38000000D03*
X127800000Y-38000000D03*
D10*
G36*
X81434315Y-57631370D02*
X80868630Y-57065685D01*
X81434315Y-56500000D01*
X82000000Y-57065685D01*
X81434315Y-57631370D01*
X81434315Y-57631370D01*
G37*
G36*
X82565685Y-56500000D02*
X82000000Y-55934315D01*
X82565685Y-55368630D01*
X83131370Y-55934315D01*
X82565685Y-56500000D01*
X82565685Y-56500000D01*
G37*
D14*
X63500000Y-102300000D03*
X63500000Y-100700000D03*
D15*
X126720600Y-101650800D03*
X46962972Y-95866699D03*
X47971710Y-99787710D03*
X109208570Y-89038430D03*
X71856600Y-162572700D03*
X73152000Y-161048700D03*
X67437000Y-47282100D03*
X65722500Y-45796200D03*
X207091280Y-97231200D03*
X209283300Y-97802700D03*
X130647440Y-181945280D03*
X130479800Y-183537860D03*
X187452000Y-157391100D03*
X186275980Y-155849320D03*
X182613300Y-40576500D03*
X181127400Y-42100500D03*
X124053600Y-21178520D03*
X124282200Y-19507200D03*
X123596400Y-26708100D03*
X183299100Y-45072300D03*
X177393600Y-46482000D03*
X206540100Y-101307900D03*
X129921000Y-176326800D03*
X70789800Y-157543500D03*
X201279760Y-97734120D03*
X183426100Y-157777180D03*
X71653400Y-44272200D03*
X52638960Y-104886760D03*
X127518160Y-181023260D03*
X182364380Y-152356820D03*
X70136380Y-51863620D03*
X126492000Y-22059900D03*
X63423800Y-99522280D03*
X75885040Y-99522280D03*
X88500000Y-99650000D03*
X101308148Y-73191852D03*
X92308148Y-64191852D03*
X83428840Y-55265320D03*
X128850000Y-63000000D03*
X128850000Y-50500000D03*
X128850000Y-38000000D03*
X155281900Y-75781900D03*
X164308148Y-66808148D03*
X173308148Y-57808148D03*
X165500000Y-103350000D03*
X178000000Y-103350000D03*
X190500000Y-103350000D03*
X153205400Y-130294600D03*
X162191852Y-139308148D03*
X171233340Y-148266660D03*
X125150000Y-165000000D03*
X125171200Y-140147040D03*
X125150000Y-152500000D03*
X98691852Y-127191852D03*
X89691852Y-136191852D03*
X80578960Y-145064480D03*
X83847940Y-158224220D03*
X112058450Y-87877650D03*
X112890300Y-97497900D03*
D16*
X67252110Y-153082730D02*
X66917270Y-153082730D01*
D17*
X123979119Y-77747684D02*
X123979119Y-79783119D01*
X125349000Y-81153000D02*
X125349000Y-83947000D01*
X123979119Y-79783119D02*
X125349000Y-81153000D01*
X123979119Y-77747684D02*
X123979119Y-79973619D01*
X123979119Y-79973619D02*
X125285500Y-81280000D01*
D16*
X123979119Y-79973619D02*
X125285500Y-81280000D01*
D17*
X78994000Y-116014500D02*
X81978500Y-116014500D01*
X102489000Y-95504000D02*
X111633000Y-95504000D01*
X81978500Y-116014500D02*
X102489000Y-95504000D01*
X51562000Y-116014500D02*
X43827700Y-108280200D01*
X43827700Y-108280200D02*
X43827700Y-100172300D01*
X43827700Y-100172300D02*
X46962972Y-95866699D01*
X78994000Y-116014500D02*
X51562000Y-116014500D01*
X115436650Y-93478350D02*
X113658650Y-93478350D01*
X125285500Y-83629500D02*
X115436650Y-93478350D01*
X125285500Y-81280000D02*
X125285500Y-83629500D01*
X113658650Y-93478350D02*
X111633000Y-95504000D01*
D16*
X123979119Y-79973619D02*
X125285500Y-81280000D01*
D17*
X121726111Y-81280000D02*
X121726111Y-82997889D01*
X121158000Y-83566000D02*
X121158000Y-83439000D01*
X121726111Y-82997889D02*
X121158000Y-83566000D01*
X121424700Y-82702400D02*
X121424700Y-83172300D01*
X121424700Y-83172300D02*
X121158000Y-83439000D01*
X121158000Y-83439000D02*
X111379000Y-93218000D01*
X111379000Y-93218000D02*
X106680000Y-93218000D01*
X121726111Y-78920525D02*
X121726111Y-81280000D01*
X121726111Y-81280000D02*
X121726111Y-82400989D01*
X121726111Y-82400989D02*
X121424700Y-82702400D01*
D16*
X121726111Y-82400989D02*
X121424700Y-82702400D01*
D17*
X109220000Y-93218000D02*
X106680000Y-93218000D01*
X106680000Y-93218000D02*
X100850700Y-93218000D01*
D16*
X121726111Y-82400989D02*
X121424700Y-82702400D01*
X101879400Y-93078300D02*
X100990400Y-93078300D01*
X100990400Y-93078300D02*
X100850700Y-93218000D01*
D17*
X100850700Y-93218000D02*
X81699100Y-112369600D01*
X81699100Y-112369600D02*
X52006500Y-112369600D01*
X47971710Y-99787710D02*
X46540420Y-101219000D01*
X46540420Y-101219000D02*
X46540420Y-106903520D01*
X46540420Y-106903520D02*
X52006500Y-112369600D01*
D16*
X52006500Y-112369600D02*
X52184300Y-112547400D01*
D17*
X108208066Y-85957574D02*
X108208066Y-88037926D01*
X108208066Y-88037926D02*
X109208570Y-89038430D01*
X71856600Y-162344100D02*
X71856600Y-162572700D01*
X73152000Y-161048700D02*
X71856600Y-162344100D01*
X67437000Y-47282100D02*
X65742820Y-45796200D01*
X65742820Y-45796200D02*
X65722500Y-45796200D01*
X207091280Y-97231200D02*
X209283300Y-97802700D01*
X130647440Y-181945280D02*
X130685540Y-181983380D01*
X130685540Y-181983380D02*
X130479800Y-183537860D01*
X187452000Y-157251400D02*
X187452000Y-157391100D01*
X186275980Y-155849320D02*
X187452000Y-157251400D01*
X182501540Y-40576500D02*
X182613300Y-40576500D01*
X181127400Y-42100500D02*
X182501540Y-40576500D01*
X124053600Y-21178520D02*
X124282200Y-19507200D01*
X123596400Y-26708100D02*
X125349000Y-26670000D01*
X178441350Y-40595550D02*
X178441350Y-40519350D01*
X136105900Y-26670000D02*
X125349000Y-26670000D01*
X178441350Y-40519350D02*
X164592000Y-26670000D01*
X164592000Y-26670000D02*
X136105900Y-26670000D01*
X183299100Y-45072300D02*
X178441350Y-40595550D01*
X206171550Y-94220757D02*
X206171550Y-75077070D01*
X206171550Y-75077070D02*
X203123800Y-72029320D01*
X182420709Y-51212524D02*
X182420709Y-51326229D01*
X182420709Y-51326229D02*
X203123800Y-72029320D01*
X177393600Y-46482000D02*
X177515520Y-46482000D01*
X177515520Y-46482000D02*
X182420709Y-51212524D01*
D16*
X177393600Y-46482000D02*
X177505360Y-46593760D01*
X177505360Y-46593760D02*
X178257200Y-47386240D01*
D17*
X206540100Y-101307900D02*
X206484220Y-101252020D01*
X206484220Y-101252020D02*
X206171550Y-94220757D01*
X206171550Y-94220757D02*
X206169260Y-94169260D01*
D16*
X129921000Y-176326800D02*
X129921000Y-176291240D01*
X129921000Y-176291240D02*
X129921000Y-176326800D01*
X129921000Y-176326800D02*
X129921000Y-176291240D01*
D17*
X116814600Y-176377600D02*
X89903300Y-176377600D01*
X89903300Y-176377600D02*
X76873300Y-163385700D01*
X76733600Y-163385700D02*
X76873300Y-163385700D01*
X70789800Y-157543500D02*
X76733600Y-163385700D01*
X116814600Y-176377600D02*
X129921000Y-176291240D01*
D16*
X116814600Y-176377600D02*
X116814600Y-176377600D01*
D17*
X201279760Y-108854240D02*
X201279760Y-139532360D01*
X201000360Y-139753340D02*
X188290200Y-152463500D01*
X188290200Y-152463500D02*
X188290200Y-152552400D01*
X201279760Y-97734120D02*
X201279760Y-99019360D01*
X201279760Y-99019360D02*
X201279760Y-108854240D01*
X201279760Y-139532360D02*
X201000360Y-139811760D01*
X201000360Y-139811760D02*
X201000360Y-139753340D01*
X183426100Y-157777180D02*
X188290200Y-152552400D01*
D16*
X188290200Y-152552400D02*
X188500000Y-152342600D01*
D17*
X52191920Y-92090240D02*
X52191920Y-63814960D01*
X52191920Y-63814960D02*
X71653400Y-44272200D01*
X52191920Y-103880920D02*
X52191920Y-92090240D01*
X52638960Y-104886760D02*
X52191920Y-103880920D01*
D16*
X52191920Y-92090240D02*
X52191920Y-91810840D01*
D17*
X170545760Y-163896040D02*
X170769280Y-163896040D01*
X170769280Y-163896040D02*
X176636680Y-158028640D01*
X176636680Y-158028640D02*
X176636680Y-157957520D01*
D16*
X175343820Y-159250380D02*
X175135540Y-159250380D01*
X173060360Y-161381440D02*
X171272200Y-163169600D01*
X171272200Y-163169600D02*
X170545760Y-163896040D01*
D17*
X170545760Y-163896040D02*
X153195020Y-181246780D01*
X127518160Y-181023260D02*
X127574040Y-180967380D01*
X127574040Y-180967380D02*
X132603240Y-181246780D01*
X153195020Y-181246780D02*
X132603240Y-181246780D01*
X182364380Y-152356820D02*
X176636680Y-157957520D01*
D16*
X176636680Y-157957520D02*
X175343820Y-159250380D01*
D17*
X70464680Y-51744880D02*
X70338960Y-51870600D01*
X70129400Y-51870600D02*
X70338960Y-51870600D01*
X70129400Y-51870600D02*
X70136380Y-51863620D01*
X70504200Y-52000000D02*
X80098900Y-42405300D01*
X70000000Y-52000000D02*
X70504200Y-52000000D01*
X100375720Y-22128480D02*
X80098900Y-42405300D01*
X126324360Y-21892260D02*
X100375720Y-22128480D01*
X126492000Y-22059900D02*
X126324360Y-21892260D01*
D16*
X83345550Y-146265370D02*
X83345550Y-146285820D01*
X83345550Y-146285820D02*
X82565685Y-147065685D01*
D17*
X82565685Y-147065685D02*
X109865685Y-147065685D01*
X109865685Y-147065685D02*
X127800000Y-165000000D01*
X173065685Y-146434315D02*
X146365685Y-146434315D01*
X146365685Y-146434315D02*
X127800000Y-165000000D01*
X173065685Y-146434315D02*
X173065685Y-118134315D01*
X173065685Y-118134315D02*
X190500000Y-100700000D01*
X171434315Y-55934315D02*
X171434315Y-81634315D01*
X171434315Y-81634315D02*
X190500000Y-100700000D01*
X171434315Y-55934315D02*
X144134315Y-55934315D01*
X144134315Y-55934315D02*
X126200000Y-38000000D01*
X81434315Y-57065685D02*
X107134315Y-57065685D01*
X107134315Y-57065685D02*
X126200000Y-38000000D01*
X81434315Y-57065685D02*
X81434315Y-84365685D01*
X81434315Y-84365685D02*
X63500000Y-102300000D01*
X76000000Y-102300000D02*
X73763100Y-102300000D01*
X73763100Y-102300000D02*
X73253600Y-101790500D01*
X73253600Y-101790500D02*
X73253600Y-95567500D01*
X73253600Y-95567500D02*
X90434315Y-78386785D01*
X90434315Y-78386785D02*
X90434315Y-66065685D01*
D16*
X127800000Y-152500000D02*
X127800000Y-152768400D01*
D17*
X127800000Y-152768400D02*
X124637800Y-155930600D01*
X124637800Y-155930600D02*
X121259600Y-155930600D01*
X121259600Y-155930600D02*
X110324900Y-144995900D01*
X110324900Y-144995900D02*
X98495900Y-144995900D01*
X98495900Y-144995900D02*
X91565685Y-138065685D01*
D16*
X76157900Y-102142100D02*
X76000000Y-102300000D01*
X92342230Y-137212810D02*
X92342230Y-137289140D01*
X92342230Y-137289140D02*
X91565685Y-138065685D01*
X127500000Y-152500000D02*
X127800000Y-152500000D01*
D17*
X164065685Y-137434315D02*
X142865685Y-137434315D01*
X142865685Y-137434315D02*
X127800000Y-152500000D01*
X164065685Y-137434315D02*
X164065685Y-114634315D01*
X164065685Y-114634315D02*
X178000000Y-100700000D01*
X162434315Y-64934315D02*
X162434315Y-85134315D01*
X162434315Y-85134315D02*
X178000000Y-100700000D01*
X162434315Y-64934315D02*
X140634315Y-64934315D01*
X140634315Y-64934315D02*
X126200000Y-50500000D01*
X90434315Y-66065685D02*
X110934315Y-66065685D01*
X110934315Y-66065685D02*
X126500000Y-50500000D01*
D16*
X126500000Y-50500000D02*
X126200000Y-50500000D01*
D17*
X126200000Y-63000000D02*
X126200000Y-63258800D01*
X126200000Y-63258800D02*
X136875515Y-73934315D01*
X136875515Y-73934315D02*
X153434315Y-73934315D01*
X88500000Y-102300000D02*
X81726000Y-102300000D01*
X81726000Y-102300000D02*
X77597000Y-98171000D01*
X77597000Y-98171000D02*
X77597000Y-95885000D01*
X77597000Y-95885000D02*
X98416315Y-75065685D01*
X98416315Y-75065685D02*
X99434315Y-75065685D01*
X127800000Y-140000000D02*
X127800000Y-140411300D01*
X127800000Y-140411300D02*
X121793000Y-146418300D01*
X121793000Y-146418300D02*
X114236500Y-146418300D01*
X114236500Y-146418300D02*
X110858300Y-143040100D01*
X110858300Y-143040100D02*
X99212400Y-143040100D01*
X99212400Y-143040100D02*
X97790000Y-141617700D01*
X97790000Y-141617700D02*
X97790000Y-131841370D01*
X97790000Y-131841370D02*
X100565685Y-129065685D01*
D16*
X101394790Y-128272010D02*
X101359360Y-128272010D01*
X101359360Y-128272010D02*
X100565685Y-129065685D01*
X127500000Y-140000000D02*
X127800000Y-140000000D01*
D17*
X155065685Y-128434315D02*
X139365685Y-128434315D01*
X139365685Y-128434315D02*
X127800000Y-140000000D01*
X155065685Y-128434315D02*
X155065685Y-111134315D01*
X155065685Y-111134315D02*
X165500000Y-100700000D01*
X153434315Y-73934315D02*
X153434315Y-88634315D01*
X153434315Y-88634315D02*
X165500000Y-100700000D01*
X153434315Y-73934315D02*
X137434315Y-73934315D01*
D16*
X137434315Y-73934315D02*
X126500000Y-63000000D01*
X126500000Y-63000000D02*
X126200000Y-63000000D01*
D17*
X99434315Y-75065685D02*
X114134315Y-75065685D01*
X114134315Y-75065685D02*
X126200000Y-63000000D01*
D18*
X119183784Y-135828531D02*
X119183784Y-135947784D01*
X119183784Y-135947784D02*
X120142000Y-136906000D01*
X149031960Y-104759760D02*
X137439400Y-93167200D01*
X149031960Y-120142000D02*
X149031960Y-104759760D01*
X143667480Y-125506480D02*
X149031960Y-120142000D01*
X137855960Y-125506480D02*
X143667480Y-125506480D01*
X126456440Y-136906000D02*
X137855960Y-125506480D01*
X120142000Y-136906000D02*
X126456440Y-136906000D01*
X119183784Y-135828531D02*
X117475509Y-135828531D01*
X117475509Y-135828531D02*
X115801168Y-137502872D01*
X112395000Y-140703300D02*
X112600740Y-140703300D01*
X112600740Y-140703300D02*
X115801168Y-137502872D01*
X115801168Y-137502872D02*
X115801168Y-133548759D01*
X137439400Y-93167200D02*
X137439400Y-84239100D01*
X137439400Y-84239100D02*
X132836920Y-79636620D01*
D16*
X148729700Y-111815880D02*
X148729700Y-104952800D01*
X148729700Y-111815880D02*
X148729700Y-120459500D01*
X148729700Y-120459500D02*
X143929100Y-125260100D01*
X143929100Y-125260100D02*
X137795000Y-125260100D01*
X137795000Y-125260100D02*
X126771400Y-136283700D01*
X126771400Y-136283700D02*
X120190260Y-136283700D01*
X148729700Y-104952800D02*
X137439400Y-93167200D01*
X119183784Y-135828531D02*
X119735091Y-135828531D01*
X119735091Y-135828531D02*
X120190260Y-136283700D01*
X112395000Y-140703300D02*
X112395000Y-140573760D01*
X112395000Y-140573760D02*
X115801168Y-137167592D01*
X115801168Y-137167592D02*
X115801168Y-133548759D01*
X116814600Y-136283700D02*
X112395000Y-140703300D01*
X120190260Y-136283700D02*
X116814600Y-136283700D01*
X137158401Y-119567336D02*
X137158401Y-119289501D01*
D17*
X137158401Y-119289501D02*
X134327900Y-116459000D01*
X84406210Y-131176290D02*
X84406210Y-145204710D01*
X99123500Y-116459000D02*
X84406210Y-131176290D01*
X134327900Y-116459000D02*
X99123500Y-116459000D01*
X63500000Y-100700000D02*
X63500000Y-99598480D01*
X63500000Y-99598480D02*
X63423800Y-99522280D01*
X76000000Y-100700000D02*
X76000000Y-99637240D01*
X76000000Y-99637240D02*
X75885040Y-99522280D01*
X88500000Y-100700000D02*
X88500000Y-99650000D01*
X63500000Y-99598480D02*
X63423800Y-99522280D01*
X76000000Y-99637240D02*
X75885040Y-99522280D01*
D16*
X76000000Y-99650000D02*
X76000000Y-100700000D01*
D17*
X100565685Y-73934315D02*
X101308148Y-73191852D01*
X91565685Y-64934315D02*
X92308148Y-64191852D01*
X82565685Y-55934315D02*
X82759845Y-55934315D01*
X82759845Y-55934315D02*
X83428840Y-55265320D01*
X82759845Y-55934315D02*
X83428840Y-55265320D01*
D16*
X83308148Y-55191852D02*
X82565685Y-55934315D01*
D17*
X127800000Y-63000000D02*
X128850000Y-63000000D01*
X127800000Y-50500000D02*
X128850000Y-50500000D01*
X127800000Y-38000000D02*
X128850000Y-38000000D01*
X128850000Y-50500000D02*
X128859280Y-50509280D01*
X128859280Y-50509280D02*
X128859280Y-51633120D01*
X154565685Y-75065685D02*
X155281900Y-75781900D01*
X163565685Y-66065685D02*
X164308148Y-66808148D01*
X172565685Y-57065685D02*
X173308148Y-57808148D01*
D16*
X134905394Y-120740178D02*
X134875278Y-120740178D01*
D17*
X134875278Y-120740178D02*
X133541778Y-119406678D01*
X101776522Y-119406678D02*
X92513890Y-128669310D01*
X92513890Y-128669310D02*
X93402890Y-136152150D01*
X133541778Y-119406678D02*
X101776522Y-119406678D01*
X132652386Y-121913019D02*
X107753781Y-121913019D01*
X107753781Y-121913019D02*
X102455450Y-127211350D01*
X165500000Y-102300000D02*
X165500000Y-103350000D01*
X178000000Y-102300000D02*
X178000000Y-103350000D01*
X190500000Y-102300000D02*
X190500000Y-103350000D01*
X178000000Y-103350000D02*
X178000000Y-103322120D01*
X178000000Y-103322120D02*
X178000000Y-103350000D01*
X171934315Y-147565685D02*
X171233340Y-148266660D01*
X162934315Y-138565685D02*
X162191852Y-139308148D01*
X153934315Y-129565685D02*
X153205400Y-130294600D01*
D16*
X153205400Y-130294600D02*
X153191852Y-130308148D01*
X153191852Y-130308148D02*
X153205400Y-130294600D01*
D17*
X162191852Y-139308148D02*
X162205400Y-139294600D01*
X162205400Y-139294600D02*
X162191852Y-139308148D01*
X126200000Y-140000000D02*
X125318240Y-140000000D01*
X125318240Y-140000000D02*
X125171200Y-140147040D01*
X125150000Y-152500000D02*
X126200000Y-152500000D01*
D16*
X126200000Y-140000000D02*
X125150000Y-140000000D01*
X126200000Y-165000000D02*
X125150000Y-165000000D01*
X126200000Y-152500000D02*
X125150000Y-152500000D01*
D17*
X99434315Y-127934315D02*
X98691852Y-127191852D01*
X89691852Y-136191852D02*
X90434315Y-136934315D01*
X81434315Y-145934315D02*
X81434315Y-145919835D01*
X81434315Y-145919835D02*
X80578960Y-145064480D01*
D16*
X80691852Y-145191852D02*
X81434315Y-145934315D01*
X99434315Y-127934315D02*
X99565685Y-127934315D01*
X99565685Y-127934315D02*
X99434315Y-127934315D01*
D17*
X83842368Y-158212695D02*
X83842368Y-158218648D01*
X83842368Y-158218648D02*
X83847940Y-158224220D01*
X112160050Y-87979250D02*
X112058450Y-87877650D01*
X112890300Y-97497900D02*
X112852200Y-97536000D01*
X112852200Y-97536000D02*
X112776000Y-97536000D01*
X112712500Y-97599500D02*
X112776000Y-97536000D01*
X77724000Y-152044400D02*
X83121500Y-157441900D01*
X83121500Y-157441900D02*
X83205320Y-157525720D01*
X83205320Y-157525720D02*
X83832700Y-158153100D01*
X77724000Y-132588000D02*
X77724000Y-152044400D01*
X112712500Y-97599500D02*
X112401350Y-97910650D01*
X112401350Y-97910650D02*
X77724000Y-132588000D01*
X112160050Y-87979250D02*
X112191800Y-88011000D01*
X112102900Y-87922100D02*
X112191800Y-88011000D01*
X112058450Y-87877650D02*
X112102900Y-87922100D01*
X110461074Y-86280274D02*
X112058450Y-87877650D01*
X110461074Y-84784733D02*
X110461074Y-86280274D01*
D19*
G36*
X161822682Y-17430610D02*
X191343925Y-37156075D01*
X211069390Y-66677318D01*
X217996052Y-101500000D01*
X211069390Y-136322682D01*
X191343925Y-165843925D01*
X161822682Y-185569390D01*
X127000000Y-192496052D01*
X92177318Y-185569390D01*
X83873347Y-180020853D01*
X126258752Y-180020853D01*
X126335956Y-180269563D01*
X126786677Y-180432329D01*
X126725968Y-180492933D01*
X126583322Y-180836461D01*
X126582998Y-181208427D01*
X126725043Y-181552203D01*
X126987833Y-181815452D01*
X127331361Y-181958098D01*
X127703327Y-181958422D01*
X128018150Y-181828340D01*
X129712459Y-181922468D01*
X129712278Y-182130447D01*
X129796739Y-182334859D01*
X129710769Y-182984412D01*
X129687608Y-183007533D01*
X129544962Y-183351061D01*
X129544638Y-183723027D01*
X129686683Y-184066803D01*
X129949473Y-184330052D01*
X130293001Y-184472698D01*
X130664967Y-184473022D01*
X131008743Y-184330977D01*
X131271992Y-184068187D01*
X131414638Y-183724659D01*
X131414962Y-183352693D01*
X131363177Y-183227363D01*
X131473454Y-182394154D01*
X131582278Y-182132079D01*
X131582370Y-182026352D01*
X132556922Y-182080494D01*
X132580189Y-182077195D01*
X132603240Y-182081780D01*
X153195020Y-182081780D01*
X153514561Y-182018219D01*
X153785454Y-181837214D01*
X170922008Y-164700660D01*
X171088821Y-164667479D01*
X171359714Y-164486474D01*
X177227114Y-158619074D01*
X177364064Y-158414114D01*
X177826075Y-157962347D01*
X182490938Y-157962347D01*
X182632983Y-158306123D01*
X182895773Y-158569372D01*
X183239301Y-158712018D01*
X183611267Y-158712342D01*
X183955043Y-158570297D01*
X184218292Y-158307507D01*
X184335096Y-158026214D01*
X185682812Y-156578562D01*
X185745653Y-156641512D01*
X185906698Y-156708384D01*
X186516960Y-157435953D01*
X186516838Y-157576267D01*
X186658883Y-157920043D01*
X186921673Y-158183292D01*
X187265201Y-158325938D01*
X187637167Y-158326262D01*
X187980943Y-158184217D01*
X188244192Y-157921427D01*
X188386838Y-157577899D01*
X188387162Y-157205933D01*
X188245117Y-156862157D01*
X188058820Y-156675534D01*
X187211141Y-155664911D01*
X187211142Y-155664153D01*
X187069097Y-155320377D01*
X186957870Y-155208956D01*
X188901352Y-153121362D01*
X188979263Y-152995226D01*
X189059649Y-152874919D01*
X201414735Y-140519833D01*
X201590794Y-140402194D01*
X201870194Y-140122794D01*
X201978808Y-139960241D01*
X202051199Y-139851901D01*
X202114760Y-139532360D01*
X202114760Y-102420853D01*
X203148752Y-102420853D01*
X203225956Y-102669563D01*
X203772250Y-102866843D01*
X204352456Y-102840048D01*
X204764044Y-102669563D01*
X204841248Y-102420853D01*
X203995000Y-101574605D01*
X203148752Y-102420853D01*
X202114760Y-102420853D01*
X202114760Y-101172250D01*
X202523157Y-101172250D01*
X202549952Y-101752456D01*
X202720437Y-102164044D01*
X202969147Y-102241248D01*
X203815395Y-101395000D01*
X204174605Y-101395000D01*
X205020853Y-102241248D01*
X205269563Y-102164044D01*
X205466843Y-101617750D01*
X205440048Y-101037544D01*
X205269563Y-100625956D01*
X205020853Y-100548752D01*
X204174605Y-101395000D01*
X203815395Y-101395000D01*
X202969147Y-100548752D01*
X202720437Y-100625956D01*
X202523157Y-101172250D01*
X202114760Y-101172250D01*
X202114760Y-100369147D01*
X203148752Y-100369147D01*
X203995000Y-101215395D01*
X204841248Y-100369147D01*
X204764044Y-100120437D01*
X204217750Y-99923157D01*
X203637544Y-99949952D01*
X203225956Y-100120437D01*
X203148752Y-100369147D01*
X202114760Y-100369147D01*
X202114760Y-98161354D01*
X202214598Y-97920919D01*
X202214922Y-97548953D01*
X202072877Y-97205177D01*
X201810087Y-96941928D01*
X201466559Y-96799282D01*
X201094593Y-96798958D01*
X200750817Y-96941003D01*
X200487568Y-97203793D01*
X200344922Y-97547321D01*
X200344598Y-97919287D01*
X200444760Y-98161698D01*
X200444760Y-139139631D01*
X200409926Y-139162906D01*
X187699766Y-151873066D01*
X187518761Y-152143959D01*
X187515814Y-152158775D01*
X183102690Y-156899139D01*
X182897157Y-156984063D01*
X182633908Y-157246853D01*
X182491262Y-157590381D01*
X182490938Y-157962347D01*
X177826075Y-157962347D01*
X179236725Y-156582975D01*
X180014750Y-156582975D01*
X180261540Y-157108761D01*
X180690754Y-157500082D01*
X181102342Y-157670567D01*
X181332798Y-157549294D01*
X181332798Y-156352519D01*
X181586798Y-156352519D01*
X181586798Y-157549294D01*
X181817254Y-157670567D01*
X182343040Y-157423777D01*
X182734361Y-156994563D01*
X182904846Y-156582975D01*
X182783573Y-156352519D01*
X181586798Y-156352519D01*
X181332798Y-156352519D01*
X180136023Y-156352519D01*
X180014750Y-156582975D01*
X179236725Y-156582975D01*
X180046678Y-155790981D01*
X180014750Y-155868063D01*
X180136023Y-156098519D01*
X181153190Y-156098519D01*
X181266049Y-156211378D01*
X181445657Y-156031770D01*
X181332798Y-155918911D01*
X181332798Y-154901744D01*
X181586798Y-154901744D01*
X181586798Y-156098519D01*
X182783573Y-156098519D01*
X182904846Y-155868063D01*
X182658056Y-155342277D01*
X182228842Y-154950956D01*
X181817254Y-154780471D01*
X181586798Y-154901744D01*
X181332798Y-154901744D01*
X181102342Y-154780471D01*
X181059573Y-154800546D01*
X182640980Y-153254203D01*
X182893323Y-153149937D01*
X183156572Y-152887147D01*
X183299218Y-152543619D01*
X183299542Y-152171653D01*
X183157497Y-151827877D01*
X182894707Y-151564628D01*
X182551179Y-151421982D01*
X182179213Y-151421658D01*
X181835437Y-151563703D01*
X181572188Y-151826493D01*
X181476340Y-152057320D01*
X176052902Y-157360504D01*
X176050209Y-157364438D01*
X176046246Y-157367086D01*
X175958296Y-157498713D01*
X175898751Y-157585701D01*
X174958945Y-158525507D01*
X174844701Y-158548232D01*
X174598139Y-158712979D01*
X174433392Y-158959541D01*
X174410667Y-159073785D01*
X172814009Y-160670443D01*
X172769521Y-160679292D01*
X172522959Y-160844039D01*
X170246414Y-163120584D01*
X170226219Y-163124601D01*
X170144656Y-163179100D01*
X169955326Y-163305606D01*
X152849152Y-180411780D01*
X132626409Y-180411780D01*
X127911213Y-180149825D01*
X127951248Y-180020853D01*
X127105000Y-179174605D01*
X126258752Y-180020853D01*
X83873347Y-180020853D01*
X82004680Y-178772250D01*
X125633157Y-178772250D01*
X125659952Y-179352456D01*
X125830437Y-179764044D01*
X126079147Y-179841248D01*
X126925395Y-178995000D01*
X127284605Y-178995000D01*
X128130853Y-179841248D01*
X128379563Y-179764044D01*
X128576843Y-179217750D01*
X128550048Y-178637544D01*
X128379563Y-178225956D01*
X128130853Y-178148752D01*
X127284605Y-178995000D01*
X126925395Y-178995000D01*
X126079147Y-178148752D01*
X125830437Y-178225956D01*
X125633157Y-178772250D01*
X82004680Y-178772250D01*
X80802752Y-177969147D01*
X126258752Y-177969147D01*
X127105000Y-178815395D01*
X127951248Y-177969147D01*
X127874044Y-177720437D01*
X127327750Y-177523157D01*
X126747544Y-177549952D01*
X126335956Y-177720437D01*
X126258752Y-177969147D01*
X80802752Y-177969147D01*
X62656075Y-165843925D01*
X57233633Y-157728667D01*
X69854638Y-157728667D01*
X69996683Y-158072443D01*
X70259473Y-158335692D01*
X70510736Y-158440026D01*
X72491489Y-160386921D01*
X72359808Y-160518373D01*
X72259222Y-160760610D01*
X71266166Y-161753666D01*
X71090986Y-162015841D01*
X71064408Y-162042373D01*
X70921762Y-162385901D01*
X70921438Y-162757867D01*
X71063483Y-163101643D01*
X71326273Y-163364892D01*
X71669801Y-163507538D01*
X72041767Y-163507862D01*
X72385543Y-163365817D01*
X72648792Y-163103027D01*
X72791438Y-162759499D01*
X72791586Y-162589982D01*
X73440333Y-161941235D01*
X73680943Y-161841817D01*
X73825188Y-161697823D01*
X76148277Y-163981202D01*
X76281577Y-164068617D01*
X76414059Y-164157139D01*
X76417655Y-164157854D01*
X76420721Y-164159865D01*
X76478058Y-164170757D01*
X89313731Y-176968898D01*
X89448912Y-177058937D01*
X89583759Y-177149039D01*
X89584370Y-177149160D01*
X89584890Y-177149507D01*
X89744299Y-177180973D01*
X89903300Y-177212600D01*
X116814600Y-177212600D01*
X116817349Y-177212053D01*
X116820102Y-177212582D01*
X129416183Y-177129585D01*
X129734201Y-177261638D01*
X130106167Y-177261962D01*
X130449943Y-177119917D01*
X130713192Y-176857127D01*
X130855838Y-176513599D01*
X130856162Y-176141633D01*
X130714117Y-175797857D01*
X130451327Y-175534608D01*
X130107799Y-175391962D01*
X129735833Y-175391638D01*
X129573994Y-175458508D01*
X116811830Y-175542600D01*
X90248452Y-175542600D01*
X77462869Y-162794402D01*
X77327923Y-162704520D01*
X77192841Y-162614261D01*
X77192228Y-162614139D01*
X77191710Y-162613794D01*
X77126319Y-162600886D01*
X71783753Y-157349643D01*
X71917025Y-157404846D01*
X72147481Y-157283573D01*
X72147481Y-156266406D01*
X72260340Y-156153547D01*
X72193591Y-156086798D01*
X72401481Y-156086798D01*
X72401481Y-157283573D01*
X72631937Y-157404846D01*
X73157723Y-157158056D01*
X73549044Y-156728842D01*
X73719529Y-156317254D01*
X73598256Y-156086798D01*
X72401481Y-156086798D01*
X72193591Y-156086798D01*
X72080732Y-155973939D01*
X71967873Y-156086798D01*
X70950706Y-156086798D01*
X70829433Y-156317254D01*
X70966208Y-156608653D01*
X70604633Y-156608338D01*
X70260857Y-156750383D01*
X69997608Y-157013173D01*
X69854962Y-157356701D01*
X69854638Y-157728667D01*
X57233633Y-157728667D01*
X55812868Y-155602342D01*
X70829433Y-155602342D01*
X70950706Y-155832798D01*
X72147481Y-155832798D01*
X72147481Y-154636023D01*
X72401481Y-154636023D01*
X72401481Y-155832798D01*
X73598256Y-155832798D01*
X73719529Y-155602342D01*
X73472739Y-155076556D01*
X73043525Y-154685235D01*
X72631937Y-154514750D01*
X72401481Y-154636023D01*
X72147481Y-154636023D01*
X71917025Y-154514750D01*
X71391239Y-154761540D01*
X70999918Y-155190754D01*
X70829433Y-155602342D01*
X55812868Y-155602342D01*
X54129317Y-153082730D01*
X66157270Y-153082730D01*
X66215122Y-153373569D01*
X66379869Y-153620131D01*
X66626431Y-153784878D01*
X66917270Y-153842730D01*
X67252110Y-153842730D01*
X67542949Y-153784878D01*
X67789511Y-153620131D01*
X67954258Y-153373569D01*
X68012110Y-153082730D01*
X67954258Y-152791891D01*
X67789511Y-152545329D01*
X67542949Y-152380582D01*
X67252110Y-152322730D01*
X66917270Y-152322730D01*
X66626431Y-152380582D01*
X66379869Y-152545329D01*
X66215122Y-152791891D01*
X66157270Y-153082730D01*
X54129317Y-153082730D01*
X42930610Y-136322682D01*
X42187736Y-132588000D01*
X76889000Y-132588000D01*
X76889000Y-152044400D01*
X76952561Y-152363941D01*
X77132634Y-152633439D01*
X77133566Y-152634834D01*
X82916059Y-158417327D01*
X83054823Y-158753163D01*
X83317613Y-159016412D01*
X83661141Y-159159058D01*
X84033107Y-159159382D01*
X84376883Y-159017337D01*
X84640132Y-158754547D01*
X84782778Y-158411019D01*
X84783102Y-158039053D01*
X84641057Y-157695277D01*
X84378267Y-157432028D01*
X84231590Y-157371122D01*
X78559000Y-151698532D01*
X78559000Y-132933868D01*
X98567894Y-112924974D01*
X143472325Y-112924974D01*
X143704004Y-113485678D01*
X144132619Y-113915042D01*
X144692918Y-114147698D01*
X145299601Y-114148228D01*
X145860305Y-113916549D01*
X146289669Y-113487934D01*
X146522325Y-112927635D01*
X146522855Y-112320952D01*
X146291176Y-111760248D01*
X145862561Y-111330884D01*
X145302262Y-111098228D01*
X144695579Y-111097698D01*
X144134875Y-111329377D01*
X143705511Y-111757992D01*
X143472855Y-112318291D01*
X143472325Y-112924974D01*
X98567894Y-112924974D01*
X113059820Y-98433048D01*
X113075467Y-98433062D01*
X113419243Y-98291017D01*
X113682492Y-98028227D01*
X113825138Y-97684699D01*
X113825462Y-97312733D01*
X113683417Y-96968957D01*
X113420627Y-96705708D01*
X113077099Y-96563062D01*
X112705133Y-96562738D01*
X112361357Y-96704783D01*
X112098108Y-96967573D01*
X112051631Y-97079501D01*
X77133566Y-131997566D01*
X76952561Y-132268459D01*
X76889000Y-132588000D01*
X42187736Y-132588000D01*
X36003948Y-101500000D01*
X36268043Y-100172300D01*
X42992700Y-100172300D01*
X42992700Y-108280200D01*
X43056261Y-108599741D01*
X43226312Y-108854240D01*
X43237266Y-108870634D01*
X50971566Y-116604934D01*
X51242459Y-116785939D01*
X51562000Y-116849500D01*
X81978500Y-116849500D01*
X82298041Y-116785939D01*
X82568934Y-116604934D01*
X102834868Y-96339000D01*
X111633000Y-96339000D01*
X111952541Y-96275439D01*
X112223434Y-96094434D01*
X114004518Y-94313350D01*
X115436650Y-94313350D01*
X115756191Y-94249789D01*
X116027084Y-94068784D01*
X121953977Y-88141891D01*
X130571069Y-88141891D01*
X130802748Y-88702595D01*
X131231363Y-89131959D01*
X131791662Y-89364615D01*
X132398345Y-89365145D01*
X132959049Y-89133466D01*
X133388413Y-88704851D01*
X133621069Y-88144552D01*
X133621599Y-87537869D01*
X133389920Y-86977165D01*
X132961305Y-86547801D01*
X132401006Y-86315145D01*
X131794323Y-86314615D01*
X131233619Y-86546294D01*
X130804255Y-86974909D01*
X130571599Y-87535208D01*
X130571069Y-88141891D01*
X121953977Y-88141891D01*
X125319697Y-84776171D01*
X125349000Y-84782000D01*
X125668541Y-84718439D01*
X125939434Y-84537434D01*
X126120439Y-84266541D01*
X126184000Y-83947000D01*
X126184000Y-81153000D01*
X126120439Y-80833459D01*
X125939434Y-80562566D01*
X124814119Y-79437251D01*
X124814119Y-78917541D01*
X125091363Y-78695034D01*
X125360678Y-78204150D01*
X125421641Y-77647570D01*
X125264969Y-77110027D01*
X125239007Y-77060153D01*
X124888551Y-76623484D01*
X124397667Y-76354169D01*
X123991151Y-76309643D01*
X124187836Y-75951143D01*
X124248799Y-75394563D01*
X124092127Y-74857020D01*
X124066165Y-74807146D01*
X123715709Y-74370477D01*
X123224825Y-74101162D01*
X122668245Y-74040199D01*
X122130702Y-74196871D01*
X121694033Y-74547327D01*
X121424718Y-75038211D01*
X121374682Y-75495027D01*
X120971818Y-75274003D01*
X120415238Y-75213040D01*
X119877695Y-75369712D01*
X119441026Y-75720168D01*
X119171711Y-76211052D01*
X119121675Y-76667869D01*
X118718810Y-76446844D01*
X118162230Y-76385881D01*
X117624687Y-76542553D01*
X117188018Y-76893009D01*
X116918703Y-77383893D01*
X116868667Y-77840710D01*
X116465803Y-77619686D01*
X115909223Y-77558723D01*
X115371680Y-77715395D01*
X114935011Y-78065851D01*
X114665696Y-78556735D01*
X114615660Y-79013552D01*
X114212795Y-78792527D01*
X113656215Y-78731564D01*
X113118672Y-78888236D01*
X112682003Y-79238692D01*
X112412688Y-79729576D01*
X112362652Y-80186393D01*
X111959788Y-79965369D01*
X111403208Y-79904406D01*
X110865665Y-80061078D01*
X110428996Y-80411534D01*
X110159681Y-80902418D01*
X110109645Y-81359235D01*
X109706780Y-81138210D01*
X109150200Y-81077247D01*
X108612657Y-81233919D01*
X108175988Y-81584375D01*
X107906673Y-82075259D01*
X107856637Y-82532076D01*
X107453773Y-82311052D01*
X106897193Y-82250089D01*
X106359650Y-82406761D01*
X105922981Y-82757217D01*
X105653666Y-83248101D01*
X105592703Y-83804681D01*
X105749375Y-84342224D01*
X105775338Y-84392098D01*
X106125793Y-84828767D01*
X106616677Y-85098083D01*
X107023192Y-85142608D01*
X106826507Y-85501108D01*
X106765544Y-86057688D01*
X106922216Y-86595231D01*
X106948179Y-86645105D01*
X107298634Y-87081774D01*
X107373066Y-87122610D01*
X107373066Y-88037926D01*
X107436627Y-88357467D01*
X107497117Y-88447996D01*
X107617632Y-88628360D01*
X108316035Y-89326763D01*
X108415453Y-89567373D01*
X108678243Y-89830622D01*
X109021771Y-89973268D01*
X109393737Y-89973592D01*
X109737513Y-89831547D01*
X110000762Y-89568757D01*
X110143408Y-89225229D01*
X110143732Y-88853263D01*
X110001687Y-88509487D01*
X109738897Y-88246238D01*
X109496660Y-88145652D01*
X109043066Y-87692058D01*
X109043066Y-87127431D01*
X109320310Y-86904924D01*
X109589625Y-86414040D01*
X109626074Y-86081268D01*
X109626074Y-86280274D01*
X109689635Y-86599815D01*
X109823895Y-86800749D01*
X109870640Y-86870708D01*
X111165915Y-88165983D01*
X111265333Y-88406593D01*
X111528123Y-88669842D01*
X111871651Y-88812488D01*
X112023990Y-88812621D01*
X112191800Y-88846000D01*
X112511340Y-88782440D01*
X112782234Y-88601434D01*
X112963240Y-88330540D01*
X113026800Y-88011000D01*
X112993480Y-87843490D01*
X112993612Y-87692483D01*
X112851567Y-87348707D01*
X112588777Y-87085458D01*
X112346540Y-86984872D01*
X111307271Y-85945603D01*
X111573318Y-85732083D01*
X111842633Y-85241199D01*
X111892669Y-84784382D01*
X112295533Y-85005407D01*
X112852113Y-85066369D01*
X113389656Y-84909697D01*
X113826325Y-84559241D01*
X114095640Y-84068357D01*
X114145676Y-83611540D01*
X114548541Y-83832566D01*
X115105121Y-83893528D01*
X115642664Y-83736856D01*
X116079333Y-83386400D01*
X116348648Y-82895516D01*
X116398684Y-82438699D01*
X116801548Y-82659724D01*
X117358128Y-82720686D01*
X117895671Y-82564014D01*
X118332340Y-82213558D01*
X118601655Y-81722674D01*
X118651691Y-81265857D01*
X119054556Y-81486883D01*
X119611136Y-81547845D01*
X120148679Y-81391173D01*
X120585348Y-81040717D01*
X120854663Y-80549833D01*
X120891111Y-80217070D01*
X120891111Y-82055121D01*
X120834266Y-82111966D01*
X120653261Y-82382859D01*
X120589700Y-82702400D01*
X120589700Y-82826432D01*
X111033132Y-92383000D01*
X102180488Y-92383000D01*
X102170239Y-92376152D01*
X101879400Y-92318300D01*
X100990400Y-92318300D01*
X100699561Y-92376152D01*
X100620902Y-92428710D01*
X100531159Y-92446561D01*
X100349901Y-92567674D01*
X100260266Y-92627566D01*
X81353232Y-111534600D01*
X52352368Y-111534600D01*
X47375420Y-106557652D01*
X47375420Y-102630853D01*
X49158752Y-102630853D01*
X49235956Y-102879563D01*
X49782250Y-103076843D01*
X50362456Y-103050048D01*
X50774044Y-102879563D01*
X50851248Y-102630853D01*
X50005000Y-101784605D01*
X49158752Y-102630853D01*
X47375420Y-102630853D01*
X47375420Y-101564868D01*
X47558038Y-101382250D01*
X48533157Y-101382250D01*
X48559952Y-101962456D01*
X48730437Y-102374044D01*
X48979147Y-102451248D01*
X49825395Y-101605000D01*
X50184605Y-101605000D01*
X51030853Y-102451248D01*
X51279563Y-102374044D01*
X51356920Y-102159832D01*
X51356920Y-103880920D01*
X51359035Y-103891550D01*
X51357192Y-103902231D01*
X51390742Y-104050956D01*
X51420481Y-104200461D01*
X51426501Y-104209471D01*
X51428887Y-104220046D01*
X51704001Y-104839052D01*
X51703798Y-105071927D01*
X51845843Y-105415703D01*
X52108633Y-105678952D01*
X52452161Y-105821598D01*
X52824127Y-105821922D01*
X53167903Y-105679877D01*
X53431152Y-105417087D01*
X53573798Y-105073559D01*
X53574122Y-104701593D01*
X53432077Y-104357817D01*
X53225784Y-104151164D01*
X53026920Y-103703720D01*
X53026920Y-100300000D01*
X62452560Y-100300000D01*
X62452560Y-101100000D01*
X62496838Y-101335317D01*
X62603759Y-101501477D01*
X62503569Y-101648110D01*
X62452560Y-101900000D01*
X62452560Y-102700000D01*
X62496838Y-102935317D01*
X62635910Y-103151441D01*
X62848110Y-103296431D01*
X63100000Y-103347440D01*
X63900000Y-103347440D01*
X64135317Y-103303162D01*
X64351441Y-103164090D01*
X64496431Y-102951890D01*
X64547440Y-102700000D01*
X64547440Y-102433428D01*
X82024750Y-84956119D01*
X82205755Y-84685225D01*
X82269315Y-84365685D01*
X82269315Y-57900685D01*
X107134315Y-57900685D01*
X107453856Y-57837124D01*
X107724749Y-57656119D01*
X126200000Y-39180868D01*
X143543881Y-56524750D01*
X143814775Y-56705755D01*
X144134315Y-56769315D01*
X170599315Y-56769315D01*
X170599315Y-81634315D01*
X170662876Y-81953856D01*
X170803957Y-82164999D01*
X170843881Y-82224749D01*
X189319132Y-100700000D01*
X172475251Y-117543881D01*
X172294246Y-117814774D01*
X172230685Y-118134315D01*
X172230685Y-145599315D01*
X146365685Y-145599315D01*
X146046145Y-145662875D01*
X145775251Y-145843880D01*
X127800000Y-163819132D01*
X110456119Y-146475251D01*
X110185226Y-146294246D01*
X109865685Y-146230685D01*
X84895079Y-146230685D01*
X85005440Y-146157494D01*
X85358994Y-145803940D01*
X85494079Y-145606237D01*
X85548563Y-145355075D01*
X85501039Y-145102504D01*
X85358994Y-144888322D01*
X85241210Y-144770538D01*
X85241210Y-131522158D01*
X99469368Y-117294000D01*
X133982032Y-117294000D01*
X135784657Y-119096625D01*
X135776842Y-119110870D01*
X135726806Y-119567687D01*
X135323942Y-119346663D01*
X134767362Y-119285700D01*
X134639062Y-119323094D01*
X134132212Y-118816244D01*
X134045470Y-118758285D01*
X133861319Y-118635239D01*
X133541778Y-118571678D01*
X101776522Y-118571678D01*
X101456981Y-118635239D01*
X101272830Y-118758285D01*
X101186088Y-118816244D01*
X91923456Y-128078876D01*
X91895783Y-128120291D01*
X91857923Y-128152656D01*
X91806020Y-128254632D01*
X91742451Y-128349770D01*
X91732734Y-128398619D01*
X91710140Y-128443011D01*
X91701213Y-128557088D01*
X91678890Y-128669310D01*
X91688607Y-128718161D01*
X91684721Y-128767820D01*
X92486502Y-135516524D01*
X92450106Y-135552920D01*
X92315021Y-135750623D01*
X92260537Y-136001785D01*
X92276169Y-136084865D01*
X92209753Y-136070457D01*
X91957182Y-136117981D01*
X91743000Y-136260026D01*
X91485207Y-136517819D01*
X91457809Y-136476506D01*
X90892124Y-135910821D01*
X90694421Y-135775736D01*
X90515556Y-135736935D01*
X90484969Y-135662909D01*
X90222179Y-135399660D01*
X89878651Y-135257014D01*
X89506685Y-135256690D01*
X89162909Y-135398735D01*
X88899660Y-135661525D01*
X88757014Y-136005053D01*
X88756690Y-136377019D01*
X88898735Y-136720795D01*
X89161525Y-136984044D01*
X89238290Y-137015920D01*
X89268776Y-137177942D01*
X89410821Y-137392124D01*
X89976506Y-137957809D01*
X90174209Y-138092894D01*
X90367306Y-138134782D01*
X90400146Y-138309312D01*
X90542191Y-138523494D01*
X91107876Y-139089179D01*
X91305579Y-139224264D01*
X91556741Y-139278748D01*
X91591365Y-139272233D01*
X97905466Y-145586334D01*
X98176359Y-145767339D01*
X98495900Y-145830900D01*
X109979032Y-145830900D01*
X120669166Y-156521034D01*
X120940059Y-156702039D01*
X121259600Y-156765600D01*
X124637800Y-156765600D01*
X124957341Y-156702039D01*
X125228234Y-156521034D01*
X128202252Y-153547016D01*
X128435317Y-153503162D01*
X128651441Y-153364090D01*
X128796431Y-153151890D01*
X128847440Y-152900000D01*
X128847440Y-152633428D01*
X143211553Y-138269315D01*
X161800514Y-138269315D01*
X161775736Y-138305579D01*
X161736935Y-138484444D01*
X161662909Y-138515031D01*
X161399660Y-138777821D01*
X161257014Y-139121349D01*
X161256690Y-139493315D01*
X161398735Y-139837091D01*
X161661525Y-140100340D01*
X162005053Y-140242986D01*
X162377019Y-140243310D01*
X162720795Y-140101265D01*
X162984044Y-139838475D01*
X163015920Y-139761710D01*
X163177942Y-139731224D01*
X163392124Y-139589179D01*
X163957809Y-139023494D01*
X164092894Y-138825791D01*
X164134782Y-138632694D01*
X164309312Y-138599854D01*
X164523494Y-138457809D01*
X165089179Y-137892124D01*
X165224264Y-137694421D01*
X165278748Y-137443259D01*
X165231224Y-137190688D01*
X165089179Y-136976506D01*
X164900685Y-136788012D01*
X164900685Y-114980183D01*
X176988716Y-102892152D01*
X176996838Y-102935317D01*
X177095878Y-103089229D01*
X177065162Y-103163201D01*
X177064838Y-103535167D01*
X177206883Y-103878943D01*
X177469673Y-104142192D01*
X177813201Y-104284838D01*
X178185167Y-104285162D01*
X178528943Y-104143117D01*
X178792192Y-103880327D01*
X178934838Y-103536799D01*
X178935162Y-103164833D01*
X178903421Y-103088014D01*
X178996431Y-102951890D01*
X179047440Y-102700000D01*
X179047440Y-101900000D01*
X179003162Y-101664683D01*
X178896241Y-101498523D01*
X178996431Y-101351890D01*
X179047440Y-101100000D01*
X179047440Y-100300000D01*
X179003162Y-100064683D01*
X178864090Y-99848559D01*
X178651890Y-99703569D01*
X178400000Y-99652560D01*
X178133428Y-99652560D01*
X163269315Y-84788447D01*
X163269315Y-67199486D01*
X163305579Y-67224264D01*
X163484444Y-67263065D01*
X163515031Y-67337091D01*
X163777821Y-67600340D01*
X164121349Y-67742986D01*
X164493315Y-67743310D01*
X164837091Y-67601265D01*
X165100340Y-67338475D01*
X165242986Y-66994947D01*
X165243310Y-66622981D01*
X165101265Y-66279205D01*
X164838475Y-66015956D01*
X164761710Y-65984080D01*
X164731224Y-65822058D01*
X164589179Y-65607876D01*
X164023494Y-65042191D01*
X163825791Y-64907106D01*
X163632694Y-64865218D01*
X163599854Y-64690688D01*
X163457809Y-64476506D01*
X162892124Y-63910821D01*
X162694421Y-63775736D01*
X162443259Y-63721252D01*
X162190688Y-63768776D01*
X161976506Y-63910821D01*
X161788012Y-64099315D01*
X140980183Y-64099315D01*
X129242727Y-52361859D01*
X129449714Y-52223554D01*
X129630719Y-51952661D01*
X129694280Y-51633120D01*
X129694280Y-50904886D01*
X129784838Y-50686799D01*
X129785162Y-50314833D01*
X129643117Y-49971057D01*
X129380327Y-49707808D01*
X129036799Y-49565162D01*
X128664833Y-49564838D01*
X128588014Y-49596579D01*
X128451890Y-49503569D01*
X128200000Y-49452560D01*
X127400000Y-49452560D01*
X127164683Y-49496838D01*
X126998523Y-49603759D01*
X126851890Y-49503569D01*
X126600000Y-49452560D01*
X125800000Y-49452560D01*
X125564683Y-49496838D01*
X125348559Y-49635910D01*
X125203569Y-49848110D01*
X125152560Y-50100000D01*
X125152560Y-50666572D01*
X110588447Y-65230685D01*
X92699486Y-65230685D01*
X92724264Y-65194421D01*
X92763065Y-65015556D01*
X92837091Y-64984969D01*
X93100340Y-64722179D01*
X93242986Y-64378651D01*
X93243310Y-64006685D01*
X93101265Y-63662909D01*
X92838475Y-63399660D01*
X92494947Y-63257014D01*
X92122981Y-63256690D01*
X91779205Y-63398735D01*
X91515956Y-63661525D01*
X91484080Y-63738290D01*
X91322058Y-63768776D01*
X91107876Y-63910821D01*
X90542191Y-64476506D01*
X90407106Y-64674209D01*
X90365218Y-64867306D01*
X90190688Y-64900146D01*
X89976506Y-65042191D01*
X89410821Y-65607876D01*
X89275736Y-65805579D01*
X89221252Y-66056741D01*
X89268776Y-66309312D01*
X89410821Y-66523494D01*
X89599315Y-66711988D01*
X89599315Y-78040917D01*
X72663166Y-94977066D01*
X72482161Y-95247959D01*
X72418600Y-95567500D01*
X72418600Y-101790500D01*
X72482161Y-102110041D01*
X72571043Y-102243062D01*
X72663166Y-102380934D01*
X73172666Y-102890434D01*
X73443559Y-103071439D01*
X73763100Y-103135000D01*
X75125331Y-103135000D01*
X75135910Y-103151441D01*
X75348110Y-103296431D01*
X75600000Y-103347440D01*
X76400000Y-103347440D01*
X76635317Y-103303162D01*
X76851441Y-103164090D01*
X76996431Y-102951890D01*
X77047440Y-102700000D01*
X77047440Y-101900000D01*
X77003162Y-101664683D01*
X76896241Y-101498523D01*
X76996431Y-101351890D01*
X77047440Y-101100000D01*
X77047440Y-100300000D01*
X77003162Y-100064683D01*
X76864090Y-99848559D01*
X76835000Y-99828683D01*
X76835000Y-99637240D01*
X76820006Y-99561862D01*
X76820202Y-99337113D01*
X76678157Y-98993337D01*
X76415367Y-98730088D01*
X76071839Y-98587442D01*
X75699873Y-98587118D01*
X75356097Y-98729163D01*
X75092848Y-98991953D01*
X74950202Y-99335481D01*
X74949878Y-99707447D01*
X75057826Y-99968702D01*
X75003569Y-100048110D01*
X74952560Y-100300000D01*
X74952560Y-101100000D01*
X74996838Y-101335317D01*
X75080287Y-101465000D01*
X74108968Y-101465000D01*
X74088600Y-101444632D01*
X74088600Y-95913368D01*
X91024749Y-78977219D01*
X91062631Y-78920525D01*
X91205754Y-78706326D01*
X91269315Y-78386785D01*
X91269315Y-66900685D01*
X110934315Y-66900685D01*
X111253856Y-66837124D01*
X111524749Y-66656119D01*
X126350000Y-51830868D01*
X140043881Y-65524749D01*
X140314774Y-65705754D01*
X140634315Y-65769315D01*
X161599315Y-65769315D01*
X161599315Y-85134315D01*
X161662876Y-85453856D01*
X161820556Y-85689840D01*
X161843881Y-85724749D01*
X176819132Y-100700000D01*
X163475251Y-114043881D01*
X163294246Y-114314774D01*
X163230685Y-114634315D01*
X163230685Y-136599315D01*
X142865685Y-136599315D01*
X142546144Y-136662876D01*
X142309344Y-136821101D01*
X142275251Y-136843881D01*
X127666572Y-151452560D01*
X127400000Y-151452560D01*
X127164683Y-151496838D01*
X126998523Y-151603759D01*
X126851890Y-151503569D01*
X126600000Y-151452560D01*
X125800000Y-151452560D01*
X125564683Y-151496838D01*
X125410771Y-151595878D01*
X125336799Y-151565162D01*
X124964833Y-151564838D01*
X124621057Y-151706883D01*
X124357808Y-151969673D01*
X124215162Y-152313201D01*
X124214838Y-152685167D01*
X124356883Y-153028943D01*
X124619673Y-153292192D01*
X124963201Y-153434838D01*
X125335167Y-153435162D01*
X125411986Y-153403421D01*
X125548110Y-153496431D01*
X125800000Y-153547440D01*
X125840092Y-153547440D01*
X124291932Y-155095600D01*
X121605468Y-155095600D01*
X110915334Y-144405466D01*
X110747078Y-144293041D01*
X110644441Y-144224461D01*
X110324900Y-144160900D01*
X98841768Y-144160900D01*
X92884342Y-138203474D01*
X92941460Y-138165594D01*
X93295014Y-137812040D01*
X93430099Y-137614337D01*
X93484583Y-137363175D01*
X93468951Y-137280095D01*
X93535367Y-137294503D01*
X93787938Y-137246979D01*
X94002120Y-137104934D01*
X94355674Y-136751380D01*
X94490759Y-136553677D01*
X94545243Y-136302515D01*
X94497719Y-136049944D01*
X94355674Y-135835762D01*
X94186018Y-135666106D01*
X93390866Y-128973202D01*
X102122390Y-120241678D01*
X133195910Y-120241678D01*
X133495612Y-120541380D01*
X133473799Y-120740529D01*
X133070934Y-120519504D01*
X132514354Y-120458541D01*
X131976811Y-120615213D01*
X131540142Y-120965669D01*
X131478503Y-121078019D01*
X107753781Y-121078019D01*
X107434241Y-121141579D01*
X107163347Y-121322585D01*
X102400185Y-126085747D01*
X102322973Y-126068997D01*
X102070402Y-126116521D01*
X101856220Y-126258566D01*
X101502666Y-126612120D01*
X101367581Y-126809823D01*
X101313097Y-127060985D01*
X101328729Y-127144065D01*
X101262313Y-127129657D01*
X101009742Y-127177181D01*
X100795560Y-127319226D01*
X100529772Y-127585014D01*
X100457809Y-127476506D01*
X99892124Y-126910821D01*
X99694421Y-126775736D01*
X99515556Y-126736935D01*
X99484969Y-126662909D01*
X99222179Y-126399660D01*
X98878651Y-126257014D01*
X98506685Y-126256690D01*
X98162909Y-126398735D01*
X97899660Y-126661525D01*
X97757014Y-127005053D01*
X97756690Y-127377019D01*
X97898735Y-127720795D01*
X98161525Y-127984044D01*
X98238290Y-128015920D01*
X98268776Y-128177942D01*
X98410821Y-128392124D01*
X98976506Y-128957809D01*
X99174209Y-129092894D01*
X99324916Y-129125586D01*
X97199566Y-131250936D01*
X97018561Y-131521829D01*
X96955000Y-131841370D01*
X96955000Y-141617700D01*
X97018561Y-141937241D01*
X97085351Y-142037199D01*
X97199566Y-142208134D01*
X98621966Y-143630534D01*
X98892859Y-143811539D01*
X99212400Y-143875100D01*
X110512432Y-143875100D01*
X113646066Y-147008734D01*
X113916959Y-147189739D01*
X114236500Y-147253300D01*
X121793000Y-147253300D01*
X122112541Y-147189739D01*
X122383434Y-147008734D01*
X128378272Y-141013896D01*
X128435317Y-141003162D01*
X128651441Y-140864090D01*
X128796431Y-140651890D01*
X128847440Y-140400000D01*
X128847440Y-140133428D01*
X139711553Y-129269315D01*
X152800514Y-129269315D01*
X152775736Y-129305579D01*
X152738830Y-129475711D01*
X152676457Y-129501483D01*
X152413208Y-129764273D01*
X152270562Y-130107801D01*
X152270238Y-130479767D01*
X152412283Y-130823543D01*
X152675073Y-131086792D01*
X153018601Y-131229438D01*
X153390567Y-131229762D01*
X153734343Y-131087717D01*
X153997592Y-130824927D01*
X154024513Y-130760093D01*
X154177942Y-130731224D01*
X154392124Y-130589179D01*
X154957809Y-130023494D01*
X155092894Y-129825791D01*
X155134782Y-129632694D01*
X155309312Y-129599854D01*
X155523494Y-129457809D01*
X156089179Y-128892124D01*
X156224264Y-128694421D01*
X156278748Y-128443259D01*
X156231224Y-128190688D01*
X156089179Y-127976506D01*
X155900685Y-127788012D01*
X155900685Y-111480183D01*
X164488716Y-102892152D01*
X164496838Y-102935317D01*
X164595878Y-103089229D01*
X164565162Y-103163201D01*
X164564838Y-103535167D01*
X164706883Y-103878943D01*
X164969673Y-104142192D01*
X165313201Y-104284838D01*
X165685167Y-104285162D01*
X166028943Y-104143117D01*
X166292192Y-103880327D01*
X166434838Y-103536799D01*
X166435162Y-103164833D01*
X166403421Y-103088014D01*
X166496431Y-102951890D01*
X166547440Y-102700000D01*
X166547440Y-101900000D01*
X166503162Y-101664683D01*
X166396241Y-101498523D01*
X166496431Y-101351890D01*
X166547440Y-101100000D01*
X166547440Y-100300000D01*
X166503162Y-100064683D01*
X166364090Y-99848559D01*
X166151890Y-99703569D01*
X165900000Y-99652560D01*
X165633428Y-99652560D01*
X154269315Y-88288447D01*
X154269315Y-76199486D01*
X154305579Y-76224264D01*
X154467525Y-76259395D01*
X154488783Y-76310843D01*
X154751573Y-76574092D01*
X155095101Y-76716738D01*
X155467067Y-76717062D01*
X155810843Y-76575017D01*
X156074092Y-76312227D01*
X156216738Y-75968699D01*
X156217062Y-75596733D01*
X156075017Y-75252957D01*
X155812227Y-74989708D01*
X155758577Y-74967431D01*
X155731224Y-74822058D01*
X155589179Y-74607876D01*
X155023494Y-74042191D01*
X154825791Y-73907106D01*
X154632694Y-73865218D01*
X154599854Y-73690688D01*
X154457809Y-73476506D01*
X153892124Y-72910821D01*
X153694421Y-72775736D01*
X153443259Y-72721252D01*
X153190688Y-72768776D01*
X152976506Y-72910821D01*
X152788012Y-73099315D01*
X137674117Y-73099315D01*
X128522113Y-63947311D01*
X128589229Y-63904122D01*
X128663201Y-63934838D01*
X129035167Y-63935162D01*
X129378943Y-63793117D01*
X129642192Y-63530327D01*
X129784838Y-63186799D01*
X129785162Y-62814833D01*
X129643117Y-62471057D01*
X129380327Y-62207808D01*
X129036799Y-62065162D01*
X128664833Y-62064838D01*
X128588014Y-62096579D01*
X128451890Y-62003569D01*
X128200000Y-61952560D01*
X127400000Y-61952560D01*
X127164683Y-61996838D01*
X126998523Y-62103759D01*
X126851890Y-62003569D01*
X126600000Y-61952560D01*
X125800000Y-61952560D01*
X125564683Y-61996838D01*
X125348559Y-62135910D01*
X125203569Y-62348110D01*
X125152560Y-62600000D01*
X125152560Y-62866572D01*
X113788447Y-74230685D01*
X101699486Y-74230685D01*
X101724264Y-74194421D01*
X101763065Y-74015556D01*
X101837091Y-73984969D01*
X102100340Y-73722179D01*
X102242986Y-73378651D01*
X102243310Y-73006685D01*
X102101265Y-72662909D01*
X101838475Y-72399660D01*
X101494947Y-72257014D01*
X101122981Y-72256690D01*
X100779205Y-72398735D01*
X100515956Y-72661525D01*
X100484080Y-72738290D01*
X100322058Y-72768776D01*
X100107876Y-72910821D01*
X99542191Y-73476506D01*
X99407106Y-73674209D01*
X99365218Y-73867306D01*
X99190688Y-73900146D01*
X98976506Y-74042191D01*
X98788012Y-74230685D01*
X98416315Y-74230685D01*
X98096775Y-74294245D01*
X97825881Y-74475251D01*
X77006566Y-95294566D01*
X76825561Y-95565459D01*
X76762000Y-95885000D01*
X76762000Y-98171000D01*
X76825561Y-98490541D01*
X76999488Y-98750841D01*
X77006566Y-98761434D01*
X81135566Y-102890434D01*
X81406459Y-103071439D01*
X81726000Y-103135000D01*
X87625331Y-103135000D01*
X87635910Y-103151441D01*
X87848110Y-103296431D01*
X88100000Y-103347440D01*
X88900000Y-103347440D01*
X89135317Y-103303162D01*
X89351441Y-103164090D01*
X89496431Y-102951890D01*
X89547440Y-102700000D01*
X89547440Y-101900000D01*
X89503162Y-101664683D01*
X89396241Y-101498523D01*
X89496431Y-101351890D01*
X89547440Y-101100000D01*
X89547440Y-100300000D01*
X89503162Y-100064683D01*
X89404122Y-99910771D01*
X89434838Y-99836799D01*
X89435162Y-99464833D01*
X89293117Y-99121057D01*
X89030327Y-98857808D01*
X88686799Y-98715162D01*
X88314833Y-98714838D01*
X87971057Y-98856883D01*
X87707808Y-99119673D01*
X87565162Y-99463201D01*
X87564838Y-99835167D01*
X87596579Y-99911986D01*
X87503569Y-100048110D01*
X87452560Y-100300000D01*
X87452560Y-101100000D01*
X87496838Y-101335317D01*
X87580287Y-101465000D01*
X82071868Y-101465000D01*
X79910457Y-99303589D01*
X80301145Y-99303930D01*
X80861849Y-99072251D01*
X81291213Y-98643636D01*
X81523869Y-98083337D01*
X81524399Y-97476654D01*
X81292720Y-96915950D01*
X80864105Y-96486586D01*
X80303806Y-96253930D01*
X79697123Y-96253400D01*
X79136419Y-96485079D01*
X78707055Y-96913694D01*
X78474399Y-97473993D01*
X78474056Y-97867188D01*
X78432000Y-97825132D01*
X78432000Y-96234954D01*
X81714371Y-96234954D01*
X81871043Y-96772497D01*
X81897006Y-96822371D01*
X82247461Y-97259040D01*
X82738345Y-97528356D01*
X83144860Y-97572881D01*
X82948175Y-97931381D01*
X82887212Y-98487961D01*
X83043884Y-99025504D01*
X83069847Y-99075378D01*
X83420302Y-99512047D01*
X83911186Y-99781363D01*
X84467766Y-99842325D01*
X85005309Y-99685653D01*
X85441978Y-99335197D01*
X85711293Y-98844313D01*
X85761329Y-98387496D01*
X86164194Y-98608522D01*
X86720774Y-98669484D01*
X87258317Y-98512812D01*
X87694986Y-98162356D01*
X87964301Y-97671472D01*
X88014337Y-97214655D01*
X88417201Y-97435680D01*
X88973781Y-97496642D01*
X89511324Y-97339970D01*
X89947993Y-96989514D01*
X90217308Y-96498630D01*
X90267344Y-96041813D01*
X90670209Y-96262839D01*
X91226789Y-96323801D01*
X91764332Y-96167129D01*
X92201001Y-95816673D01*
X92470316Y-95325789D01*
X92520352Y-94868972D01*
X92923216Y-95089997D01*
X93479796Y-95150959D01*
X94017339Y-94994287D01*
X94454008Y-94643831D01*
X94723323Y-94152947D01*
X94773359Y-93696130D01*
X95176224Y-93917156D01*
X95732804Y-93978118D01*
X96270347Y-93821446D01*
X96707016Y-93470990D01*
X96976331Y-92980106D01*
X97026367Y-92523289D01*
X97429231Y-92744314D01*
X97985811Y-92805276D01*
X98523354Y-92648604D01*
X98960023Y-92298148D01*
X99229338Y-91807264D01*
X99279374Y-91350447D01*
X99682239Y-91571473D01*
X100238819Y-91632435D01*
X100776362Y-91475763D01*
X101213031Y-91125307D01*
X101482346Y-90634423D01*
X101532382Y-90177605D01*
X101935247Y-90398631D01*
X102491827Y-90459593D01*
X103029370Y-90302921D01*
X103466039Y-89952465D01*
X103735354Y-89461581D01*
X103785390Y-89004765D01*
X104188254Y-89225790D01*
X104744834Y-89286752D01*
X105282377Y-89130080D01*
X105719046Y-88779624D01*
X105988361Y-88288740D01*
X106049324Y-87732160D01*
X105892652Y-87194617D01*
X105866690Y-87144743D01*
X105516234Y-86708074D01*
X105025350Y-86438759D01*
X104618835Y-86394233D01*
X104815520Y-86035732D01*
X104876483Y-85479152D01*
X104719811Y-84941609D01*
X104693849Y-84891735D01*
X104343393Y-84455066D01*
X103852509Y-84185751D01*
X103295929Y-84124788D01*
X102758386Y-84281460D01*
X102321717Y-84631916D01*
X102052402Y-85122800D01*
X102002366Y-85579618D01*
X101599501Y-85358593D01*
X101042921Y-85297630D01*
X100505378Y-85454302D01*
X100068709Y-85804758D01*
X99799394Y-86295642D01*
X99749358Y-86752458D01*
X99346494Y-86531434D01*
X98789914Y-86470471D01*
X98252371Y-86627143D01*
X97815702Y-86977599D01*
X97546387Y-87468483D01*
X97496351Y-87925301D01*
X97093486Y-87704276D01*
X96536906Y-87643313D01*
X95999363Y-87799985D01*
X95562694Y-88150441D01*
X95293379Y-88641325D01*
X95243343Y-89098142D01*
X94840478Y-88877117D01*
X94283898Y-88816154D01*
X93746355Y-88972826D01*
X93309686Y-89323282D01*
X93040371Y-89814166D01*
X92990335Y-90270983D01*
X92587471Y-90049959D01*
X92030891Y-89988996D01*
X91493348Y-90145668D01*
X91056679Y-90496124D01*
X90787364Y-90987008D01*
X90737328Y-91443825D01*
X90334463Y-91222800D01*
X89777883Y-91161837D01*
X89240340Y-91318509D01*
X88803671Y-91668965D01*
X88534356Y-92159849D01*
X88484320Y-92616666D01*
X88081456Y-92395642D01*
X87524876Y-92334679D01*
X86987333Y-92491351D01*
X86550664Y-92841807D01*
X86281349Y-93332691D01*
X86231313Y-93789508D01*
X85828448Y-93568483D01*
X85271868Y-93507520D01*
X84734325Y-93664192D01*
X84297656Y-94014648D01*
X84028341Y-94505532D01*
X83978305Y-94962349D01*
X83575441Y-94741325D01*
X83018861Y-94680362D01*
X82481318Y-94837034D01*
X82044649Y-95187490D01*
X81775334Y-95678374D01*
X81714371Y-96234954D01*
X78432000Y-96234954D01*
X78432000Y-96230868D01*
X98762183Y-75900685D01*
X98788012Y-75900685D01*
X98976506Y-76089179D01*
X99174209Y-76224264D01*
X99425371Y-76278748D01*
X99677942Y-76231224D01*
X99892124Y-76089179D01*
X100080618Y-75900685D01*
X114134315Y-75900685D01*
X114453856Y-75837124D01*
X114724749Y-75656119D01*
X126070600Y-64310268D01*
X136285081Y-74524749D01*
X136555974Y-74705754D01*
X136875515Y-74769315D01*
X152599315Y-74769315D01*
X152599315Y-88634315D01*
X152662876Y-88953856D01*
X152780625Y-89130080D01*
X152843881Y-89224749D01*
X164319132Y-100700000D01*
X154475251Y-110543881D01*
X154294246Y-110814774D01*
X154230685Y-111134315D01*
X154230685Y-127599315D01*
X139365685Y-127599315D01*
X139046145Y-127662875D01*
X138775251Y-127843881D01*
X127666572Y-138952560D01*
X127400000Y-138952560D01*
X127164683Y-138996838D01*
X126998523Y-139103759D01*
X126851890Y-139003569D01*
X126600000Y-138952560D01*
X125800000Y-138952560D01*
X125564683Y-138996838D01*
X125348559Y-139135910D01*
X125328683Y-139165000D01*
X125318240Y-139165000D01*
X125082149Y-139211962D01*
X124986033Y-139211878D01*
X124642257Y-139353923D01*
X124379008Y-139616713D01*
X124236362Y-139960241D01*
X124236038Y-140332207D01*
X124378083Y-140675983D01*
X124640873Y-140939232D01*
X124984401Y-141081878D01*
X125356367Y-141082202D01*
X125558740Y-140998584D01*
X125800000Y-141047440D01*
X125982992Y-141047440D01*
X121447132Y-145583300D01*
X114582368Y-145583300D01*
X111448734Y-142449666D01*
X111227715Y-142301986D01*
X111177841Y-142268661D01*
X110858300Y-142205100D01*
X102280504Y-142205100D01*
X102448698Y-142037199D01*
X102681354Y-141476900D01*
X102681703Y-141076541D01*
X110509994Y-141076541D01*
X110796314Y-141769491D01*
X111326021Y-142300122D01*
X112018469Y-142587652D01*
X112768241Y-142588306D01*
X113461191Y-142301986D01*
X113991822Y-141772279D01*
X114279352Y-141079831D01*
X114279745Y-140629427D01*
X117865472Y-137043700D01*
X118603524Y-137043700D01*
X118610870Y-137047982D01*
X118688908Y-137058040D01*
X119339434Y-137708566D01*
X119707654Y-137954603D01*
X120142000Y-138041000D01*
X126456440Y-138041000D01*
X126890786Y-137954603D01*
X127259006Y-137708566D01*
X138326092Y-126641480D01*
X143667480Y-126641480D01*
X144101826Y-126555083D01*
X144470046Y-126309046D01*
X149834526Y-120944566D01*
X150080563Y-120576346D01*
X150091266Y-120522538D01*
X150166960Y-120142000D01*
X150166960Y-104759760D01*
X150145597Y-104652359D01*
X150080564Y-104325415D01*
X149834526Y-103957194D01*
X142600121Y-96722789D01*
X144286917Y-96722789D01*
X144416125Y-97015559D01*
X145116283Y-97283771D01*
X145865784Y-97263628D01*
X146464675Y-97015559D01*
X146593883Y-96722789D01*
X145440400Y-95569305D01*
X144286917Y-96722789D01*
X142600121Y-96722789D01*
X140942915Y-95065583D01*
X143546329Y-95065583D01*
X143566472Y-95815084D01*
X143814541Y-96413975D01*
X144107311Y-96543183D01*
X145260795Y-95389700D01*
X145620005Y-95389700D01*
X146773489Y-96543183D01*
X147066259Y-96413975D01*
X147334471Y-95713817D01*
X147314328Y-94964316D01*
X147066259Y-94365425D01*
X146773489Y-94236217D01*
X145620005Y-95389700D01*
X145260795Y-95389700D01*
X144107311Y-94236217D01*
X143814541Y-94365425D01*
X143546329Y-95065583D01*
X140942915Y-95065583D01*
X139933943Y-94056611D01*
X144286917Y-94056611D01*
X145440400Y-95210095D01*
X146593883Y-94056611D01*
X146464675Y-93763841D01*
X145764517Y-93495629D01*
X145015016Y-93515772D01*
X144416125Y-93763841D01*
X144286917Y-94056611D01*
X139933943Y-94056611D01*
X139323837Y-93446505D01*
X139324406Y-92793959D01*
X139038086Y-92101009D01*
X138574400Y-91636514D01*
X138574400Y-84239100D01*
X138563788Y-84185751D01*
X138488004Y-83804755D01*
X138241966Y-83436534D01*
X134721357Y-79915925D01*
X134721926Y-79263379D01*
X134435606Y-78570429D01*
X133905899Y-78039798D01*
X133213451Y-77752268D01*
X132463679Y-77751614D01*
X131770729Y-78037934D01*
X131240098Y-78567641D01*
X130952568Y-79260089D01*
X130951914Y-80009861D01*
X131238234Y-80702811D01*
X131767941Y-81233442D01*
X132460389Y-81520972D01*
X133116712Y-81521544D01*
X136304400Y-84709232D01*
X136304400Y-91637203D01*
X135842578Y-92098221D01*
X135555048Y-92790669D01*
X135554394Y-93540441D01*
X135840714Y-94233391D01*
X136370421Y-94764022D01*
X137062869Y-95051552D01*
X137719192Y-95052124D01*
X147896960Y-105229892D01*
X147896960Y-119671868D01*
X143197348Y-124371480D01*
X137855960Y-124371480D01*
X137421614Y-124457877D01*
X137175249Y-124622493D01*
X137053394Y-124703914D01*
X126233608Y-135523700D01*
X121992987Y-135523700D01*
X122146435Y-135344036D01*
X122224499Y-135103781D01*
X122204679Y-134851941D01*
X122106817Y-134659876D01*
X121893299Y-134590500D01*
X121047511Y-135021450D01*
X121056591Y-135039270D01*
X120830275Y-135154584D01*
X120821195Y-135136764D01*
X120803375Y-135145844D01*
X120688061Y-134919528D01*
X120705881Y-134910448D01*
X120377079Y-134265136D01*
X120163560Y-134195760D01*
X119771020Y-134395770D01*
X119606957Y-134587862D01*
X119606358Y-134589704D01*
X119501803Y-134576229D01*
X119254209Y-134645136D01*
X119159229Y-134693531D01*
X117475509Y-134693531D01*
X117041163Y-134779928D01*
X116936168Y-134850083D01*
X116936168Y-134454631D01*
X117103395Y-134149823D01*
X120603394Y-134149823D01*
X120932197Y-134795134D01*
X121777985Y-134364184D01*
X121847361Y-134150666D01*
X121864186Y-134183685D01*
X121749499Y-133958600D01*
X121557406Y-133794538D01*
X121317151Y-133716475D01*
X121065312Y-133736295D01*
X120672771Y-133936305D01*
X120603394Y-134149823D01*
X117103395Y-134149823D01*
X117182727Y-134005225D01*
X117232763Y-133548408D01*
X117635627Y-133769433D01*
X118192207Y-133830395D01*
X118729750Y-133673723D01*
X119166419Y-133323267D01*
X119435734Y-132832383D01*
X119485770Y-132375566D01*
X119888635Y-132596592D01*
X120445215Y-132657554D01*
X120982758Y-132500882D01*
X121419427Y-132150426D01*
X121688742Y-131659542D01*
X121738778Y-131202725D01*
X122141642Y-131423750D01*
X122698222Y-131484712D01*
X123235765Y-131328040D01*
X123672434Y-130977584D01*
X123941749Y-130486700D01*
X123994721Y-130003072D01*
X124185873Y-130148020D01*
X124727527Y-130289844D01*
X125146306Y-130253195D01*
X125286929Y-130042463D01*
X124759190Y-129028685D01*
X124741449Y-129037920D01*
X124675588Y-128911401D01*
X124984490Y-128911401D01*
X125512230Y-129925179D01*
X125765509Y-129930859D01*
X126035732Y-129608836D01*
X126230236Y-129083792D01*
X126219814Y-128809063D01*
X126438880Y-128975178D01*
X126980534Y-129117002D01*
X127399313Y-129080353D01*
X127539936Y-128869621D01*
X127012197Y-127855843D01*
X125997785Y-128383913D01*
X124984490Y-128911401D01*
X124675588Y-128911401D01*
X124624165Y-128812620D01*
X124641906Y-128803385D01*
X124632671Y-128785644D01*
X124857971Y-128668360D01*
X124867206Y-128686101D01*
X125881618Y-128158031D01*
X126894913Y-127630543D01*
X126885678Y-127612802D01*
X127110978Y-127495518D01*
X127120213Y-127513259D01*
X127137954Y-127504024D01*
X127255238Y-127729324D01*
X127237497Y-127738559D01*
X127765237Y-128752337D01*
X128018516Y-128758017D01*
X128288739Y-128435994D01*
X128483243Y-127910950D01*
X128474149Y-127671224D01*
X128900665Y-127905226D01*
X129457245Y-127966188D01*
X129994788Y-127809516D01*
X130431457Y-127459060D01*
X130700772Y-126968176D01*
X130761735Y-126411596D01*
X130605063Y-125874053D01*
X130579101Y-125824179D01*
X130228645Y-125387510D01*
X129737761Y-125118195D01*
X129331245Y-125073669D01*
X129527930Y-124715168D01*
X129588893Y-124158588D01*
X129432221Y-123621045D01*
X129406259Y-123571171D01*
X129055803Y-123134502D01*
X128564919Y-122865187D01*
X128008339Y-122804224D01*
X127470796Y-122960896D01*
X127034127Y-123311352D01*
X126764812Y-123802236D01*
X126714776Y-124259053D01*
X126311912Y-124038029D01*
X125755332Y-123977066D01*
X125217789Y-124133738D01*
X124781120Y-124484194D01*
X124511805Y-124975078D01*
X124461769Y-125431895D01*
X124058904Y-125210870D01*
X123502324Y-125149907D01*
X122964781Y-125306579D01*
X122528112Y-125657035D01*
X122258797Y-126147919D01*
X122208761Y-126604736D01*
X121805897Y-126383712D01*
X121249317Y-126322749D01*
X120711774Y-126479421D01*
X120275105Y-126829877D01*
X120005790Y-127320761D01*
X119955754Y-127777578D01*
X119552889Y-127556553D01*
X118996309Y-127495590D01*
X118458766Y-127652262D01*
X118022097Y-128002718D01*
X117752782Y-128493602D01*
X117702746Y-128950419D01*
X117299882Y-128729395D01*
X116743302Y-128668432D01*
X116205759Y-128825104D01*
X115769090Y-129175560D01*
X115499775Y-129666444D01*
X115490666Y-129749607D01*
X115457595Y-129722112D01*
X115211617Y-129647642D01*
X114956046Y-129674738D01*
X113430099Y-130155867D01*
X113218988Y-130268857D01*
X113054687Y-130466482D01*
X112980217Y-130712460D01*
X112992766Y-130830824D01*
X112958610Y-130820483D01*
X112703039Y-130847579D01*
X111177092Y-131328708D01*
X110965981Y-131441698D01*
X110801680Y-131639323D01*
X110727210Y-131885301D01*
X110754306Y-132140872D01*
X111235435Y-133666819D01*
X111348425Y-133877930D01*
X111546050Y-134042231D01*
X111792028Y-134116701D01*
X111910392Y-134104152D01*
X111900051Y-134138309D01*
X111927147Y-134393880D01*
X112408276Y-135919827D01*
X112521266Y-136130938D01*
X112718891Y-136295239D01*
X112964869Y-136369709D01*
X113220440Y-136342613D01*
X114666168Y-135886777D01*
X114666168Y-137032740D01*
X112848146Y-138850762D01*
X112771531Y-138818948D01*
X112021759Y-138818294D01*
X111328809Y-139104614D01*
X110798178Y-139634321D01*
X110510648Y-140326769D01*
X110509994Y-141076541D01*
X102681703Y-141076541D01*
X102681884Y-140870217D01*
X102450205Y-140309513D01*
X102021590Y-139880149D01*
X101461291Y-139647493D01*
X100854608Y-139646963D01*
X100293904Y-139878642D01*
X99864540Y-140307257D01*
X99631884Y-140867556D01*
X99631354Y-141474239D01*
X99863033Y-142034943D01*
X100032893Y-142205100D01*
X99558268Y-142205100D01*
X98625000Y-141271832D01*
X98625000Y-132187238D01*
X100537635Y-130274603D01*
X100556741Y-130278748D01*
X100809312Y-130231224D01*
X101023494Y-130089179D01*
X101589179Y-129523494D01*
X101683880Y-129384895D01*
X101779838Y-129366839D01*
X101994020Y-129224794D01*
X102347574Y-128871240D01*
X102482659Y-128673537D01*
X102537143Y-128422375D01*
X102521511Y-128339295D01*
X102587927Y-128353703D01*
X102840498Y-128306179D01*
X103054680Y-128164134D01*
X103408234Y-127810580D01*
X103543319Y-127612877D01*
X103597803Y-127361715D01*
X103580090Y-127267578D01*
X108099649Y-122748019D01*
X131510852Y-122748019D01*
X131742954Y-123037219D01*
X132233838Y-123306535D01*
X132640354Y-123351061D01*
X132443669Y-123709561D01*
X132382706Y-124266141D01*
X132539378Y-124803684D01*
X132565341Y-124853558D01*
X132915796Y-125290227D01*
X133406680Y-125559543D01*
X133963260Y-125620505D01*
X134500803Y-125463833D01*
X134937472Y-125113377D01*
X135206787Y-124622493D01*
X135256823Y-124165676D01*
X135659687Y-124386701D01*
X136216267Y-124447663D01*
X136753810Y-124290991D01*
X137190479Y-123940535D01*
X137459794Y-123449651D01*
X137509830Y-122992834D01*
X137912695Y-123213860D01*
X138469275Y-123274822D01*
X139006818Y-123118150D01*
X139443487Y-122767694D01*
X139712802Y-122276810D01*
X139762838Y-121819993D01*
X140165702Y-122041018D01*
X140722282Y-122101980D01*
X141259825Y-121945308D01*
X141696494Y-121594852D01*
X141965809Y-121103968D01*
X142015845Y-120647151D01*
X142418710Y-120868177D01*
X142975290Y-120929139D01*
X143512833Y-120772467D01*
X143949502Y-120422011D01*
X144218817Y-119931127D01*
X144268853Y-119474310D01*
X144671717Y-119695335D01*
X145228297Y-119756297D01*
X145765840Y-119599625D01*
X146202509Y-119249169D01*
X146471824Y-118758285D01*
X146532787Y-118201705D01*
X146376115Y-117664162D01*
X146350153Y-117614288D01*
X145999697Y-117177619D01*
X145508813Y-116908304D01*
X145102298Y-116863778D01*
X145298983Y-116505278D01*
X145359946Y-115948698D01*
X145203274Y-115411155D01*
X145177312Y-115361281D01*
X144826856Y-114924612D01*
X144335972Y-114655297D01*
X143779392Y-114594334D01*
X143241849Y-114751006D01*
X142805180Y-115101462D01*
X142535865Y-115592346D01*
X142485829Y-116049163D01*
X142082964Y-115828138D01*
X141526384Y-115767175D01*
X140988841Y-115923847D01*
X140552172Y-116274303D01*
X140282857Y-116765187D01*
X140232821Y-117222004D01*
X139829957Y-117000980D01*
X139273377Y-116940017D01*
X138735834Y-117096689D01*
X138299165Y-117447145D01*
X138029850Y-117938029D01*
X137979814Y-118394846D01*
X137576949Y-118173821D01*
X137180124Y-118130356D01*
X134918334Y-115868566D01*
X134857829Y-115828138D01*
X134647441Y-115687561D01*
X134327900Y-115624000D01*
X99123500Y-115624000D01*
X98803959Y-115687561D01*
X98593571Y-115828138D01*
X98533066Y-115868566D01*
X83815776Y-130585856D01*
X83634771Y-130856749D01*
X83571210Y-131176290D01*
X83571210Y-144487696D01*
X83453426Y-144605480D01*
X83318341Y-144803183D01*
X83263857Y-145054345D01*
X83279489Y-145137425D01*
X83213073Y-145123017D01*
X82960502Y-145170541D01*
X82746320Y-145312586D01*
X82507489Y-145551417D01*
X82457809Y-145476506D01*
X81892124Y-144910821D01*
X81694421Y-144775736D01*
X81449359Y-144722575D01*
X81372077Y-144535537D01*
X81109287Y-144272288D01*
X80765759Y-144129642D01*
X80393793Y-144129318D01*
X80050017Y-144271363D01*
X79786768Y-144534153D01*
X79644122Y-144877681D01*
X79643798Y-145249647D01*
X79785843Y-145593423D01*
X80048633Y-145856672D01*
X80221860Y-145928603D01*
X80268776Y-146177942D01*
X80410821Y-146392124D01*
X80976506Y-146957809D01*
X81174209Y-147092894D01*
X81367306Y-147134782D01*
X81400146Y-147309312D01*
X81542191Y-147523494D01*
X82107876Y-148089179D01*
X82305579Y-148224264D01*
X82556741Y-148278748D01*
X82809312Y-148231224D01*
X83023494Y-148089179D01*
X83211988Y-147900685D01*
X109519817Y-147900685D01*
X125607847Y-163988716D01*
X125564683Y-163996838D01*
X125410771Y-164095878D01*
X125336799Y-164065162D01*
X124964833Y-164064838D01*
X124621057Y-164206883D01*
X124357808Y-164469673D01*
X124215162Y-164813201D01*
X124214838Y-165185167D01*
X124356883Y-165528943D01*
X124619673Y-165792192D01*
X124963201Y-165934838D01*
X125335167Y-165935162D01*
X125411986Y-165903421D01*
X125548110Y-165996431D01*
X125800000Y-166047440D01*
X126600000Y-166047440D01*
X126835317Y-166003162D01*
X127001477Y-165896241D01*
X127148110Y-165996431D01*
X127400000Y-166047440D01*
X128200000Y-166047440D01*
X128435317Y-166003162D01*
X128651441Y-165864090D01*
X128796431Y-165651890D01*
X128847440Y-165400000D01*
X128847440Y-165133428D01*
X146711554Y-147269315D01*
X170800514Y-147269315D01*
X170775736Y-147305579D01*
X170742736Y-147457702D01*
X170704397Y-147473543D01*
X170441148Y-147736333D01*
X170298502Y-148079861D01*
X170298178Y-148451827D01*
X170440223Y-148795603D01*
X170703013Y-149058852D01*
X171046541Y-149201498D01*
X171418507Y-149201822D01*
X171762283Y-149059777D01*
X172025532Y-148796987D01*
X172042236Y-148756758D01*
X172177942Y-148731224D01*
X172392124Y-148589179D01*
X172957809Y-148023494D01*
X173092894Y-147825791D01*
X173134782Y-147632694D01*
X173309312Y-147599854D01*
X173523494Y-147457809D01*
X174089179Y-146892124D01*
X174224264Y-146694421D01*
X174278748Y-146443259D01*
X174231224Y-146190688D01*
X174089179Y-145976506D01*
X173900685Y-145788012D01*
X173900685Y-118480183D01*
X189488716Y-102892152D01*
X189496838Y-102935317D01*
X189595878Y-103089229D01*
X189565162Y-103163201D01*
X189564838Y-103535167D01*
X189706883Y-103878943D01*
X189969673Y-104142192D01*
X190313201Y-104284838D01*
X190685167Y-104285162D01*
X191028943Y-104143117D01*
X191292192Y-103880327D01*
X191434838Y-103536799D01*
X191435162Y-103164833D01*
X191403421Y-103088014D01*
X191496431Y-102951890D01*
X191547440Y-102700000D01*
X191547440Y-101900000D01*
X191503162Y-101664683D01*
X191396241Y-101498523D01*
X191496431Y-101351890D01*
X191547440Y-101100000D01*
X191547440Y-100300000D01*
X191503162Y-100064683D01*
X191364090Y-99848559D01*
X191151890Y-99703569D01*
X190900000Y-99652560D01*
X190633428Y-99652560D01*
X172269315Y-81288447D01*
X172269315Y-58199486D01*
X172305579Y-58224264D01*
X172484444Y-58263065D01*
X172515031Y-58337091D01*
X172777821Y-58600340D01*
X173121349Y-58742986D01*
X173493315Y-58743310D01*
X173837091Y-58601265D01*
X174100340Y-58338475D01*
X174242986Y-57994947D01*
X174243310Y-57622981D01*
X174101265Y-57279205D01*
X173838475Y-57015956D01*
X173761710Y-56984080D01*
X173731224Y-56822058D01*
X173589179Y-56607876D01*
X173023494Y-56042191D01*
X172825791Y-55907106D01*
X172632694Y-55865218D01*
X172599854Y-55690688D01*
X172457809Y-55476506D01*
X171892124Y-54910821D01*
X171694421Y-54775736D01*
X171443259Y-54721252D01*
X171190688Y-54768776D01*
X170976506Y-54910821D01*
X170788012Y-55099315D01*
X144480184Y-55099315D01*
X136048036Y-46667167D01*
X176458438Y-46667167D01*
X176600483Y-47010943D01*
X176863273Y-47274192D01*
X177206801Y-47416838D01*
X177238649Y-47416866D01*
X177705847Y-47909318D01*
X177947990Y-48080494D01*
X177976974Y-48087056D01*
X181645041Y-51624511D01*
X181649270Y-51645770D01*
X181747085Y-51792160D01*
X181830275Y-51916663D01*
X205336550Y-75422938D01*
X205336550Y-94196779D01*
X205335084Y-94206355D01*
X205337374Y-94257852D01*
X205638964Y-101039939D01*
X205605262Y-101121101D01*
X205604938Y-101493067D01*
X205746983Y-101836843D01*
X206009773Y-102100092D01*
X206353301Y-102242738D01*
X206725267Y-102243062D01*
X207069043Y-102101017D01*
X207332292Y-101838227D01*
X207474938Y-101494699D01*
X207475262Y-101122733D01*
X207333217Y-100778957D01*
X207297414Y-100743092D01*
X207182827Y-98166280D01*
X207276447Y-98166362D01*
X207312020Y-98151663D01*
X208661822Y-98503582D01*
X208752973Y-98594892D01*
X209096501Y-98737538D01*
X209468467Y-98737862D01*
X209812243Y-98595817D01*
X210075492Y-98333027D01*
X210218138Y-97989499D01*
X210218462Y-97617533D01*
X210076417Y-97273757D01*
X209813627Y-97010508D01*
X209470099Y-96867862D01*
X209098133Y-96867538D01*
X209062560Y-96882237D01*
X207712758Y-96530318D01*
X207621607Y-96439008D01*
X207278079Y-96296362D01*
X207099668Y-96296207D01*
X207006550Y-94202192D01*
X207006550Y-75077070D01*
X206942989Y-74757529D01*
X206761984Y-74486636D01*
X183198062Y-50922714D01*
X183192148Y-50892983D01*
X183187869Y-50886579D01*
X183186230Y-50879055D01*
X183097531Y-50751379D01*
X183011143Y-50622090D01*
X183004739Y-50617811D01*
X183000345Y-50611486D01*
X179667854Y-47397658D01*
X180280471Y-47397658D01*
X180527261Y-47923444D01*
X180956475Y-48314765D01*
X181368063Y-48485250D01*
X181598519Y-48363977D01*
X181598519Y-47167202D01*
X181852519Y-47167202D01*
X181852519Y-48363977D01*
X182082975Y-48485250D01*
X182608761Y-48238460D01*
X183000082Y-47809246D01*
X183170567Y-47397658D01*
X183049294Y-47167202D01*
X181852519Y-47167202D01*
X181598519Y-47167202D01*
X180401744Y-47167202D01*
X180280471Y-47397658D01*
X179667854Y-47397658D01*
X178926545Y-46682746D01*
X180280471Y-46682746D01*
X180401744Y-46913202D01*
X181598519Y-46913202D01*
X181598519Y-45716427D01*
X181852519Y-45716427D01*
X181852519Y-46913202D01*
X183049294Y-46913202D01*
X183170567Y-46682746D01*
X182923777Y-46156960D01*
X182494563Y-45765639D01*
X182082975Y-45595154D01*
X181852519Y-45716427D01*
X181598519Y-45716427D01*
X181368063Y-45595154D01*
X180842277Y-45841944D01*
X180450956Y-46271158D01*
X180280471Y-46682746D01*
X178926545Y-46682746D01*
X178197849Y-45979998D01*
X178186717Y-45953057D01*
X177923927Y-45689808D01*
X177580399Y-45547162D01*
X177208433Y-45546838D01*
X176864657Y-45688883D01*
X176601408Y-45951673D01*
X176458762Y-46295201D01*
X176458438Y-46667167D01*
X136048036Y-46667167D01*
X128392152Y-39011284D01*
X128435317Y-39003162D01*
X128589229Y-38904122D01*
X128663201Y-38934838D01*
X129035167Y-38935162D01*
X129378943Y-38793117D01*
X129642192Y-38530327D01*
X129784838Y-38186799D01*
X129785162Y-37814833D01*
X129643117Y-37471057D01*
X129380327Y-37207808D01*
X129036799Y-37065162D01*
X128664833Y-37064838D01*
X128588014Y-37096579D01*
X128451890Y-37003569D01*
X128200000Y-36952560D01*
X127400000Y-36952560D01*
X127164683Y-36996838D01*
X126998523Y-37103759D01*
X126851890Y-37003569D01*
X126600000Y-36952560D01*
X125800000Y-36952560D01*
X125564683Y-36996838D01*
X125348559Y-37135910D01*
X125203569Y-37348110D01*
X125152560Y-37600000D01*
X125152560Y-37866572D01*
X106788447Y-56230685D01*
X83699486Y-56230685D01*
X83724264Y-56194421D01*
X83733675Y-56151036D01*
X83957783Y-56058437D01*
X84221032Y-55795647D01*
X84363678Y-55452119D01*
X84364002Y-55080153D01*
X84221957Y-54736377D01*
X83959167Y-54473128D01*
X83615639Y-54330482D01*
X83243673Y-54330158D01*
X82899897Y-54472203D01*
X82636884Y-54734757D01*
X82574629Y-54721252D01*
X82322058Y-54768776D01*
X82107876Y-54910821D01*
X81542191Y-55476506D01*
X81407106Y-55674209D01*
X81365218Y-55867306D01*
X81190688Y-55900146D01*
X80976506Y-56042191D01*
X80410821Y-56607876D01*
X80275736Y-56805579D01*
X80221252Y-57056741D01*
X80268776Y-57309312D01*
X80410821Y-57523494D01*
X80599315Y-57711988D01*
X80599315Y-84019816D01*
X64511284Y-100107848D01*
X64503162Y-100064683D01*
X64364090Y-99848559D01*
X64335000Y-99828683D01*
X64335000Y-99766005D01*
X64358638Y-99709079D01*
X64358962Y-99337113D01*
X64216917Y-98993337D01*
X63954127Y-98730088D01*
X63610599Y-98587442D01*
X63238633Y-98587118D01*
X62894857Y-98729163D01*
X62631608Y-98991953D01*
X62488962Y-99335481D01*
X62488638Y-99707447D01*
X62581980Y-99933352D01*
X62503569Y-100048110D01*
X62452560Y-100300000D01*
X53026920Y-100300000D01*
X53026920Y-64159809D01*
X65136155Y-52000000D01*
X69165000Y-52000000D01*
X69228561Y-52319541D01*
X69409566Y-52590434D01*
X69680459Y-52771439D01*
X70000000Y-52835000D01*
X70504200Y-52835000D01*
X70823741Y-52771439D01*
X71094634Y-52590434D01*
X96791801Y-26893267D01*
X122661238Y-26893267D01*
X122803283Y-27237043D01*
X123066073Y-27500292D01*
X123409601Y-27642938D01*
X123781567Y-27643262D01*
X124047219Y-27533497D01*
X125358086Y-27505000D01*
X164246132Y-27505000D01*
X177682362Y-40941230D01*
X177683584Y-40946285D01*
X177769694Y-41064427D01*
X177850916Y-41185984D01*
X177865297Y-41195593D01*
X177875486Y-41209572D01*
X182423007Y-45400424D01*
X182505983Y-45601243D01*
X182768773Y-45864492D01*
X183112301Y-46007138D01*
X183484267Y-46007462D01*
X183828043Y-45865417D01*
X184091292Y-45602627D01*
X184233938Y-45259099D01*
X184234262Y-44887133D01*
X184092217Y-44543357D01*
X183829427Y-44280108D01*
X183542223Y-44160850D01*
X181901540Y-42648848D01*
X181919592Y-42630827D01*
X182044277Y-42330553D01*
X182782657Y-41511648D01*
X182798467Y-41511662D01*
X183142243Y-41369617D01*
X183405492Y-41106827D01*
X183548138Y-40763299D01*
X183548462Y-40391333D01*
X183406417Y-40047557D01*
X183143627Y-39784308D01*
X182800099Y-39641662D01*
X182428133Y-39641338D01*
X182084357Y-39783383D01*
X181821108Y-40046173D01*
X181791827Y-40116689D01*
X180789330Y-41228516D01*
X180598457Y-41307383D01*
X180525229Y-41380483D01*
X179162654Y-40124777D01*
X179031784Y-39928916D01*
X165182434Y-26079566D01*
X165028698Y-25976843D01*
X164911541Y-25898561D01*
X164592000Y-25835000D01*
X127530207Y-25835000D01*
X127664044Y-25779563D01*
X127741248Y-25530853D01*
X126895000Y-24684605D01*
X126048752Y-25530853D01*
X126125956Y-25779563D01*
X126279468Y-25835000D01*
X125349000Y-25835000D01*
X125339945Y-25836801D01*
X125330852Y-25835197D01*
X124001928Y-25864087D01*
X123783199Y-25773262D01*
X123411233Y-25772938D01*
X123067457Y-25914983D01*
X122804208Y-26177773D01*
X122661562Y-26521301D01*
X122661238Y-26893267D01*
X96791801Y-26893267D01*
X99402818Y-24282250D01*
X125423157Y-24282250D01*
X125449952Y-24862456D01*
X125620437Y-25274044D01*
X125869147Y-25351248D01*
X126715395Y-24505000D01*
X127074605Y-24505000D01*
X127920853Y-25351248D01*
X128169563Y-25274044D01*
X128366843Y-24727750D01*
X128340048Y-24147544D01*
X128169563Y-23735956D01*
X127920853Y-23658752D01*
X127074605Y-24505000D01*
X126715395Y-24505000D01*
X125869147Y-23658752D01*
X125620437Y-23735956D01*
X125423157Y-24282250D01*
X99402818Y-24282250D01*
X100205921Y-23479147D01*
X126048752Y-23479147D01*
X126895000Y-24325395D01*
X127741248Y-23479147D01*
X127664044Y-23230437D01*
X127117750Y-23033157D01*
X126537544Y-23059952D01*
X126125956Y-23230437D01*
X126048752Y-23479147D01*
X100205921Y-23479147D01*
X100724731Y-22960337D01*
X125841481Y-22731690D01*
X125961673Y-22852092D01*
X126305201Y-22994738D01*
X126677167Y-22995062D01*
X127020943Y-22853017D01*
X127284192Y-22590227D01*
X127426838Y-22246699D01*
X127427162Y-21874733D01*
X127285117Y-21530957D01*
X127022327Y-21267708D01*
X126678799Y-21125062D01*
X126650210Y-21125037D01*
X126643900Y-21120821D01*
X126640104Y-21120066D01*
X126636865Y-21117944D01*
X126480480Y-21088314D01*
X126324360Y-21057260D01*
X126320562Y-21058016D01*
X126316759Y-21057295D01*
X124988696Y-21069385D01*
X124988762Y-20993353D01*
X124938379Y-20871417D01*
X125048965Y-20062909D01*
X125074392Y-20037527D01*
X125217038Y-19693999D01*
X125217362Y-19322033D01*
X125075317Y-18978257D01*
X124812527Y-18715008D01*
X124468999Y-18572362D01*
X124097033Y-18572038D01*
X123753257Y-18714083D01*
X123490008Y-18976873D01*
X123347362Y-19320401D01*
X123347038Y-19692367D01*
X123397421Y-19814303D01*
X123286835Y-20622811D01*
X123261408Y-20648193D01*
X123118762Y-20991721D01*
X123118680Y-21086408D01*
X100368119Y-21293515D01*
X100212319Y-21325983D01*
X100056180Y-21357041D01*
X100052961Y-21359192D01*
X100049170Y-21359982D01*
X99917623Y-21449622D01*
X99785286Y-21538046D01*
X73839484Y-47483848D01*
X73985250Y-47131937D01*
X73863977Y-46901481D01*
X72846810Y-46901481D01*
X72733951Y-46788622D01*
X72554343Y-46968230D01*
X72667202Y-47081089D01*
X72667202Y-48098256D01*
X72897658Y-48219529D01*
X73286152Y-48037180D01*
X70400732Y-50922600D01*
X70338232Y-50935032D01*
X70323179Y-50928782D01*
X69951213Y-50928458D01*
X69607437Y-51070503D01*
X69344188Y-51333293D01*
X69201542Y-51676821D01*
X69201420Y-51816905D01*
X69165000Y-52000000D01*
X65136155Y-52000000D01*
X69983972Y-47131937D01*
X71095154Y-47131937D01*
X71341944Y-47657723D01*
X71771158Y-48049044D01*
X72182746Y-48219529D01*
X72413202Y-48098256D01*
X72413202Y-46901481D01*
X71216427Y-46901481D01*
X71095154Y-47131937D01*
X69983972Y-47131937D01*
X70695910Y-46417025D01*
X71095154Y-46417025D01*
X71216427Y-46647481D01*
X72413202Y-46647481D01*
X72413202Y-45450706D01*
X72667202Y-45450706D01*
X72667202Y-46647481D01*
X73863977Y-46647481D01*
X73985250Y-46417025D01*
X73738460Y-45891239D01*
X73309246Y-45499918D01*
X72897658Y-45329433D01*
X72667202Y-45450706D01*
X72413202Y-45450706D01*
X72182746Y-45329433D01*
X71656960Y-45576223D01*
X71265639Y-46005437D01*
X71095154Y-46417025D01*
X70695910Y-46417025D01*
X71943874Y-45163850D01*
X72182343Y-45065317D01*
X72445592Y-44802527D01*
X72588238Y-44458999D01*
X72588562Y-44087033D01*
X72446517Y-43743257D01*
X72183727Y-43480008D01*
X71840199Y-43337362D01*
X71468233Y-43337038D01*
X71124457Y-43479083D01*
X70861208Y-43741873D01*
X70759725Y-43986271D01*
X68117095Y-46639937D01*
X67967327Y-46489908D01*
X67649748Y-46358037D01*
X66577878Y-45417942D01*
X66515617Y-45267257D01*
X66252827Y-45004008D01*
X65909299Y-44861362D01*
X65537333Y-44861038D01*
X65193557Y-45003083D01*
X64930308Y-45265873D01*
X64787662Y-45609401D01*
X64787338Y-45981367D01*
X64929383Y-46325143D01*
X65192173Y-46588392D01*
X65535701Y-46731038D01*
X65542364Y-46731044D01*
X66570072Y-47632407D01*
X66643883Y-47811043D01*
X66797557Y-47964986D01*
X51600257Y-63225758D01*
X51510512Y-63360679D01*
X51420481Y-63495419D01*
X51420308Y-63496288D01*
X51419816Y-63497028D01*
X51388512Y-63656135D01*
X51356920Y-63814960D01*
X51356920Y-101022713D01*
X51279563Y-100835956D01*
X51030853Y-100758752D01*
X50184605Y-101605000D01*
X49825395Y-101605000D01*
X48979147Y-100758752D01*
X48730437Y-100835956D01*
X48533157Y-101382250D01*
X47558038Y-101382250D01*
X48260043Y-100680245D01*
X48500653Y-100580827D01*
X48502335Y-100579147D01*
X49158752Y-100579147D01*
X50005000Y-101425395D01*
X50851248Y-100579147D01*
X50774044Y-100330437D01*
X50227750Y-100133157D01*
X49647544Y-100159952D01*
X49235956Y-100330437D01*
X49158752Y-100579147D01*
X48502335Y-100579147D01*
X48763902Y-100318037D01*
X48906548Y-99974509D01*
X48906872Y-99602543D01*
X48764827Y-99258767D01*
X48502037Y-98995518D01*
X48158509Y-98852872D01*
X47786543Y-98852548D01*
X47442767Y-98994593D01*
X47179518Y-99257383D01*
X47078932Y-99499620D01*
X45949986Y-100628566D01*
X45768981Y-100899459D01*
X45705420Y-101219000D01*
X45705420Y-106903520D01*
X45768981Y-107223061D01*
X45917410Y-107445200D01*
X45949986Y-107493954D01*
X51416066Y-112960034D01*
X51686959Y-113141039D01*
X51749761Y-113153531D01*
X51893460Y-113249548D01*
X52184300Y-113307400D01*
X52475139Y-113249548D01*
X52542409Y-113204600D01*
X81699100Y-113204600D01*
X82018641Y-113141039D01*
X82289534Y-112960034D01*
X101196568Y-94053000D01*
X111379000Y-94053000D01*
X111698541Y-93989439D01*
X111969434Y-93808434D01*
X121431214Y-84346654D01*
X121477541Y-84337439D01*
X121748434Y-84156434D01*
X122316545Y-83588323D01*
X122381013Y-83491840D01*
X122497550Y-83317430D01*
X122561111Y-82997889D01*
X122561111Y-80090382D01*
X122838355Y-79867875D01*
X123107670Y-79376991D01*
X123144119Y-79044219D01*
X123144119Y-79973619D01*
X123207680Y-80293160D01*
X123382341Y-80554558D01*
X123388685Y-80564053D01*
X124450500Y-81625868D01*
X124450500Y-83283632D01*
X115090782Y-92643350D01*
X113658650Y-92643350D01*
X113339110Y-92706910D01*
X113068216Y-92887916D01*
X111287132Y-94669000D01*
X102489000Y-94669000D01*
X102169459Y-94732561D01*
X101975914Y-94861884D01*
X101898566Y-94913566D01*
X81632632Y-115179500D01*
X51907868Y-115179500D01*
X44662700Y-107934332D01*
X44662700Y-100444104D01*
X47386704Y-96703288D01*
X47491915Y-96659816D01*
X47755164Y-96397026D01*
X47897810Y-96053498D01*
X47898134Y-95681532D01*
X47756089Y-95337756D01*
X47493299Y-95074507D01*
X47149771Y-94931861D01*
X46777805Y-94931537D01*
X46434029Y-95073582D01*
X46170780Y-95336372D01*
X46028134Y-95679900D01*
X46028089Y-95732063D01*
X43152698Y-99680774D01*
X43111200Y-99770537D01*
X43056261Y-99852759D01*
X43043478Y-99917025D01*
X43015981Y-99976502D01*
X43011993Y-100075310D01*
X42992700Y-100172300D01*
X36268043Y-100172300D01*
X42930610Y-66677318D01*
X62656075Y-37156075D01*
X92177318Y-17430610D01*
X127000000Y-10503948D01*
X161822682Y-17430610D01*
X161822682Y-17430610D01*
G37*
X161822682Y-17430610D02*
X191343925Y-37156075D01*
X211069390Y-66677318D01*
X217996052Y-101500000D01*
X211069390Y-136322682D01*
X191343925Y-165843925D01*
X161822682Y-185569390D01*
X127000000Y-192496052D01*
X92177318Y-185569390D01*
X83873347Y-180020853D01*
X126258752Y-180020853D01*
X126335956Y-180269563D01*
X126786677Y-180432329D01*
X126725968Y-180492933D01*
X126583322Y-180836461D01*
X126582998Y-181208427D01*
X126725043Y-181552203D01*
X126987833Y-181815452D01*
X127331361Y-181958098D01*
X127703327Y-181958422D01*
X128018150Y-181828340D01*
X129712459Y-181922468D01*
X129712278Y-182130447D01*
X129796739Y-182334859D01*
X129710769Y-182984412D01*
X129687608Y-183007533D01*
X129544962Y-183351061D01*
X129544638Y-183723027D01*
X129686683Y-184066803D01*
X129949473Y-184330052D01*
X130293001Y-184472698D01*
X130664967Y-184473022D01*
X131008743Y-184330977D01*
X131271992Y-184068187D01*
X131414638Y-183724659D01*
X131414962Y-183352693D01*
X131363177Y-183227363D01*
X131473454Y-182394154D01*
X131582278Y-182132079D01*
X131582370Y-182026352D01*
X132556922Y-182080494D01*
X132580189Y-182077195D01*
X132603240Y-182081780D01*
X153195020Y-182081780D01*
X153514561Y-182018219D01*
X153785454Y-181837214D01*
X170922008Y-164700660D01*
X171088821Y-164667479D01*
X171359714Y-164486474D01*
X177227114Y-158619074D01*
X177364064Y-158414114D01*
X177826075Y-157962347D01*
X182490938Y-157962347D01*
X182632983Y-158306123D01*
X182895773Y-158569372D01*
X183239301Y-158712018D01*
X183611267Y-158712342D01*
X183955043Y-158570297D01*
X184218292Y-158307507D01*
X184335096Y-158026214D01*
X185682812Y-156578562D01*
X185745653Y-156641512D01*
X185906698Y-156708384D01*
X186516960Y-157435953D01*
X186516838Y-157576267D01*
X186658883Y-157920043D01*
X186921673Y-158183292D01*
X187265201Y-158325938D01*
X187637167Y-158326262D01*
X187980943Y-158184217D01*
X188244192Y-157921427D01*
X188386838Y-157577899D01*
X188387162Y-157205933D01*
X188245117Y-156862157D01*
X188058820Y-156675534D01*
X187211141Y-155664911D01*
X187211142Y-155664153D01*
X187069097Y-155320377D01*
X186957870Y-155208956D01*
X188901352Y-153121362D01*
X188979263Y-152995226D01*
X189059649Y-152874919D01*
X201414735Y-140519833D01*
X201590794Y-140402194D01*
X201870194Y-140122794D01*
X201978808Y-139960241D01*
X202051199Y-139851901D01*
X202114760Y-139532360D01*
X202114760Y-102420853D01*
X203148752Y-102420853D01*
X203225956Y-102669563D01*
X203772250Y-102866843D01*
X204352456Y-102840048D01*
X204764044Y-102669563D01*
X204841248Y-102420853D01*
X203995000Y-101574605D01*
X203148752Y-102420853D01*
X202114760Y-102420853D01*
X202114760Y-101172250D01*
X202523157Y-101172250D01*
X202549952Y-101752456D01*
X202720437Y-102164044D01*
X202969147Y-102241248D01*
X203815395Y-101395000D01*
X204174605Y-101395000D01*
X205020853Y-102241248D01*
X205269563Y-102164044D01*
X205466843Y-101617750D01*
X205440048Y-101037544D01*
X205269563Y-100625956D01*
X205020853Y-100548752D01*
X204174605Y-101395000D01*
X203815395Y-101395000D01*
X202969147Y-100548752D01*
X202720437Y-100625956D01*
X202523157Y-101172250D01*
X202114760Y-101172250D01*
X202114760Y-100369147D01*
X203148752Y-100369147D01*
X203995000Y-101215395D01*
X204841248Y-100369147D01*
X204764044Y-100120437D01*
X204217750Y-99923157D01*
X203637544Y-99949952D01*
X203225956Y-100120437D01*
X203148752Y-100369147D01*
X202114760Y-100369147D01*
X202114760Y-98161354D01*
X202214598Y-97920919D01*
X202214922Y-97548953D01*
X202072877Y-97205177D01*
X201810087Y-96941928D01*
X201466559Y-96799282D01*
X201094593Y-96798958D01*
X200750817Y-96941003D01*
X200487568Y-97203793D01*
X200344922Y-97547321D01*
X200344598Y-97919287D01*
X200444760Y-98161698D01*
X200444760Y-139139631D01*
X200409926Y-139162906D01*
X187699766Y-151873066D01*
X187518761Y-152143959D01*
X187515814Y-152158775D01*
X183102690Y-156899139D01*
X182897157Y-156984063D01*
X182633908Y-157246853D01*
X182491262Y-157590381D01*
X182490938Y-157962347D01*
X177826075Y-157962347D01*
X179236725Y-156582975D01*
X180014750Y-156582975D01*
X180261540Y-157108761D01*
X180690754Y-157500082D01*
X181102342Y-157670567D01*
X181332798Y-157549294D01*
X181332798Y-156352519D01*
X181586798Y-156352519D01*
X181586798Y-157549294D01*
X181817254Y-157670567D01*
X182343040Y-157423777D01*
X182734361Y-156994563D01*
X182904846Y-156582975D01*
X182783573Y-156352519D01*
X181586798Y-156352519D01*
X181332798Y-156352519D01*
X180136023Y-156352519D01*
X180014750Y-156582975D01*
X179236725Y-156582975D01*
X180046678Y-155790981D01*
X180014750Y-155868063D01*
X180136023Y-156098519D01*
X181153190Y-156098519D01*
X181266049Y-156211378D01*
X181445657Y-156031770D01*
X181332798Y-155918911D01*
X181332798Y-154901744D01*
X181586798Y-154901744D01*
X181586798Y-156098519D01*
X182783573Y-156098519D01*
X182904846Y-155868063D01*
X182658056Y-155342277D01*
X182228842Y-154950956D01*
X181817254Y-154780471D01*
X181586798Y-154901744D01*
X181332798Y-154901744D01*
X181102342Y-154780471D01*
X181059573Y-154800546D01*
X182640980Y-153254203D01*
X182893323Y-153149937D01*
X183156572Y-152887147D01*
X183299218Y-152543619D01*
X183299542Y-152171653D01*
X183157497Y-151827877D01*
X182894707Y-151564628D01*
X182551179Y-151421982D01*
X182179213Y-151421658D01*
X181835437Y-151563703D01*
X181572188Y-151826493D01*
X181476340Y-152057320D01*
X176052902Y-157360504D01*
X176050209Y-157364438D01*
X176046246Y-157367086D01*
X175958296Y-157498713D01*
X175898751Y-157585701D01*
X174958945Y-158525507D01*
X174844701Y-158548232D01*
X174598139Y-158712979D01*
X174433392Y-158959541D01*
X174410667Y-159073785D01*
X172814009Y-160670443D01*
X172769521Y-160679292D01*
X172522959Y-160844039D01*
X170246414Y-163120584D01*
X170226219Y-163124601D01*
X170144656Y-163179100D01*
X169955326Y-163305606D01*
X152849152Y-180411780D01*
X132626409Y-180411780D01*
X127911213Y-180149825D01*
X127951248Y-180020853D01*
X127105000Y-179174605D01*
X126258752Y-180020853D01*
X83873347Y-180020853D01*
X82004680Y-178772250D01*
X125633157Y-178772250D01*
X125659952Y-179352456D01*
X125830437Y-179764044D01*
X126079147Y-179841248D01*
X126925395Y-178995000D01*
X127284605Y-178995000D01*
X128130853Y-179841248D01*
X128379563Y-179764044D01*
X128576843Y-179217750D01*
X128550048Y-178637544D01*
X128379563Y-178225956D01*
X128130853Y-178148752D01*
X127284605Y-178995000D01*
X126925395Y-178995000D01*
X126079147Y-178148752D01*
X125830437Y-178225956D01*
X125633157Y-178772250D01*
X82004680Y-178772250D01*
X80802752Y-177969147D01*
X126258752Y-177969147D01*
X127105000Y-178815395D01*
X127951248Y-177969147D01*
X127874044Y-177720437D01*
X127327750Y-177523157D01*
X126747544Y-177549952D01*
X126335956Y-177720437D01*
X126258752Y-177969147D01*
X80802752Y-177969147D01*
X62656075Y-165843925D01*
X57233633Y-157728667D01*
X69854638Y-157728667D01*
X69996683Y-158072443D01*
X70259473Y-158335692D01*
X70510736Y-158440026D01*
X72491489Y-160386921D01*
X72359808Y-160518373D01*
X72259222Y-160760610D01*
X71266166Y-161753666D01*
X71090986Y-162015841D01*
X71064408Y-162042373D01*
X70921762Y-162385901D01*
X70921438Y-162757867D01*
X71063483Y-163101643D01*
X71326273Y-163364892D01*
X71669801Y-163507538D01*
X72041767Y-163507862D01*
X72385543Y-163365817D01*
X72648792Y-163103027D01*
X72791438Y-162759499D01*
X72791586Y-162589982D01*
X73440333Y-161941235D01*
X73680943Y-161841817D01*
X73825188Y-161697823D01*
X76148277Y-163981202D01*
X76281577Y-164068617D01*
X76414059Y-164157139D01*
X76417655Y-164157854D01*
X76420721Y-164159865D01*
X76478058Y-164170757D01*
X89313731Y-176968898D01*
X89448912Y-177058937D01*
X89583759Y-177149039D01*
X89584370Y-177149160D01*
X89584890Y-177149507D01*
X89744299Y-177180973D01*
X89903300Y-177212600D01*
X116814600Y-177212600D01*
X116817349Y-177212053D01*
X116820102Y-177212582D01*
X129416183Y-177129585D01*
X129734201Y-177261638D01*
X130106167Y-177261962D01*
X130449943Y-177119917D01*
X130713192Y-176857127D01*
X130855838Y-176513599D01*
X130856162Y-176141633D01*
X130714117Y-175797857D01*
X130451327Y-175534608D01*
X130107799Y-175391962D01*
X129735833Y-175391638D01*
X129573994Y-175458508D01*
X116811830Y-175542600D01*
X90248452Y-175542600D01*
X77462869Y-162794402D01*
X77327923Y-162704520D01*
X77192841Y-162614261D01*
X77192228Y-162614139D01*
X77191710Y-162613794D01*
X77126319Y-162600886D01*
X71783753Y-157349643D01*
X71917025Y-157404846D01*
X72147481Y-157283573D01*
X72147481Y-156266406D01*
X72260340Y-156153547D01*
X72193591Y-156086798D01*
X72401481Y-156086798D01*
X72401481Y-157283573D01*
X72631937Y-157404846D01*
X73157723Y-157158056D01*
X73549044Y-156728842D01*
X73719529Y-156317254D01*
X73598256Y-156086798D01*
X72401481Y-156086798D01*
X72193591Y-156086798D01*
X72080732Y-155973939D01*
X71967873Y-156086798D01*
X70950706Y-156086798D01*
X70829433Y-156317254D01*
X70966208Y-156608653D01*
X70604633Y-156608338D01*
X70260857Y-156750383D01*
X69997608Y-157013173D01*
X69854962Y-157356701D01*
X69854638Y-157728667D01*
X57233633Y-157728667D01*
X55812868Y-155602342D01*
X70829433Y-155602342D01*
X70950706Y-155832798D01*
X72147481Y-155832798D01*
X72147481Y-154636023D01*
X72401481Y-154636023D01*
X72401481Y-155832798D01*
X73598256Y-155832798D01*
X73719529Y-155602342D01*
X73472739Y-155076556D01*
X73043525Y-154685235D01*
X72631937Y-154514750D01*
X72401481Y-154636023D01*
X72147481Y-154636023D01*
X71917025Y-154514750D01*
X71391239Y-154761540D01*
X70999918Y-155190754D01*
X70829433Y-155602342D01*
X55812868Y-155602342D01*
X54129317Y-153082730D01*
X66157270Y-153082730D01*
X66215122Y-153373569D01*
X66379869Y-153620131D01*
X66626431Y-153784878D01*
X66917270Y-153842730D01*
X67252110Y-153842730D01*
X67542949Y-153784878D01*
X67789511Y-153620131D01*
X67954258Y-153373569D01*
X68012110Y-153082730D01*
X67954258Y-152791891D01*
X67789511Y-152545329D01*
X67542949Y-152380582D01*
X67252110Y-152322730D01*
X66917270Y-152322730D01*
X66626431Y-152380582D01*
X66379869Y-152545329D01*
X66215122Y-152791891D01*
X66157270Y-153082730D01*
X54129317Y-153082730D01*
X42930610Y-136322682D01*
X42187736Y-132588000D01*
X76889000Y-132588000D01*
X76889000Y-152044400D01*
X76952561Y-152363941D01*
X77132634Y-152633439D01*
X77133566Y-152634834D01*
X82916059Y-158417327D01*
X83054823Y-158753163D01*
X83317613Y-159016412D01*
X83661141Y-159159058D01*
X84033107Y-159159382D01*
X84376883Y-159017337D01*
X84640132Y-158754547D01*
X84782778Y-158411019D01*
X84783102Y-158039053D01*
X84641057Y-157695277D01*
X84378267Y-157432028D01*
X84231590Y-157371122D01*
X78559000Y-151698532D01*
X78559000Y-132933868D01*
X98567894Y-112924974D01*
X143472325Y-112924974D01*
X143704004Y-113485678D01*
X144132619Y-113915042D01*
X144692918Y-114147698D01*
X145299601Y-114148228D01*
X145860305Y-113916549D01*
X146289669Y-113487934D01*
X146522325Y-112927635D01*
X146522855Y-112320952D01*
X146291176Y-111760248D01*
X145862561Y-111330884D01*
X145302262Y-111098228D01*
X144695579Y-111097698D01*
X144134875Y-111329377D01*
X143705511Y-111757992D01*
X143472855Y-112318291D01*
X143472325Y-112924974D01*
X98567894Y-112924974D01*
X113059820Y-98433048D01*
X113075467Y-98433062D01*
X113419243Y-98291017D01*
X113682492Y-98028227D01*
X113825138Y-97684699D01*
X113825462Y-97312733D01*
X113683417Y-96968957D01*
X113420627Y-96705708D01*
X113077099Y-96563062D01*
X112705133Y-96562738D01*
X112361357Y-96704783D01*
X112098108Y-96967573D01*
X112051631Y-97079501D01*
X77133566Y-131997566D01*
X76952561Y-132268459D01*
X76889000Y-132588000D01*
X42187736Y-132588000D01*
X36003948Y-101500000D01*
X36268043Y-100172300D01*
X42992700Y-100172300D01*
X42992700Y-108280200D01*
X43056261Y-108599741D01*
X43226312Y-108854240D01*
X43237266Y-108870634D01*
X50971566Y-116604934D01*
X51242459Y-116785939D01*
X51562000Y-116849500D01*
X81978500Y-116849500D01*
X82298041Y-116785939D01*
X82568934Y-116604934D01*
X102834868Y-96339000D01*
X111633000Y-96339000D01*
X111952541Y-96275439D01*
X112223434Y-96094434D01*
X114004518Y-94313350D01*
X115436650Y-94313350D01*
X115756191Y-94249789D01*
X116027084Y-94068784D01*
X121953977Y-88141891D01*
X130571069Y-88141891D01*
X130802748Y-88702595D01*
X131231363Y-89131959D01*
X131791662Y-89364615D01*
X132398345Y-89365145D01*
X132959049Y-89133466D01*
X133388413Y-88704851D01*
X133621069Y-88144552D01*
X133621599Y-87537869D01*
X133389920Y-86977165D01*
X132961305Y-86547801D01*
X132401006Y-86315145D01*
X131794323Y-86314615D01*
X131233619Y-86546294D01*
X130804255Y-86974909D01*
X130571599Y-87535208D01*
X130571069Y-88141891D01*
X121953977Y-88141891D01*
X125319697Y-84776171D01*
X125349000Y-84782000D01*
X125668541Y-84718439D01*
X125939434Y-84537434D01*
X126120439Y-84266541D01*
X126184000Y-83947000D01*
X126184000Y-81153000D01*
X126120439Y-80833459D01*
X125939434Y-80562566D01*
X124814119Y-79437251D01*
X124814119Y-78917541D01*
X125091363Y-78695034D01*
X125360678Y-78204150D01*
X125421641Y-77647570D01*
X125264969Y-77110027D01*
X125239007Y-77060153D01*
X124888551Y-76623484D01*
X124397667Y-76354169D01*
X123991151Y-76309643D01*
X124187836Y-75951143D01*
X124248799Y-75394563D01*
X124092127Y-74857020D01*
X124066165Y-74807146D01*
X123715709Y-74370477D01*
X123224825Y-74101162D01*
X122668245Y-74040199D01*
X122130702Y-74196871D01*
X121694033Y-74547327D01*
X121424718Y-75038211D01*
X121374682Y-75495027D01*
X120971818Y-75274003D01*
X120415238Y-75213040D01*
X119877695Y-75369712D01*
X119441026Y-75720168D01*
X119171711Y-76211052D01*
X119121675Y-76667869D01*
X118718810Y-76446844D01*
X118162230Y-76385881D01*
X117624687Y-76542553D01*
X117188018Y-76893009D01*
X116918703Y-77383893D01*
X116868667Y-77840710D01*
X116465803Y-77619686D01*
X115909223Y-77558723D01*
X115371680Y-77715395D01*
X114935011Y-78065851D01*
X114665696Y-78556735D01*
X114615660Y-79013552D01*
X114212795Y-78792527D01*
X113656215Y-78731564D01*
X113118672Y-78888236D01*
X112682003Y-79238692D01*
X112412688Y-79729576D01*
X112362652Y-80186393D01*
X111959788Y-79965369D01*
X111403208Y-79904406D01*
X110865665Y-80061078D01*
X110428996Y-80411534D01*
X110159681Y-80902418D01*
X110109645Y-81359235D01*
X109706780Y-81138210D01*
X109150200Y-81077247D01*
X108612657Y-81233919D01*
X108175988Y-81584375D01*
X107906673Y-82075259D01*
X107856637Y-82532076D01*
X107453773Y-82311052D01*
X106897193Y-82250089D01*
X106359650Y-82406761D01*
X105922981Y-82757217D01*
X105653666Y-83248101D01*
X105592703Y-83804681D01*
X105749375Y-84342224D01*
X105775338Y-84392098D01*
X106125793Y-84828767D01*
X106616677Y-85098083D01*
X107023192Y-85142608D01*
X106826507Y-85501108D01*
X106765544Y-86057688D01*
X106922216Y-86595231D01*
X106948179Y-86645105D01*
X107298634Y-87081774D01*
X107373066Y-87122610D01*
X107373066Y-88037926D01*
X107436627Y-88357467D01*
X107497117Y-88447996D01*
X107617632Y-88628360D01*
X108316035Y-89326763D01*
X108415453Y-89567373D01*
X108678243Y-89830622D01*
X109021771Y-89973268D01*
X109393737Y-89973592D01*
X109737513Y-89831547D01*
X110000762Y-89568757D01*
X110143408Y-89225229D01*
X110143732Y-88853263D01*
X110001687Y-88509487D01*
X109738897Y-88246238D01*
X109496660Y-88145652D01*
X109043066Y-87692058D01*
X109043066Y-87127431D01*
X109320310Y-86904924D01*
X109589625Y-86414040D01*
X109626074Y-86081268D01*
X109626074Y-86280274D01*
X109689635Y-86599815D01*
X109823895Y-86800749D01*
X109870640Y-86870708D01*
X111165915Y-88165983D01*
X111265333Y-88406593D01*
X111528123Y-88669842D01*
X111871651Y-88812488D01*
X112023990Y-88812621D01*
X112191800Y-88846000D01*
X112511340Y-88782440D01*
X112782234Y-88601434D01*
X112963240Y-88330540D01*
X113026800Y-88011000D01*
X112993480Y-87843490D01*
X112993612Y-87692483D01*
X112851567Y-87348707D01*
X112588777Y-87085458D01*
X112346540Y-86984872D01*
X111307271Y-85945603D01*
X111573318Y-85732083D01*
X111842633Y-85241199D01*
X111892669Y-84784382D01*
X112295533Y-85005407D01*
X112852113Y-85066369D01*
X113389656Y-84909697D01*
X113826325Y-84559241D01*
X114095640Y-84068357D01*
X114145676Y-83611540D01*
X114548541Y-83832566D01*
X115105121Y-83893528D01*
X115642664Y-83736856D01*
X116079333Y-83386400D01*
X116348648Y-82895516D01*
X116398684Y-82438699D01*
X116801548Y-82659724D01*
X117358128Y-82720686D01*
X117895671Y-82564014D01*
X118332340Y-82213558D01*
X118601655Y-81722674D01*
X118651691Y-81265857D01*
X119054556Y-81486883D01*
X119611136Y-81547845D01*
X120148679Y-81391173D01*
X120585348Y-81040717D01*
X120854663Y-80549833D01*
X120891111Y-80217070D01*
X120891111Y-82055121D01*
X120834266Y-82111966D01*
X120653261Y-82382859D01*
X120589700Y-82702400D01*
X120589700Y-82826432D01*
X111033132Y-92383000D01*
X102180488Y-92383000D01*
X102170239Y-92376152D01*
X101879400Y-92318300D01*
X100990400Y-92318300D01*
X100699561Y-92376152D01*
X100620902Y-92428710D01*
X100531159Y-92446561D01*
X100349901Y-92567674D01*
X100260266Y-92627566D01*
X81353232Y-111534600D01*
X52352368Y-111534600D01*
X47375420Y-106557652D01*
X47375420Y-102630853D01*
X49158752Y-102630853D01*
X49235956Y-102879563D01*
X49782250Y-103076843D01*
X50362456Y-103050048D01*
X50774044Y-102879563D01*
X50851248Y-102630853D01*
X50005000Y-101784605D01*
X49158752Y-102630853D01*
X47375420Y-102630853D01*
X47375420Y-101564868D01*
X47558038Y-101382250D01*
X48533157Y-101382250D01*
X48559952Y-101962456D01*
X48730437Y-102374044D01*
X48979147Y-102451248D01*
X49825395Y-101605000D01*
X50184605Y-101605000D01*
X51030853Y-102451248D01*
X51279563Y-102374044D01*
X51356920Y-102159832D01*
X51356920Y-103880920D01*
X51359035Y-103891550D01*
X51357192Y-103902231D01*
X51390742Y-104050956D01*
X51420481Y-104200461D01*
X51426501Y-104209471D01*
X51428887Y-104220046D01*
X51704001Y-104839052D01*
X51703798Y-105071927D01*
X51845843Y-105415703D01*
X52108633Y-105678952D01*
X52452161Y-105821598D01*
X52824127Y-105821922D01*
X53167903Y-105679877D01*
X53431152Y-105417087D01*
X53573798Y-105073559D01*
X53574122Y-104701593D01*
X53432077Y-104357817D01*
X53225784Y-104151164D01*
X53026920Y-103703720D01*
X53026920Y-100300000D01*
X62452560Y-100300000D01*
X62452560Y-101100000D01*
X62496838Y-101335317D01*
X62603759Y-101501477D01*
X62503569Y-101648110D01*
X62452560Y-101900000D01*
X62452560Y-102700000D01*
X62496838Y-102935317D01*
X62635910Y-103151441D01*
X62848110Y-103296431D01*
X63100000Y-103347440D01*
X63900000Y-103347440D01*
X64135317Y-103303162D01*
X64351441Y-103164090D01*
X64496431Y-102951890D01*
X64547440Y-102700000D01*
X64547440Y-102433428D01*
X82024750Y-84956119D01*
X82205755Y-84685225D01*
X82269315Y-84365685D01*
X82269315Y-57900685D01*
X107134315Y-57900685D01*
X107453856Y-57837124D01*
X107724749Y-57656119D01*
X126200000Y-39180868D01*
X143543881Y-56524750D01*
X143814775Y-56705755D01*
X144134315Y-56769315D01*
X170599315Y-56769315D01*
X170599315Y-81634315D01*
X170662876Y-81953856D01*
X170803957Y-82164999D01*
X170843881Y-82224749D01*
X189319132Y-100700000D01*
X172475251Y-117543881D01*
X172294246Y-117814774D01*
X172230685Y-118134315D01*
X172230685Y-145599315D01*
X146365685Y-145599315D01*
X146046145Y-145662875D01*
X145775251Y-145843880D01*
X127800000Y-163819132D01*
X110456119Y-146475251D01*
X110185226Y-146294246D01*
X109865685Y-146230685D01*
X84895079Y-146230685D01*
X85005440Y-146157494D01*
X85358994Y-145803940D01*
X85494079Y-145606237D01*
X85548563Y-145355075D01*
X85501039Y-145102504D01*
X85358994Y-144888322D01*
X85241210Y-144770538D01*
X85241210Y-131522158D01*
X99469368Y-117294000D01*
X133982032Y-117294000D01*
X135784657Y-119096625D01*
X135776842Y-119110870D01*
X135726806Y-119567687D01*
X135323942Y-119346663D01*
X134767362Y-119285700D01*
X134639062Y-119323094D01*
X134132212Y-118816244D01*
X134045470Y-118758285D01*
X133861319Y-118635239D01*
X133541778Y-118571678D01*
X101776522Y-118571678D01*
X101456981Y-118635239D01*
X101272830Y-118758285D01*
X101186088Y-118816244D01*
X91923456Y-128078876D01*
X91895783Y-128120291D01*
X91857923Y-128152656D01*
X91806020Y-128254632D01*
X91742451Y-128349770D01*
X91732734Y-128398619D01*
X91710140Y-128443011D01*
X91701213Y-128557088D01*
X91678890Y-128669310D01*
X91688607Y-128718161D01*
X91684721Y-128767820D01*
X92486502Y-135516524D01*
X92450106Y-135552920D01*
X92315021Y-135750623D01*
X92260537Y-136001785D01*
X92276169Y-136084865D01*
X92209753Y-136070457D01*
X91957182Y-136117981D01*
X91743000Y-136260026D01*
X91485207Y-136517819D01*
X91457809Y-136476506D01*
X90892124Y-135910821D01*
X90694421Y-135775736D01*
X90515556Y-135736935D01*
X90484969Y-135662909D01*
X90222179Y-135399660D01*
X89878651Y-135257014D01*
X89506685Y-135256690D01*
X89162909Y-135398735D01*
X88899660Y-135661525D01*
X88757014Y-136005053D01*
X88756690Y-136377019D01*
X88898735Y-136720795D01*
X89161525Y-136984044D01*
X89238290Y-137015920D01*
X89268776Y-137177942D01*
X89410821Y-137392124D01*
X89976506Y-137957809D01*
X90174209Y-138092894D01*
X90367306Y-138134782D01*
X90400146Y-138309312D01*
X90542191Y-138523494D01*
X91107876Y-139089179D01*
X91305579Y-139224264D01*
X91556741Y-139278748D01*
X91591365Y-139272233D01*
X97905466Y-145586334D01*
X98176359Y-145767339D01*
X98495900Y-145830900D01*
X109979032Y-145830900D01*
X120669166Y-156521034D01*
X120940059Y-156702039D01*
X121259600Y-156765600D01*
X124637800Y-156765600D01*
X124957341Y-156702039D01*
X125228234Y-156521034D01*
X128202252Y-153547016D01*
X128435317Y-153503162D01*
X128651441Y-153364090D01*
X128796431Y-153151890D01*
X128847440Y-152900000D01*
X128847440Y-152633428D01*
X143211553Y-138269315D01*
X161800514Y-138269315D01*
X161775736Y-138305579D01*
X161736935Y-138484444D01*
X161662909Y-138515031D01*
X161399660Y-138777821D01*
X161257014Y-139121349D01*
X161256690Y-139493315D01*
X161398735Y-139837091D01*
X161661525Y-140100340D01*
X162005053Y-140242986D01*
X162377019Y-140243310D01*
X162720795Y-140101265D01*
X162984044Y-139838475D01*
X163015920Y-139761710D01*
X163177942Y-139731224D01*
X163392124Y-139589179D01*
X163957809Y-139023494D01*
X164092894Y-138825791D01*
X164134782Y-138632694D01*
X164309312Y-138599854D01*
X164523494Y-138457809D01*
X165089179Y-137892124D01*
X165224264Y-137694421D01*
X165278748Y-137443259D01*
X165231224Y-137190688D01*
X165089179Y-136976506D01*
X164900685Y-136788012D01*
X164900685Y-114980183D01*
X176988716Y-102892152D01*
X176996838Y-102935317D01*
X177095878Y-103089229D01*
X177065162Y-103163201D01*
X177064838Y-103535167D01*
X177206883Y-103878943D01*
X177469673Y-104142192D01*
X177813201Y-104284838D01*
X178185167Y-104285162D01*
X178528943Y-104143117D01*
X178792192Y-103880327D01*
X178934838Y-103536799D01*
X178935162Y-103164833D01*
X178903421Y-103088014D01*
X178996431Y-102951890D01*
X179047440Y-102700000D01*
X179047440Y-101900000D01*
X179003162Y-101664683D01*
X178896241Y-101498523D01*
X178996431Y-101351890D01*
X179047440Y-101100000D01*
X179047440Y-100300000D01*
X179003162Y-100064683D01*
X178864090Y-99848559D01*
X178651890Y-99703569D01*
X178400000Y-99652560D01*
X178133428Y-99652560D01*
X163269315Y-84788447D01*
X163269315Y-67199486D01*
X163305579Y-67224264D01*
X163484444Y-67263065D01*
X163515031Y-67337091D01*
X163777821Y-67600340D01*
X164121349Y-67742986D01*
X164493315Y-67743310D01*
X164837091Y-67601265D01*
X165100340Y-67338475D01*
X165242986Y-66994947D01*
X165243310Y-66622981D01*
X165101265Y-66279205D01*
X164838475Y-66015956D01*
X164761710Y-65984080D01*
X164731224Y-65822058D01*
X164589179Y-65607876D01*
X164023494Y-65042191D01*
X163825791Y-64907106D01*
X163632694Y-64865218D01*
X163599854Y-64690688D01*
X163457809Y-64476506D01*
X162892124Y-63910821D01*
X162694421Y-63775736D01*
X162443259Y-63721252D01*
X162190688Y-63768776D01*
X161976506Y-63910821D01*
X161788012Y-64099315D01*
X140980183Y-64099315D01*
X129242727Y-52361859D01*
X129449714Y-52223554D01*
X129630719Y-51952661D01*
X129694280Y-51633120D01*
X129694280Y-50904886D01*
X129784838Y-50686799D01*
X129785162Y-50314833D01*
X129643117Y-49971057D01*
X129380327Y-49707808D01*
X129036799Y-49565162D01*
X128664833Y-49564838D01*
X128588014Y-49596579D01*
X128451890Y-49503569D01*
X128200000Y-49452560D01*
X127400000Y-49452560D01*
X127164683Y-49496838D01*
X126998523Y-49603759D01*
X126851890Y-49503569D01*
X126600000Y-49452560D01*
X125800000Y-49452560D01*
X125564683Y-49496838D01*
X125348559Y-49635910D01*
X125203569Y-49848110D01*
X125152560Y-50100000D01*
X125152560Y-50666572D01*
X110588447Y-65230685D01*
X92699486Y-65230685D01*
X92724264Y-65194421D01*
X92763065Y-65015556D01*
X92837091Y-64984969D01*
X93100340Y-64722179D01*
X93242986Y-64378651D01*
X93243310Y-64006685D01*
X93101265Y-63662909D01*
X92838475Y-63399660D01*
X92494947Y-63257014D01*
X92122981Y-63256690D01*
X91779205Y-63398735D01*
X91515956Y-63661525D01*
X91484080Y-63738290D01*
X91322058Y-63768776D01*
X91107876Y-63910821D01*
X90542191Y-64476506D01*
X90407106Y-64674209D01*
X90365218Y-64867306D01*
X90190688Y-64900146D01*
X89976506Y-65042191D01*
X89410821Y-65607876D01*
X89275736Y-65805579D01*
X89221252Y-66056741D01*
X89268776Y-66309312D01*
X89410821Y-66523494D01*
X89599315Y-66711988D01*
X89599315Y-78040917D01*
X72663166Y-94977066D01*
X72482161Y-95247959D01*
X72418600Y-95567500D01*
X72418600Y-101790500D01*
X72482161Y-102110041D01*
X72571043Y-102243062D01*
X72663166Y-102380934D01*
X73172666Y-102890434D01*
X73443559Y-103071439D01*
X73763100Y-103135000D01*
X75125331Y-103135000D01*
X75135910Y-103151441D01*
X75348110Y-103296431D01*
X75600000Y-103347440D01*
X76400000Y-103347440D01*
X76635317Y-103303162D01*
X76851441Y-103164090D01*
X76996431Y-102951890D01*
X77047440Y-102700000D01*
X77047440Y-101900000D01*
X77003162Y-101664683D01*
X76896241Y-101498523D01*
X76996431Y-101351890D01*
X77047440Y-101100000D01*
X77047440Y-100300000D01*
X77003162Y-100064683D01*
X76864090Y-99848559D01*
X76835000Y-99828683D01*
X76835000Y-99637240D01*
X76820006Y-99561862D01*
X76820202Y-99337113D01*
X76678157Y-98993337D01*
X76415367Y-98730088D01*
X76071839Y-98587442D01*
X75699873Y-98587118D01*
X75356097Y-98729163D01*
X75092848Y-98991953D01*
X74950202Y-99335481D01*
X74949878Y-99707447D01*
X75057826Y-99968702D01*
X75003569Y-100048110D01*
X74952560Y-100300000D01*
X74952560Y-101100000D01*
X74996838Y-101335317D01*
X75080287Y-101465000D01*
X74108968Y-101465000D01*
X74088600Y-101444632D01*
X74088600Y-95913368D01*
X91024749Y-78977219D01*
X91062631Y-78920525D01*
X91205754Y-78706326D01*
X91269315Y-78386785D01*
X91269315Y-66900685D01*
X110934315Y-66900685D01*
X111253856Y-66837124D01*
X111524749Y-66656119D01*
X126350000Y-51830868D01*
X140043881Y-65524749D01*
X140314774Y-65705754D01*
X140634315Y-65769315D01*
X161599315Y-65769315D01*
X161599315Y-85134315D01*
X161662876Y-85453856D01*
X161820556Y-85689840D01*
X161843881Y-85724749D01*
X176819132Y-100700000D01*
X163475251Y-114043881D01*
X163294246Y-114314774D01*
X163230685Y-114634315D01*
X163230685Y-136599315D01*
X142865685Y-136599315D01*
X142546144Y-136662876D01*
X142309344Y-136821101D01*
X142275251Y-136843881D01*
X127666572Y-151452560D01*
X127400000Y-151452560D01*
X127164683Y-151496838D01*
X126998523Y-151603759D01*
X126851890Y-151503569D01*
X126600000Y-151452560D01*
X125800000Y-151452560D01*
X125564683Y-151496838D01*
X125410771Y-151595878D01*
X125336799Y-151565162D01*
X124964833Y-151564838D01*
X124621057Y-151706883D01*
X124357808Y-151969673D01*
X124215162Y-152313201D01*
X124214838Y-152685167D01*
X124356883Y-153028943D01*
X124619673Y-153292192D01*
X124963201Y-153434838D01*
X125335167Y-153435162D01*
X125411986Y-153403421D01*
X125548110Y-153496431D01*
X125800000Y-153547440D01*
X125840092Y-153547440D01*
X124291932Y-155095600D01*
X121605468Y-155095600D01*
X110915334Y-144405466D01*
X110747078Y-144293041D01*
X110644441Y-144224461D01*
X110324900Y-144160900D01*
X98841768Y-144160900D01*
X92884342Y-138203474D01*
X92941460Y-138165594D01*
X93295014Y-137812040D01*
X93430099Y-137614337D01*
X93484583Y-137363175D01*
X93468951Y-137280095D01*
X93535367Y-137294503D01*
X93787938Y-137246979D01*
X94002120Y-137104934D01*
X94355674Y-136751380D01*
X94490759Y-136553677D01*
X94545243Y-136302515D01*
X94497719Y-136049944D01*
X94355674Y-135835762D01*
X94186018Y-135666106D01*
X93390866Y-128973202D01*
X102122390Y-120241678D01*
X133195910Y-120241678D01*
X133495612Y-120541380D01*
X133473799Y-120740529D01*
X133070934Y-120519504D01*
X132514354Y-120458541D01*
X131976811Y-120615213D01*
X131540142Y-120965669D01*
X131478503Y-121078019D01*
X107753781Y-121078019D01*
X107434241Y-121141579D01*
X107163347Y-121322585D01*
X102400185Y-126085747D01*
X102322973Y-126068997D01*
X102070402Y-126116521D01*
X101856220Y-126258566D01*
X101502666Y-126612120D01*
X101367581Y-126809823D01*
X101313097Y-127060985D01*
X101328729Y-127144065D01*
X101262313Y-127129657D01*
X101009742Y-127177181D01*
X100795560Y-127319226D01*
X100529772Y-127585014D01*
X100457809Y-127476506D01*
X99892124Y-126910821D01*
X99694421Y-126775736D01*
X99515556Y-126736935D01*
X99484969Y-126662909D01*
X99222179Y-126399660D01*
X98878651Y-126257014D01*
X98506685Y-126256690D01*
X98162909Y-126398735D01*
X97899660Y-126661525D01*
X97757014Y-127005053D01*
X97756690Y-127377019D01*
X97898735Y-127720795D01*
X98161525Y-127984044D01*
X98238290Y-128015920D01*
X98268776Y-128177942D01*
X98410821Y-128392124D01*
X98976506Y-128957809D01*
X99174209Y-129092894D01*
X99324916Y-129125586D01*
X97199566Y-131250936D01*
X97018561Y-131521829D01*
X96955000Y-131841370D01*
X96955000Y-141617700D01*
X97018561Y-141937241D01*
X97085351Y-142037199D01*
X97199566Y-142208134D01*
X98621966Y-143630534D01*
X98892859Y-143811539D01*
X99212400Y-143875100D01*
X110512432Y-143875100D01*
X113646066Y-147008734D01*
X113916959Y-147189739D01*
X114236500Y-147253300D01*
X121793000Y-147253300D01*
X122112541Y-147189739D01*
X122383434Y-147008734D01*
X128378272Y-141013896D01*
X128435317Y-141003162D01*
X128651441Y-140864090D01*
X128796431Y-140651890D01*
X128847440Y-140400000D01*
X128847440Y-140133428D01*
X139711553Y-129269315D01*
X152800514Y-129269315D01*
X152775736Y-129305579D01*
X152738830Y-129475711D01*
X152676457Y-129501483D01*
X152413208Y-129764273D01*
X152270562Y-130107801D01*
X152270238Y-130479767D01*
X152412283Y-130823543D01*
X152675073Y-131086792D01*
X153018601Y-131229438D01*
X153390567Y-131229762D01*
X153734343Y-131087717D01*
X153997592Y-130824927D01*
X154024513Y-130760093D01*
X154177942Y-130731224D01*
X154392124Y-130589179D01*
X154957809Y-130023494D01*
X155092894Y-129825791D01*
X155134782Y-129632694D01*
X155309312Y-129599854D01*
X155523494Y-129457809D01*
X156089179Y-128892124D01*
X156224264Y-128694421D01*
X156278748Y-128443259D01*
X156231224Y-128190688D01*
X156089179Y-127976506D01*
X155900685Y-127788012D01*
X155900685Y-111480183D01*
X164488716Y-102892152D01*
X164496838Y-102935317D01*
X164595878Y-103089229D01*
X164565162Y-103163201D01*
X164564838Y-103535167D01*
X164706883Y-103878943D01*
X164969673Y-104142192D01*
X165313201Y-104284838D01*
X165685167Y-104285162D01*
X166028943Y-104143117D01*
X166292192Y-103880327D01*
X166434838Y-103536799D01*
X166435162Y-103164833D01*
X166403421Y-103088014D01*
X166496431Y-102951890D01*
X166547440Y-102700000D01*
X166547440Y-101900000D01*
X166503162Y-101664683D01*
X166396241Y-101498523D01*
X166496431Y-101351890D01*
X166547440Y-101100000D01*
X166547440Y-100300000D01*
X166503162Y-100064683D01*
X166364090Y-99848559D01*
X166151890Y-99703569D01*
X165900000Y-99652560D01*
X165633428Y-99652560D01*
X154269315Y-88288447D01*
X154269315Y-76199486D01*
X154305579Y-76224264D01*
X154467525Y-76259395D01*
X154488783Y-76310843D01*
X154751573Y-76574092D01*
X155095101Y-76716738D01*
X155467067Y-76717062D01*
X155810843Y-76575017D01*
X156074092Y-76312227D01*
X156216738Y-75968699D01*
X156217062Y-75596733D01*
X156075017Y-75252957D01*
X155812227Y-74989708D01*
X155758577Y-74967431D01*
X155731224Y-74822058D01*
X155589179Y-74607876D01*
X155023494Y-74042191D01*
X154825791Y-73907106D01*
X154632694Y-73865218D01*
X154599854Y-73690688D01*
X154457809Y-73476506D01*
X153892124Y-72910821D01*
X153694421Y-72775736D01*
X153443259Y-72721252D01*
X153190688Y-72768776D01*
X152976506Y-72910821D01*
X152788012Y-73099315D01*
X137674117Y-73099315D01*
X128522113Y-63947311D01*
X128589229Y-63904122D01*
X128663201Y-63934838D01*
X129035167Y-63935162D01*
X129378943Y-63793117D01*
X129642192Y-63530327D01*
X129784838Y-63186799D01*
X129785162Y-62814833D01*
X129643117Y-62471057D01*
X129380327Y-62207808D01*
X129036799Y-62065162D01*
X128664833Y-62064838D01*
X128588014Y-62096579D01*
X128451890Y-62003569D01*
X128200000Y-61952560D01*
X127400000Y-61952560D01*
X127164683Y-61996838D01*
X126998523Y-62103759D01*
X126851890Y-62003569D01*
X126600000Y-61952560D01*
X125800000Y-61952560D01*
X125564683Y-61996838D01*
X125348559Y-62135910D01*
X125203569Y-62348110D01*
X125152560Y-62600000D01*
X125152560Y-62866572D01*
X113788447Y-74230685D01*
X101699486Y-74230685D01*
X101724264Y-74194421D01*
X101763065Y-74015556D01*
X101837091Y-73984969D01*
X102100340Y-73722179D01*
X102242986Y-73378651D01*
X102243310Y-73006685D01*
X102101265Y-72662909D01*
X101838475Y-72399660D01*
X101494947Y-72257014D01*
X101122981Y-72256690D01*
X100779205Y-72398735D01*
X100515956Y-72661525D01*
X100484080Y-72738290D01*
X100322058Y-72768776D01*
X100107876Y-72910821D01*
X99542191Y-73476506D01*
X99407106Y-73674209D01*
X99365218Y-73867306D01*
X99190688Y-73900146D01*
X98976506Y-74042191D01*
X98788012Y-74230685D01*
X98416315Y-74230685D01*
X98096775Y-74294245D01*
X97825881Y-74475251D01*
X77006566Y-95294566D01*
X76825561Y-95565459D01*
X76762000Y-95885000D01*
X76762000Y-98171000D01*
X76825561Y-98490541D01*
X76999488Y-98750841D01*
X77006566Y-98761434D01*
X81135566Y-102890434D01*
X81406459Y-103071439D01*
X81726000Y-103135000D01*
X87625331Y-103135000D01*
X87635910Y-103151441D01*
X87848110Y-103296431D01*
X88100000Y-103347440D01*
X88900000Y-103347440D01*
X89135317Y-103303162D01*
X89351441Y-103164090D01*
X89496431Y-102951890D01*
X89547440Y-102700000D01*
X89547440Y-101900000D01*
X89503162Y-101664683D01*
X89396241Y-101498523D01*
X89496431Y-101351890D01*
X89547440Y-101100000D01*
X89547440Y-100300000D01*
X89503162Y-100064683D01*
X89404122Y-99910771D01*
X89434838Y-99836799D01*
X89435162Y-99464833D01*
X89293117Y-99121057D01*
X89030327Y-98857808D01*
X88686799Y-98715162D01*
X88314833Y-98714838D01*
X87971057Y-98856883D01*
X87707808Y-99119673D01*
X87565162Y-99463201D01*
X87564838Y-99835167D01*
X87596579Y-99911986D01*
X87503569Y-100048110D01*
X87452560Y-100300000D01*
X87452560Y-101100000D01*
X87496838Y-101335317D01*
X87580287Y-101465000D01*
X82071868Y-101465000D01*
X79910457Y-99303589D01*
X80301145Y-99303930D01*
X80861849Y-99072251D01*
X81291213Y-98643636D01*
X81523869Y-98083337D01*
X81524399Y-97476654D01*
X81292720Y-96915950D01*
X80864105Y-96486586D01*
X80303806Y-96253930D01*
X79697123Y-96253400D01*
X79136419Y-96485079D01*
X78707055Y-96913694D01*
X78474399Y-97473993D01*
X78474056Y-97867188D01*
X78432000Y-97825132D01*
X78432000Y-96234954D01*
X81714371Y-96234954D01*
X81871043Y-96772497D01*
X81897006Y-96822371D01*
X82247461Y-97259040D01*
X82738345Y-97528356D01*
X83144860Y-97572881D01*
X82948175Y-97931381D01*
X82887212Y-98487961D01*
X83043884Y-99025504D01*
X83069847Y-99075378D01*
X83420302Y-99512047D01*
X83911186Y-99781363D01*
X84467766Y-99842325D01*
X85005309Y-99685653D01*
X85441978Y-99335197D01*
X85711293Y-98844313D01*
X85761329Y-98387496D01*
X86164194Y-98608522D01*
X86720774Y-98669484D01*
X87258317Y-98512812D01*
X87694986Y-98162356D01*
X87964301Y-97671472D01*
X88014337Y-97214655D01*
X88417201Y-97435680D01*
X88973781Y-97496642D01*
X89511324Y-97339970D01*
X89947993Y-96989514D01*
X90217308Y-96498630D01*
X90267344Y-96041813D01*
X90670209Y-96262839D01*
X91226789Y-96323801D01*
X91764332Y-96167129D01*
X92201001Y-95816673D01*
X92470316Y-95325789D01*
X92520352Y-94868972D01*
X92923216Y-95089997D01*
X93479796Y-95150959D01*
X94017339Y-94994287D01*
X94454008Y-94643831D01*
X94723323Y-94152947D01*
X94773359Y-93696130D01*
X95176224Y-93917156D01*
X95732804Y-93978118D01*
X96270347Y-93821446D01*
X96707016Y-93470990D01*
X96976331Y-92980106D01*
X97026367Y-92523289D01*
X97429231Y-92744314D01*
X97985811Y-92805276D01*
X98523354Y-92648604D01*
X98960023Y-92298148D01*
X99229338Y-91807264D01*
X99279374Y-91350447D01*
X99682239Y-91571473D01*
X100238819Y-91632435D01*
X100776362Y-91475763D01*
X101213031Y-91125307D01*
X101482346Y-90634423D01*
X101532382Y-90177605D01*
X101935247Y-90398631D01*
X102491827Y-90459593D01*
X103029370Y-90302921D01*
X103466039Y-89952465D01*
X103735354Y-89461581D01*
X103785390Y-89004765D01*
X104188254Y-89225790D01*
X104744834Y-89286752D01*
X105282377Y-89130080D01*
X105719046Y-88779624D01*
X105988361Y-88288740D01*
X106049324Y-87732160D01*
X105892652Y-87194617D01*
X105866690Y-87144743D01*
X105516234Y-86708074D01*
X105025350Y-86438759D01*
X104618835Y-86394233D01*
X104815520Y-86035732D01*
X104876483Y-85479152D01*
X104719811Y-84941609D01*
X104693849Y-84891735D01*
X104343393Y-84455066D01*
X103852509Y-84185751D01*
X103295929Y-84124788D01*
X102758386Y-84281460D01*
X102321717Y-84631916D01*
X102052402Y-85122800D01*
X102002366Y-85579618D01*
X101599501Y-85358593D01*
X101042921Y-85297630D01*
X100505378Y-85454302D01*
X100068709Y-85804758D01*
X99799394Y-86295642D01*
X99749358Y-86752458D01*
X99346494Y-86531434D01*
X98789914Y-86470471D01*
X98252371Y-86627143D01*
X97815702Y-86977599D01*
X97546387Y-87468483D01*
X97496351Y-87925301D01*
X97093486Y-87704276D01*
X96536906Y-87643313D01*
X95999363Y-87799985D01*
X95562694Y-88150441D01*
X95293379Y-88641325D01*
X95243343Y-89098142D01*
X94840478Y-88877117D01*
X94283898Y-88816154D01*
X93746355Y-88972826D01*
X93309686Y-89323282D01*
X93040371Y-89814166D01*
X92990335Y-90270983D01*
X92587471Y-90049959D01*
X92030891Y-89988996D01*
X91493348Y-90145668D01*
X91056679Y-90496124D01*
X90787364Y-90987008D01*
X90737328Y-91443825D01*
X90334463Y-91222800D01*
X89777883Y-91161837D01*
X89240340Y-91318509D01*
X88803671Y-91668965D01*
X88534356Y-92159849D01*
X88484320Y-92616666D01*
X88081456Y-92395642D01*
X87524876Y-92334679D01*
X86987333Y-92491351D01*
X86550664Y-92841807D01*
X86281349Y-93332691D01*
X86231313Y-93789508D01*
X85828448Y-93568483D01*
X85271868Y-93507520D01*
X84734325Y-93664192D01*
X84297656Y-94014648D01*
X84028341Y-94505532D01*
X83978305Y-94962349D01*
X83575441Y-94741325D01*
X83018861Y-94680362D01*
X82481318Y-94837034D01*
X82044649Y-95187490D01*
X81775334Y-95678374D01*
X81714371Y-96234954D01*
X78432000Y-96234954D01*
X78432000Y-96230868D01*
X98762183Y-75900685D01*
X98788012Y-75900685D01*
X98976506Y-76089179D01*
X99174209Y-76224264D01*
X99425371Y-76278748D01*
X99677942Y-76231224D01*
X99892124Y-76089179D01*
X100080618Y-75900685D01*
X114134315Y-75900685D01*
X114453856Y-75837124D01*
X114724749Y-75656119D01*
X126070600Y-64310268D01*
X136285081Y-74524749D01*
X136555974Y-74705754D01*
X136875515Y-74769315D01*
X152599315Y-74769315D01*
X152599315Y-88634315D01*
X152662876Y-88953856D01*
X152780625Y-89130080D01*
X152843881Y-89224749D01*
X164319132Y-100700000D01*
X154475251Y-110543881D01*
X154294246Y-110814774D01*
X154230685Y-111134315D01*
X154230685Y-127599315D01*
X139365685Y-127599315D01*
X139046145Y-127662875D01*
X138775251Y-127843881D01*
X127666572Y-138952560D01*
X127400000Y-138952560D01*
X127164683Y-138996838D01*
X126998523Y-139103759D01*
X126851890Y-139003569D01*
X126600000Y-138952560D01*
X125800000Y-138952560D01*
X125564683Y-138996838D01*
X125348559Y-139135910D01*
X125328683Y-139165000D01*
X125318240Y-139165000D01*
X125082149Y-139211962D01*
X124986033Y-139211878D01*
X124642257Y-139353923D01*
X124379008Y-139616713D01*
X124236362Y-139960241D01*
X124236038Y-140332207D01*
X124378083Y-140675983D01*
X124640873Y-140939232D01*
X124984401Y-141081878D01*
X125356367Y-141082202D01*
X125558740Y-140998584D01*
X125800000Y-141047440D01*
X125982992Y-141047440D01*
X121447132Y-145583300D01*
X114582368Y-145583300D01*
X111448734Y-142449666D01*
X111227715Y-142301986D01*
X111177841Y-142268661D01*
X110858300Y-142205100D01*
X102280504Y-142205100D01*
X102448698Y-142037199D01*
X102681354Y-141476900D01*
X102681703Y-141076541D01*
X110509994Y-141076541D01*
X110796314Y-141769491D01*
X111326021Y-142300122D01*
X112018469Y-142587652D01*
X112768241Y-142588306D01*
X113461191Y-142301986D01*
X113991822Y-141772279D01*
X114279352Y-141079831D01*
X114279745Y-140629427D01*
X117865472Y-137043700D01*
X118603524Y-137043700D01*
X118610870Y-137047982D01*
X118688908Y-137058040D01*
X119339434Y-137708566D01*
X119707654Y-137954603D01*
X120142000Y-138041000D01*
X126456440Y-138041000D01*
X126890786Y-137954603D01*
X127259006Y-137708566D01*
X138326092Y-126641480D01*
X143667480Y-126641480D01*
X144101826Y-126555083D01*
X144470046Y-126309046D01*
X149834526Y-120944566D01*
X150080563Y-120576346D01*
X150091266Y-120522538D01*
X150166960Y-120142000D01*
X150166960Y-104759760D01*
X150145597Y-104652359D01*
X150080564Y-104325415D01*
X149834526Y-103957194D01*
X142600121Y-96722789D01*
X144286917Y-96722789D01*
X144416125Y-97015559D01*
X145116283Y-97283771D01*
X145865784Y-97263628D01*
X146464675Y-97015559D01*
X146593883Y-96722789D01*
X145440400Y-95569305D01*
X144286917Y-96722789D01*
X142600121Y-96722789D01*
X140942915Y-95065583D01*
X143546329Y-95065583D01*
X143566472Y-95815084D01*
X143814541Y-96413975D01*
X144107311Y-96543183D01*
X145260795Y-95389700D01*
X145620005Y-95389700D01*
X146773489Y-96543183D01*
X147066259Y-96413975D01*
X147334471Y-95713817D01*
X147314328Y-94964316D01*
X147066259Y-94365425D01*
X146773489Y-94236217D01*
X145620005Y-95389700D01*
X145260795Y-95389700D01*
X144107311Y-94236217D01*
X143814541Y-94365425D01*
X143546329Y-95065583D01*
X140942915Y-95065583D01*
X139933943Y-94056611D01*
X144286917Y-94056611D01*
X145440400Y-95210095D01*
X146593883Y-94056611D01*
X146464675Y-93763841D01*
X145764517Y-93495629D01*
X145015016Y-93515772D01*
X144416125Y-93763841D01*
X144286917Y-94056611D01*
X139933943Y-94056611D01*
X139323837Y-93446505D01*
X139324406Y-92793959D01*
X139038086Y-92101009D01*
X138574400Y-91636514D01*
X138574400Y-84239100D01*
X138563788Y-84185751D01*
X138488004Y-83804755D01*
X138241966Y-83436534D01*
X134721357Y-79915925D01*
X134721926Y-79263379D01*
X134435606Y-78570429D01*
X133905899Y-78039798D01*
X133213451Y-77752268D01*
X132463679Y-77751614D01*
X131770729Y-78037934D01*
X131240098Y-78567641D01*
X130952568Y-79260089D01*
X130951914Y-80009861D01*
X131238234Y-80702811D01*
X131767941Y-81233442D01*
X132460389Y-81520972D01*
X133116712Y-81521544D01*
X136304400Y-84709232D01*
X136304400Y-91637203D01*
X135842578Y-92098221D01*
X135555048Y-92790669D01*
X135554394Y-93540441D01*
X135840714Y-94233391D01*
X136370421Y-94764022D01*
X137062869Y-95051552D01*
X137719192Y-95052124D01*
X147896960Y-105229892D01*
X147896960Y-119671868D01*
X143197348Y-124371480D01*
X137855960Y-124371480D01*
X137421614Y-124457877D01*
X137175249Y-124622493D01*
X137053394Y-124703914D01*
X126233608Y-135523700D01*
X121992987Y-135523700D01*
X122146435Y-135344036D01*
X122224499Y-135103781D01*
X122204679Y-134851941D01*
X122106817Y-134659876D01*
X121893299Y-134590500D01*
X121047511Y-135021450D01*
X121056591Y-135039270D01*
X120830275Y-135154584D01*
X120821195Y-135136764D01*
X120803375Y-135145844D01*
X120688061Y-134919528D01*
X120705881Y-134910448D01*
X120377079Y-134265136D01*
X120163560Y-134195760D01*
X119771020Y-134395770D01*
X119606957Y-134587862D01*
X119606358Y-134589704D01*
X119501803Y-134576229D01*
X119254209Y-134645136D01*
X119159229Y-134693531D01*
X117475509Y-134693531D01*
X117041163Y-134779928D01*
X116936168Y-134850083D01*
X116936168Y-134454631D01*
X117103395Y-134149823D01*
X120603394Y-134149823D01*
X120932197Y-134795134D01*
X121777985Y-134364184D01*
X121847361Y-134150666D01*
X121864186Y-134183685D01*
X121749499Y-133958600D01*
X121557406Y-133794538D01*
X121317151Y-133716475D01*
X121065312Y-133736295D01*
X120672771Y-133936305D01*
X120603394Y-134149823D01*
X117103395Y-134149823D01*
X117182727Y-134005225D01*
X117232763Y-133548408D01*
X117635627Y-133769433D01*
X118192207Y-133830395D01*
X118729750Y-133673723D01*
X119166419Y-133323267D01*
X119435734Y-132832383D01*
X119485770Y-132375566D01*
X119888635Y-132596592D01*
X120445215Y-132657554D01*
X120982758Y-132500882D01*
X121419427Y-132150426D01*
X121688742Y-131659542D01*
X121738778Y-131202725D01*
X122141642Y-131423750D01*
X122698222Y-131484712D01*
X123235765Y-131328040D01*
X123672434Y-130977584D01*
X123941749Y-130486700D01*
X123994721Y-130003072D01*
X124185873Y-130148020D01*
X124727527Y-130289844D01*
X125146306Y-130253195D01*
X125286929Y-130042463D01*
X124759190Y-129028685D01*
X124741449Y-129037920D01*
X124675588Y-128911401D01*
X124984490Y-128911401D01*
X125512230Y-129925179D01*
X125765509Y-129930859D01*
X126035732Y-129608836D01*
X126230236Y-129083792D01*
X126219814Y-128809063D01*
X126438880Y-128975178D01*
X126980534Y-129117002D01*
X127399313Y-129080353D01*
X127539936Y-128869621D01*
X127012197Y-127855843D01*
X125997785Y-128383913D01*
X124984490Y-128911401D01*
X124675588Y-128911401D01*
X124624165Y-128812620D01*
X124641906Y-128803385D01*
X124632671Y-128785644D01*
X124857971Y-128668360D01*
X124867206Y-128686101D01*
X125881618Y-128158031D01*
X126894913Y-127630543D01*
X126885678Y-127612802D01*
X127110978Y-127495518D01*
X127120213Y-127513259D01*
X127137954Y-127504024D01*
X127255238Y-127729324D01*
X127237497Y-127738559D01*
X127765237Y-128752337D01*
X128018516Y-128758017D01*
X128288739Y-128435994D01*
X128483243Y-127910950D01*
X128474149Y-127671224D01*
X128900665Y-127905226D01*
X129457245Y-127966188D01*
X129994788Y-127809516D01*
X130431457Y-127459060D01*
X130700772Y-126968176D01*
X130761735Y-126411596D01*
X130605063Y-125874053D01*
X130579101Y-125824179D01*
X130228645Y-125387510D01*
X129737761Y-125118195D01*
X129331245Y-125073669D01*
X129527930Y-124715168D01*
X129588893Y-124158588D01*
X129432221Y-123621045D01*
X129406259Y-123571171D01*
X129055803Y-123134502D01*
X128564919Y-122865187D01*
X128008339Y-122804224D01*
X127470796Y-122960896D01*
X127034127Y-123311352D01*
X126764812Y-123802236D01*
X126714776Y-124259053D01*
X126311912Y-124038029D01*
X125755332Y-123977066D01*
X125217789Y-124133738D01*
X124781120Y-124484194D01*
X124511805Y-124975078D01*
X124461769Y-125431895D01*
X124058904Y-125210870D01*
X123502324Y-125149907D01*
X122964781Y-125306579D01*
X122528112Y-125657035D01*
X122258797Y-126147919D01*
X122208761Y-126604736D01*
X121805897Y-126383712D01*
X121249317Y-126322749D01*
X120711774Y-126479421D01*
X120275105Y-126829877D01*
X120005790Y-127320761D01*
X119955754Y-127777578D01*
X119552889Y-127556553D01*
X118996309Y-127495590D01*
X118458766Y-127652262D01*
X118022097Y-128002718D01*
X117752782Y-128493602D01*
X117702746Y-128950419D01*
X117299882Y-128729395D01*
X116743302Y-128668432D01*
X116205759Y-128825104D01*
X115769090Y-129175560D01*
X115499775Y-129666444D01*
X115490666Y-129749607D01*
X115457595Y-129722112D01*
X115211617Y-129647642D01*
X114956046Y-129674738D01*
X113430099Y-130155867D01*
X113218988Y-130268857D01*
X113054687Y-130466482D01*
X112980217Y-130712460D01*
X112992766Y-130830824D01*
X112958610Y-130820483D01*
X112703039Y-130847579D01*
X111177092Y-131328708D01*
X110965981Y-131441698D01*
X110801680Y-131639323D01*
X110727210Y-131885301D01*
X110754306Y-132140872D01*
X111235435Y-133666819D01*
X111348425Y-133877930D01*
X111546050Y-134042231D01*
X111792028Y-134116701D01*
X111910392Y-134104152D01*
X111900051Y-134138309D01*
X111927147Y-134393880D01*
X112408276Y-135919827D01*
X112521266Y-136130938D01*
X112718891Y-136295239D01*
X112964869Y-136369709D01*
X113220440Y-136342613D01*
X114666168Y-135886777D01*
X114666168Y-137032740D01*
X112848146Y-138850762D01*
X112771531Y-138818948D01*
X112021759Y-138818294D01*
X111328809Y-139104614D01*
X110798178Y-139634321D01*
X110510648Y-140326769D01*
X110509994Y-141076541D01*
X102681703Y-141076541D01*
X102681884Y-140870217D01*
X102450205Y-140309513D01*
X102021590Y-139880149D01*
X101461291Y-139647493D01*
X100854608Y-139646963D01*
X100293904Y-139878642D01*
X99864540Y-140307257D01*
X99631884Y-140867556D01*
X99631354Y-141474239D01*
X99863033Y-142034943D01*
X100032893Y-142205100D01*
X99558268Y-142205100D01*
X98625000Y-141271832D01*
X98625000Y-132187238D01*
X100537635Y-130274603D01*
X100556741Y-130278748D01*
X100809312Y-130231224D01*
X101023494Y-130089179D01*
X101589179Y-129523494D01*
X101683880Y-129384895D01*
X101779838Y-129366839D01*
X101994020Y-129224794D01*
X102347574Y-128871240D01*
X102482659Y-128673537D01*
X102537143Y-128422375D01*
X102521511Y-128339295D01*
X102587927Y-128353703D01*
X102840498Y-128306179D01*
X103054680Y-128164134D01*
X103408234Y-127810580D01*
X103543319Y-127612877D01*
X103597803Y-127361715D01*
X103580090Y-127267578D01*
X108099649Y-122748019D01*
X131510852Y-122748019D01*
X131742954Y-123037219D01*
X132233838Y-123306535D01*
X132640354Y-123351061D01*
X132443669Y-123709561D01*
X132382706Y-124266141D01*
X132539378Y-124803684D01*
X132565341Y-124853558D01*
X132915796Y-125290227D01*
X133406680Y-125559543D01*
X133963260Y-125620505D01*
X134500803Y-125463833D01*
X134937472Y-125113377D01*
X135206787Y-124622493D01*
X135256823Y-124165676D01*
X135659687Y-124386701D01*
X136216267Y-124447663D01*
X136753810Y-124290991D01*
X137190479Y-123940535D01*
X137459794Y-123449651D01*
X137509830Y-122992834D01*
X137912695Y-123213860D01*
X138469275Y-123274822D01*
X139006818Y-123118150D01*
X139443487Y-122767694D01*
X139712802Y-122276810D01*
X139762838Y-121819993D01*
X140165702Y-122041018D01*
X140722282Y-122101980D01*
X141259825Y-121945308D01*
X141696494Y-121594852D01*
X141965809Y-121103968D01*
X142015845Y-120647151D01*
X142418710Y-120868177D01*
X142975290Y-120929139D01*
X143512833Y-120772467D01*
X143949502Y-120422011D01*
X144218817Y-119931127D01*
X144268853Y-119474310D01*
X144671717Y-119695335D01*
X145228297Y-119756297D01*
X145765840Y-119599625D01*
X146202509Y-119249169D01*
X146471824Y-118758285D01*
X146532787Y-118201705D01*
X146376115Y-117664162D01*
X146350153Y-117614288D01*
X145999697Y-117177619D01*
X145508813Y-116908304D01*
X145102298Y-116863778D01*
X145298983Y-116505278D01*
X145359946Y-115948698D01*
X145203274Y-115411155D01*
X145177312Y-115361281D01*
X144826856Y-114924612D01*
X144335972Y-114655297D01*
X143779392Y-114594334D01*
X143241849Y-114751006D01*
X142805180Y-115101462D01*
X142535865Y-115592346D01*
X142485829Y-116049163D01*
X142082964Y-115828138D01*
X141526384Y-115767175D01*
X140988841Y-115923847D01*
X140552172Y-116274303D01*
X140282857Y-116765187D01*
X140232821Y-117222004D01*
X139829957Y-117000980D01*
X139273377Y-116940017D01*
X138735834Y-117096689D01*
X138299165Y-117447145D01*
X138029850Y-117938029D01*
X137979814Y-118394846D01*
X137576949Y-118173821D01*
X137180124Y-118130356D01*
X134918334Y-115868566D01*
X134857829Y-115828138D01*
X134647441Y-115687561D01*
X134327900Y-115624000D01*
X99123500Y-115624000D01*
X98803959Y-115687561D01*
X98593571Y-115828138D01*
X98533066Y-115868566D01*
X83815776Y-130585856D01*
X83634771Y-130856749D01*
X83571210Y-131176290D01*
X83571210Y-144487696D01*
X83453426Y-144605480D01*
X83318341Y-144803183D01*
X83263857Y-145054345D01*
X83279489Y-145137425D01*
X83213073Y-145123017D01*
X82960502Y-145170541D01*
X82746320Y-145312586D01*
X82507489Y-145551417D01*
X82457809Y-145476506D01*
X81892124Y-144910821D01*
X81694421Y-144775736D01*
X81449359Y-144722575D01*
X81372077Y-144535537D01*
X81109287Y-144272288D01*
X80765759Y-144129642D01*
X80393793Y-144129318D01*
X80050017Y-144271363D01*
X79786768Y-144534153D01*
X79644122Y-144877681D01*
X79643798Y-145249647D01*
X79785843Y-145593423D01*
X80048633Y-145856672D01*
X80221860Y-145928603D01*
X80268776Y-146177942D01*
X80410821Y-146392124D01*
X80976506Y-146957809D01*
X81174209Y-147092894D01*
X81367306Y-147134782D01*
X81400146Y-147309312D01*
X81542191Y-147523494D01*
X82107876Y-148089179D01*
X82305579Y-148224264D01*
X82556741Y-148278748D01*
X82809312Y-148231224D01*
X83023494Y-148089179D01*
X83211988Y-147900685D01*
X109519817Y-147900685D01*
X125607847Y-163988716D01*
X125564683Y-163996838D01*
X125410771Y-164095878D01*
X125336799Y-164065162D01*
X124964833Y-164064838D01*
X124621057Y-164206883D01*
X124357808Y-164469673D01*
X124215162Y-164813201D01*
X124214838Y-165185167D01*
X124356883Y-165528943D01*
X124619673Y-165792192D01*
X124963201Y-165934838D01*
X125335167Y-165935162D01*
X125411986Y-165903421D01*
X125548110Y-165996431D01*
X125800000Y-166047440D01*
X126600000Y-166047440D01*
X126835317Y-166003162D01*
X127001477Y-165896241D01*
X127148110Y-165996431D01*
X127400000Y-166047440D01*
X128200000Y-166047440D01*
X128435317Y-166003162D01*
X128651441Y-165864090D01*
X128796431Y-165651890D01*
X128847440Y-165400000D01*
X128847440Y-165133428D01*
X146711554Y-147269315D01*
X170800514Y-147269315D01*
X170775736Y-147305579D01*
X170742736Y-147457702D01*
X170704397Y-147473543D01*
X170441148Y-147736333D01*
X170298502Y-148079861D01*
X170298178Y-148451827D01*
X170440223Y-148795603D01*
X170703013Y-149058852D01*
X171046541Y-149201498D01*
X171418507Y-149201822D01*
X171762283Y-149059777D01*
X172025532Y-148796987D01*
X172042236Y-148756758D01*
X172177942Y-148731224D01*
X172392124Y-148589179D01*
X172957809Y-148023494D01*
X173092894Y-147825791D01*
X173134782Y-147632694D01*
X173309312Y-147599854D01*
X173523494Y-147457809D01*
X174089179Y-146892124D01*
X174224264Y-146694421D01*
X174278748Y-146443259D01*
X174231224Y-146190688D01*
X174089179Y-145976506D01*
X173900685Y-145788012D01*
X173900685Y-118480183D01*
X189488716Y-102892152D01*
X189496838Y-102935317D01*
X189595878Y-103089229D01*
X189565162Y-103163201D01*
X189564838Y-103535167D01*
X189706883Y-103878943D01*
X189969673Y-104142192D01*
X190313201Y-104284838D01*
X190685167Y-104285162D01*
X191028943Y-104143117D01*
X191292192Y-103880327D01*
X191434838Y-103536799D01*
X191435162Y-103164833D01*
X191403421Y-103088014D01*
X191496431Y-102951890D01*
X191547440Y-102700000D01*
X191547440Y-101900000D01*
X191503162Y-101664683D01*
X191396241Y-101498523D01*
X191496431Y-101351890D01*
X191547440Y-101100000D01*
X191547440Y-100300000D01*
X191503162Y-100064683D01*
X191364090Y-99848559D01*
X191151890Y-99703569D01*
X190900000Y-99652560D01*
X190633428Y-99652560D01*
X172269315Y-81288447D01*
X172269315Y-58199486D01*
X172305579Y-58224264D01*
X172484444Y-58263065D01*
X172515031Y-58337091D01*
X172777821Y-58600340D01*
X173121349Y-58742986D01*
X173493315Y-58743310D01*
X173837091Y-58601265D01*
X174100340Y-58338475D01*
X174242986Y-57994947D01*
X174243310Y-57622981D01*
X174101265Y-57279205D01*
X173838475Y-57015956D01*
X173761710Y-56984080D01*
X173731224Y-56822058D01*
X173589179Y-56607876D01*
X173023494Y-56042191D01*
X172825791Y-55907106D01*
X172632694Y-55865218D01*
X172599854Y-55690688D01*
X172457809Y-55476506D01*
X171892124Y-54910821D01*
X171694421Y-54775736D01*
X171443259Y-54721252D01*
X171190688Y-54768776D01*
X170976506Y-54910821D01*
X170788012Y-55099315D01*
X144480184Y-55099315D01*
X136048036Y-46667167D01*
X176458438Y-46667167D01*
X176600483Y-47010943D01*
X176863273Y-47274192D01*
X177206801Y-47416838D01*
X177238649Y-47416866D01*
X177705847Y-47909318D01*
X177947990Y-48080494D01*
X177976974Y-48087056D01*
X181645041Y-51624511D01*
X181649270Y-51645770D01*
X181747085Y-51792160D01*
X181830275Y-51916663D01*
X205336550Y-75422938D01*
X205336550Y-94196779D01*
X205335084Y-94206355D01*
X205337374Y-94257852D01*
X205638964Y-101039939D01*
X205605262Y-101121101D01*
X205604938Y-101493067D01*
X205746983Y-101836843D01*
X206009773Y-102100092D01*
X206353301Y-102242738D01*
X206725267Y-102243062D01*
X207069043Y-102101017D01*
X207332292Y-101838227D01*
X207474938Y-101494699D01*
X207475262Y-101122733D01*
X207333217Y-100778957D01*
X207297414Y-100743092D01*
X207182827Y-98166280D01*
X207276447Y-98166362D01*
X207312020Y-98151663D01*
X208661822Y-98503582D01*
X208752973Y-98594892D01*
X209096501Y-98737538D01*
X209468467Y-98737862D01*
X209812243Y-98595817D01*
X210075492Y-98333027D01*
X210218138Y-97989499D01*
X210218462Y-97617533D01*
X210076417Y-97273757D01*
X209813627Y-97010508D01*
X209470099Y-96867862D01*
X209098133Y-96867538D01*
X209062560Y-96882237D01*
X207712758Y-96530318D01*
X207621607Y-96439008D01*
X207278079Y-96296362D01*
X207099668Y-96296207D01*
X207006550Y-94202192D01*
X207006550Y-75077070D01*
X206942989Y-74757529D01*
X206761984Y-74486636D01*
X183198062Y-50922714D01*
X183192148Y-50892983D01*
X183187869Y-50886579D01*
X183186230Y-50879055D01*
X183097531Y-50751379D01*
X183011143Y-50622090D01*
X183004739Y-50617811D01*
X183000345Y-50611486D01*
X179667854Y-47397658D01*
X180280471Y-47397658D01*
X180527261Y-47923444D01*
X180956475Y-48314765D01*
X181368063Y-48485250D01*
X181598519Y-48363977D01*
X181598519Y-47167202D01*
X181852519Y-47167202D01*
X181852519Y-48363977D01*
X182082975Y-48485250D01*
X182608761Y-48238460D01*
X183000082Y-47809246D01*
X183170567Y-47397658D01*
X183049294Y-47167202D01*
X181852519Y-47167202D01*
X181598519Y-47167202D01*
X180401744Y-47167202D01*
X180280471Y-47397658D01*
X179667854Y-47397658D01*
X178926545Y-46682746D01*
X180280471Y-46682746D01*
X180401744Y-46913202D01*
X181598519Y-46913202D01*
X181598519Y-45716427D01*
X181852519Y-45716427D01*
X181852519Y-46913202D01*
X183049294Y-46913202D01*
X183170567Y-46682746D01*
X182923777Y-46156960D01*
X182494563Y-45765639D01*
X182082975Y-45595154D01*
X181852519Y-45716427D01*
X181598519Y-45716427D01*
X181368063Y-45595154D01*
X180842277Y-45841944D01*
X180450956Y-46271158D01*
X180280471Y-46682746D01*
X178926545Y-46682746D01*
X178197849Y-45979998D01*
X178186717Y-45953057D01*
X177923927Y-45689808D01*
X177580399Y-45547162D01*
X177208433Y-45546838D01*
X176864657Y-45688883D01*
X176601408Y-45951673D01*
X176458762Y-46295201D01*
X176458438Y-46667167D01*
X136048036Y-46667167D01*
X128392152Y-39011284D01*
X128435317Y-39003162D01*
X128589229Y-38904122D01*
X128663201Y-38934838D01*
X129035167Y-38935162D01*
X129378943Y-38793117D01*
X129642192Y-38530327D01*
X129784838Y-38186799D01*
X129785162Y-37814833D01*
X129643117Y-37471057D01*
X129380327Y-37207808D01*
X129036799Y-37065162D01*
X128664833Y-37064838D01*
X128588014Y-37096579D01*
X128451890Y-37003569D01*
X128200000Y-36952560D01*
X127400000Y-36952560D01*
X127164683Y-36996838D01*
X126998523Y-37103759D01*
X126851890Y-37003569D01*
X126600000Y-36952560D01*
X125800000Y-36952560D01*
X125564683Y-36996838D01*
X125348559Y-37135910D01*
X125203569Y-37348110D01*
X125152560Y-37600000D01*
X125152560Y-37866572D01*
X106788447Y-56230685D01*
X83699486Y-56230685D01*
X83724264Y-56194421D01*
X83733675Y-56151036D01*
X83957783Y-56058437D01*
X84221032Y-55795647D01*
X84363678Y-55452119D01*
X84364002Y-55080153D01*
X84221957Y-54736377D01*
X83959167Y-54473128D01*
X83615639Y-54330482D01*
X83243673Y-54330158D01*
X82899897Y-54472203D01*
X82636884Y-54734757D01*
X82574629Y-54721252D01*
X82322058Y-54768776D01*
X82107876Y-54910821D01*
X81542191Y-55476506D01*
X81407106Y-55674209D01*
X81365218Y-55867306D01*
X81190688Y-55900146D01*
X80976506Y-56042191D01*
X80410821Y-56607876D01*
X80275736Y-56805579D01*
X80221252Y-57056741D01*
X80268776Y-57309312D01*
X80410821Y-57523494D01*
X80599315Y-57711988D01*
X80599315Y-84019816D01*
X64511284Y-100107848D01*
X64503162Y-100064683D01*
X64364090Y-99848559D01*
X64335000Y-99828683D01*
X64335000Y-99766005D01*
X64358638Y-99709079D01*
X64358962Y-99337113D01*
X64216917Y-98993337D01*
X63954127Y-98730088D01*
X63610599Y-98587442D01*
X63238633Y-98587118D01*
X62894857Y-98729163D01*
X62631608Y-98991953D01*
X62488962Y-99335481D01*
X62488638Y-99707447D01*
X62581980Y-99933352D01*
X62503569Y-100048110D01*
X62452560Y-100300000D01*
X53026920Y-100300000D01*
X53026920Y-64159809D01*
X65136155Y-52000000D01*
X69165000Y-52000000D01*
X69228561Y-52319541D01*
X69409566Y-52590434D01*
X69680459Y-52771439D01*
X70000000Y-52835000D01*
X70504200Y-52835000D01*
X70823741Y-52771439D01*
X71094634Y-52590434D01*
X96791801Y-26893267D01*
X122661238Y-26893267D01*
X122803283Y-27237043D01*
X123066073Y-27500292D01*
X123409601Y-27642938D01*
X123781567Y-27643262D01*
X124047219Y-27533497D01*
X125358086Y-27505000D01*
X164246132Y-27505000D01*
X177682362Y-40941230D01*
X177683584Y-40946285D01*
X177769694Y-41064427D01*
X177850916Y-41185984D01*
X177865297Y-41195593D01*
X177875486Y-41209572D01*
X182423007Y-45400424D01*
X182505983Y-45601243D01*
X182768773Y-45864492D01*
X183112301Y-46007138D01*
X183484267Y-46007462D01*
X183828043Y-45865417D01*
X184091292Y-45602627D01*
X184233938Y-45259099D01*
X184234262Y-44887133D01*
X184092217Y-44543357D01*
X183829427Y-44280108D01*
X183542223Y-44160850D01*
X181901540Y-42648848D01*
X181919592Y-42630827D01*
X182044277Y-42330553D01*
X182782657Y-41511648D01*
X182798467Y-41511662D01*
X183142243Y-41369617D01*
X183405492Y-41106827D01*
X183548138Y-40763299D01*
X183548462Y-40391333D01*
X183406417Y-40047557D01*
X183143627Y-39784308D01*
X182800099Y-39641662D01*
X182428133Y-39641338D01*
X182084357Y-39783383D01*
X181821108Y-40046173D01*
X181791827Y-40116689D01*
X180789330Y-41228516D01*
X180598457Y-41307383D01*
X180525229Y-41380483D01*
X179162654Y-40124777D01*
X179031784Y-39928916D01*
X165182434Y-26079566D01*
X165028698Y-25976843D01*
X164911541Y-25898561D01*
X164592000Y-25835000D01*
X127530207Y-25835000D01*
X127664044Y-25779563D01*
X127741248Y-25530853D01*
X126895000Y-24684605D01*
X126048752Y-25530853D01*
X126125956Y-25779563D01*
X126279468Y-25835000D01*
X125349000Y-25835000D01*
X125339945Y-25836801D01*
X125330852Y-25835197D01*
X124001928Y-25864087D01*
X123783199Y-25773262D01*
X123411233Y-25772938D01*
X123067457Y-25914983D01*
X122804208Y-26177773D01*
X122661562Y-26521301D01*
X122661238Y-26893267D01*
X96791801Y-26893267D01*
X99402818Y-24282250D01*
X125423157Y-24282250D01*
X125449952Y-24862456D01*
X125620437Y-25274044D01*
X125869147Y-25351248D01*
X126715395Y-24505000D01*
X127074605Y-24505000D01*
X127920853Y-25351248D01*
X128169563Y-25274044D01*
X128366843Y-24727750D01*
X128340048Y-24147544D01*
X128169563Y-23735956D01*
X127920853Y-23658752D01*
X127074605Y-24505000D01*
X126715395Y-24505000D01*
X125869147Y-23658752D01*
X125620437Y-23735956D01*
X125423157Y-24282250D01*
X99402818Y-24282250D01*
X100205921Y-23479147D01*
X126048752Y-23479147D01*
X126895000Y-24325395D01*
X127741248Y-23479147D01*
X127664044Y-23230437D01*
X127117750Y-23033157D01*
X126537544Y-23059952D01*
X126125956Y-23230437D01*
X126048752Y-23479147D01*
X100205921Y-23479147D01*
X100724731Y-22960337D01*
X125841481Y-22731690D01*
X125961673Y-22852092D01*
X126305201Y-22994738D01*
X126677167Y-22995062D01*
X127020943Y-22853017D01*
X127284192Y-22590227D01*
X127426838Y-22246699D01*
X127427162Y-21874733D01*
X127285117Y-21530957D01*
X127022327Y-21267708D01*
X126678799Y-21125062D01*
X126650210Y-21125037D01*
X126643900Y-21120821D01*
X126640104Y-21120066D01*
X126636865Y-21117944D01*
X126480480Y-21088314D01*
X126324360Y-21057260D01*
X126320562Y-21058016D01*
X126316759Y-21057295D01*
X124988696Y-21069385D01*
X124988762Y-20993353D01*
X124938379Y-20871417D01*
X125048965Y-20062909D01*
X125074392Y-20037527D01*
X125217038Y-19693999D01*
X125217362Y-19322033D01*
X125075317Y-18978257D01*
X124812527Y-18715008D01*
X124468999Y-18572362D01*
X124097033Y-18572038D01*
X123753257Y-18714083D01*
X123490008Y-18976873D01*
X123347362Y-19320401D01*
X123347038Y-19692367D01*
X123397421Y-19814303D01*
X123286835Y-20622811D01*
X123261408Y-20648193D01*
X123118762Y-20991721D01*
X123118680Y-21086408D01*
X100368119Y-21293515D01*
X100212319Y-21325983D01*
X100056180Y-21357041D01*
X100052961Y-21359192D01*
X100049170Y-21359982D01*
X99917623Y-21449622D01*
X99785286Y-21538046D01*
X73839484Y-47483848D01*
X73985250Y-47131937D01*
X73863977Y-46901481D01*
X72846810Y-46901481D01*
X72733951Y-46788622D01*
X72554343Y-46968230D01*
X72667202Y-47081089D01*
X72667202Y-48098256D01*
X72897658Y-48219529D01*
X73286152Y-48037180D01*
X70400732Y-50922600D01*
X70338232Y-50935032D01*
X70323179Y-50928782D01*
X69951213Y-50928458D01*
X69607437Y-51070503D01*
X69344188Y-51333293D01*
X69201542Y-51676821D01*
X69201420Y-51816905D01*
X69165000Y-52000000D01*
X65136155Y-52000000D01*
X69983972Y-47131937D01*
X71095154Y-47131937D01*
X71341944Y-47657723D01*
X71771158Y-48049044D01*
X72182746Y-48219529D01*
X72413202Y-48098256D01*
X72413202Y-46901481D01*
X71216427Y-46901481D01*
X71095154Y-47131937D01*
X69983972Y-47131937D01*
X70695910Y-46417025D01*
X71095154Y-46417025D01*
X71216427Y-46647481D01*
X72413202Y-46647481D01*
X72413202Y-45450706D01*
X72667202Y-45450706D01*
X72667202Y-46647481D01*
X73863977Y-46647481D01*
X73985250Y-46417025D01*
X73738460Y-45891239D01*
X73309246Y-45499918D01*
X72897658Y-45329433D01*
X72667202Y-45450706D01*
X72413202Y-45450706D01*
X72182746Y-45329433D01*
X71656960Y-45576223D01*
X71265639Y-46005437D01*
X71095154Y-46417025D01*
X70695910Y-46417025D01*
X71943874Y-45163850D01*
X72182343Y-45065317D01*
X72445592Y-44802527D01*
X72588238Y-44458999D01*
X72588562Y-44087033D01*
X72446517Y-43743257D01*
X72183727Y-43480008D01*
X71840199Y-43337362D01*
X71468233Y-43337038D01*
X71124457Y-43479083D01*
X70861208Y-43741873D01*
X70759725Y-43986271D01*
X68117095Y-46639937D01*
X67967327Y-46489908D01*
X67649748Y-46358037D01*
X66577878Y-45417942D01*
X66515617Y-45267257D01*
X66252827Y-45004008D01*
X65909299Y-44861362D01*
X65537333Y-44861038D01*
X65193557Y-45003083D01*
X64930308Y-45265873D01*
X64787662Y-45609401D01*
X64787338Y-45981367D01*
X64929383Y-46325143D01*
X65192173Y-46588392D01*
X65535701Y-46731038D01*
X65542364Y-46731044D01*
X66570072Y-47632407D01*
X66643883Y-47811043D01*
X66797557Y-47964986D01*
X51600257Y-63225758D01*
X51510512Y-63360679D01*
X51420481Y-63495419D01*
X51420308Y-63496288D01*
X51419816Y-63497028D01*
X51388512Y-63656135D01*
X51356920Y-63814960D01*
X51356920Y-101022713D01*
X51279563Y-100835956D01*
X51030853Y-100758752D01*
X50184605Y-101605000D01*
X49825395Y-101605000D01*
X48979147Y-100758752D01*
X48730437Y-100835956D01*
X48533157Y-101382250D01*
X47558038Y-101382250D01*
X48260043Y-100680245D01*
X48500653Y-100580827D01*
X48502335Y-100579147D01*
X49158752Y-100579147D01*
X50005000Y-101425395D01*
X50851248Y-100579147D01*
X50774044Y-100330437D01*
X50227750Y-100133157D01*
X49647544Y-100159952D01*
X49235956Y-100330437D01*
X49158752Y-100579147D01*
X48502335Y-100579147D01*
X48763902Y-100318037D01*
X48906548Y-99974509D01*
X48906872Y-99602543D01*
X48764827Y-99258767D01*
X48502037Y-98995518D01*
X48158509Y-98852872D01*
X47786543Y-98852548D01*
X47442767Y-98994593D01*
X47179518Y-99257383D01*
X47078932Y-99499620D01*
X45949986Y-100628566D01*
X45768981Y-100899459D01*
X45705420Y-101219000D01*
X45705420Y-106903520D01*
X45768981Y-107223061D01*
X45917410Y-107445200D01*
X45949986Y-107493954D01*
X51416066Y-112960034D01*
X51686959Y-113141039D01*
X51749761Y-113153531D01*
X51893460Y-113249548D01*
X52184300Y-113307400D01*
X52475139Y-113249548D01*
X52542409Y-113204600D01*
X81699100Y-113204600D01*
X82018641Y-113141039D01*
X82289534Y-112960034D01*
X101196568Y-94053000D01*
X111379000Y-94053000D01*
X111698541Y-93989439D01*
X111969434Y-93808434D01*
X121431214Y-84346654D01*
X121477541Y-84337439D01*
X121748434Y-84156434D01*
X122316545Y-83588323D01*
X122381013Y-83491840D01*
X122497550Y-83317430D01*
X122561111Y-82997889D01*
X122561111Y-80090382D01*
X122838355Y-79867875D01*
X123107670Y-79376991D01*
X123144119Y-79044219D01*
X123144119Y-79973619D01*
X123207680Y-80293160D01*
X123382341Y-80554558D01*
X123388685Y-80564053D01*
X124450500Y-81625868D01*
X124450500Y-83283632D01*
X115090782Y-92643350D01*
X113658650Y-92643350D01*
X113339110Y-92706910D01*
X113068216Y-92887916D01*
X111287132Y-94669000D01*
X102489000Y-94669000D01*
X102169459Y-94732561D01*
X101975914Y-94861884D01*
X101898566Y-94913566D01*
X81632632Y-115179500D01*
X51907868Y-115179500D01*
X44662700Y-107934332D01*
X44662700Y-100444104D01*
X47386704Y-96703288D01*
X47491915Y-96659816D01*
X47755164Y-96397026D01*
X47897810Y-96053498D01*
X47898134Y-95681532D01*
X47756089Y-95337756D01*
X47493299Y-95074507D01*
X47149771Y-94931861D01*
X46777805Y-94931537D01*
X46434029Y-95073582D01*
X46170780Y-95336372D01*
X46028134Y-95679900D01*
X46028089Y-95732063D01*
X43152698Y-99680774D01*
X43111200Y-99770537D01*
X43056261Y-99852759D01*
X43043478Y-99917025D01*
X43015981Y-99976502D01*
X43011993Y-100075310D01*
X42992700Y-100172300D01*
X36268043Y-100172300D01*
X42930610Y-66677318D01*
X62656075Y-37156075D01*
X92177318Y-17430610D01*
X127000000Y-10503948D01*
X161822682Y-17430610D01*
M02*
