G04 #@! TF.FileFunction,Soldermask,Bot*
%FSLAX46Y46*%
G04 Gerber Fmt 4.6, Leading zero omitted, Abs format (unit mm)*
G04 Created by KiCad (PCBNEW 4.0.7) date 03/16/18 10:32:41*
%MOMM*%
%LPD*%
G01*
G04 APERTURE LIST*
%ADD10C,0.100000*%
%ADD11C,2.899360*%
%ADD12C,2.050000*%
%ADD13C,2.000000*%
%ADD14C,2.180000*%
%ADD15R,1.200000X1.200000*%
G04 APERTURE END LIST*
D10*
D11*
X126756160Y-101818440D03*
X68630800Y-130175000D03*
X64688720Y-82115660D03*
X100599240Y-43340020D03*
X148960840Y-41917620D03*
X184724040Y-74632820D03*
X187360560Y-122326400D03*
X153619200Y-160223200D03*
X104444800Y-162052000D03*
X132836920Y-79636620D03*
X137439400Y-93167200D03*
D10*
G36*
X83486971Y-147043187D02*
X82567733Y-146123949D01*
X83204129Y-145487553D01*
X84123367Y-146406791D01*
X83486971Y-147043187D01*
X83486971Y-147043187D01*
G37*
G36*
X84547631Y-145982527D02*
X83628393Y-145063289D01*
X84264789Y-144426893D01*
X85184027Y-145346131D01*
X84547631Y-145982527D01*
X84547631Y-145982527D01*
G37*
G36*
X92483651Y-137990627D02*
X91564413Y-137071389D01*
X92200809Y-136434993D01*
X93120047Y-137354231D01*
X92483651Y-137990627D01*
X92483651Y-137990627D01*
G37*
G36*
X93544311Y-136929967D02*
X92625073Y-136010729D01*
X93261469Y-135374333D01*
X94180707Y-136293571D01*
X93544311Y-136929967D01*
X93544311Y-136929967D01*
G37*
G36*
X101536211Y-129049827D02*
X100616973Y-128130589D01*
X101253369Y-127494193D01*
X102172607Y-128413431D01*
X101536211Y-129049827D01*
X101536211Y-129049827D01*
G37*
G36*
X102596871Y-127989167D02*
X101677633Y-127069929D01*
X102314029Y-126433533D01*
X103233267Y-127352771D01*
X102596871Y-127989167D01*
X102596871Y-127989167D01*
G37*
G36*
X118732023Y-136704052D02*
X118209934Y-135679395D01*
X119635545Y-134953010D01*
X120157634Y-135977667D01*
X118732023Y-136704052D01*
X118732023Y-136704052D01*
G37*
G36*
X120424935Y-135841470D02*
X119902846Y-134816813D01*
X121328457Y-134090428D01*
X121850546Y-135115085D01*
X120424935Y-135841470D01*
X120424935Y-135841470D01*
G37*
D12*
X72274481Y-155959798D03*
X127105000Y-178995000D03*
X181725519Y-47040202D03*
X203995000Y-101395000D03*
X181459798Y-156225519D03*
X126895000Y-24505000D03*
X72540202Y-46774481D03*
X50005000Y-101605000D03*
D11*
X112395000Y-140703300D03*
X145440400Y-95389700D03*
D13*
X121726111Y-78920525D02*
X121726111Y-78920525D01*
X123979119Y-77747684D02*
X123979119Y-77747684D01*
X88835749Y-96042164D02*
X88835749Y-96042164D01*
X91088757Y-94869323D02*
X91088757Y-94869323D01*
X93341764Y-93696481D02*
X93341764Y-93696481D01*
X95594772Y-92523640D02*
X95594772Y-92523640D01*
X97847779Y-91350798D02*
X97847779Y-91350798D01*
X100100787Y-90177957D02*
X100100787Y-90177957D01*
X102353795Y-89005115D02*
X102353795Y-89005115D01*
X104606802Y-87832274D02*
X104606802Y-87832274D01*
X108208066Y-85957574D02*
X108208066Y-85957574D01*
X110461074Y-84784733D02*
X110461074Y-84784733D01*
X112714081Y-83611891D02*
X112714081Y-83611891D01*
X114967089Y-82439050D02*
X114967089Y-82439050D01*
X117220096Y-81266208D02*
X117220096Y-81266208D01*
X119473104Y-80093367D02*
X119473104Y-80093367D01*
X86582742Y-97215006D02*
X86582742Y-97215006D01*
X84329734Y-98387847D02*
X84329734Y-98387847D01*
X143917424Y-116048812D02*
X143917424Y-116048812D01*
X141664416Y-117221653D02*
X141664416Y-117221653D01*
X139411409Y-118394495D02*
X139411409Y-118394495D01*
X137158401Y-119567336D02*
X137158401Y-119567336D01*
X134905394Y-120740178D02*
X134905394Y-120740178D01*
X132652386Y-121913019D02*
X132652386Y-121913019D01*
X128146371Y-124258702D02*
X128146371Y-124258702D01*
X125893364Y-125431544D02*
X125893364Y-125431544D01*
X123640356Y-126604385D02*
X123640356Y-126604385D01*
X121387349Y-127777227D02*
X121387349Y-127777227D01*
X119134341Y-128950068D02*
X119134341Y-128950068D01*
X116881334Y-130122910D02*
X116881334Y-130122910D01*
D10*
G36*
X113373903Y-130642740D02*
X115281337Y-130041328D01*
X115882749Y-131948762D01*
X113975315Y-132550174D01*
X113373903Y-130642740D01*
X113373903Y-130642740D01*
G37*
G36*
X111120896Y-131815581D02*
X113028330Y-131214169D01*
X113629742Y-133121603D01*
X111722308Y-133723015D01*
X111120896Y-131815581D01*
X111120896Y-131815581D01*
G37*
D13*
X83156893Y-96134840D02*
X83156893Y-96134840D01*
X85409900Y-94961998D02*
X85409900Y-94961998D01*
D10*
G36*
X112293737Y-134068589D02*
X114201171Y-133467177D01*
X114802583Y-135374611D01*
X112895149Y-135976023D01*
X112293737Y-134068589D01*
X112293737Y-134068589D01*
G37*
D13*
X118300262Y-77840359D02*
X118300262Y-77840359D01*
X115801168Y-133548759D02*
X115801168Y-133548759D01*
X116047255Y-79013201D02*
X116047255Y-79013201D01*
X118054175Y-132375917D02*
X118054175Y-132375917D01*
X113794247Y-80186042D02*
X113794247Y-80186042D01*
X120307183Y-131203076D02*
X120307183Y-131203076D01*
X111541240Y-81358884D02*
X111541240Y-81358884D01*
X122560190Y-130030234D02*
X122560190Y-130030234D01*
X109288232Y-82531725D02*
X109288232Y-82531725D01*
X124813198Y-128857393D02*
X124813198Y-128857393D01*
X107035225Y-83704567D02*
X107035225Y-83704567D01*
X127066205Y-127684551D02*
X127066205Y-127684551D01*
X103433961Y-85579266D02*
X103433961Y-85579266D01*
X129319213Y-126511710D02*
X129319213Y-126511710D01*
X101180953Y-86752108D02*
X101180953Y-86752108D01*
X133825228Y-124166027D02*
X133825228Y-124166027D01*
X98927946Y-87924949D02*
X98927946Y-87924949D01*
X136078235Y-122993185D02*
X136078235Y-122993185D01*
X96674938Y-89097791D02*
X96674938Y-89097791D01*
X138331243Y-121820344D02*
X138331243Y-121820344D01*
X94421930Y-90270632D02*
X94421930Y-90270632D01*
X140584250Y-120647502D02*
X140584250Y-120647502D01*
X92168923Y-91443474D02*
X92168923Y-91443474D01*
X142837258Y-119474661D02*
X142837258Y-119474661D01*
X89915915Y-92616315D02*
X89915915Y-92616315D01*
X145090265Y-118301819D02*
X145090265Y-118301819D01*
X87662908Y-93789157D02*
X87662908Y-93789157D01*
X122806277Y-75494677D02*
X122806277Y-75494677D01*
X120553270Y-76667518D02*
X120553270Y-76667518D01*
D14*
X101156619Y-141172228D03*
X79999134Y-97778665D03*
X132096334Y-87839880D03*
X144997590Y-112622963D03*
D10*
G36*
X101414213Y-129065685D02*
X100565685Y-129914213D01*
X99717157Y-129065685D01*
X100565685Y-128217157D01*
X101414213Y-129065685D01*
X101414213Y-129065685D01*
G37*
G36*
X100282843Y-127934315D02*
X99434315Y-128782843D01*
X98585787Y-127934315D01*
X99434315Y-127085787D01*
X100282843Y-127934315D01*
X100282843Y-127934315D01*
G37*
D15*
X127800000Y-140000000D03*
X126200000Y-140000000D03*
D10*
G36*
X155065685Y-127585787D02*
X155914213Y-128434315D01*
X155065685Y-129282843D01*
X154217157Y-128434315D01*
X155065685Y-127585787D01*
X155065685Y-127585787D01*
G37*
G36*
X153934315Y-128717157D02*
X154782843Y-129565685D01*
X153934315Y-130414213D01*
X153085787Y-129565685D01*
X153934315Y-128717157D01*
X153934315Y-128717157D01*
G37*
D15*
X165500000Y-100700000D03*
X165500000Y-102300000D03*
D10*
G36*
X92414213Y-138065685D02*
X91565685Y-138914213D01*
X90717157Y-138065685D01*
X91565685Y-137217157D01*
X92414213Y-138065685D01*
X92414213Y-138065685D01*
G37*
G36*
X91282843Y-136934315D02*
X90434315Y-137782843D01*
X89585787Y-136934315D01*
X90434315Y-136085787D01*
X91282843Y-136934315D01*
X91282843Y-136934315D01*
G37*
D15*
X127800000Y-152500000D03*
X126200000Y-152500000D03*
D10*
G36*
X164065685Y-136585787D02*
X164914213Y-137434315D01*
X164065685Y-138282843D01*
X163217157Y-137434315D01*
X164065685Y-136585787D01*
X164065685Y-136585787D01*
G37*
G36*
X162934315Y-137717157D02*
X163782843Y-138565685D01*
X162934315Y-139414213D01*
X162085787Y-138565685D01*
X162934315Y-137717157D01*
X162934315Y-137717157D01*
G37*
D15*
X178000000Y-100700000D03*
X178000000Y-102300000D03*
D10*
G36*
X83414213Y-147065685D02*
X82565685Y-147914213D01*
X81717157Y-147065685D01*
X82565685Y-146217157D01*
X83414213Y-147065685D01*
X83414213Y-147065685D01*
G37*
G36*
X82282843Y-145934315D02*
X81434315Y-146782843D01*
X80585787Y-145934315D01*
X81434315Y-145085787D01*
X82282843Y-145934315D01*
X82282843Y-145934315D01*
G37*
D15*
X127800000Y-165000000D03*
X126200000Y-165000000D03*
D10*
G36*
X173065685Y-145585787D02*
X173914213Y-146434315D01*
X173065685Y-147282843D01*
X172217157Y-146434315D01*
X173065685Y-145585787D01*
X173065685Y-145585787D01*
G37*
G36*
X171934315Y-146717157D02*
X172782843Y-147565685D01*
X171934315Y-148414213D01*
X171085787Y-147565685D01*
X171934315Y-146717157D01*
X171934315Y-146717157D01*
G37*
D15*
X190500000Y-100700000D03*
X190500000Y-102300000D03*
D10*
G36*
X152585787Y-73934315D02*
X153434315Y-73085787D01*
X154282843Y-73934315D01*
X153434315Y-74782843D01*
X152585787Y-73934315D01*
X152585787Y-73934315D01*
G37*
G36*
X153717157Y-75065685D02*
X154565685Y-74217157D01*
X155414213Y-75065685D01*
X154565685Y-75914213D01*
X153717157Y-75065685D01*
X153717157Y-75065685D01*
G37*
D15*
X126200000Y-63000000D03*
X127800000Y-63000000D03*
D10*
G36*
X99434315Y-75914213D02*
X98585787Y-75065685D01*
X99434315Y-74217157D01*
X100282843Y-75065685D01*
X99434315Y-75914213D01*
X99434315Y-75914213D01*
G37*
G36*
X100565685Y-74782843D02*
X99717157Y-73934315D01*
X100565685Y-73085787D01*
X101414213Y-73934315D01*
X100565685Y-74782843D01*
X100565685Y-74782843D01*
G37*
D15*
X88500000Y-102300000D03*
X88500000Y-100700000D03*
D10*
G36*
X161585787Y-64934315D02*
X162434315Y-64085787D01*
X163282843Y-64934315D01*
X162434315Y-65782843D01*
X161585787Y-64934315D01*
X161585787Y-64934315D01*
G37*
G36*
X162717157Y-66065685D02*
X163565685Y-65217157D01*
X164414213Y-66065685D01*
X163565685Y-66914213D01*
X162717157Y-66065685D01*
X162717157Y-66065685D01*
G37*
D15*
X126200000Y-50500000D03*
X127800000Y-50500000D03*
D10*
G36*
X90434315Y-66914213D02*
X89585787Y-66065685D01*
X90434315Y-65217157D01*
X91282843Y-66065685D01*
X90434315Y-66914213D01*
X90434315Y-66914213D01*
G37*
G36*
X91565685Y-65782843D02*
X90717157Y-64934315D01*
X91565685Y-64085787D01*
X92414213Y-64934315D01*
X91565685Y-65782843D01*
X91565685Y-65782843D01*
G37*
D15*
X76000000Y-102300000D03*
X76000000Y-100700000D03*
D10*
G36*
X170585787Y-55934315D02*
X171434315Y-55085787D01*
X172282843Y-55934315D01*
X171434315Y-56782843D01*
X170585787Y-55934315D01*
X170585787Y-55934315D01*
G37*
G36*
X171717157Y-57065685D02*
X172565685Y-56217157D01*
X173414213Y-57065685D01*
X172565685Y-57914213D01*
X171717157Y-57065685D01*
X171717157Y-57065685D01*
G37*
D15*
X126200000Y-38000000D03*
X127800000Y-38000000D03*
D10*
G36*
X81434315Y-57914213D02*
X80585787Y-57065685D01*
X81434315Y-56217157D01*
X82282843Y-57065685D01*
X81434315Y-57914213D01*
X81434315Y-57914213D01*
G37*
G36*
X82565685Y-56782843D02*
X81717157Y-55934315D01*
X82565685Y-55085787D01*
X83414213Y-55934315D01*
X82565685Y-56782843D01*
X82565685Y-56782843D01*
G37*
D15*
X63500000Y-102300000D03*
X63500000Y-100700000D03*
M02*
