G04 #@! TF.FileFunction,Legend,Top*
%FSLAX46Y46*%
G04 Gerber Fmt 4.6, Leading zero omitted, Abs format (unit mm)*
G04 Created by KiCad (PCBNEW 4.0.7) date 03/16/18 10:32:41*
%MOMM*%
%LPD*%
G01*
G04 APERTURE LIST*
%ADD10C,0.100000*%
%ADD11C,0.200000*%
%ADD12C,0.120000*%
%ADD13C,0.150000*%
%ADD14C,0.250000*%
%ADD15C,0.015000*%
G04 APERTURE END LIST*
D10*
D11*
X126746000Y-178816000D02*
X126873000Y-178816000D01*
X203962000Y-101600000D02*
X203962000Y-101473000D01*
D12*
X53994760Y-102386880D02*
X53994760Y-101686880D01*
X55194760Y-101686880D02*
X55194760Y-102386880D01*
X74828249Y-49823223D02*
X75323223Y-49328249D01*
X76171751Y-50176777D02*
X75676777Y-50671751D01*
X126150000Y-27400000D02*
X126850000Y-27400000D01*
X126850000Y-28600000D02*
X126150000Y-28600000D01*
X179375991Y-153232097D02*
X178881017Y-153727071D01*
X178032489Y-152878543D02*
X178527463Y-152383569D01*
X200434500Y-100615000D02*
X200434500Y-101315000D01*
X199234500Y-101315000D02*
X199234500Y-100615000D01*
X178769257Y-49117329D02*
X179264231Y-49612303D01*
X178415703Y-50460831D02*
X177920729Y-49965857D01*
X127870700Y-175593300D02*
X127170700Y-175593300D01*
X127170700Y-174393300D02*
X127870700Y-174393300D01*
X75484743Y-153838831D02*
X74989769Y-153343857D01*
X75838297Y-152495329D02*
X76333271Y-152990303D01*
X137554041Y-90601744D02*
X138397432Y-90064444D01*
X139128159Y-91211456D02*
X138284768Y-91748756D01*
X136721281Y-89330754D02*
X137573921Y-88808255D01*
X138284519Y-89967846D02*
X137431879Y-90490345D01*
X143149442Y-90206692D02*
X141198019Y-91222539D01*
X140101901Y-84352421D02*
X138150478Y-85368268D01*
X68616826Y-152679679D02*
X67909719Y-153386786D01*
X66948054Y-152425121D02*
X67655161Y-151718014D01*
D13*
X70428932Y-156242641D02*
X72550253Y-154121320D01*
D14*
X72550253Y-154121320D02*
X75378680Y-156949747D01*
X75378680Y-156949747D02*
X73257359Y-159071068D01*
X73257359Y-159071068D02*
X70428932Y-156242641D01*
D13*
X126000000Y-180500000D02*
X126000000Y-177500000D01*
D14*
X126000000Y-177500000D02*
X130000000Y-177500000D01*
X130000000Y-177500000D02*
X130000000Y-180500000D01*
X130000000Y-180500000D02*
X126000000Y-180500000D01*
D13*
X183571068Y-46757359D02*
X181449747Y-48878680D01*
D14*
X181449747Y-48878680D02*
X178621320Y-46050253D01*
X178621320Y-46050253D02*
X180742641Y-43928932D01*
X180742641Y-43928932D02*
X183571068Y-46757359D01*
D13*
X205500000Y-102500000D02*
X202500000Y-102500000D01*
D14*
X202500000Y-102500000D02*
X202500000Y-98500000D01*
X202500000Y-98500000D02*
X205500000Y-98500000D01*
X205500000Y-98500000D02*
X205500000Y-102500000D01*
D13*
X181742641Y-158071068D02*
X179621320Y-155949747D01*
D14*
X179621320Y-155949747D02*
X182449747Y-153121320D01*
X182449747Y-153121320D02*
X184571068Y-155242641D01*
X184571068Y-155242641D02*
X181742641Y-158071068D01*
D13*
X128000000Y-23000000D02*
X128000000Y-26000000D01*
D14*
X128000000Y-26000000D02*
X124000000Y-26000000D01*
X124000000Y-26000000D02*
X124000000Y-23000000D01*
X124000000Y-23000000D02*
X128000000Y-23000000D01*
D13*
X72257359Y-44928932D02*
X74378680Y-47050253D01*
D14*
X74378680Y-47050253D02*
X71550253Y-49878680D01*
X71550253Y-49878680D02*
X69428932Y-47757359D01*
X69428932Y-47757359D02*
X72257359Y-44928932D01*
D13*
X48500000Y-100500000D02*
X51500000Y-100500000D01*
D14*
X51500000Y-100500000D02*
X51500000Y-104500000D01*
X51500000Y-104500000D02*
X48500000Y-104500000D01*
X48500000Y-104500000D02*
X48500000Y-100500000D01*
D13*
X139021987Y-97472761D02*
X138688653Y-96996570D01*
X138450558Y-97472761D02*
X138450558Y-96472761D01*
X138831511Y-96472761D01*
X138926749Y-96520380D01*
X138974368Y-96567999D01*
X139021987Y-96663237D01*
X139021987Y-96806094D01*
X138974368Y-96901332D01*
X138926749Y-96948951D01*
X138831511Y-96996570D01*
X138450558Y-96996570D01*
X139450558Y-96948951D02*
X139783892Y-96948951D01*
X139926749Y-97472761D02*
X139450558Y-97472761D01*
X139450558Y-96472761D01*
X139926749Y-96472761D01*
X140688654Y-96948951D02*
X140355320Y-96948951D01*
X140355320Y-97472761D02*
X140355320Y-96472761D01*
X140831511Y-96472761D01*
X141355320Y-96472761D02*
X141355320Y-96710856D01*
X141117225Y-96615618D02*
X141355320Y-96710856D01*
X141593416Y-96615618D01*
X141212463Y-96901332D02*
X141355320Y-96710856D01*
X141498178Y-96901332D01*
X142117225Y-96472761D02*
X142117225Y-96710856D01*
X141879130Y-96615618D02*
X142117225Y-96710856D01*
X142355321Y-96615618D01*
X141974368Y-96901332D02*
X142117225Y-96710856D01*
X142260083Y-96901332D01*
X62202227Y-137383781D02*
X61868893Y-136907590D01*
X61630798Y-137383781D02*
X61630798Y-136383781D01*
X62011751Y-136383781D01*
X62106989Y-136431400D01*
X62154608Y-136479019D01*
X62202227Y-136574257D01*
X62202227Y-136717114D01*
X62154608Y-136812352D01*
X62106989Y-136859971D01*
X62011751Y-136907590D01*
X61630798Y-136907590D01*
X62630798Y-136859971D02*
X62964132Y-136859971D01*
X63106989Y-137383781D02*
X62630798Y-137383781D01*
X62630798Y-136383781D01*
X63106989Y-136383781D01*
X63868894Y-136859971D02*
X63535560Y-136859971D01*
X63535560Y-137383781D02*
X63535560Y-136383781D01*
X64011751Y-136383781D01*
X64535560Y-136383781D02*
X64535560Y-136621876D01*
X64297465Y-136526638D02*
X64535560Y-136621876D01*
X64773656Y-136526638D01*
X64392703Y-136812352D02*
X64535560Y-136621876D01*
X64678418Y-136812352D01*
X65297465Y-136383781D02*
X65297465Y-136621876D01*
X65059370Y-136526638D02*
X65297465Y-136621876D01*
X65535561Y-136526638D01*
X65154608Y-136812352D02*
X65297465Y-136621876D01*
X65440323Y-136812352D01*
X63355387Y-78758041D02*
X63022053Y-78281850D01*
X62783958Y-78758041D02*
X62783958Y-77758041D01*
X63164911Y-77758041D01*
X63260149Y-77805660D01*
X63307768Y-77853279D01*
X63355387Y-77948517D01*
X63355387Y-78091374D01*
X63307768Y-78186612D01*
X63260149Y-78234231D01*
X63164911Y-78281850D01*
X62783958Y-78281850D01*
X63783958Y-78234231D02*
X64117292Y-78234231D01*
X64260149Y-78758041D02*
X63783958Y-78758041D01*
X63783958Y-77758041D01*
X64260149Y-77758041D01*
X65022054Y-78234231D02*
X64688720Y-78234231D01*
X64688720Y-78758041D02*
X64688720Y-77758041D01*
X65164911Y-77758041D01*
X65688720Y-77758041D02*
X65688720Y-77996136D01*
X65450625Y-77900898D02*
X65688720Y-77996136D01*
X65926816Y-77900898D01*
X65545863Y-78186612D02*
X65688720Y-77996136D01*
X65831578Y-78186612D01*
X66450625Y-77758041D02*
X66450625Y-77996136D01*
X66212530Y-77900898D02*
X66450625Y-77996136D01*
X66688721Y-77900898D01*
X66307768Y-78186612D02*
X66450625Y-77996136D01*
X66593483Y-78186612D01*
X96090907Y-28308561D02*
X95757573Y-27832370D01*
X95519478Y-28308561D02*
X95519478Y-27308561D01*
X95900431Y-27308561D01*
X95995669Y-27356180D01*
X96043288Y-27403799D01*
X96090907Y-27499037D01*
X96090907Y-27641894D01*
X96043288Y-27737132D01*
X95995669Y-27784751D01*
X95900431Y-27832370D01*
X95519478Y-27832370D01*
X96519478Y-27784751D02*
X96852812Y-27784751D01*
X96995669Y-28308561D02*
X96519478Y-28308561D01*
X96519478Y-27308561D01*
X96995669Y-27308561D01*
X97757574Y-27784751D02*
X97424240Y-27784751D01*
X97424240Y-28308561D02*
X97424240Y-27308561D01*
X97900431Y-27308561D01*
X98424240Y-27308561D02*
X98424240Y-27546656D01*
X98186145Y-27451418D02*
X98424240Y-27546656D01*
X98662336Y-27451418D01*
X98281383Y-27737132D02*
X98424240Y-27546656D01*
X98567098Y-27737132D01*
X99186145Y-27308561D02*
X99186145Y-27546656D01*
X98948050Y-27451418D02*
X99186145Y-27546656D01*
X99424241Y-27451418D01*
X99043288Y-27737132D02*
X99186145Y-27546656D01*
X99329003Y-27737132D01*
X153472047Y-28308561D02*
X153138713Y-27832370D01*
X152900618Y-28308561D02*
X152900618Y-27308561D01*
X153281571Y-27308561D01*
X153376809Y-27356180D01*
X153424428Y-27403799D01*
X153472047Y-27499037D01*
X153472047Y-27641894D01*
X153424428Y-27737132D01*
X153376809Y-27784751D01*
X153281571Y-27832370D01*
X152900618Y-27832370D01*
X153900618Y-27784751D02*
X154233952Y-27784751D01*
X154376809Y-28308561D02*
X153900618Y-28308561D01*
X153900618Y-27308561D01*
X154376809Y-27308561D01*
X155138714Y-27784751D02*
X154805380Y-27784751D01*
X154805380Y-28308561D02*
X154805380Y-27308561D01*
X155281571Y-27308561D01*
X155805380Y-27308561D02*
X155805380Y-27546656D01*
X155567285Y-27451418D02*
X155805380Y-27546656D01*
X156043476Y-27451418D01*
X155662523Y-27737132D02*
X155805380Y-27546656D01*
X155948238Y-27737132D01*
X156567285Y-27308561D02*
X156567285Y-27546656D01*
X156329190Y-27451418D02*
X156567285Y-27546656D01*
X156805381Y-27451418D01*
X156424428Y-27737132D02*
X156567285Y-27546656D01*
X156710143Y-27737132D01*
X196989867Y-70287141D02*
X196656533Y-69810950D01*
X196418438Y-70287141D02*
X196418438Y-69287141D01*
X196799391Y-69287141D01*
X196894629Y-69334760D01*
X196942248Y-69382379D01*
X196989867Y-69477617D01*
X196989867Y-69620474D01*
X196942248Y-69715712D01*
X196894629Y-69763331D01*
X196799391Y-69810950D01*
X196418438Y-69810950D01*
X197418438Y-69763331D02*
X197751772Y-69763331D01*
X197894629Y-70287141D02*
X197418438Y-70287141D01*
X197418438Y-69287141D01*
X197894629Y-69287141D01*
X198656534Y-69763331D02*
X198323200Y-69763331D01*
X198323200Y-70287141D02*
X198323200Y-69287141D01*
X198799391Y-69287141D01*
X199323200Y-69287141D02*
X199323200Y-69525236D01*
X199085105Y-69429998D02*
X199323200Y-69525236D01*
X199561296Y-69429998D01*
X199180343Y-69715712D02*
X199323200Y-69525236D01*
X199466058Y-69715712D01*
X200085105Y-69287141D02*
X200085105Y-69525236D01*
X199847010Y-69429998D02*
X200085105Y-69525236D01*
X200323201Y-69429998D01*
X199942248Y-69715712D02*
X200085105Y-69525236D01*
X200227963Y-69715712D01*
X197375947Y-127668281D02*
X197042613Y-127192090D01*
X196804518Y-127668281D02*
X196804518Y-126668281D01*
X197185471Y-126668281D01*
X197280709Y-126715900D01*
X197328328Y-126763519D01*
X197375947Y-126858757D01*
X197375947Y-127001614D01*
X197328328Y-127096852D01*
X197280709Y-127144471D01*
X197185471Y-127192090D01*
X196804518Y-127192090D01*
X197804518Y-127144471D02*
X198137852Y-127144471D01*
X198280709Y-127668281D02*
X197804518Y-127668281D01*
X197804518Y-126668281D01*
X198280709Y-126668281D01*
X199042614Y-127144471D02*
X198709280Y-127144471D01*
X198709280Y-127668281D02*
X198709280Y-126668281D01*
X199185471Y-126668281D01*
X199709280Y-126668281D02*
X199709280Y-126906376D01*
X199471185Y-126811138D02*
X199709280Y-126906376D01*
X199947376Y-126811138D01*
X199566423Y-127096852D02*
X199709280Y-126906376D01*
X199852138Y-127096852D01*
X200471185Y-126668281D02*
X200471185Y-126906376D01*
X200233090Y-126811138D02*
X200471185Y-126906376D01*
X200709281Y-126811138D01*
X200328328Y-127096852D02*
X200471185Y-126906376D01*
X200614043Y-127096852D01*
X156939147Y-169646861D02*
X156605813Y-169170670D01*
X156367718Y-169646861D02*
X156367718Y-168646861D01*
X156748671Y-168646861D01*
X156843909Y-168694480D01*
X156891528Y-168742099D01*
X156939147Y-168837337D01*
X156939147Y-168980194D01*
X156891528Y-169075432D01*
X156843909Y-169123051D01*
X156748671Y-169170670D01*
X156367718Y-169170670D01*
X157367718Y-169123051D02*
X157701052Y-169123051D01*
X157843909Y-169646861D02*
X157367718Y-169646861D01*
X157367718Y-168646861D01*
X157843909Y-168646861D01*
X158605814Y-169123051D02*
X158272480Y-169123051D01*
X158272480Y-169646861D02*
X158272480Y-168646861D01*
X158748671Y-168646861D01*
X159272480Y-168646861D02*
X159272480Y-168884956D01*
X159034385Y-168789718D02*
X159272480Y-168884956D01*
X159510576Y-168789718D01*
X159129623Y-169075432D02*
X159272480Y-168884956D01*
X159415338Y-169075432D01*
X160034385Y-168646861D02*
X160034385Y-168884956D01*
X159796290Y-168789718D02*
X160034385Y-168884956D01*
X160272481Y-168789718D01*
X159891528Y-169075432D02*
X160034385Y-168884956D01*
X160177243Y-169075432D01*
X98016227Y-169260781D02*
X97682893Y-168784590D01*
X97444798Y-169260781D02*
X97444798Y-168260781D01*
X97825751Y-168260781D01*
X97920989Y-168308400D01*
X97968608Y-168356019D01*
X98016227Y-168451257D01*
X98016227Y-168594114D01*
X97968608Y-168689352D01*
X97920989Y-168736971D01*
X97825751Y-168784590D01*
X97444798Y-168784590D01*
X98444798Y-168736971D02*
X98778132Y-168736971D01*
X98920989Y-169260781D02*
X98444798Y-169260781D01*
X98444798Y-168260781D01*
X98920989Y-168260781D01*
X99682894Y-168736971D02*
X99349560Y-168736971D01*
X99349560Y-169260781D02*
X99349560Y-168260781D01*
X99825751Y-168260781D01*
X100349560Y-168260781D02*
X100349560Y-168498876D01*
X100111465Y-168403638D02*
X100349560Y-168498876D01*
X100587656Y-168403638D01*
X100206703Y-168689352D02*
X100349560Y-168498876D01*
X100492418Y-168689352D01*
X101111465Y-168260781D02*
X101111465Y-168498876D01*
X100873370Y-168403638D02*
X101111465Y-168498876D01*
X101349561Y-168403638D01*
X100968608Y-168689352D02*
X101111465Y-168498876D01*
X101254323Y-168689352D01*
X131503587Y-76279001D02*
X131170253Y-75802810D01*
X130932158Y-76279001D02*
X130932158Y-75279001D01*
X131313111Y-75279001D01*
X131408349Y-75326620D01*
X131455968Y-75374239D01*
X131503587Y-75469477D01*
X131503587Y-75612334D01*
X131455968Y-75707572D01*
X131408349Y-75755191D01*
X131313111Y-75802810D01*
X130932158Y-75802810D01*
X131932158Y-75755191D02*
X132265492Y-75755191D01*
X132408349Y-76279001D02*
X131932158Y-76279001D01*
X131932158Y-75279001D01*
X132408349Y-75279001D01*
X133170254Y-75755191D02*
X132836920Y-75755191D01*
X132836920Y-76279001D02*
X132836920Y-75279001D01*
X133313111Y-75279001D01*
X133836920Y-75279001D02*
X133836920Y-75517096D01*
X133598825Y-75421858D02*
X133836920Y-75517096D01*
X134075016Y-75421858D01*
X133694063Y-75707572D02*
X133836920Y-75517096D01*
X133979778Y-75707572D01*
X134598825Y-75279001D02*
X134598825Y-75517096D01*
X134360730Y-75421858D02*
X134598825Y-75517096D01*
X134836921Y-75421858D01*
X134455968Y-75707572D02*
X134598825Y-75517096D01*
X134741683Y-75707572D01*
X124569387Y-87061301D02*
X124236053Y-86585110D01*
X123997958Y-87061301D02*
X123997958Y-86061301D01*
X124378911Y-86061301D01*
X124474149Y-86108920D01*
X124521768Y-86156539D01*
X124569387Y-86251777D01*
X124569387Y-86394634D01*
X124521768Y-86489872D01*
X124474149Y-86537491D01*
X124378911Y-86585110D01*
X123997958Y-86585110D01*
X124997958Y-86537491D02*
X125331292Y-86537491D01*
X125474149Y-87061301D02*
X124997958Y-87061301D01*
X124997958Y-86061301D01*
X125474149Y-86061301D01*
X126236054Y-86537491D02*
X125902720Y-86537491D01*
X125902720Y-87061301D02*
X125902720Y-86061301D01*
X126378911Y-86061301D01*
X126902720Y-86061301D02*
X126902720Y-86299396D01*
X126664625Y-86204158D02*
X126902720Y-86299396D01*
X127140816Y-86204158D01*
X126759863Y-86489872D02*
X126902720Y-86299396D01*
X127045578Y-86489872D01*
X127664625Y-86061301D02*
X127664625Y-86299396D01*
X127426530Y-86204158D02*
X127664625Y-86299396D01*
X127902721Y-86204158D01*
X127521768Y-86489872D02*
X127664625Y-86299396D01*
X127807483Y-86489872D01*
X195763047Y-69456561D02*
X195429713Y-68980370D01*
X195191618Y-69456561D02*
X195191618Y-68456561D01*
X195572571Y-68456561D01*
X195667809Y-68504180D01*
X195715428Y-68551799D01*
X195763047Y-68647037D01*
X195763047Y-68789894D01*
X195715428Y-68885132D01*
X195667809Y-68932751D01*
X195572571Y-68980370D01*
X195191618Y-68980370D01*
X196191618Y-68932751D02*
X196524952Y-68932751D01*
X196667809Y-69456561D02*
X196191618Y-69456561D01*
X196191618Y-68456561D01*
X196667809Y-68456561D01*
X197429714Y-68932751D02*
X197096380Y-68932751D01*
X197096380Y-69456561D02*
X197096380Y-68456561D01*
X197572571Y-68456561D01*
X198096380Y-68456561D02*
X198096380Y-68694656D01*
X197858285Y-68599418D02*
X198096380Y-68694656D01*
X198334476Y-68599418D01*
X197953523Y-68885132D02*
X198096380Y-68694656D01*
X198239238Y-68885132D01*
X198858285Y-68456561D02*
X198858285Y-68694656D01*
X198620190Y-68599418D02*
X198858285Y-68694656D01*
X199096381Y-68599418D01*
X198715428Y-68885132D02*
X198858285Y-68694656D01*
X199001143Y-68885132D01*
X53701903Y-102203546D02*
X53749522Y-102251165D01*
X53797141Y-102394022D01*
X53797141Y-102489260D01*
X53749522Y-102632118D01*
X53654284Y-102727356D01*
X53559046Y-102774975D01*
X53368570Y-102822594D01*
X53225712Y-102822594D01*
X53035236Y-102774975D01*
X52939998Y-102727356D01*
X52844760Y-102632118D01*
X52797141Y-102489260D01*
X52797141Y-102394022D01*
X52844760Y-102251165D01*
X52892379Y-102203546D01*
X53797141Y-101251165D02*
X53797141Y-101822594D01*
X53797141Y-101536880D02*
X52797141Y-101536880D01*
X52939998Y-101632118D01*
X53035236Y-101727356D01*
X53082855Y-101822594D01*
X74750805Y-49486506D02*
X74750805Y-49553849D01*
X74683461Y-49688536D01*
X74616118Y-49755880D01*
X74481430Y-49823224D01*
X74346743Y-49823224D01*
X74245728Y-49789552D01*
X74077370Y-49688537D01*
X73976354Y-49587521D01*
X73875339Y-49419162D01*
X73841667Y-49318147D01*
X73841667Y-49183460D01*
X73909011Y-49048773D01*
X73976354Y-48981429D01*
X74111041Y-48914086D01*
X74178385Y-48914086D01*
X74447758Y-48644712D02*
X74447758Y-48577369D01*
X74481430Y-48476354D01*
X74649789Y-48307994D01*
X74750805Y-48274323D01*
X74818148Y-48274323D01*
X74919163Y-48307994D01*
X74986507Y-48375338D01*
X75053850Y-48510025D01*
X75053850Y-49318147D01*
X75491583Y-48880414D01*
X126333334Y-27107143D02*
X126285715Y-27154762D01*
X126142858Y-27202381D01*
X126047620Y-27202381D01*
X125904762Y-27154762D01*
X125809524Y-27059524D01*
X125761905Y-26964286D01*
X125714286Y-26773810D01*
X125714286Y-26630952D01*
X125761905Y-26440476D01*
X125809524Y-26345238D01*
X125904762Y-26250000D01*
X126047620Y-26202381D01*
X126142858Y-26202381D01*
X126285715Y-26250000D01*
X126333334Y-26297619D01*
X126666667Y-26202381D02*
X127285715Y-26202381D01*
X126952381Y-26583333D01*
X127095239Y-26583333D01*
X127190477Y-26630952D01*
X127238096Y-26678571D01*
X127285715Y-26773810D01*
X127285715Y-27011905D01*
X127238096Y-27107143D01*
X127190477Y-27154762D01*
X127095239Y-27202381D01*
X126809524Y-27202381D01*
X126714286Y-27154762D01*
X126666667Y-27107143D01*
X179722811Y-154309592D02*
X179722811Y-154376935D01*
X179655467Y-154511622D01*
X179588124Y-154578966D01*
X179453436Y-154646310D01*
X179318749Y-154646310D01*
X179217734Y-154612638D01*
X179049376Y-154511623D01*
X178948360Y-154410607D01*
X178847345Y-154242248D01*
X178813673Y-154141233D01*
X178813673Y-154006546D01*
X178881017Y-153871859D01*
X178948360Y-153804515D01*
X179083047Y-153737172D01*
X179150391Y-153737172D01*
X179924841Y-153299439D02*
X180396246Y-153770844D01*
X179487108Y-153198425D02*
X179823826Y-153871860D01*
X180261559Y-153434127D01*
X201441643Y-101131666D02*
X201489262Y-101179285D01*
X201536881Y-101322142D01*
X201536881Y-101417380D01*
X201489262Y-101560238D01*
X201394024Y-101655476D01*
X201298786Y-101703095D01*
X201108310Y-101750714D01*
X200965452Y-101750714D01*
X200774976Y-101703095D01*
X200679738Y-101655476D01*
X200584500Y-101560238D01*
X200536881Y-101417380D01*
X200536881Y-101322142D01*
X200584500Y-101179285D01*
X200632119Y-101131666D01*
X200536881Y-100226904D02*
X200536881Y-100703095D01*
X201013071Y-100750714D01*
X200965452Y-100703095D01*
X200917833Y-100607857D01*
X200917833Y-100369761D01*
X200965452Y-100274523D01*
X201013071Y-100226904D01*
X201108310Y-100179285D01*
X201346405Y-100179285D01*
X201441643Y-100226904D01*
X201489262Y-100274523D01*
X201536881Y-100369761D01*
X201536881Y-100607857D01*
X201489262Y-100703095D01*
X201441643Y-100750714D01*
X179105974Y-49039885D02*
X179038631Y-49039885D01*
X178903944Y-48972541D01*
X178836600Y-48905198D01*
X178769256Y-48770510D01*
X178769256Y-48635823D01*
X178802928Y-48534808D01*
X178903943Y-48366450D01*
X179004959Y-48265434D01*
X179173318Y-48164419D01*
X179274333Y-48130747D01*
X179409020Y-48130747D01*
X179543707Y-48198091D01*
X179611051Y-48265434D01*
X179678394Y-48400121D01*
X179678394Y-48467465D01*
X180351829Y-49006213D02*
X180217141Y-48871525D01*
X180116126Y-48837854D01*
X180048783Y-48837854D01*
X179880424Y-48871525D01*
X179712066Y-48972540D01*
X179442691Y-49241915D01*
X179409020Y-49342930D01*
X179409020Y-49410273D01*
X179442691Y-49511289D01*
X179577379Y-49645976D01*
X179678394Y-49679648D01*
X179745737Y-49679648D01*
X179846753Y-49645976D01*
X180015111Y-49477618D01*
X180048784Y-49376602D01*
X180048784Y-49309258D01*
X180015112Y-49208243D01*
X179880424Y-49073556D01*
X179779409Y-49039884D01*
X179712066Y-49039884D01*
X179611050Y-49073556D01*
X127354034Y-176600443D02*
X127306415Y-176648062D01*
X127163558Y-176695681D01*
X127068320Y-176695681D01*
X126925462Y-176648062D01*
X126830224Y-176552824D01*
X126782605Y-176457586D01*
X126734986Y-176267110D01*
X126734986Y-176124252D01*
X126782605Y-175933776D01*
X126830224Y-175838538D01*
X126925462Y-175743300D01*
X127068320Y-175695681D01*
X127163558Y-175695681D01*
X127306415Y-175743300D01*
X127354034Y-175790919D01*
X127687367Y-175695681D02*
X128354034Y-175695681D01*
X127925462Y-176695681D01*
X74407248Y-154185651D02*
X74339905Y-154185651D01*
X74205218Y-154118307D01*
X74137874Y-154050964D01*
X74070530Y-153916276D01*
X74070530Y-153781589D01*
X74104202Y-153680574D01*
X74205217Y-153512216D01*
X74306233Y-153411200D01*
X74474592Y-153310185D01*
X74575607Y-153276513D01*
X74710294Y-153276513D01*
X74844981Y-153343857D01*
X74912325Y-153411200D01*
X74979668Y-153545887D01*
X74979668Y-153613231D01*
X75148027Y-154252993D02*
X75114355Y-154151978D01*
X75114355Y-154084635D01*
X75148027Y-153983620D01*
X75181698Y-153949948D01*
X75282713Y-153916276D01*
X75350057Y-153916276D01*
X75451072Y-153949948D01*
X75585760Y-154084635D01*
X75619431Y-154185651D01*
X75619431Y-154252994D01*
X75585760Y-154354009D01*
X75552088Y-154387681D01*
X75451073Y-154421353D01*
X75383729Y-154421353D01*
X75282714Y-154387681D01*
X75148027Y-154252993D01*
X75047011Y-154219322D01*
X74979668Y-154219322D01*
X74878652Y-154252994D01*
X74743965Y-154387681D01*
X74710294Y-154488696D01*
X74710294Y-154556039D01*
X74743965Y-154657055D01*
X74878653Y-154791742D01*
X74979668Y-154825414D01*
X75047011Y-154825414D01*
X75148027Y-154791742D01*
X75282713Y-154657055D01*
X75316386Y-154556039D01*
X75316386Y-154488696D01*
X75282714Y-154387681D01*
X139222683Y-92600602D02*
X138685695Y-92378087D01*
X138740745Y-92907630D02*
X138203446Y-92064239D01*
X138524738Y-91859553D01*
X138630647Y-91848543D01*
X138696394Y-91863119D01*
X138787727Y-91917856D01*
X138864484Y-92038341D01*
X138875493Y-92144249D01*
X138860918Y-92209996D01*
X138806180Y-92301329D01*
X138484888Y-92506015D01*
X140025913Y-92088888D02*
X139543975Y-92395916D01*
X139784944Y-92242402D02*
X139247644Y-91399011D01*
X139244078Y-91570667D01*
X139214927Y-91702161D01*
X139160190Y-91793494D01*
X138354785Y-91358429D02*
X137821762Y-91126576D01*
X137867562Y-91657000D02*
X137345063Y-90804360D01*
X137669879Y-90605312D01*
X137775964Y-90596152D01*
X137841447Y-90611873D01*
X137931810Y-90668196D01*
X138006453Y-90790002D01*
X138015613Y-90896086D01*
X137999892Y-90961569D01*
X137943569Y-91051933D01*
X137618753Y-91250980D01*
X138206863Y-90387946D02*
X138222584Y-90322463D01*
X138278907Y-90232099D01*
X138481918Y-90107695D01*
X138588002Y-90098535D01*
X138653485Y-90114256D01*
X138743848Y-90170579D01*
X138793610Y-90251782D01*
X138827651Y-90398469D01*
X138638998Y-91184263D01*
X139166824Y-90860811D01*
X137710611Y-83942681D02*
X138084407Y-84660737D01*
X138170622Y-84723226D01*
X138234848Y-84743477D01*
X138341314Y-84741739D01*
X138510269Y-84653787D01*
X138572758Y-84567572D01*
X138593008Y-84503346D01*
X138591271Y-84396881D01*
X138217474Y-83678824D01*
X138641598Y-83565409D02*
X138661848Y-83501183D01*
X138724337Y-83414968D01*
X138935531Y-83305027D01*
X139041996Y-83303290D01*
X139106223Y-83323541D01*
X139192437Y-83386030D01*
X139236413Y-83470507D01*
X139260139Y-83619211D01*
X139017132Y-84389931D01*
X139566234Y-84104086D01*
X66959166Y-151964827D02*
X66386745Y-151863812D01*
X66555105Y-152368889D02*
X65847998Y-151661782D01*
X66117372Y-151392407D01*
X66218388Y-151358736D01*
X66285731Y-151358736D01*
X66386746Y-151392407D01*
X66487761Y-151493423D01*
X66521433Y-151594438D01*
X66521433Y-151661781D01*
X66487761Y-151762796D01*
X66218387Y-152032171D01*
X67093853Y-150887331D02*
X67565258Y-151358736D01*
X66656120Y-150786317D02*
X66992838Y-151459752D01*
X67430571Y-151022019D01*
X77129611Y-153717259D02*
X76422504Y-153010152D01*
X77163283Y-153279526D01*
X76893909Y-152538747D01*
X77601015Y-153245854D01*
X77937733Y-152909137D02*
X77466328Y-152437732D01*
X77230626Y-152202030D02*
X77230626Y-152269373D01*
X77297969Y-152269373D01*
X77297969Y-152202030D01*
X77230626Y-152202030D01*
X77297969Y-152269373D01*
X78543824Y-152235702D02*
X78510153Y-152336717D01*
X78375465Y-152471404D01*
X78274450Y-152505076D01*
X78207106Y-152505076D01*
X78106091Y-152471404D01*
X77904060Y-152269373D01*
X77870389Y-152168358D01*
X77870389Y-152101015D01*
X77904060Y-152000000D01*
X78038748Y-151865312D01*
X78139763Y-151831640D01*
X78577495Y-151461251D02*
X78476480Y-151494923D01*
X78409137Y-151494923D01*
X78308122Y-151461251D01*
X78274450Y-151427580D01*
X78240778Y-151326565D01*
X78240778Y-151259221D01*
X78274450Y-151158206D01*
X78409137Y-151023518D01*
X78510153Y-150989847D01*
X78577496Y-150989847D01*
X78678511Y-151023518D01*
X78712183Y-151057190D01*
X78745855Y-151158205D01*
X78745855Y-151225549D01*
X78712183Y-151326564D01*
X78577495Y-151461251D01*
X78543824Y-151562267D01*
X78543824Y-151629610D01*
X78577496Y-151730626D01*
X78712183Y-151865313D01*
X78813198Y-151898984D01*
X78880541Y-151898984D01*
X78981557Y-151865313D01*
X79116244Y-151730625D01*
X79149916Y-151629610D01*
X79149916Y-151562267D01*
X79116244Y-151461251D01*
X78981557Y-151326565D01*
X78880541Y-151292892D01*
X78813198Y-151292892D01*
X78712183Y-151326564D01*
D15*
X72854124Y-156598501D02*
X72841295Y-156602777D01*
X72828466Y-156615606D01*
X72819913Y-156632711D01*
X72819913Y-156649816D01*
X72824189Y-156662645D01*
X72837018Y-156684027D01*
X72849847Y-156696857D01*
X72871229Y-156709685D01*
X72884058Y-156713961D01*
X72901163Y-156713961D01*
X72918268Y-156705408D01*
X72926821Y-156696856D01*
X72935374Y-156679751D01*
X72935374Y-156671198D01*
X72905440Y-156641264D01*
X72888334Y-156658369D01*
X72982413Y-156641264D02*
X72892610Y-156551461D01*
X73033729Y-156589948D01*
X72943926Y-156500145D01*
X73076492Y-156547185D02*
X72986689Y-156457382D01*
X73008071Y-156436001D01*
X73025176Y-156427448D01*
X73042281Y-156427448D01*
X73055110Y-156431724D01*
X73076492Y-156444553D01*
X73089322Y-156457382D01*
X73102150Y-156478764D01*
X73106426Y-156491593D01*
X73106426Y-156508698D01*
X73097873Y-156525803D01*
X73076492Y-156547185D01*
X72066272Y-157448510D02*
X72177456Y-157516931D01*
X72130416Y-157435681D01*
X72211666Y-157482720D01*
X72143245Y-157371536D01*
X72258706Y-157427129D02*
X72275811Y-157418576D01*
X72297192Y-157397194D01*
X72301470Y-157384365D01*
X72301469Y-157375813D01*
X72297193Y-157362984D01*
X72288641Y-157354431D01*
X72275811Y-157350155D01*
X72267259Y-157350155D01*
X72254429Y-157354431D01*
X72233049Y-157367260D01*
X72220219Y-157371536D01*
X72211666Y-157371536D01*
X72198837Y-157367260D01*
X72190285Y-157358708D01*
X72186009Y-157345879D01*
X72186009Y-157337325D01*
X72190285Y-157324496D01*
X72211666Y-157303115D01*
X72228772Y-157294562D01*
X72584278Y-158034937D02*
X72601383Y-158026384D01*
X72622765Y-158005003D01*
X72627042Y-157992174D01*
X72627041Y-157983621D01*
X72622765Y-157970792D01*
X72614213Y-157962240D01*
X72601383Y-157957963D01*
X72592831Y-157957963D01*
X72580002Y-157962240D01*
X72558621Y-157975069D01*
X72545792Y-157979345D01*
X72537239Y-157979345D01*
X72524410Y-157975069D01*
X72515857Y-157966516D01*
X72511581Y-157953687D01*
X72511581Y-157945134D01*
X72515857Y-157932305D01*
X72537239Y-157910924D01*
X72554344Y-157902371D01*
X72721120Y-157889542D02*
X72721120Y-157898095D01*
X72712567Y-157915200D01*
X72704015Y-157923753D01*
X72686910Y-157932306D01*
X72669805Y-157932306D01*
X72656975Y-157928029D01*
X72635594Y-157915201D01*
X72622765Y-157902372D01*
X72609936Y-157880990D01*
X72605660Y-157868161D01*
X72605660Y-157851056D01*
X72614212Y-157833950D01*
X72622765Y-157825398D01*
X72639870Y-157816845D01*
X72648423Y-157816845D01*
X72768159Y-157859608D02*
X72678357Y-157769806D01*
X72819475Y-157808292D02*
X72729673Y-157795464D01*
X72729673Y-157718489D02*
X72729673Y-157821122D01*
X73110011Y-158428443D02*
X73127116Y-158419890D01*
X73148498Y-158398509D01*
X73152775Y-158385679D01*
X73152774Y-158377127D01*
X73148499Y-158364298D01*
X73139946Y-158355746D01*
X73127116Y-158351469D01*
X73118565Y-158351469D01*
X73105735Y-158355746D01*
X73084354Y-158368575D01*
X73071525Y-158372850D01*
X73062972Y-158372850D01*
X73050143Y-158368575D01*
X73041590Y-158360022D01*
X73037315Y-158347193D01*
X73037315Y-158338640D01*
X73041590Y-158325811D01*
X73062972Y-158304429D01*
X73080078Y-158295877D01*
X73204090Y-158342916D02*
X73114287Y-158253114D01*
X73135669Y-158231732D01*
X73152774Y-158223180D01*
X73169879Y-158223180D01*
X73182708Y-158227456D01*
X73204091Y-158240285D01*
X73216920Y-158253114D01*
X73229748Y-158274495D01*
X73234025Y-158287325D01*
X73234025Y-158304430D01*
X73225471Y-158321535D01*
X73204090Y-158342916D01*
X74416156Y-156937103D02*
X74527340Y-157005524D01*
X74480300Y-156924274D01*
X74561550Y-156971313D01*
X74493129Y-156860129D01*
X74617142Y-156915721D02*
X74527340Y-156825919D01*
X74651353Y-156872959D02*
X74668458Y-156864406D01*
X74689839Y-156843024D01*
X74694117Y-156830195D01*
X74694116Y-156821643D01*
X74689840Y-156808814D01*
X74681287Y-156800261D01*
X74668458Y-156795985D01*
X74659906Y-156795985D01*
X74647076Y-156800261D01*
X74625695Y-156813090D01*
X74612866Y-156817366D01*
X74604313Y-156817366D01*
X74591484Y-156813090D01*
X74582932Y-156804538D01*
X74578656Y-156791709D01*
X74578656Y-156783156D01*
X74582932Y-156770327D01*
X74604313Y-156748945D01*
X74621419Y-156740393D01*
X74672734Y-156680524D02*
X74689839Y-156663419D01*
X74702668Y-156659143D01*
X74719774Y-156659142D01*
X74741155Y-156671972D01*
X74771089Y-156701906D01*
X74783919Y-156723288D01*
X74783918Y-156740393D01*
X74779642Y-156753222D01*
X74762537Y-156770327D01*
X74749708Y-156774604D01*
X74732603Y-156774604D01*
X74711221Y-156761775D01*
X74681287Y-156731841D01*
X74668458Y-156710459D01*
X74668458Y-156693354D01*
X74672734Y-156680524D01*
X74002263Y-156594257D02*
X74002263Y-156602810D01*
X73993710Y-156619915D01*
X73985158Y-156628468D01*
X73968053Y-156637021D01*
X73950948Y-156637021D01*
X73938118Y-156632744D01*
X73916737Y-156619916D01*
X73903908Y-156607087D01*
X73891079Y-156585705D01*
X73886803Y-156572876D01*
X73886803Y-156555771D01*
X73895355Y-156538665D01*
X73903908Y-156530113D01*
X73921013Y-156521560D01*
X73929566Y-156521560D01*
X73976605Y-156457415D02*
X73993710Y-156440310D01*
X74006539Y-156436034D01*
X74023645Y-156436034D01*
X74045026Y-156448863D01*
X74074960Y-156478797D01*
X74087790Y-156500179D01*
X74087789Y-156517284D01*
X74083513Y-156530113D01*
X74066408Y-156547218D01*
X74053579Y-156551495D01*
X74036474Y-156551495D01*
X74015092Y-156538666D01*
X73985158Y-156508732D01*
X73972329Y-156487350D01*
X73972329Y-156470245D01*
X73976605Y-156457415D01*
X74143381Y-156470244D02*
X74053579Y-156380442D01*
X74194697Y-156418928D01*
X74104895Y-156329125D01*
X74220356Y-156299192D02*
X74190422Y-156329126D01*
X74237460Y-156376165D02*
X74147658Y-156286362D01*
X74190421Y-156243599D01*
X74314434Y-156299191D02*
X74224631Y-156209389D01*
X74318711Y-156123863D02*
X74305882Y-156128139D01*
X74293052Y-156140968D01*
X74284500Y-156158073D01*
X74284500Y-156175178D01*
X74288776Y-156188007D01*
X74301605Y-156209390D01*
X74314434Y-156222219D01*
X74335815Y-156235047D01*
X74348645Y-156239324D01*
X74365750Y-156239324D01*
X74382855Y-156230770D01*
X74391407Y-156222218D01*
X74399961Y-156205113D01*
X74399961Y-156196560D01*
X74370027Y-156166626D01*
X74352921Y-156183732D01*
X73477354Y-155995002D02*
X73597091Y-156054870D01*
X73537222Y-155935133D01*
X73656959Y-155995002D02*
X73567156Y-155905199D01*
X73588538Y-155883818D01*
X73605643Y-155875265D01*
X73622748Y-155875265D01*
X73635577Y-155879541D01*
X73656959Y-155892370D01*
X73669788Y-155905199D01*
X73682617Y-155926581D01*
X73686893Y-155939410D01*
X73686893Y-155956515D01*
X73678340Y-155973620D01*
X73656959Y-155995002D01*
X73746761Y-155905199D02*
X73656959Y-155815397D01*
X73678340Y-155794015D01*
X73695446Y-155785463D01*
X73712551Y-155785463D01*
X73725380Y-155789738D01*
X73746762Y-155802567D01*
X73759591Y-155815397D01*
X73772419Y-155836778D01*
X73776696Y-155849608D01*
X73776696Y-155866713D01*
X73768143Y-155883818D01*
X73746761Y-155905199D01*
D13*
X128952381Y-173976190D02*
X127952381Y-173976190D01*
X128666667Y-173642856D01*
X127952381Y-173309523D01*
X128952381Y-173309523D01*
X128952381Y-172833333D02*
X128285714Y-172833333D01*
X127952381Y-172833333D02*
X128000000Y-172880952D01*
X128047619Y-172833333D01*
X128000000Y-172785714D01*
X127952381Y-172833333D01*
X128047619Y-172833333D01*
X128904762Y-171928571D02*
X128952381Y-172023809D01*
X128952381Y-172214286D01*
X128904762Y-172309524D01*
X128857143Y-172357143D01*
X128761905Y-172404762D01*
X128476190Y-172404762D01*
X128380952Y-172357143D01*
X128333333Y-172309524D01*
X128285714Y-172214286D01*
X128285714Y-172023809D01*
X128333333Y-171928571D01*
X127952381Y-171595238D02*
X127952381Y-170928571D01*
X128952381Y-171357143D01*
D15*
X127966500Y-179036762D02*
X127960452Y-179048857D01*
X127960452Y-179067000D01*
X127966500Y-179085143D01*
X127978595Y-179097238D01*
X127990690Y-179103286D01*
X128014881Y-179109334D01*
X128033024Y-179109334D01*
X128057214Y-179103286D01*
X128069310Y-179097238D01*
X128081405Y-179085143D01*
X128087452Y-179067000D01*
X128087452Y-179054905D01*
X128081405Y-179036762D01*
X128075357Y-179030714D01*
X128033024Y-179030714D01*
X128033024Y-179054905D01*
X128087452Y-178976286D02*
X127960452Y-178976286D01*
X128087452Y-178903714D01*
X127960452Y-178903714D01*
X128087452Y-178843238D02*
X127960452Y-178843238D01*
X127960452Y-178813000D01*
X127966500Y-178794857D01*
X127978595Y-178782762D01*
X127990690Y-178776714D01*
X128014881Y-178770666D01*
X128033024Y-178770666D01*
X128057214Y-178776714D01*
X128069310Y-178782762D01*
X128081405Y-178794857D01*
X128087452Y-178813000D01*
X128087452Y-178843238D01*
X128010452Y-180194904D02*
X128137452Y-180164666D01*
X128046738Y-180140476D01*
X128137452Y-180116285D01*
X128010452Y-180086047D01*
X128131405Y-180043714D02*
X128137452Y-180025571D01*
X128137452Y-179995333D01*
X128131405Y-179983237D01*
X128125357Y-179977190D01*
X128113262Y-179971142D01*
X128101167Y-179971142D01*
X128089071Y-179977190D01*
X128083024Y-179983237D01*
X128076976Y-179995333D01*
X128070929Y-180019523D01*
X128064881Y-180031618D01*
X128058833Y-180037666D01*
X128046738Y-180043714D01*
X128034643Y-180043714D01*
X128022548Y-180037666D01*
X128016500Y-180031618D01*
X128010452Y-180019523D01*
X128010452Y-179989285D01*
X128016500Y-179971142D01*
X128791405Y-180243286D02*
X128797452Y-180225143D01*
X128797452Y-180194905D01*
X128791405Y-180182809D01*
X128785357Y-180176762D01*
X128773262Y-180170714D01*
X128761167Y-180170714D01*
X128749071Y-180176762D01*
X128743024Y-180182809D01*
X128736976Y-180194905D01*
X128730929Y-180219095D01*
X128724881Y-180231190D01*
X128718833Y-180237238D01*
X128706738Y-180243286D01*
X128694643Y-180243286D01*
X128682548Y-180237238D01*
X128676500Y-180231190D01*
X128670452Y-180219095D01*
X128670452Y-180188857D01*
X128676500Y-180170714D01*
X128785357Y-180043714D02*
X128791405Y-180049762D01*
X128797452Y-180067905D01*
X128797452Y-180080000D01*
X128791405Y-180098143D01*
X128779310Y-180110238D01*
X128767214Y-180116286D01*
X128743024Y-180122334D01*
X128724881Y-180122334D01*
X128700690Y-180116286D01*
X128688595Y-180110238D01*
X128676500Y-180098143D01*
X128670452Y-180080000D01*
X128670452Y-180067905D01*
X128676500Y-180049762D01*
X128682548Y-180043714D01*
X128797452Y-179989286D02*
X128670452Y-179989286D01*
X128797452Y-179916714D02*
X128724881Y-179971143D01*
X128670452Y-179916714D02*
X128743024Y-179989286D01*
X129441405Y-180149786D02*
X129447452Y-180131643D01*
X129447452Y-180101405D01*
X129441405Y-180089309D01*
X129435357Y-180083262D01*
X129423262Y-180077214D01*
X129411167Y-180077214D01*
X129399071Y-180083262D01*
X129393024Y-180089309D01*
X129386976Y-180101405D01*
X129380929Y-180125595D01*
X129374881Y-180137690D01*
X129368833Y-180143738D01*
X129356738Y-180149786D01*
X129344643Y-180149786D01*
X129332548Y-180143738D01*
X129326500Y-180137690D01*
X129320452Y-180125595D01*
X129320452Y-180095357D01*
X129326500Y-180077214D01*
X129447452Y-180022786D02*
X129320452Y-180022786D01*
X129320452Y-179992548D01*
X129326500Y-179974405D01*
X129338595Y-179962310D01*
X129350690Y-179956262D01*
X129374881Y-179950214D01*
X129393024Y-179950214D01*
X129417214Y-179956262D01*
X129429310Y-179962310D01*
X129441405Y-179974405D01*
X129447452Y-179992548D01*
X129447452Y-180022786D01*
X129310452Y-178171666D02*
X129437452Y-178141428D01*
X129346738Y-178117238D01*
X129437452Y-178093047D01*
X129310452Y-178062809D01*
X129437452Y-178014428D02*
X129310452Y-178014428D01*
X129431405Y-177960000D02*
X129437452Y-177941857D01*
X129437452Y-177911619D01*
X129431405Y-177899523D01*
X129425357Y-177893476D01*
X129413262Y-177887428D01*
X129401167Y-177887428D01*
X129389071Y-177893476D01*
X129383024Y-177899523D01*
X129376976Y-177911619D01*
X129370929Y-177935809D01*
X129364881Y-177947904D01*
X129358833Y-177953952D01*
X129346738Y-177960000D01*
X129334643Y-177960000D01*
X129322548Y-177953952D01*
X129316500Y-177947904D01*
X129310452Y-177935809D01*
X129310452Y-177905571D01*
X129316500Y-177887428D01*
X129310452Y-177808809D02*
X129310452Y-177784619D01*
X129316500Y-177772524D01*
X129328595Y-177760428D01*
X129352786Y-177754381D01*
X129395119Y-177754381D01*
X129419310Y-177760428D01*
X129431405Y-177772524D01*
X129437452Y-177784619D01*
X129437452Y-177808809D01*
X129431405Y-177820905D01*
X129419310Y-177833000D01*
X129395119Y-177839048D01*
X129352786Y-177839048D01*
X129328595Y-177833000D01*
X129316500Y-177820905D01*
X129310452Y-177808809D01*
X128775357Y-178221904D02*
X128781405Y-178227952D01*
X128787452Y-178246095D01*
X128787452Y-178258190D01*
X128781405Y-178276333D01*
X128769310Y-178288428D01*
X128757214Y-178294476D01*
X128733024Y-178300524D01*
X128714881Y-178300524D01*
X128690690Y-178294476D01*
X128678595Y-178288428D01*
X128666500Y-178276333D01*
X128660452Y-178258190D01*
X128660452Y-178246095D01*
X128666500Y-178227952D01*
X128672548Y-178221904D01*
X128660452Y-178143285D02*
X128660452Y-178119095D01*
X128666500Y-178107000D01*
X128678595Y-178094904D01*
X128702786Y-178088857D01*
X128745119Y-178088857D01*
X128769310Y-178094904D01*
X128781405Y-178107000D01*
X128787452Y-178119095D01*
X128787452Y-178143285D01*
X128781405Y-178155381D01*
X128769310Y-178167476D01*
X128745119Y-178173524D01*
X128702786Y-178173524D01*
X128678595Y-178167476D01*
X128666500Y-178155381D01*
X128660452Y-178143285D01*
X128787452Y-178034428D02*
X128660452Y-178034428D01*
X128787452Y-177961856D01*
X128660452Y-177961856D01*
X128720929Y-177859047D02*
X128720929Y-177901380D01*
X128787452Y-177901380D02*
X128660452Y-177901380D01*
X128660452Y-177840904D01*
X128787452Y-177792523D02*
X128660452Y-177792523D01*
X128666500Y-177665523D02*
X128660452Y-177677618D01*
X128660452Y-177695761D01*
X128666500Y-177713904D01*
X128678595Y-177725999D01*
X128690690Y-177732047D01*
X128714881Y-177738095D01*
X128733024Y-177738095D01*
X128757214Y-177732047D01*
X128769310Y-177725999D01*
X128781405Y-177713904D01*
X128787452Y-177695761D01*
X128787452Y-177683666D01*
X128781405Y-177665523D01*
X128775357Y-177659475D01*
X128733024Y-177659475D01*
X128733024Y-177683666D01*
X127980452Y-178169333D02*
X128107452Y-178126999D01*
X127980452Y-178084666D01*
X128107452Y-178042333D02*
X127980452Y-178042333D01*
X127980452Y-178012095D01*
X127986500Y-177993952D01*
X127998595Y-177981857D01*
X128010690Y-177975809D01*
X128034881Y-177969761D01*
X128053024Y-177969761D01*
X128077214Y-177975809D01*
X128089310Y-177981857D01*
X128101405Y-177993952D01*
X128107452Y-178012095D01*
X128107452Y-178042333D01*
X128107452Y-177915333D02*
X127980452Y-177915333D01*
X127980452Y-177885095D01*
X127986500Y-177866952D01*
X127998595Y-177854857D01*
X128010690Y-177848809D01*
X128034881Y-177842761D01*
X128053024Y-177842761D01*
X128077214Y-177848809D01*
X128089310Y-177854857D01*
X128101405Y-177866952D01*
X128107452Y-177885095D01*
X128107452Y-177915333D01*
D13*
X175422505Y-52010153D02*
X174715398Y-51303046D01*
X175456177Y-51572420D01*
X175186803Y-50831641D01*
X175893909Y-51538748D01*
X176230627Y-51202031D02*
X175759222Y-50730626D01*
X175523520Y-50494924D02*
X175523520Y-50562267D01*
X175590863Y-50562267D01*
X175590863Y-50494924D01*
X175523520Y-50494924D01*
X175590863Y-50562267D01*
X176836718Y-50528596D02*
X176803047Y-50629611D01*
X176668359Y-50764298D01*
X176567344Y-50797970D01*
X176500000Y-50797970D01*
X176398985Y-50764298D01*
X176196954Y-50562267D01*
X176163283Y-50461252D01*
X176163283Y-50393909D01*
X176196954Y-50292894D01*
X176331642Y-50158206D01*
X176432657Y-50124534D01*
X177005077Y-49484771D02*
X177476482Y-49956176D01*
X176567344Y-49383757D02*
X176904062Y-50057192D01*
X177341795Y-49619459D01*
D15*
X180919232Y-46448539D02*
X180906403Y-46452815D01*
X180893574Y-46465644D01*
X180885021Y-46482749D01*
X180885021Y-46499854D01*
X180889297Y-46512683D01*
X180902126Y-46534065D01*
X180914955Y-46546895D01*
X180936337Y-46559723D01*
X180949166Y-46563999D01*
X180966271Y-46563999D01*
X180983376Y-46555446D01*
X180991929Y-46546894D01*
X181000482Y-46529789D01*
X181000482Y-46521236D01*
X180970548Y-46491302D01*
X180953442Y-46508407D01*
X181047521Y-46491302D02*
X180957718Y-46401499D01*
X181098837Y-46439986D01*
X181009034Y-46350183D01*
X181141600Y-46397223D02*
X181051797Y-46307420D01*
X181073179Y-46286039D01*
X181090284Y-46277486D01*
X181107389Y-46277486D01*
X181120218Y-46281762D01*
X181141600Y-46294591D01*
X181154430Y-46307420D01*
X181167258Y-46328802D01*
X181171534Y-46341631D01*
X181171534Y-46358736D01*
X181162981Y-46375841D01*
X181141600Y-46397223D01*
X181672874Y-45615634D02*
X181784058Y-45684055D01*
X181737018Y-45602805D01*
X181818268Y-45649844D01*
X181749847Y-45538660D01*
X181865308Y-45594253D02*
X181882413Y-45585700D01*
X181903794Y-45564318D01*
X181908072Y-45551489D01*
X181908071Y-45542937D01*
X181903795Y-45530108D01*
X181895243Y-45521555D01*
X181882413Y-45517279D01*
X181873861Y-45517279D01*
X181861031Y-45521555D01*
X181839651Y-45534384D01*
X181826821Y-45538660D01*
X181818268Y-45538660D01*
X181805439Y-45534384D01*
X181796887Y-45525832D01*
X181792611Y-45513003D01*
X181792611Y-45504449D01*
X181796887Y-45491620D01*
X181818268Y-45470239D01*
X181835374Y-45461686D01*
X181257498Y-45268681D02*
X181274603Y-45260128D01*
X181295985Y-45238747D01*
X181300262Y-45225918D01*
X181300261Y-45217365D01*
X181295985Y-45204536D01*
X181287433Y-45195984D01*
X181274603Y-45191707D01*
X181266051Y-45191707D01*
X181253222Y-45195984D01*
X181231841Y-45208813D01*
X181219012Y-45213089D01*
X181210459Y-45213089D01*
X181197630Y-45208813D01*
X181189077Y-45200260D01*
X181184801Y-45187431D01*
X181184801Y-45178878D01*
X181189077Y-45166049D01*
X181210459Y-45144668D01*
X181227564Y-45136115D01*
X181394340Y-45123286D02*
X181394340Y-45131839D01*
X181385787Y-45148944D01*
X181377235Y-45157497D01*
X181360130Y-45166050D01*
X181343025Y-45166050D01*
X181330195Y-45161773D01*
X181308814Y-45148945D01*
X181295985Y-45136116D01*
X181283156Y-45114734D01*
X181278880Y-45101905D01*
X181278880Y-45084800D01*
X181287432Y-45067694D01*
X181295985Y-45059142D01*
X181313090Y-45050589D01*
X181321643Y-45050589D01*
X181441379Y-45093352D02*
X181351577Y-45003550D01*
X181492695Y-45042036D02*
X181402893Y-45029208D01*
X181402893Y-44952233D02*
X181402893Y-45054866D01*
X180821567Y-44785373D02*
X180838672Y-44776820D01*
X180860054Y-44755439D01*
X180864331Y-44742609D01*
X180864330Y-44734057D01*
X180860055Y-44721228D01*
X180851502Y-44712676D01*
X180838672Y-44708399D01*
X180830121Y-44708399D01*
X180817291Y-44712676D01*
X180795910Y-44725505D01*
X180783081Y-44729780D01*
X180774528Y-44729780D01*
X180761699Y-44725505D01*
X180753146Y-44716952D01*
X180748871Y-44704123D01*
X180748871Y-44695570D01*
X180753146Y-44682741D01*
X180774528Y-44661359D01*
X180791634Y-44652807D01*
X180915646Y-44699846D02*
X180825843Y-44610044D01*
X180847225Y-44588662D01*
X180864330Y-44580110D01*
X180881435Y-44580110D01*
X180894264Y-44584386D01*
X180915647Y-44597215D01*
X180928476Y-44610044D01*
X180941304Y-44631425D01*
X180945581Y-44644255D01*
X180945581Y-44661360D01*
X180937027Y-44678465D01*
X180915646Y-44699846D01*
X179186148Y-46263883D02*
X179297332Y-46332304D01*
X179250292Y-46251054D01*
X179331542Y-46298093D01*
X179263121Y-46186909D01*
X179387134Y-46242501D02*
X179297332Y-46152699D01*
X179421345Y-46199739D02*
X179438450Y-46191186D01*
X179459831Y-46169804D01*
X179464109Y-46156975D01*
X179464108Y-46148423D01*
X179459832Y-46135594D01*
X179451279Y-46127041D01*
X179438450Y-46122765D01*
X179429898Y-46122765D01*
X179417068Y-46127041D01*
X179395687Y-46139870D01*
X179382858Y-46144146D01*
X179374305Y-46144146D01*
X179361476Y-46139870D01*
X179352924Y-46131318D01*
X179348648Y-46118489D01*
X179348648Y-46109936D01*
X179352924Y-46097107D01*
X179374305Y-46075725D01*
X179391411Y-46067173D01*
X179442726Y-46007304D02*
X179459831Y-45990199D01*
X179472660Y-45985923D01*
X179489766Y-45985922D01*
X179511147Y-45998752D01*
X179541081Y-46028686D01*
X179553911Y-46050068D01*
X179553910Y-46067173D01*
X179549634Y-46080002D01*
X179532529Y-46097107D01*
X179519700Y-46101384D01*
X179502595Y-46101384D01*
X179481213Y-46088555D01*
X179451279Y-46058621D01*
X179438450Y-46037239D01*
X179438450Y-46020134D01*
X179442726Y-46007304D01*
X179719777Y-46811991D02*
X179719777Y-46820544D01*
X179711224Y-46837649D01*
X179702672Y-46846202D01*
X179685567Y-46854755D01*
X179668462Y-46854755D01*
X179655632Y-46850478D01*
X179634251Y-46837650D01*
X179621422Y-46824821D01*
X179608593Y-46803439D01*
X179604317Y-46790610D01*
X179604317Y-46773505D01*
X179612869Y-46756399D01*
X179621422Y-46747847D01*
X179638527Y-46739294D01*
X179647080Y-46739294D01*
X179694119Y-46675149D02*
X179711224Y-46658044D01*
X179724053Y-46653768D01*
X179741159Y-46653768D01*
X179762540Y-46666597D01*
X179792474Y-46696531D01*
X179805304Y-46717913D01*
X179805303Y-46735018D01*
X179801027Y-46747847D01*
X179783922Y-46764952D01*
X179771093Y-46769229D01*
X179753988Y-46769229D01*
X179732606Y-46756400D01*
X179702672Y-46726466D01*
X179689843Y-46705084D01*
X179689843Y-46687979D01*
X179694119Y-46675149D01*
X179860895Y-46687978D02*
X179771093Y-46598176D01*
X179912211Y-46636662D01*
X179822409Y-46546859D01*
X179937870Y-46516926D02*
X179907936Y-46546860D01*
X179954974Y-46593899D02*
X179865172Y-46504096D01*
X179907935Y-46461333D01*
X180031948Y-46516925D02*
X179942145Y-46427123D01*
X180036225Y-46341597D02*
X180023396Y-46345873D01*
X180010566Y-46358702D01*
X180002014Y-46375807D01*
X180002014Y-46392912D01*
X180006290Y-46405741D01*
X180019119Y-46427124D01*
X180031948Y-46439953D01*
X180053329Y-46452781D01*
X180066159Y-46457058D01*
X180083264Y-46457058D01*
X180100369Y-46448504D01*
X180108921Y-46439952D01*
X180117475Y-46422847D01*
X180117475Y-46414294D01*
X180087541Y-46384360D01*
X180070435Y-46401466D01*
X180184818Y-47146116D02*
X180304555Y-47205984D01*
X180244686Y-47086247D01*
X180364423Y-47146116D02*
X180274620Y-47056313D01*
X180296002Y-47034932D01*
X180313107Y-47026379D01*
X180330212Y-47026379D01*
X180343041Y-47030655D01*
X180364423Y-47043484D01*
X180377252Y-47056313D01*
X180390081Y-47077695D01*
X180394357Y-47090524D01*
X180394357Y-47107629D01*
X180385804Y-47124734D01*
X180364423Y-47146116D01*
X180454225Y-47056313D02*
X180364423Y-46966511D01*
X180385804Y-46945129D01*
X180402910Y-46936577D01*
X180420015Y-46936577D01*
X180432844Y-46940852D01*
X180454226Y-46953681D01*
X180467055Y-46966511D01*
X180479883Y-46987892D01*
X180484160Y-47000722D01*
X180484160Y-47017827D01*
X180475607Y-47034932D01*
X180454225Y-47056313D01*
D13*
X196023810Y-100452381D02*
X196023810Y-99452381D01*
X196357144Y-100166667D01*
X196690477Y-99452381D01*
X196690477Y-100452381D01*
X197166667Y-100452381D02*
X197166667Y-99785714D01*
X197166667Y-99452381D02*
X197119048Y-99500000D01*
X197166667Y-99547619D01*
X197214286Y-99500000D01*
X197166667Y-99452381D01*
X197166667Y-99547619D01*
X198071429Y-100404762D02*
X197976191Y-100452381D01*
X197785714Y-100452381D01*
X197690476Y-100404762D01*
X197642857Y-100357143D01*
X197595238Y-100261905D01*
X197595238Y-99976190D01*
X197642857Y-99880952D01*
X197690476Y-99833333D01*
X197785714Y-99785714D01*
X197976191Y-99785714D01*
X198071429Y-99833333D01*
X198976191Y-99452381D02*
X198500000Y-99452381D01*
X198452381Y-99928571D01*
X198500000Y-99880952D01*
X198595238Y-99833333D01*
X198833334Y-99833333D01*
X198928572Y-99880952D01*
X198976191Y-99928571D01*
X199023810Y-100023810D01*
X199023810Y-100261905D01*
X198976191Y-100357143D01*
X198928572Y-100404762D01*
X198833334Y-100452381D01*
X198595238Y-100452381D01*
X198500000Y-100404762D01*
X198452381Y-100357143D01*
D15*
X203843238Y-100406500D02*
X203831143Y-100400452D01*
X203813000Y-100400452D01*
X203794857Y-100406500D01*
X203782762Y-100418595D01*
X203776714Y-100430690D01*
X203770666Y-100454881D01*
X203770666Y-100473024D01*
X203776714Y-100497214D01*
X203782762Y-100509310D01*
X203794857Y-100521405D01*
X203813000Y-100527452D01*
X203825095Y-100527452D01*
X203843238Y-100521405D01*
X203849286Y-100515357D01*
X203849286Y-100473024D01*
X203825095Y-100473024D01*
X203903714Y-100527452D02*
X203903714Y-100400452D01*
X203976286Y-100527452D01*
X203976286Y-100400452D01*
X204036762Y-100527452D02*
X204036762Y-100400452D01*
X204067000Y-100400452D01*
X204085143Y-100406500D01*
X204097238Y-100418595D01*
X204103286Y-100430690D01*
X204109334Y-100454881D01*
X204109334Y-100473024D01*
X204103286Y-100497214D01*
X204097238Y-100509310D01*
X204085143Y-100521405D01*
X204067000Y-100527452D01*
X204036762Y-100527452D01*
X204965096Y-100350452D02*
X204995334Y-100477452D01*
X205019524Y-100386738D01*
X205043715Y-100477452D01*
X205073953Y-100350452D01*
X205116286Y-100471405D02*
X205134429Y-100477452D01*
X205164667Y-100477452D01*
X205176763Y-100471405D01*
X205182810Y-100465357D01*
X205188858Y-100453262D01*
X205188858Y-100441167D01*
X205182810Y-100429071D01*
X205176763Y-100423024D01*
X205164667Y-100416976D01*
X205140477Y-100410929D01*
X205128382Y-100404881D01*
X205122334Y-100398833D01*
X205116286Y-100386738D01*
X205116286Y-100374643D01*
X205122334Y-100362548D01*
X205128382Y-100356500D01*
X205140477Y-100350452D01*
X205170715Y-100350452D01*
X205188858Y-100356500D01*
X204916714Y-99811405D02*
X204934857Y-99817452D01*
X204965095Y-99817452D01*
X204977191Y-99811405D01*
X204983238Y-99805357D01*
X204989286Y-99793262D01*
X204989286Y-99781167D01*
X204983238Y-99769071D01*
X204977191Y-99763024D01*
X204965095Y-99756976D01*
X204940905Y-99750929D01*
X204928810Y-99744881D01*
X204922762Y-99738833D01*
X204916714Y-99726738D01*
X204916714Y-99714643D01*
X204922762Y-99702548D01*
X204928810Y-99696500D01*
X204940905Y-99690452D01*
X204971143Y-99690452D01*
X204989286Y-99696500D01*
X205116286Y-99805357D02*
X205110238Y-99811405D01*
X205092095Y-99817452D01*
X205080000Y-99817452D01*
X205061857Y-99811405D01*
X205049762Y-99799310D01*
X205043714Y-99787214D01*
X205037666Y-99763024D01*
X205037666Y-99744881D01*
X205043714Y-99720690D01*
X205049762Y-99708595D01*
X205061857Y-99696500D01*
X205080000Y-99690452D01*
X205092095Y-99690452D01*
X205110238Y-99696500D01*
X205116286Y-99702548D01*
X205170714Y-99817452D02*
X205170714Y-99690452D01*
X205243286Y-99817452D02*
X205188857Y-99744881D01*
X205243286Y-99690452D02*
X205170714Y-99763024D01*
X204950214Y-99161405D02*
X204968357Y-99167452D01*
X204998595Y-99167452D01*
X205010691Y-99161405D01*
X205016738Y-99155357D01*
X205022786Y-99143262D01*
X205022786Y-99131167D01*
X205016738Y-99119071D01*
X205010691Y-99113024D01*
X204998595Y-99106976D01*
X204974405Y-99100929D01*
X204962310Y-99094881D01*
X204956262Y-99088833D01*
X204950214Y-99076738D01*
X204950214Y-99064643D01*
X204956262Y-99052548D01*
X204962310Y-99046500D01*
X204974405Y-99040452D01*
X205004643Y-99040452D01*
X205022786Y-99046500D01*
X205077214Y-99167452D02*
X205077214Y-99040452D01*
X205107452Y-99040452D01*
X205125595Y-99046500D01*
X205137690Y-99058595D01*
X205143738Y-99070690D01*
X205149786Y-99094881D01*
X205149786Y-99113024D01*
X205143738Y-99137214D01*
X205137690Y-99149310D01*
X205125595Y-99161405D01*
X205107452Y-99167452D01*
X205077214Y-99167452D01*
X202748334Y-99050452D02*
X202778572Y-99177452D01*
X202802762Y-99086738D01*
X202826953Y-99177452D01*
X202857191Y-99050452D01*
X202905572Y-99177452D02*
X202905572Y-99050452D01*
X202960000Y-99171405D02*
X202978143Y-99177452D01*
X203008381Y-99177452D01*
X203020477Y-99171405D01*
X203026524Y-99165357D01*
X203032572Y-99153262D01*
X203032572Y-99141167D01*
X203026524Y-99129071D01*
X203020477Y-99123024D01*
X203008381Y-99116976D01*
X202984191Y-99110929D01*
X202972096Y-99104881D01*
X202966048Y-99098833D01*
X202960000Y-99086738D01*
X202960000Y-99074643D01*
X202966048Y-99062548D01*
X202972096Y-99056500D01*
X202984191Y-99050452D01*
X203014429Y-99050452D01*
X203032572Y-99056500D01*
X203111191Y-99050452D02*
X203135381Y-99050452D01*
X203147476Y-99056500D01*
X203159572Y-99068595D01*
X203165619Y-99092786D01*
X203165619Y-99135119D01*
X203159572Y-99159310D01*
X203147476Y-99171405D01*
X203135381Y-99177452D01*
X203111191Y-99177452D01*
X203099095Y-99171405D01*
X203087000Y-99159310D01*
X203080952Y-99135119D01*
X203080952Y-99092786D01*
X203087000Y-99068595D01*
X203099095Y-99056500D01*
X203111191Y-99050452D01*
X202738096Y-99815357D02*
X202732048Y-99821405D01*
X202713905Y-99827452D01*
X202701810Y-99827452D01*
X202683667Y-99821405D01*
X202671572Y-99809310D01*
X202665524Y-99797214D01*
X202659476Y-99773024D01*
X202659476Y-99754881D01*
X202665524Y-99730690D01*
X202671572Y-99718595D01*
X202683667Y-99706500D01*
X202701810Y-99700452D01*
X202713905Y-99700452D01*
X202732048Y-99706500D01*
X202738096Y-99712548D01*
X202816715Y-99700452D02*
X202840905Y-99700452D01*
X202853000Y-99706500D01*
X202865096Y-99718595D01*
X202871143Y-99742786D01*
X202871143Y-99785119D01*
X202865096Y-99809310D01*
X202853000Y-99821405D01*
X202840905Y-99827452D01*
X202816715Y-99827452D01*
X202804619Y-99821405D01*
X202792524Y-99809310D01*
X202786476Y-99785119D01*
X202786476Y-99742786D01*
X202792524Y-99718595D01*
X202804619Y-99706500D01*
X202816715Y-99700452D01*
X202925572Y-99827452D02*
X202925572Y-99700452D01*
X202998144Y-99827452D01*
X202998144Y-99700452D01*
X203100953Y-99760929D02*
X203058620Y-99760929D01*
X203058620Y-99827452D02*
X203058620Y-99700452D01*
X203119096Y-99700452D01*
X203167477Y-99827452D02*
X203167477Y-99700452D01*
X203294477Y-99706500D02*
X203282382Y-99700452D01*
X203264239Y-99700452D01*
X203246096Y-99706500D01*
X203234001Y-99718595D01*
X203227953Y-99730690D01*
X203221905Y-99754881D01*
X203221905Y-99773024D01*
X203227953Y-99797214D01*
X203234001Y-99809310D01*
X203246096Y-99821405D01*
X203264239Y-99827452D01*
X203276334Y-99827452D01*
X203294477Y-99821405D01*
X203300525Y-99815357D01*
X203300525Y-99773024D01*
X203276334Y-99773024D01*
X202830667Y-100380452D02*
X202873001Y-100507452D01*
X202915334Y-100380452D01*
X202957667Y-100507452D02*
X202957667Y-100380452D01*
X202987905Y-100380452D01*
X203006048Y-100386500D01*
X203018143Y-100398595D01*
X203024191Y-100410690D01*
X203030239Y-100434881D01*
X203030239Y-100453024D01*
X203024191Y-100477214D01*
X203018143Y-100489310D01*
X203006048Y-100501405D01*
X202987905Y-100507452D01*
X202957667Y-100507452D01*
X203084667Y-100507452D02*
X203084667Y-100380452D01*
X203114905Y-100380452D01*
X203133048Y-100386500D01*
X203145143Y-100398595D01*
X203151191Y-100410690D01*
X203157239Y-100434881D01*
X203157239Y-100453024D01*
X203151191Y-100477214D01*
X203145143Y-100489310D01*
X203133048Y-100501405D01*
X203114905Y-100507452D01*
X203084667Y-100507452D01*
D13*
X176489847Y-149922505D02*
X177196954Y-149215398D01*
X176927580Y-149956177D01*
X177668359Y-149686803D01*
X176961252Y-150393909D01*
X177297969Y-150730627D02*
X177769374Y-150259222D01*
X178005076Y-150023520D02*
X177937733Y-150023520D01*
X177937733Y-150090863D01*
X178005076Y-150090863D01*
X178005076Y-150023520D01*
X177937733Y-150090863D01*
X177971404Y-151336718D02*
X177870389Y-151303047D01*
X177735702Y-151168359D01*
X177702030Y-151067344D01*
X177702030Y-151000000D01*
X177735702Y-150898985D01*
X177937733Y-150696954D01*
X178038748Y-150663283D01*
X178106091Y-150663283D01*
X178207106Y-150696954D01*
X178341794Y-150831642D01*
X178375466Y-150932657D01*
X179250931Y-151269375D02*
X179116243Y-151134687D01*
X179015228Y-151101016D01*
X178947885Y-151101016D01*
X178779526Y-151134687D01*
X178611168Y-151235702D01*
X178341793Y-151505077D01*
X178308122Y-151606092D01*
X178308122Y-151673435D01*
X178341793Y-151774451D01*
X178476481Y-151909138D01*
X178577496Y-151942810D01*
X178644839Y-151942810D01*
X178745855Y-151909138D01*
X178914213Y-151740780D01*
X178947886Y-151639764D01*
X178947886Y-151572420D01*
X178914214Y-151471405D01*
X178779526Y-151336718D01*
X178678511Y-151303046D01*
X178611168Y-151303046D01*
X178510152Y-151336718D01*
D15*
X182051461Y-155419232D02*
X182047185Y-155406403D01*
X182034356Y-155393574D01*
X182017251Y-155385021D01*
X182000146Y-155385021D01*
X181987317Y-155389297D01*
X181965935Y-155402126D01*
X181953105Y-155414955D01*
X181940277Y-155436337D01*
X181936001Y-155449166D01*
X181936001Y-155466271D01*
X181944554Y-155483376D01*
X181953106Y-155491929D01*
X181970211Y-155500482D01*
X181978764Y-155500482D01*
X182008698Y-155470548D01*
X181991593Y-155453442D01*
X182008698Y-155547521D02*
X182098501Y-155457718D01*
X182060014Y-155598837D01*
X182149817Y-155509034D01*
X182102777Y-155641600D02*
X182192580Y-155551797D01*
X182213961Y-155573179D01*
X182222514Y-155590284D01*
X182222514Y-155607389D01*
X182218238Y-155620218D01*
X182205409Y-155641600D01*
X182192580Y-155654430D01*
X182171198Y-155667258D01*
X182158369Y-155671534D01*
X182141264Y-155671534D01*
X182124159Y-155662981D01*
X182102777Y-155641600D01*
X182884366Y-156172874D02*
X182815945Y-156284058D01*
X182897195Y-156237018D01*
X182850156Y-156318268D01*
X182961340Y-156249847D01*
X182905747Y-156365308D02*
X182914300Y-156382413D01*
X182935682Y-156403794D01*
X182948511Y-156408072D01*
X182957063Y-156408071D01*
X182969892Y-156403795D01*
X182978445Y-156395243D01*
X182982721Y-156382413D01*
X182982721Y-156373861D01*
X182978445Y-156361031D01*
X182965616Y-156339651D01*
X182961340Y-156326821D01*
X182961340Y-156318268D01*
X182965616Y-156305439D01*
X182974168Y-156296887D01*
X182986997Y-156292611D01*
X182995551Y-156292611D01*
X183008380Y-156296887D01*
X183029761Y-156318268D01*
X183038314Y-156335374D01*
X183231319Y-155757498D02*
X183239872Y-155774603D01*
X183261253Y-155795985D01*
X183274082Y-155800262D01*
X183282635Y-155800261D01*
X183295464Y-155795985D01*
X183304016Y-155787433D01*
X183308293Y-155774603D01*
X183308293Y-155766051D01*
X183304016Y-155753222D01*
X183291187Y-155731841D01*
X183286911Y-155719012D01*
X183286911Y-155710459D01*
X183291187Y-155697630D01*
X183299740Y-155689077D01*
X183312569Y-155684801D01*
X183321122Y-155684801D01*
X183333951Y-155689077D01*
X183355332Y-155710459D01*
X183363885Y-155727564D01*
X183376714Y-155894340D02*
X183368161Y-155894340D01*
X183351056Y-155885787D01*
X183342503Y-155877235D01*
X183333950Y-155860130D01*
X183333950Y-155843025D01*
X183338227Y-155830195D01*
X183351055Y-155808814D01*
X183363884Y-155795985D01*
X183385266Y-155783156D01*
X183398095Y-155778880D01*
X183415200Y-155778880D01*
X183432306Y-155787432D01*
X183440858Y-155795985D01*
X183449411Y-155813090D01*
X183449411Y-155821643D01*
X183406648Y-155941379D02*
X183496450Y-155851577D01*
X183457964Y-155992695D02*
X183470792Y-155902893D01*
X183547767Y-155902893D02*
X183445134Y-155902893D01*
X183714627Y-155321567D02*
X183723180Y-155338672D01*
X183744561Y-155360054D01*
X183757391Y-155364331D01*
X183765943Y-155364330D01*
X183778772Y-155360055D01*
X183787324Y-155351502D01*
X183791601Y-155338672D01*
X183791601Y-155330121D01*
X183787324Y-155317291D01*
X183774495Y-155295910D01*
X183770220Y-155283081D01*
X183770220Y-155274528D01*
X183774495Y-155261699D01*
X183783048Y-155253146D01*
X183795877Y-155248871D01*
X183804430Y-155248871D01*
X183817259Y-155253146D01*
X183838641Y-155274528D01*
X183847193Y-155291634D01*
X183800154Y-155415646D02*
X183889956Y-155325843D01*
X183911338Y-155347225D01*
X183919890Y-155364330D01*
X183919890Y-155381435D01*
X183915614Y-155394264D01*
X183902785Y-155415647D01*
X183889956Y-155428476D01*
X183868575Y-155441304D01*
X183855745Y-155445581D01*
X183838640Y-155445581D01*
X183821535Y-155437027D01*
X183800154Y-155415646D01*
X182236117Y-153686148D02*
X182167696Y-153797332D01*
X182248946Y-153750292D01*
X182201907Y-153831542D01*
X182313091Y-153763121D01*
X182257499Y-153887134D02*
X182347301Y-153797332D01*
X182300261Y-153921345D02*
X182308814Y-153938450D01*
X182330196Y-153959831D01*
X182343025Y-153964109D01*
X182351577Y-153964108D01*
X182364406Y-153959832D01*
X182372959Y-153951279D01*
X182377235Y-153938450D01*
X182377235Y-153929898D01*
X182372959Y-153917068D01*
X182360130Y-153895687D01*
X182355854Y-153882858D01*
X182355854Y-153874305D01*
X182360130Y-153861476D01*
X182368682Y-153852924D01*
X182381511Y-153848648D01*
X182390064Y-153848648D01*
X182402893Y-153852924D01*
X182424275Y-153874305D01*
X182432827Y-153891411D01*
X182492696Y-153942726D02*
X182509801Y-153959831D01*
X182514077Y-153972660D01*
X182514078Y-153989766D01*
X182501248Y-154011147D01*
X182471314Y-154041081D01*
X182449932Y-154053911D01*
X182432827Y-154053910D01*
X182419998Y-154049634D01*
X182402893Y-154032529D01*
X182398616Y-154019700D01*
X182398616Y-154002595D01*
X182411445Y-153981213D01*
X182441379Y-153951279D01*
X182462761Y-153938450D01*
X182479866Y-153938450D01*
X182492696Y-153942726D01*
X181688009Y-154219777D02*
X181679456Y-154219777D01*
X181662351Y-154211224D01*
X181653798Y-154202672D01*
X181645245Y-154185567D01*
X181645245Y-154168462D01*
X181649522Y-154155632D01*
X181662350Y-154134251D01*
X181675179Y-154121422D01*
X181696561Y-154108593D01*
X181709390Y-154104317D01*
X181726495Y-154104317D01*
X181743601Y-154112869D01*
X181752153Y-154121422D01*
X181760706Y-154138527D01*
X181760706Y-154147080D01*
X181824851Y-154194119D02*
X181841956Y-154211224D01*
X181846232Y-154224053D01*
X181846232Y-154241159D01*
X181833403Y-154262540D01*
X181803469Y-154292474D01*
X181782087Y-154305304D01*
X181764982Y-154305303D01*
X181752153Y-154301027D01*
X181735048Y-154283922D01*
X181730771Y-154271093D01*
X181730771Y-154253988D01*
X181743600Y-154232606D01*
X181773534Y-154202672D01*
X181794916Y-154189843D01*
X181812021Y-154189843D01*
X181824851Y-154194119D01*
X181812022Y-154360895D02*
X181901824Y-154271093D01*
X181863338Y-154412211D01*
X181953141Y-154322409D01*
X181983074Y-154437870D02*
X181953140Y-154407936D01*
X181906101Y-154454974D02*
X181995904Y-154365172D01*
X182038667Y-154407935D01*
X181983075Y-154531948D02*
X182072877Y-154442145D01*
X182158403Y-154536225D02*
X182154127Y-154523396D01*
X182141298Y-154510566D01*
X182124193Y-154502014D01*
X182107088Y-154502014D01*
X182094259Y-154506290D01*
X182072876Y-154519119D01*
X182060047Y-154531948D01*
X182047219Y-154553329D01*
X182042942Y-154566159D01*
X182042942Y-154583264D01*
X182051496Y-154600369D01*
X182060048Y-154608921D01*
X182077153Y-154617475D01*
X182085706Y-154617475D01*
X182115640Y-154587541D01*
X182098534Y-154570435D01*
X181353884Y-154684818D02*
X181294016Y-154804555D01*
X181413753Y-154744686D01*
X181353884Y-154864423D02*
X181443687Y-154774620D01*
X181465068Y-154796002D01*
X181473621Y-154813107D01*
X181473621Y-154830212D01*
X181469345Y-154843041D01*
X181456516Y-154864423D01*
X181443687Y-154877252D01*
X181422305Y-154890081D01*
X181409476Y-154894357D01*
X181392371Y-154894357D01*
X181375266Y-154885804D01*
X181353884Y-154864423D01*
X181443687Y-154954225D02*
X181533489Y-154864423D01*
X181554871Y-154885804D01*
X181563423Y-154902910D01*
X181563423Y-154920015D01*
X181559148Y-154932844D01*
X181546319Y-154954226D01*
X181533489Y-154967055D01*
X181512108Y-154979883D01*
X181499278Y-154984160D01*
X181482173Y-154984160D01*
X181465068Y-154975607D01*
X181443687Y-154954225D01*
D13*
X125952381Y-32476190D02*
X124952381Y-32476190D01*
X125666667Y-32142856D01*
X124952381Y-31809523D01*
X125952381Y-31809523D01*
X125952381Y-31333333D02*
X125285714Y-31333333D01*
X124952381Y-31333333D02*
X125000000Y-31380952D01*
X125047619Y-31333333D01*
X125000000Y-31285714D01*
X124952381Y-31333333D01*
X125047619Y-31333333D01*
X125904762Y-30428571D02*
X125952381Y-30523809D01*
X125952381Y-30714286D01*
X125904762Y-30809524D01*
X125857143Y-30857143D01*
X125761905Y-30904762D01*
X125476190Y-30904762D01*
X125380952Y-30857143D01*
X125333333Y-30809524D01*
X125285714Y-30714286D01*
X125285714Y-30523809D01*
X125333333Y-30428571D01*
X124952381Y-30095238D02*
X124952381Y-29476190D01*
X125333333Y-29809524D01*
X125333333Y-29666666D01*
X125380952Y-29571428D01*
X125428571Y-29523809D01*
X125523810Y-29476190D01*
X125761905Y-29476190D01*
X125857143Y-29523809D01*
X125904762Y-29571428D01*
X125952381Y-29666666D01*
X125952381Y-29952381D01*
X125904762Y-30047619D01*
X125857143Y-30095238D01*
D15*
X125906500Y-24656762D02*
X125900452Y-24668857D01*
X125900452Y-24687000D01*
X125906500Y-24705143D01*
X125918595Y-24717238D01*
X125930690Y-24723286D01*
X125954881Y-24729334D01*
X125973024Y-24729334D01*
X125997214Y-24723286D01*
X126009310Y-24717238D01*
X126021405Y-24705143D01*
X126027452Y-24687000D01*
X126027452Y-24674905D01*
X126021405Y-24656762D01*
X126015357Y-24650714D01*
X125973024Y-24650714D01*
X125973024Y-24674905D01*
X126027452Y-24596286D02*
X125900452Y-24596286D01*
X126027452Y-24523714D01*
X125900452Y-24523714D01*
X126027452Y-24463238D02*
X125900452Y-24463238D01*
X125900452Y-24433000D01*
X125906500Y-24414857D01*
X125918595Y-24402762D01*
X125930690Y-24396714D01*
X125954881Y-24390666D01*
X125973024Y-24390666D01*
X125997214Y-24396714D01*
X126009310Y-24402762D01*
X126021405Y-24414857D01*
X126027452Y-24433000D01*
X126027452Y-24463238D01*
X125850452Y-23534904D02*
X125977452Y-23504666D01*
X125886738Y-23480476D01*
X125977452Y-23456285D01*
X125850452Y-23426047D01*
X125971405Y-23383714D02*
X125977452Y-23365571D01*
X125977452Y-23335333D01*
X125971405Y-23323237D01*
X125965357Y-23317190D01*
X125953262Y-23311142D01*
X125941167Y-23311142D01*
X125929071Y-23317190D01*
X125923024Y-23323237D01*
X125916976Y-23335333D01*
X125910929Y-23359523D01*
X125904881Y-23371618D01*
X125898833Y-23377666D01*
X125886738Y-23383714D01*
X125874643Y-23383714D01*
X125862548Y-23377666D01*
X125856500Y-23371618D01*
X125850452Y-23359523D01*
X125850452Y-23329285D01*
X125856500Y-23311142D01*
X125311405Y-23583286D02*
X125317452Y-23565143D01*
X125317452Y-23534905D01*
X125311405Y-23522809D01*
X125305357Y-23516762D01*
X125293262Y-23510714D01*
X125281167Y-23510714D01*
X125269071Y-23516762D01*
X125263024Y-23522809D01*
X125256976Y-23534905D01*
X125250929Y-23559095D01*
X125244881Y-23571190D01*
X125238833Y-23577238D01*
X125226738Y-23583286D01*
X125214643Y-23583286D01*
X125202548Y-23577238D01*
X125196500Y-23571190D01*
X125190452Y-23559095D01*
X125190452Y-23528857D01*
X125196500Y-23510714D01*
X125305357Y-23383714D02*
X125311405Y-23389762D01*
X125317452Y-23407905D01*
X125317452Y-23420000D01*
X125311405Y-23438143D01*
X125299310Y-23450238D01*
X125287214Y-23456286D01*
X125263024Y-23462334D01*
X125244881Y-23462334D01*
X125220690Y-23456286D01*
X125208595Y-23450238D01*
X125196500Y-23438143D01*
X125190452Y-23420000D01*
X125190452Y-23407905D01*
X125196500Y-23389762D01*
X125202548Y-23383714D01*
X125317452Y-23329286D02*
X125190452Y-23329286D01*
X125317452Y-23256714D02*
X125244881Y-23311143D01*
X125190452Y-23256714D02*
X125263024Y-23329286D01*
X124661405Y-23549786D02*
X124667452Y-23531643D01*
X124667452Y-23501405D01*
X124661405Y-23489309D01*
X124655357Y-23483262D01*
X124643262Y-23477214D01*
X124631167Y-23477214D01*
X124619071Y-23483262D01*
X124613024Y-23489309D01*
X124606976Y-23501405D01*
X124600929Y-23525595D01*
X124594881Y-23537690D01*
X124588833Y-23543738D01*
X124576738Y-23549786D01*
X124564643Y-23549786D01*
X124552548Y-23543738D01*
X124546500Y-23537690D01*
X124540452Y-23525595D01*
X124540452Y-23495357D01*
X124546500Y-23477214D01*
X124667452Y-23422786D02*
X124540452Y-23422786D01*
X124540452Y-23392548D01*
X124546500Y-23374405D01*
X124558595Y-23362310D01*
X124570690Y-23356262D01*
X124594881Y-23350214D01*
X124613024Y-23350214D01*
X124637214Y-23356262D01*
X124649310Y-23362310D01*
X124661405Y-23374405D01*
X124667452Y-23392548D01*
X124667452Y-23422786D01*
X124550452Y-25751666D02*
X124677452Y-25721428D01*
X124586738Y-25697238D01*
X124677452Y-25673047D01*
X124550452Y-25642809D01*
X124677452Y-25594428D02*
X124550452Y-25594428D01*
X124671405Y-25540000D02*
X124677452Y-25521857D01*
X124677452Y-25491619D01*
X124671405Y-25479523D01*
X124665357Y-25473476D01*
X124653262Y-25467428D01*
X124641167Y-25467428D01*
X124629071Y-25473476D01*
X124623024Y-25479523D01*
X124616976Y-25491619D01*
X124610929Y-25515809D01*
X124604881Y-25527904D01*
X124598833Y-25533952D01*
X124586738Y-25540000D01*
X124574643Y-25540000D01*
X124562548Y-25533952D01*
X124556500Y-25527904D01*
X124550452Y-25515809D01*
X124550452Y-25485571D01*
X124556500Y-25467428D01*
X124550452Y-25388809D02*
X124550452Y-25364619D01*
X124556500Y-25352524D01*
X124568595Y-25340428D01*
X124592786Y-25334381D01*
X124635119Y-25334381D01*
X124659310Y-25340428D01*
X124671405Y-25352524D01*
X124677452Y-25364619D01*
X124677452Y-25388809D01*
X124671405Y-25400905D01*
X124659310Y-25413000D01*
X124635119Y-25419048D01*
X124592786Y-25419048D01*
X124568595Y-25413000D01*
X124556500Y-25400905D01*
X124550452Y-25388809D01*
X125315357Y-25761904D02*
X125321405Y-25767952D01*
X125327452Y-25786095D01*
X125327452Y-25798190D01*
X125321405Y-25816333D01*
X125309310Y-25828428D01*
X125297214Y-25834476D01*
X125273024Y-25840524D01*
X125254881Y-25840524D01*
X125230690Y-25834476D01*
X125218595Y-25828428D01*
X125206500Y-25816333D01*
X125200452Y-25798190D01*
X125200452Y-25786095D01*
X125206500Y-25767952D01*
X125212548Y-25761904D01*
X125200452Y-25683285D02*
X125200452Y-25659095D01*
X125206500Y-25647000D01*
X125218595Y-25634904D01*
X125242786Y-25628857D01*
X125285119Y-25628857D01*
X125309310Y-25634904D01*
X125321405Y-25647000D01*
X125327452Y-25659095D01*
X125327452Y-25683285D01*
X125321405Y-25695381D01*
X125309310Y-25707476D01*
X125285119Y-25713524D01*
X125242786Y-25713524D01*
X125218595Y-25707476D01*
X125206500Y-25695381D01*
X125200452Y-25683285D01*
X125327452Y-25574428D02*
X125200452Y-25574428D01*
X125327452Y-25501856D01*
X125200452Y-25501856D01*
X125260929Y-25399047D02*
X125260929Y-25441380D01*
X125327452Y-25441380D02*
X125200452Y-25441380D01*
X125200452Y-25380904D01*
X125327452Y-25332523D02*
X125200452Y-25332523D01*
X125206500Y-25205523D02*
X125200452Y-25217618D01*
X125200452Y-25235761D01*
X125206500Y-25253904D01*
X125218595Y-25265999D01*
X125230690Y-25272047D01*
X125254881Y-25278095D01*
X125273024Y-25278095D01*
X125297214Y-25272047D01*
X125309310Y-25265999D01*
X125321405Y-25253904D01*
X125327452Y-25235761D01*
X125327452Y-25223666D01*
X125321405Y-25205523D01*
X125315357Y-25199475D01*
X125273024Y-25199475D01*
X125273024Y-25223666D01*
X125880452Y-25669333D02*
X126007452Y-25626999D01*
X125880452Y-25584666D01*
X126007452Y-25542333D02*
X125880452Y-25542333D01*
X125880452Y-25512095D01*
X125886500Y-25493952D01*
X125898595Y-25481857D01*
X125910690Y-25475809D01*
X125934881Y-25469761D01*
X125953024Y-25469761D01*
X125977214Y-25475809D01*
X125989310Y-25481857D01*
X126001405Y-25493952D01*
X126007452Y-25512095D01*
X126007452Y-25542333D01*
X126007452Y-25415333D02*
X125880452Y-25415333D01*
X125880452Y-25385095D01*
X125886500Y-25366952D01*
X125898595Y-25354857D01*
X125910690Y-25348809D01*
X125934881Y-25342761D01*
X125953024Y-25342761D01*
X125977214Y-25348809D01*
X125989310Y-25354857D01*
X126001405Y-25366952D01*
X126007452Y-25385095D01*
X126007452Y-25415333D01*
D13*
X74782741Y-51629611D02*
X75489848Y-50922504D01*
X75220474Y-51663283D01*
X75961253Y-51393909D01*
X75254146Y-52101015D01*
X75590863Y-52437733D02*
X76062268Y-51966328D01*
X76297970Y-51730626D02*
X76230627Y-51730626D01*
X76230627Y-51797969D01*
X76297970Y-51797969D01*
X76297970Y-51730626D01*
X76230627Y-51797969D01*
X76264298Y-53043824D02*
X76163283Y-53010153D01*
X76028596Y-52875465D01*
X75994924Y-52774450D01*
X75994924Y-52707106D01*
X76028596Y-52606091D01*
X76230627Y-52404060D01*
X76331642Y-52370389D01*
X76398985Y-52370389D01*
X76500000Y-52404060D01*
X76634688Y-52538748D01*
X76668360Y-52639763D01*
X77139764Y-52707106D02*
X77207107Y-52707106D01*
X77308122Y-52740778D01*
X77476482Y-52909137D01*
X77510153Y-53010153D01*
X77510153Y-53077496D01*
X77476482Y-53178511D01*
X77409138Y-53245855D01*
X77274451Y-53313198D01*
X76466329Y-53313198D01*
X76904062Y-53750931D01*
D15*
X71901499Y-47354124D02*
X71897223Y-47341295D01*
X71884394Y-47328466D01*
X71867289Y-47319913D01*
X71850184Y-47319913D01*
X71837355Y-47324189D01*
X71815973Y-47337018D01*
X71803143Y-47349847D01*
X71790315Y-47371229D01*
X71786039Y-47384058D01*
X71786039Y-47401163D01*
X71794592Y-47418268D01*
X71803144Y-47426821D01*
X71820249Y-47435374D01*
X71828802Y-47435374D01*
X71858736Y-47405440D01*
X71841631Y-47388334D01*
X71858736Y-47482413D02*
X71948539Y-47392610D01*
X71910052Y-47533729D01*
X71999855Y-47443926D01*
X71952815Y-47576492D02*
X72042618Y-47486689D01*
X72063999Y-47508071D01*
X72072552Y-47525176D01*
X72072552Y-47542281D01*
X72068276Y-47555110D01*
X72055447Y-47576492D01*
X72042618Y-47589322D01*
X72021236Y-47602150D01*
X72008407Y-47606426D01*
X71991302Y-47606426D01*
X71974197Y-47597873D01*
X71952815Y-47576492D01*
X71051490Y-46566272D02*
X70983069Y-46677456D01*
X71064319Y-46630416D01*
X71017280Y-46711666D01*
X71128464Y-46643245D01*
X71072871Y-46758706D02*
X71081424Y-46775811D01*
X71102806Y-46797192D01*
X71115635Y-46801470D01*
X71124187Y-46801469D01*
X71137016Y-46797193D01*
X71145569Y-46788641D01*
X71149845Y-46775811D01*
X71149845Y-46767259D01*
X71145569Y-46754429D01*
X71132740Y-46733049D01*
X71128464Y-46720219D01*
X71128464Y-46711666D01*
X71132740Y-46698837D01*
X71141292Y-46690285D01*
X71154121Y-46686009D01*
X71162675Y-46686009D01*
X71175504Y-46690285D01*
X71196885Y-46711666D01*
X71205438Y-46728772D01*
X70465063Y-47084278D02*
X70473616Y-47101383D01*
X70494997Y-47122765D01*
X70507826Y-47127042D01*
X70516379Y-47127041D01*
X70529208Y-47122765D01*
X70537760Y-47114213D01*
X70542037Y-47101383D01*
X70542037Y-47092831D01*
X70537760Y-47080002D01*
X70524931Y-47058621D01*
X70520655Y-47045792D01*
X70520655Y-47037239D01*
X70524931Y-47024410D01*
X70533484Y-47015857D01*
X70546313Y-47011581D01*
X70554866Y-47011581D01*
X70567695Y-47015857D01*
X70589076Y-47037239D01*
X70597629Y-47054344D01*
X70610458Y-47221120D02*
X70601905Y-47221120D01*
X70584800Y-47212567D01*
X70576247Y-47204015D01*
X70567694Y-47186910D01*
X70567694Y-47169805D01*
X70571971Y-47156975D01*
X70584799Y-47135594D01*
X70597628Y-47122765D01*
X70619010Y-47109936D01*
X70631839Y-47105660D01*
X70648944Y-47105660D01*
X70666050Y-47114212D01*
X70674602Y-47122765D01*
X70683155Y-47139870D01*
X70683155Y-47148423D01*
X70640392Y-47268159D02*
X70730194Y-47178357D01*
X70691708Y-47319475D02*
X70704536Y-47229673D01*
X70781511Y-47229673D02*
X70678878Y-47229673D01*
X70071557Y-47610011D02*
X70080110Y-47627116D01*
X70101491Y-47648498D01*
X70114321Y-47652775D01*
X70122873Y-47652774D01*
X70135702Y-47648499D01*
X70144254Y-47639946D01*
X70148531Y-47627116D01*
X70148531Y-47618565D01*
X70144254Y-47605735D01*
X70131425Y-47584354D01*
X70127150Y-47571525D01*
X70127150Y-47562972D01*
X70131425Y-47550143D01*
X70139978Y-47541590D01*
X70152807Y-47537315D01*
X70161360Y-47537315D01*
X70174189Y-47541590D01*
X70195571Y-47562972D01*
X70204123Y-47580078D01*
X70157084Y-47704090D02*
X70246886Y-47614287D01*
X70268268Y-47635669D01*
X70276820Y-47652774D01*
X70276820Y-47669879D01*
X70272544Y-47682708D01*
X70259715Y-47704091D01*
X70246886Y-47716920D01*
X70225505Y-47729748D01*
X70212675Y-47734025D01*
X70195570Y-47734025D01*
X70178465Y-47725471D01*
X70157084Y-47704090D01*
X71562897Y-48916156D02*
X71494476Y-49027340D01*
X71575726Y-48980300D01*
X71528687Y-49061550D01*
X71639871Y-48993129D01*
X71584279Y-49117142D02*
X71674081Y-49027340D01*
X71627041Y-49151353D02*
X71635594Y-49168458D01*
X71656976Y-49189839D01*
X71669805Y-49194117D01*
X71678357Y-49194116D01*
X71691186Y-49189840D01*
X71699739Y-49181287D01*
X71704015Y-49168458D01*
X71704015Y-49159906D01*
X71699739Y-49147076D01*
X71686910Y-49125695D01*
X71682634Y-49112866D01*
X71682634Y-49104313D01*
X71686910Y-49091484D01*
X71695462Y-49082932D01*
X71708291Y-49078656D01*
X71716844Y-49078656D01*
X71729673Y-49082932D01*
X71751055Y-49104313D01*
X71759607Y-49121419D01*
X71819476Y-49172734D02*
X71836581Y-49189839D01*
X71840857Y-49202668D01*
X71840858Y-49219774D01*
X71828028Y-49241155D01*
X71798094Y-49271089D01*
X71776712Y-49283919D01*
X71759607Y-49283918D01*
X71746778Y-49279642D01*
X71729673Y-49262537D01*
X71725396Y-49249708D01*
X71725396Y-49232603D01*
X71738225Y-49211221D01*
X71768159Y-49181287D01*
X71789541Y-49168458D01*
X71806646Y-49168458D01*
X71819476Y-49172734D01*
X71905743Y-48502263D02*
X71897190Y-48502263D01*
X71880085Y-48493710D01*
X71871532Y-48485158D01*
X71862979Y-48468053D01*
X71862979Y-48450948D01*
X71867256Y-48438118D01*
X71880084Y-48416737D01*
X71892913Y-48403908D01*
X71914295Y-48391079D01*
X71927124Y-48386803D01*
X71944229Y-48386803D01*
X71961335Y-48395355D01*
X71969887Y-48403908D01*
X71978440Y-48421013D01*
X71978440Y-48429566D01*
X72042585Y-48476605D02*
X72059690Y-48493710D01*
X72063966Y-48506539D01*
X72063966Y-48523645D01*
X72051137Y-48545026D01*
X72021203Y-48574960D01*
X71999821Y-48587790D01*
X71982716Y-48587789D01*
X71969887Y-48583513D01*
X71952782Y-48566408D01*
X71948505Y-48553579D01*
X71948505Y-48536474D01*
X71961334Y-48515092D01*
X71991268Y-48485158D01*
X72012650Y-48472329D01*
X72029755Y-48472329D01*
X72042585Y-48476605D01*
X72029756Y-48643381D02*
X72119558Y-48553579D01*
X72081072Y-48694697D01*
X72170875Y-48604895D01*
X72200808Y-48720356D02*
X72170874Y-48690422D01*
X72123835Y-48737460D02*
X72213638Y-48647658D01*
X72256401Y-48690421D01*
X72200809Y-48814434D02*
X72290611Y-48724631D01*
X72376137Y-48818711D02*
X72371861Y-48805882D01*
X72359032Y-48793052D01*
X72341927Y-48784500D01*
X72324822Y-48784500D01*
X72311993Y-48788776D01*
X72290610Y-48801605D01*
X72277781Y-48814434D01*
X72264953Y-48835815D01*
X72260676Y-48848645D01*
X72260676Y-48865750D01*
X72269230Y-48882855D01*
X72277782Y-48891407D01*
X72294887Y-48899961D01*
X72303440Y-48899961D01*
X72333374Y-48870027D01*
X72316268Y-48852921D01*
X72504998Y-47977354D02*
X72445130Y-48097091D01*
X72564867Y-48037222D01*
X72504998Y-48156959D02*
X72594801Y-48067156D01*
X72616182Y-48088538D01*
X72624735Y-48105643D01*
X72624735Y-48122748D01*
X72620459Y-48135577D01*
X72607630Y-48156959D01*
X72594801Y-48169788D01*
X72573419Y-48182617D01*
X72560590Y-48186893D01*
X72543485Y-48186893D01*
X72526380Y-48178340D01*
X72504998Y-48156959D01*
X72594801Y-48246761D02*
X72684603Y-48156959D01*
X72705985Y-48178340D01*
X72714537Y-48195446D01*
X72714537Y-48212551D01*
X72710262Y-48225380D01*
X72697433Y-48246762D01*
X72684603Y-48259591D01*
X72663222Y-48272419D01*
X72650392Y-48276696D01*
X72633287Y-48276696D01*
X72616182Y-48268143D01*
X72594801Y-48246761D01*
D13*
X55023810Y-103452381D02*
X55023810Y-102452381D01*
X55357144Y-103166667D01*
X55690477Y-102452381D01*
X55690477Y-103452381D01*
X56166667Y-103452381D02*
X56166667Y-102785714D01*
X56166667Y-102452381D02*
X56119048Y-102500000D01*
X56166667Y-102547619D01*
X56214286Y-102500000D01*
X56166667Y-102452381D01*
X56166667Y-102547619D01*
X57071429Y-103404762D02*
X56976191Y-103452381D01*
X56785714Y-103452381D01*
X56690476Y-103404762D01*
X56642857Y-103357143D01*
X56595238Y-103261905D01*
X56595238Y-102976190D01*
X56642857Y-102880952D01*
X56690476Y-102833333D01*
X56785714Y-102785714D01*
X56976191Y-102785714D01*
X57071429Y-102833333D01*
X58023810Y-103452381D02*
X57452381Y-103452381D01*
X57738095Y-103452381D02*
X57738095Y-102452381D01*
X57642857Y-102595238D01*
X57547619Y-102690476D01*
X57452381Y-102738095D01*
D15*
X49963238Y-102466500D02*
X49951143Y-102460452D01*
X49933000Y-102460452D01*
X49914857Y-102466500D01*
X49902762Y-102478595D01*
X49896714Y-102490690D01*
X49890666Y-102514881D01*
X49890666Y-102533024D01*
X49896714Y-102557214D01*
X49902762Y-102569310D01*
X49914857Y-102581405D01*
X49933000Y-102587452D01*
X49945095Y-102587452D01*
X49963238Y-102581405D01*
X49969286Y-102575357D01*
X49969286Y-102533024D01*
X49945095Y-102533024D01*
X50023714Y-102587452D02*
X50023714Y-102460452D01*
X50096286Y-102587452D01*
X50096286Y-102460452D01*
X50156762Y-102587452D02*
X50156762Y-102460452D01*
X50187000Y-102460452D01*
X50205143Y-102466500D01*
X50217238Y-102478595D01*
X50223286Y-102490690D01*
X50229334Y-102514881D01*
X50229334Y-102533024D01*
X50223286Y-102557214D01*
X50217238Y-102569310D01*
X50205143Y-102581405D01*
X50187000Y-102587452D01*
X50156762Y-102587452D01*
X48805096Y-102510452D02*
X48835334Y-102637452D01*
X48859524Y-102546738D01*
X48883715Y-102637452D01*
X48913953Y-102510452D01*
X48956286Y-102631405D02*
X48974429Y-102637452D01*
X49004667Y-102637452D01*
X49016763Y-102631405D01*
X49022810Y-102625357D01*
X49028858Y-102613262D01*
X49028858Y-102601167D01*
X49022810Y-102589071D01*
X49016763Y-102583024D01*
X49004667Y-102576976D01*
X48980477Y-102570929D01*
X48968382Y-102564881D01*
X48962334Y-102558833D01*
X48956286Y-102546738D01*
X48956286Y-102534643D01*
X48962334Y-102522548D01*
X48968382Y-102516500D01*
X48980477Y-102510452D01*
X49010715Y-102510452D01*
X49028858Y-102516500D01*
X48756714Y-103291405D02*
X48774857Y-103297452D01*
X48805095Y-103297452D01*
X48817191Y-103291405D01*
X48823238Y-103285357D01*
X48829286Y-103273262D01*
X48829286Y-103261167D01*
X48823238Y-103249071D01*
X48817191Y-103243024D01*
X48805095Y-103236976D01*
X48780905Y-103230929D01*
X48768810Y-103224881D01*
X48762762Y-103218833D01*
X48756714Y-103206738D01*
X48756714Y-103194643D01*
X48762762Y-103182548D01*
X48768810Y-103176500D01*
X48780905Y-103170452D01*
X48811143Y-103170452D01*
X48829286Y-103176500D01*
X48956286Y-103285357D02*
X48950238Y-103291405D01*
X48932095Y-103297452D01*
X48920000Y-103297452D01*
X48901857Y-103291405D01*
X48889762Y-103279310D01*
X48883714Y-103267214D01*
X48877666Y-103243024D01*
X48877666Y-103224881D01*
X48883714Y-103200690D01*
X48889762Y-103188595D01*
X48901857Y-103176500D01*
X48920000Y-103170452D01*
X48932095Y-103170452D01*
X48950238Y-103176500D01*
X48956286Y-103182548D01*
X49010714Y-103297452D02*
X49010714Y-103170452D01*
X49083286Y-103297452D02*
X49028857Y-103224881D01*
X49083286Y-103170452D02*
X49010714Y-103243024D01*
X48850214Y-103941405D02*
X48868357Y-103947452D01*
X48898595Y-103947452D01*
X48910691Y-103941405D01*
X48916738Y-103935357D01*
X48922786Y-103923262D01*
X48922786Y-103911167D01*
X48916738Y-103899071D01*
X48910691Y-103893024D01*
X48898595Y-103886976D01*
X48874405Y-103880929D01*
X48862310Y-103874881D01*
X48856262Y-103868833D01*
X48850214Y-103856738D01*
X48850214Y-103844643D01*
X48856262Y-103832548D01*
X48862310Y-103826500D01*
X48874405Y-103820452D01*
X48904643Y-103820452D01*
X48922786Y-103826500D01*
X48977214Y-103947452D02*
X48977214Y-103820452D01*
X49007452Y-103820452D01*
X49025595Y-103826500D01*
X49037690Y-103838595D01*
X49043738Y-103850690D01*
X49049786Y-103874881D01*
X49049786Y-103893024D01*
X49043738Y-103917214D01*
X49037690Y-103929310D01*
X49025595Y-103941405D01*
X49007452Y-103947452D01*
X48977214Y-103947452D01*
X50828334Y-103810452D02*
X50858572Y-103937452D01*
X50882762Y-103846738D01*
X50906953Y-103937452D01*
X50937191Y-103810452D01*
X50985572Y-103937452D02*
X50985572Y-103810452D01*
X51040000Y-103931405D02*
X51058143Y-103937452D01*
X51088381Y-103937452D01*
X51100477Y-103931405D01*
X51106524Y-103925357D01*
X51112572Y-103913262D01*
X51112572Y-103901167D01*
X51106524Y-103889071D01*
X51100477Y-103883024D01*
X51088381Y-103876976D01*
X51064191Y-103870929D01*
X51052096Y-103864881D01*
X51046048Y-103858833D01*
X51040000Y-103846738D01*
X51040000Y-103834643D01*
X51046048Y-103822548D01*
X51052096Y-103816500D01*
X51064191Y-103810452D01*
X51094429Y-103810452D01*
X51112572Y-103816500D01*
X51191191Y-103810452D02*
X51215381Y-103810452D01*
X51227476Y-103816500D01*
X51239572Y-103828595D01*
X51245619Y-103852786D01*
X51245619Y-103895119D01*
X51239572Y-103919310D01*
X51227476Y-103931405D01*
X51215381Y-103937452D01*
X51191191Y-103937452D01*
X51179095Y-103931405D01*
X51167000Y-103919310D01*
X51160952Y-103895119D01*
X51160952Y-103852786D01*
X51167000Y-103828595D01*
X51179095Y-103816500D01*
X51191191Y-103810452D01*
X50778096Y-103275357D02*
X50772048Y-103281405D01*
X50753905Y-103287452D01*
X50741810Y-103287452D01*
X50723667Y-103281405D01*
X50711572Y-103269310D01*
X50705524Y-103257214D01*
X50699476Y-103233024D01*
X50699476Y-103214881D01*
X50705524Y-103190690D01*
X50711572Y-103178595D01*
X50723667Y-103166500D01*
X50741810Y-103160452D01*
X50753905Y-103160452D01*
X50772048Y-103166500D01*
X50778096Y-103172548D01*
X50856715Y-103160452D02*
X50880905Y-103160452D01*
X50893000Y-103166500D01*
X50905096Y-103178595D01*
X50911143Y-103202786D01*
X50911143Y-103245119D01*
X50905096Y-103269310D01*
X50893000Y-103281405D01*
X50880905Y-103287452D01*
X50856715Y-103287452D01*
X50844619Y-103281405D01*
X50832524Y-103269310D01*
X50826476Y-103245119D01*
X50826476Y-103202786D01*
X50832524Y-103178595D01*
X50844619Y-103166500D01*
X50856715Y-103160452D01*
X50965572Y-103287452D02*
X50965572Y-103160452D01*
X51038144Y-103287452D01*
X51038144Y-103160452D01*
X51140953Y-103220929D02*
X51098620Y-103220929D01*
X51098620Y-103287452D02*
X51098620Y-103160452D01*
X51159096Y-103160452D01*
X51207477Y-103287452D02*
X51207477Y-103160452D01*
X51334477Y-103166500D02*
X51322382Y-103160452D01*
X51304239Y-103160452D01*
X51286096Y-103166500D01*
X51274001Y-103178595D01*
X51267953Y-103190690D01*
X51261905Y-103214881D01*
X51261905Y-103233024D01*
X51267953Y-103257214D01*
X51274001Y-103269310D01*
X51286096Y-103281405D01*
X51304239Y-103287452D01*
X51316334Y-103287452D01*
X51334477Y-103281405D01*
X51340525Y-103275357D01*
X51340525Y-103233024D01*
X51316334Y-103233024D01*
X50830667Y-102480452D02*
X50873001Y-102607452D01*
X50915334Y-102480452D01*
X50957667Y-102607452D02*
X50957667Y-102480452D01*
X50987905Y-102480452D01*
X51006048Y-102486500D01*
X51018143Y-102498595D01*
X51024191Y-102510690D01*
X51030239Y-102534881D01*
X51030239Y-102553024D01*
X51024191Y-102577214D01*
X51018143Y-102589310D01*
X51006048Y-102601405D01*
X50987905Y-102607452D01*
X50957667Y-102607452D01*
X51084667Y-102607452D02*
X51084667Y-102480452D01*
X51114905Y-102480452D01*
X51133048Y-102486500D01*
X51145143Y-102498595D01*
X51151191Y-102510690D01*
X51157239Y-102534881D01*
X51157239Y-102553024D01*
X51151191Y-102577214D01*
X51145143Y-102589310D01*
X51133048Y-102601405D01*
X51114905Y-102607452D01*
X51084667Y-102607452D01*
D13*
X111061667Y-137345681D02*
X110728333Y-136869490D01*
X110490238Y-137345681D02*
X110490238Y-136345681D01*
X110871191Y-136345681D01*
X110966429Y-136393300D01*
X111014048Y-136440919D01*
X111061667Y-136536157D01*
X111061667Y-136679014D01*
X111014048Y-136774252D01*
X110966429Y-136821871D01*
X110871191Y-136869490D01*
X110490238Y-136869490D01*
X111490238Y-136821871D02*
X111823572Y-136821871D01*
X111966429Y-137345681D02*
X111490238Y-137345681D01*
X111490238Y-136345681D01*
X111966429Y-136345681D01*
X112728334Y-136821871D02*
X112395000Y-136821871D01*
X112395000Y-137345681D02*
X112395000Y-136345681D01*
X112871191Y-136345681D01*
X113395000Y-136345681D02*
X113395000Y-136583776D01*
X113156905Y-136488538D02*
X113395000Y-136583776D01*
X113633096Y-136488538D01*
X113252143Y-136774252D02*
X113395000Y-136583776D01*
X113537858Y-136774252D01*
X114156905Y-136345681D02*
X114156905Y-136583776D01*
X113918810Y-136488538D02*
X114156905Y-136583776D01*
X114395001Y-136488538D01*
X114014048Y-136774252D02*
X114156905Y-136583776D01*
X114299763Y-136774252D01*
X144107067Y-92032081D02*
X143773733Y-91555890D01*
X143535638Y-92032081D02*
X143535638Y-91032081D01*
X143916591Y-91032081D01*
X144011829Y-91079700D01*
X144059448Y-91127319D01*
X144107067Y-91222557D01*
X144107067Y-91365414D01*
X144059448Y-91460652D01*
X144011829Y-91508271D01*
X143916591Y-91555890D01*
X143535638Y-91555890D01*
X144535638Y-91508271D02*
X144868972Y-91508271D01*
X145011829Y-92032081D02*
X144535638Y-92032081D01*
X144535638Y-91032081D01*
X145011829Y-91032081D01*
X145773734Y-91508271D02*
X145440400Y-91508271D01*
X145440400Y-92032081D02*
X145440400Y-91032081D01*
X145916591Y-91032081D01*
X146440400Y-91032081D02*
X146440400Y-91270176D01*
X146202305Y-91174938D02*
X146440400Y-91270176D01*
X146678496Y-91174938D01*
X146297543Y-91460652D02*
X146440400Y-91270176D01*
X146583258Y-91460652D01*
X147202305Y-91032081D02*
X147202305Y-91270176D01*
X146964210Y-91174938D02*
X147202305Y-91270176D01*
X147440401Y-91174938D01*
X147059448Y-91460652D02*
X147202305Y-91270176D01*
X147345163Y-91460652D01*
M02*
