G04 #@! TF.FileFunction,Copper,L1,Top,Signal*
%FSLAX46Y46*%
G04 Gerber Fmt 4.6, Leading zero omitted, Abs format (unit mm)*
G04 Created by KiCad (PCBNEW 4.0.7) date 03/16/18 10:32:41*
%MOMM*%
%LPD*%
G01*
G04 APERTURE LIST*
%ADD10C,0.100000*%
%ADD11C,2.499360*%
%ADD12R,0.750000X1.200000*%
%ADD13R,1.200000X0.750000*%
%ADD14C,1.650000*%
%ADD15R,0.400000X0.600000*%
%ADD16R,0.600000X0.400000*%
%ADD17C,1.600000*%
%ADD18C,0.600000*%
%ADD19C,0.250000*%
%ADD20C,0.400000*%
%ADD21C,1.000000*%
%ADD22C,0.254000*%
G04 APERTURE END LIST*
D10*
D11*
X126756160Y-101818440D03*
X68630800Y-130175000D03*
X64688720Y-82115660D03*
X100599240Y-43340020D03*
X148960840Y-41917620D03*
X184724040Y-74632820D03*
X187360560Y-122326400D03*
X153619200Y-160223200D03*
X104444800Y-162052000D03*
X132836920Y-79636620D03*
X137439400Y-93167200D03*
D12*
X54594760Y-102986880D03*
X54594760Y-101086880D03*
D10*
G36*
X74669150Y-51361180D02*
X74138820Y-50830850D01*
X74987348Y-49982322D01*
X75517678Y-50512652D01*
X74669150Y-51361180D01*
X74669150Y-51361180D01*
G37*
G36*
X76012652Y-50017678D02*
X75482322Y-49487348D01*
X76330850Y-48638820D01*
X76861180Y-49169150D01*
X76012652Y-50017678D01*
X76012652Y-50017678D01*
G37*
D13*
X125550000Y-28000000D03*
X127450000Y-28000000D03*
D10*
G36*
X179535090Y-151694140D02*
X180065420Y-152224470D01*
X179216892Y-153072998D01*
X178686562Y-152542668D01*
X179535090Y-151694140D01*
X179535090Y-151694140D01*
G37*
G36*
X178191588Y-153037642D02*
X178721918Y-153567972D01*
X177873390Y-154416500D01*
X177343060Y-153886170D01*
X178191588Y-153037642D01*
X178191588Y-153037642D01*
G37*
D12*
X199834500Y-100015000D03*
X199834500Y-101915000D03*
D10*
G36*
X177231300Y-48958230D02*
X177761630Y-48427900D01*
X178610158Y-49276428D01*
X178079828Y-49806758D01*
X177231300Y-48958230D01*
X177231300Y-48958230D01*
G37*
G36*
X178574802Y-50301732D02*
X179105132Y-49771402D01*
X179953660Y-50619930D01*
X179423330Y-51150260D01*
X178574802Y-50301732D01*
X178574802Y-50301732D01*
G37*
D13*
X128470700Y-174993300D03*
X126570700Y-174993300D03*
D10*
G36*
X77022700Y-153997930D02*
X76492370Y-154528260D01*
X75643842Y-153679732D01*
X76174172Y-153149402D01*
X77022700Y-153997930D01*
X77022700Y-153997930D01*
G37*
G36*
X75679198Y-152654428D02*
X75148868Y-153184758D01*
X74300340Y-152336230D01*
X74830670Y-151805900D01*
X75679198Y-152654428D01*
X75679198Y-152654428D01*
G37*
G36*
X138942707Y-89989774D02*
X139426277Y-90748826D01*
X139004581Y-91017476D01*
X138521011Y-90258424D01*
X138942707Y-89989774D01*
X138942707Y-89989774D01*
G37*
G36*
X137677619Y-90795724D02*
X138161189Y-91554776D01*
X137739493Y-91823426D01*
X137255923Y-91064374D01*
X137677619Y-90795724D01*
X137677619Y-90795724D01*
G37*
G36*
X138120416Y-88743113D02*
X138590664Y-89510489D01*
X138164344Y-89771739D01*
X137694096Y-89004363D01*
X138120416Y-88743113D01*
X138120416Y-88743113D01*
G37*
G36*
X136841456Y-89526861D02*
X137311704Y-90294237D01*
X136885384Y-90555487D01*
X136415136Y-89788111D01*
X136841456Y-89526861D01*
X136841456Y-89526861D01*
G37*
G36*
X140028920Y-87417433D02*
X140227472Y-87798848D01*
X139553344Y-88149777D01*
X139354792Y-87768362D01*
X140028920Y-87417433D01*
X140028920Y-87417433D01*
G37*
G36*
X141377177Y-86715575D02*
X141575729Y-87096990D01*
X140901601Y-87447919D01*
X140703049Y-87066504D01*
X141377177Y-86715575D01*
X141377177Y-86715575D01*
G37*
G36*
X140398319Y-88127041D02*
X140596871Y-88508456D01*
X139922743Y-88859385D01*
X139724191Y-88477970D01*
X140398319Y-88127041D01*
X140398319Y-88127041D01*
G37*
G36*
X141746576Y-87425183D02*
X141945128Y-87806598D01*
X141271000Y-88157527D01*
X141072448Y-87776112D01*
X141746576Y-87425183D01*
X141746576Y-87425183D01*
G37*
G36*
X139659521Y-86707824D02*
X139858073Y-87089239D01*
X139183945Y-87440168D01*
X138985393Y-87058753D01*
X139659521Y-86707824D01*
X139659521Y-86707824D01*
G37*
G36*
X140767718Y-88836650D02*
X140966270Y-89218065D01*
X140292142Y-89568994D01*
X140093590Y-89187579D01*
X140767718Y-88836650D01*
X140767718Y-88836650D01*
G37*
G36*
X142115975Y-88134792D02*
X142314527Y-88516207D01*
X141640399Y-88867136D01*
X141441847Y-88485721D01*
X142115975Y-88134792D01*
X142115975Y-88134792D01*
G37*
G36*
X141007778Y-86005966D02*
X141206330Y-86387381D01*
X140532202Y-86738310D01*
X140333650Y-86356895D01*
X141007778Y-86005966D01*
X141007778Y-86005966D01*
G37*
G36*
X141137117Y-89546259D02*
X141335669Y-89927674D01*
X140661541Y-90278603D01*
X140462989Y-89897188D01*
X141137117Y-89546259D01*
X141137117Y-89546259D01*
G37*
G36*
X141506516Y-90255867D02*
X141705068Y-90637282D01*
X141030940Y-90988211D01*
X140832388Y-90606796D01*
X141506516Y-90255867D01*
X141506516Y-90255867D01*
G37*
G36*
X138920724Y-85288607D02*
X139119276Y-85670022D01*
X138445148Y-86020951D01*
X138246596Y-85639536D01*
X138920724Y-85288607D01*
X138920724Y-85288607D01*
G37*
G36*
X139290123Y-85998215D02*
X139488675Y-86379630D01*
X138814547Y-86730559D01*
X138615995Y-86349144D01*
X139290123Y-85998215D01*
X139290123Y-85998215D01*
G37*
G36*
X140638379Y-85296357D02*
X140836931Y-85677772D01*
X140162803Y-86028701D01*
X139964251Y-85647286D01*
X140638379Y-85296357D01*
X140638379Y-85296357D01*
G37*
G36*
X140268980Y-84586749D02*
X140467532Y-84968164D01*
X139793404Y-85319093D01*
X139594852Y-84937678D01*
X140268980Y-84586749D01*
X140268980Y-84586749D01*
G37*
G36*
X142854772Y-89554009D02*
X143053324Y-89935424D01*
X142379196Y-90286353D01*
X142180644Y-89904938D01*
X142854772Y-89554009D01*
X142854772Y-89554009D01*
G37*
G36*
X142485373Y-88844401D02*
X142683925Y-89225816D01*
X142009797Y-89576745D01*
X141811245Y-89195330D01*
X142485373Y-88844401D01*
X142485373Y-88844401D01*
G37*
G36*
X67393531Y-153577705D02*
X66757135Y-152941309D01*
X67110689Y-152587755D01*
X67747085Y-153224151D01*
X67393531Y-153577705D01*
X67393531Y-153577705D01*
G37*
G36*
X68454191Y-152517045D02*
X67817795Y-151880649D01*
X68171349Y-151527095D01*
X68807745Y-152163491D01*
X68454191Y-152517045D01*
X68454191Y-152517045D01*
G37*
G36*
X73264430Y-158894291D02*
X72981588Y-158611449D01*
X73405852Y-158187185D01*
X73688694Y-158470027D01*
X73264430Y-158894291D01*
X73264430Y-158894291D01*
G37*
G36*
X72345191Y-157975052D02*
X72062349Y-157692210D01*
X72486613Y-157267946D01*
X72769455Y-157550788D01*
X72345191Y-157975052D01*
X72345191Y-157975052D01*
G37*
G36*
X72804811Y-158434671D02*
X72521969Y-158151829D01*
X72946233Y-157727565D01*
X73229075Y-158010407D01*
X72804811Y-158434671D01*
X72804811Y-158434671D01*
G37*
G36*
X74774103Y-157377547D02*
X74491261Y-157094705D01*
X74915525Y-156670441D01*
X75198367Y-156953283D01*
X74774103Y-157377547D01*
X74774103Y-157377547D01*
G37*
G36*
X74318019Y-156921463D02*
X74035177Y-156638621D01*
X74459441Y-156214357D01*
X74742283Y-156497199D01*
X74318019Y-156921463D01*
X74318019Y-156921463D01*
G37*
G36*
X73858400Y-156461843D02*
X73575558Y-156179001D01*
X73999822Y-155754737D01*
X74282664Y-156037579D01*
X73858400Y-156461843D01*
X73858400Y-156461843D01*
G37*
D14*
X72274481Y-155959798D03*
D15*
X129680000Y-180070000D03*
X128380000Y-180070000D03*
X129030000Y-180070000D03*
X129675000Y-177930000D03*
X129030000Y-177930000D03*
X128380000Y-177930000D03*
D14*
X127105000Y-178995000D03*
D10*
G36*
X180735570Y-44105709D02*
X181018412Y-44388551D01*
X180594148Y-44812815D01*
X180311306Y-44529973D01*
X180735570Y-44105709D01*
X180735570Y-44105709D01*
G37*
G36*
X181654809Y-45024948D02*
X181937651Y-45307790D01*
X181513387Y-45732054D01*
X181230545Y-45449212D01*
X181654809Y-45024948D01*
X181654809Y-45024948D01*
G37*
G36*
X181195189Y-44565329D02*
X181478031Y-44848171D01*
X181053767Y-45272435D01*
X180770925Y-44989593D01*
X181195189Y-44565329D01*
X181195189Y-44565329D01*
G37*
G36*
X179225897Y-45622453D02*
X179508739Y-45905295D01*
X179084475Y-46329559D01*
X178801633Y-46046717D01*
X179225897Y-45622453D01*
X179225897Y-45622453D01*
G37*
G36*
X179681981Y-46078537D02*
X179964823Y-46361379D01*
X179540559Y-46785643D01*
X179257717Y-46502801D01*
X179681981Y-46078537D01*
X179681981Y-46078537D01*
G37*
G36*
X180141600Y-46538157D02*
X180424442Y-46820999D01*
X180000178Y-47245263D01*
X179717336Y-46962421D01*
X180141600Y-46538157D01*
X180141600Y-46538157D01*
G37*
D14*
X181725519Y-47040202D03*
D16*
X205070000Y-98820000D03*
X205070000Y-100120000D03*
X205070000Y-99470000D03*
X202930000Y-98825000D03*
X202930000Y-99470000D03*
X202930000Y-100120000D03*
D14*
X203995000Y-101395000D03*
D10*
G36*
X184394291Y-155235570D02*
X184111449Y-155518412D01*
X183687185Y-155094148D01*
X183970027Y-154811306D01*
X184394291Y-155235570D01*
X184394291Y-155235570D01*
G37*
G36*
X183475052Y-156154809D02*
X183192210Y-156437651D01*
X182767946Y-156013387D01*
X183050788Y-155730545D01*
X183475052Y-156154809D01*
X183475052Y-156154809D01*
G37*
G36*
X183934671Y-155695189D02*
X183651829Y-155978031D01*
X183227565Y-155553767D01*
X183510407Y-155270925D01*
X183934671Y-155695189D01*
X183934671Y-155695189D01*
G37*
G36*
X182877547Y-153725897D02*
X182594705Y-154008739D01*
X182170441Y-153584475D01*
X182453283Y-153301633D01*
X182877547Y-153725897D01*
X182877547Y-153725897D01*
G37*
G36*
X182421463Y-154181981D02*
X182138621Y-154464823D01*
X181714357Y-154040559D01*
X181997199Y-153757717D01*
X182421463Y-154181981D01*
X182421463Y-154181981D01*
G37*
G36*
X181961843Y-154641600D02*
X181679001Y-154924442D01*
X181254737Y-154500178D01*
X181537579Y-154217336D01*
X181961843Y-154641600D01*
X181961843Y-154641600D01*
G37*
D14*
X181459798Y-156225519D03*
D15*
X124320000Y-23430000D03*
X125620000Y-23430000D03*
X124970000Y-23430000D03*
X124325000Y-25570000D03*
X124970000Y-25570000D03*
X125620000Y-25570000D03*
D14*
X126895000Y-24505000D03*
D10*
G36*
X69605709Y-47764430D02*
X69888551Y-47481588D01*
X70312815Y-47905852D01*
X70029973Y-48188694D01*
X69605709Y-47764430D01*
X69605709Y-47764430D01*
G37*
G36*
X70524948Y-46845191D02*
X70807790Y-46562349D01*
X71232054Y-46986613D01*
X70949212Y-47269455D01*
X70524948Y-46845191D01*
X70524948Y-46845191D01*
G37*
G36*
X70065329Y-47304811D02*
X70348171Y-47021969D01*
X70772435Y-47446233D01*
X70489593Y-47729075D01*
X70065329Y-47304811D01*
X70065329Y-47304811D01*
G37*
G36*
X71122453Y-49274103D02*
X71405295Y-48991261D01*
X71829559Y-49415525D01*
X71546717Y-49698367D01*
X71122453Y-49274103D01*
X71122453Y-49274103D01*
G37*
G36*
X71578537Y-48818019D02*
X71861379Y-48535177D01*
X72285643Y-48959441D01*
X72002801Y-49242283D01*
X71578537Y-48818019D01*
X71578537Y-48818019D01*
G37*
G36*
X72038157Y-48358400D02*
X72320999Y-48075558D01*
X72745263Y-48499822D01*
X72462421Y-48782664D01*
X72038157Y-48358400D01*
X72038157Y-48358400D01*
G37*
D14*
X72540202Y-46774481D03*
D16*
X48930000Y-104180000D03*
X48930000Y-102880000D03*
X48930000Y-103530000D03*
X51070000Y-104175000D03*
X51070000Y-103530000D03*
X51070000Y-102880000D03*
D14*
X50005000Y-101605000D03*
D11*
X112395000Y-140703300D03*
X145440400Y-95389700D03*
D17*
X121726111Y-78920525D02*
X121726111Y-78920525D01*
X123979119Y-77747684D02*
X123979119Y-77747684D01*
X88835749Y-96042164D02*
X88835749Y-96042164D01*
X91088757Y-94869323D02*
X91088757Y-94869323D01*
X93341764Y-93696481D02*
X93341764Y-93696481D01*
X95594772Y-92523640D02*
X95594772Y-92523640D01*
X97847779Y-91350798D02*
X97847779Y-91350798D01*
X100100787Y-90177957D02*
X100100787Y-90177957D01*
X102353795Y-89005115D02*
X102353795Y-89005115D01*
X104606802Y-87832274D02*
X104606802Y-87832274D01*
X108208066Y-85957574D02*
X108208066Y-85957574D01*
X110461074Y-84784733D02*
X110461074Y-84784733D01*
X112714081Y-83611891D02*
X112714081Y-83611891D01*
X114967089Y-82439050D02*
X114967089Y-82439050D01*
X117220096Y-81266208D02*
X117220096Y-81266208D01*
X119473104Y-80093367D02*
X119473104Y-80093367D01*
X86582742Y-97215006D02*
X86582742Y-97215006D01*
X84329734Y-98387847D02*
X84329734Y-98387847D01*
X143917424Y-116048812D02*
X143917424Y-116048812D01*
X141664416Y-117221653D02*
X141664416Y-117221653D01*
X139411409Y-118394495D02*
X139411409Y-118394495D01*
X137158401Y-119567336D02*
X137158401Y-119567336D01*
X134905394Y-120740178D02*
X134905394Y-120740178D01*
X132652386Y-121913019D02*
X132652386Y-121913019D01*
X128146371Y-124258702D02*
X128146371Y-124258702D01*
X125893364Y-125431544D02*
X125893364Y-125431544D01*
X123640356Y-126604385D02*
X123640356Y-126604385D01*
X121387349Y-127777227D02*
X121387349Y-127777227D01*
X119134341Y-128950068D02*
X119134341Y-128950068D01*
X116881334Y-130122910D02*
X116881334Y-130122910D01*
D10*
G36*
X113624788Y-130773342D02*
X115150735Y-130292213D01*
X115631864Y-131818160D01*
X114105917Y-132299289D01*
X113624788Y-130773342D01*
X113624788Y-130773342D01*
G37*
G36*
X111371781Y-131946183D02*
X112897728Y-131465054D01*
X113378857Y-132991001D01*
X111852910Y-133472130D01*
X111371781Y-131946183D01*
X111371781Y-131946183D01*
G37*
D17*
X83156893Y-96134840D02*
X83156893Y-96134840D01*
X85409900Y-94961998D02*
X85409900Y-94961998D01*
D10*
G36*
X112544622Y-134199191D02*
X114070569Y-133718062D01*
X114551698Y-135244009D01*
X113025751Y-135725138D01*
X112544622Y-134199191D01*
X112544622Y-134199191D01*
G37*
D17*
X118300262Y-77840359D02*
X118300262Y-77840359D01*
X115801168Y-133548759D02*
X115801168Y-133548759D01*
X116047255Y-79013201D02*
X116047255Y-79013201D01*
X118054175Y-132375917D02*
X118054175Y-132375917D01*
X113794247Y-80186042D02*
X113794247Y-80186042D01*
X120307183Y-131203076D02*
X120307183Y-131203076D01*
X111541240Y-81358884D02*
X111541240Y-81358884D01*
X122560190Y-130030234D02*
X122560190Y-130030234D01*
X109288232Y-82531725D02*
X109288232Y-82531725D01*
X124813198Y-128857393D02*
X124813198Y-128857393D01*
X107035225Y-83704567D02*
X107035225Y-83704567D01*
X127066205Y-127684551D02*
X127066205Y-127684551D01*
X103433961Y-85579266D02*
X103433961Y-85579266D01*
X129319213Y-126511710D02*
X129319213Y-126511710D01*
X101180953Y-86752108D02*
X101180953Y-86752108D01*
X133825228Y-124166027D02*
X133825228Y-124166027D01*
X98927946Y-87924949D02*
X98927946Y-87924949D01*
X136078235Y-122993185D02*
X136078235Y-122993185D01*
X96674938Y-89097791D02*
X96674938Y-89097791D01*
X138331243Y-121820344D02*
X138331243Y-121820344D01*
X94421930Y-90270632D02*
X94421930Y-90270632D01*
X140584250Y-120647502D02*
X140584250Y-120647502D01*
X92168923Y-91443474D02*
X92168923Y-91443474D01*
X142837258Y-119474661D02*
X142837258Y-119474661D01*
X89915915Y-92616315D02*
X89915915Y-92616315D01*
X145090265Y-118301819D02*
X145090265Y-118301819D01*
X87662908Y-93789157D02*
X87662908Y-93789157D01*
X122806277Y-75494677D02*
X122806277Y-75494677D01*
X120553270Y-76667518D02*
X120553270Y-76667518D01*
D18*
X126720600Y-101650800D03*
X46962972Y-95866699D03*
X47971710Y-99787710D03*
X109208570Y-89038430D03*
X71856600Y-162572700D03*
X73152000Y-161048700D03*
X67437000Y-47282100D03*
X65722500Y-45796200D03*
X207091280Y-97231200D03*
X209283300Y-97802700D03*
X130647440Y-181945280D03*
X130479800Y-183537860D03*
X187452000Y-157391100D03*
X186275980Y-155849320D03*
X182613300Y-40576500D03*
X181127400Y-42100500D03*
X124053600Y-21178520D03*
X124282200Y-19507200D03*
X123596400Y-26708100D03*
X183299100Y-45072300D03*
X177393600Y-46482000D03*
X206540100Y-101307900D03*
X129921000Y-176326800D03*
X70789800Y-157543500D03*
X201279760Y-97734120D03*
X183426100Y-157777180D03*
X71653400Y-44272200D03*
X52638960Y-104886760D03*
X127518160Y-181023260D03*
X182364380Y-152356820D03*
X70136380Y-51863620D03*
X126492000Y-22059900D03*
X63423800Y-99522280D03*
X75885040Y-99522280D03*
X88500000Y-99650000D03*
X101308148Y-73191852D03*
X92308148Y-64191852D03*
X83428840Y-55265320D03*
X128850000Y-63000000D03*
X128850000Y-50500000D03*
X128850000Y-38000000D03*
X155281900Y-75781900D03*
X164308148Y-66808148D03*
X173308148Y-57808148D03*
X165500000Y-103350000D03*
X178000000Y-103350000D03*
X190500000Y-103350000D03*
X153205400Y-130294600D03*
X162191852Y-139308148D03*
X171233340Y-148266660D03*
X125150000Y-165000000D03*
X125171200Y-140147040D03*
X125150000Y-152500000D03*
X98691852Y-127191852D03*
X89691852Y-136191852D03*
X80578960Y-145064480D03*
X83847940Y-158224220D03*
X112058450Y-87877650D03*
X112890300Y-97497900D03*
D19*
X141268728Y-90622039D02*
X141268728Y-91218028D01*
X141268728Y-91218028D02*
X145440400Y-95389700D01*
D20*
X208292700Y-99661980D02*
X208292700Y-136095740D01*
X208292700Y-136095740D02*
X203017431Y-141371009D01*
D19*
X47000000Y-95000000D02*
X47000000Y-94889160D01*
X46939200Y-94828360D02*
X47000000Y-94828360D01*
X47000000Y-94889160D02*
X46939200Y-94828360D01*
D20*
X47000000Y-95890080D02*
X46986353Y-95890080D01*
X46986353Y-95890080D02*
X46962972Y-95866699D01*
X93878182Y-19228599D02*
X93424441Y-19228599D01*
X93424441Y-19228599D02*
X67882400Y-44770640D01*
X99860100Y-182532020D02*
X93111320Y-182532020D01*
X70939660Y-160367980D02*
X71358760Y-159597880D01*
X71358760Y-159597880D02*
X72875522Y-158081118D01*
X88582500Y-178010820D02*
X70939660Y-160367980D01*
X93111320Y-182532020D02*
X88582500Y-178003200D01*
X88582500Y-178003200D02*
X88582500Y-178010820D01*
D19*
X181124478Y-44875522D02*
X183563740Y-42738520D01*
D20*
X183569610Y-42744390D02*
X183298970Y-42744390D01*
X183298970Y-42744390D02*
X181124478Y-44918882D01*
X205191360Y-64366140D02*
X205259940Y-64366140D01*
X205191360Y-64366140D02*
X183569610Y-42744390D01*
X208432538Y-92887800D02*
X208432538Y-89255738D01*
X205259940Y-64366140D02*
X208432538Y-67538738D01*
X208432538Y-67538738D02*
X208432538Y-89255738D01*
X183581118Y-155624478D02*
X183581118Y-155657318D01*
X183581118Y-155657318D02*
X185647700Y-157723900D01*
X129057940Y-182699660D02*
X99860100Y-182532020D01*
D19*
X99860100Y-182532020D02*
X95107760Y-182532020D01*
X95107760Y-182532020D02*
X95079820Y-182532020D01*
X95079820Y-182532020D02*
X94940120Y-182392320D01*
D20*
X183569610Y-42744390D02*
X183563740Y-42738520D01*
X205070000Y-99470000D02*
X208100720Y-99470000D01*
X208100720Y-99470000D02*
X208292700Y-99661980D01*
X208292700Y-99661980D02*
X208432538Y-99801818D01*
X208432538Y-100135955D02*
X208432538Y-99801818D01*
X203017431Y-141371009D02*
X185647700Y-157723900D01*
X208432538Y-99801818D02*
X208432538Y-92887800D01*
D19*
X208432538Y-92887800D02*
X208432538Y-92760938D01*
D20*
X129030000Y-180070000D02*
X129057940Y-182699660D01*
X129057940Y-182699660D02*
X129030000Y-182445120D01*
X129030000Y-182445120D02*
X128882798Y-182787902D01*
X160000000Y-182000000D02*
X185647700Y-157723900D01*
X131899920Y-182726440D02*
X160000000Y-182000000D01*
X128882798Y-182787902D02*
X131899920Y-182726440D01*
D19*
X47828200Y-94678500D02*
X47000000Y-95000000D01*
D20*
X47000000Y-103000000D02*
X47000000Y-95890080D01*
X47000000Y-95890080D02*
X47000000Y-94828360D01*
X47530000Y-103530000D02*
X47000000Y-103000000D01*
X47530000Y-103530000D02*
X48930000Y-103530000D01*
X47000000Y-95000000D02*
X47000000Y-68000000D01*
X47000000Y-68000000D02*
X67882400Y-44770640D01*
X125005560Y-20384080D02*
X93878182Y-19228599D01*
X125035560Y-20354080D02*
X160458840Y-21652920D01*
X125035560Y-20354080D02*
X125005560Y-20384080D01*
X160458840Y-21652920D02*
X183563740Y-42738520D01*
X70375522Y-47375522D02*
X67882400Y-44770640D01*
D19*
X70418882Y-47375522D02*
X70375522Y-47375522D01*
X70418882Y-47375522D02*
X70275522Y-47375522D01*
X185647700Y-157723900D02*
X183624478Y-155624478D01*
X183581118Y-155624478D02*
X183624478Y-155624478D01*
X72875522Y-158081118D02*
X72875522Y-158124478D01*
D20*
X124970000Y-23430000D02*
X125005560Y-20384080D01*
D19*
X181124478Y-44918882D02*
X181124478Y-44875522D01*
D20*
X48000000Y-99783900D02*
X47975520Y-99783900D01*
X47975520Y-99783900D02*
X47971710Y-99787710D01*
X48000000Y-102000000D02*
X48000000Y-100000000D01*
X48000000Y-100000000D02*
X48000000Y-99783900D01*
X48880000Y-102880000D02*
X48000000Y-102000000D01*
X161045538Y-20572652D02*
X163122532Y-20572652D01*
X163122532Y-20572652D02*
X183230520Y-40680640D01*
X182803800Y-40309800D02*
X182859680Y-40309800D01*
X182859680Y-40309800D02*
X183230520Y-40680640D01*
X209717640Y-67167760D02*
X209894309Y-67344429D01*
X183230520Y-40680640D02*
X209717640Y-67167760D01*
X209894309Y-67344429D02*
X209894309Y-67344343D01*
X209894309Y-67344343D02*
X209726525Y-96728026D01*
X209166460Y-137416540D02*
X209166460Y-137401300D01*
X209714500Y-136853260D02*
X209714500Y-98833940D01*
X209166460Y-137401300D02*
X209714500Y-136853260D01*
X209651691Y-103689429D02*
X209714500Y-103588520D01*
X209714500Y-98833940D02*
X209714500Y-103588520D01*
X209651691Y-106623002D02*
X209651691Y-103689429D01*
X190339466Y-155930328D02*
X190652672Y-155930328D01*
X190652672Y-155930328D02*
X209166460Y-137416540D01*
X109208570Y-89038430D02*
X109319060Y-89148920D01*
X209726525Y-96728026D02*
X209726525Y-98821915D01*
X209726525Y-98821915D02*
X209714500Y-98833940D01*
X209283300Y-97802700D02*
X209593180Y-97802700D01*
X209721119Y-97674761D02*
X209721119Y-97674768D01*
X209593180Y-97802700D02*
X209721119Y-97674761D01*
X205070000Y-98820000D02*
X205502480Y-98820000D01*
X205502480Y-98820000D02*
X207091280Y-97231200D01*
X46853576Y-104736427D02*
X46853576Y-104816376D01*
X96931480Y-106413300D02*
X103629460Y-99715320D01*
X48450500Y-106413300D02*
X96931480Y-106413300D01*
X46853576Y-104816376D02*
X48450500Y-106413300D01*
X93211420Y-17791059D02*
X92571941Y-17791059D01*
X68117720Y-42245280D02*
X68117720Y-42255920D01*
X92571941Y-17791059D02*
X68117720Y-42245280D01*
X187452000Y-157391100D02*
X187452000Y-157505400D01*
X188018146Y-158071546D02*
X188018146Y-158071545D01*
X187452000Y-157505400D02*
X188018146Y-158071546D01*
X130479800Y-183537860D02*
X130479800Y-183901080D01*
X130479800Y-183901080D02*
X130786660Y-184207940D01*
X96659700Y-184218058D02*
X91675996Y-183882778D01*
X91675996Y-183882778D02*
X71224635Y-163431417D01*
X73335141Y-158540738D02*
X73335141Y-160865559D01*
X71224635Y-163204665D02*
X71224635Y-163431417D01*
X71856600Y-162572700D02*
X71224635Y-163204665D01*
X73335141Y-160865559D02*
X73152000Y-161048700D01*
X65722500Y-45796200D02*
X65455800Y-45796200D01*
X65455800Y-45796200D02*
X65078081Y-45418481D01*
X69943301Y-47835141D02*
X67437000Y-47282100D01*
X66055480Y-44358800D02*
X66014840Y-44358800D01*
X209726525Y-96728026D02*
X209721119Y-97674768D01*
X209721119Y-97674768D02*
X209714500Y-98833940D01*
X124355860Y-18513340D02*
X127038100Y-18513340D01*
X134152400Y-18675900D02*
X161045538Y-20572652D01*
X129152400Y-18675900D02*
X134152400Y-18675900D01*
X127038100Y-18513340D02*
X129152400Y-18675900D01*
X182613300Y-40576500D02*
X182613300Y-40500300D01*
X182613300Y-40500300D02*
X182803800Y-40309800D01*
X209283300Y-97802700D02*
X209359500Y-97802700D01*
X209359500Y-97802700D02*
X209626200Y-98069400D01*
D19*
X67252110Y-153082730D02*
X67236671Y-153082730D01*
D20*
X67236671Y-153082730D02*
X66873841Y-153445560D01*
X66000000Y-154000000D02*
X66000000Y-155000000D01*
X66554440Y-153445560D02*
X66000000Y-154000000D01*
X66873841Y-153445560D02*
X66554440Y-153445560D01*
X93459300Y-183882778D02*
X92628274Y-183882778D01*
X71224635Y-163431417D02*
X69893980Y-162058820D01*
X69893980Y-162058820D02*
X68161800Y-158726440D01*
X66217800Y-155217800D02*
X68161800Y-158726440D01*
X129794000Y-184218058D02*
X96659700Y-184218058D01*
D19*
X96659700Y-184218058D02*
X93459300Y-183882778D01*
X93459300Y-183882778D02*
X93345522Y-183882778D01*
X129730115Y-184218058D02*
X129794000Y-184218058D01*
D20*
X129794000Y-184218058D02*
X130786660Y-184207940D01*
X130786660Y-184207940D02*
X162687522Y-183882778D01*
X162687522Y-183882778D02*
X173344651Y-173225649D01*
X187601950Y-158455450D02*
X187210790Y-158841350D01*
X177267217Y-168784923D02*
X173344651Y-173225649D01*
X187210790Y-158841350D02*
X177267217Y-168784923D01*
X124307600Y-18551440D02*
X124355860Y-18513340D01*
X93211420Y-17791059D02*
X124307600Y-18551440D01*
X66014840Y-44358800D02*
X68117720Y-42255920D01*
X190339466Y-155930328D02*
X188018146Y-158071545D01*
X188018146Y-158071545D02*
X187601950Y-158455450D01*
D19*
X120784620Y-184033780D02*
X121583820Y-184033780D01*
X121583820Y-184033780D02*
X121667640Y-183949960D01*
X73335141Y-158540738D02*
X73335141Y-158655759D01*
D20*
X129680000Y-180070000D02*
X130635040Y-181932880D01*
X130635040Y-181932880D02*
X130647440Y-181945280D01*
D19*
X129730115Y-184218058D02*
X129730500Y-184262380D01*
X184040738Y-155164859D02*
X184040738Y-155234598D01*
D20*
X184040738Y-155234598D02*
X186192160Y-155849320D01*
X187601950Y-158455450D02*
X187361920Y-158695480D01*
X187361920Y-158611660D02*
X187361920Y-158695480D01*
X186192160Y-155849320D02*
X186275980Y-155849320D01*
D19*
X209714500Y-98833940D02*
X209664300Y-98833940D01*
X209664300Y-98833940D02*
X209714500Y-98833940D01*
X180664859Y-44459262D02*
X180709198Y-44459262D01*
D20*
X180709198Y-44459262D02*
X181127400Y-42100500D01*
X124320000Y-23430000D02*
X124055840Y-21180760D01*
X124055840Y-21180760D02*
X124053600Y-21178520D01*
X124282200Y-19507200D02*
X124355860Y-18513340D01*
D19*
X124355860Y-18513340D02*
X124355860Y-18564860D01*
X124355860Y-18564860D02*
X124355860Y-18513340D01*
X69959262Y-47835141D02*
X69943301Y-47835141D01*
D20*
X109319060Y-89148920D02*
X109319060Y-89433400D01*
X109319060Y-89433400D02*
X109319060Y-94025720D01*
X109319060Y-94025720D02*
X103629460Y-99715320D01*
D19*
X66000000Y-155000000D02*
X66217800Y-155217800D01*
X66217800Y-155217800D02*
X66217800Y-155290520D01*
X66217800Y-155290520D02*
X66217800Y-155217800D01*
X121667640Y-183949960D02*
X122667640Y-183949960D01*
X129730500Y-184262380D02*
X125000000Y-183850900D01*
X125000000Y-183850900D02*
X122667640Y-183949960D01*
X66000000Y-155000000D02*
X66217800Y-155217800D01*
D20*
X46000000Y-67000000D02*
X65078081Y-45418481D01*
X46844720Y-104738800D02*
X46853576Y-104736427D01*
X46853576Y-104736427D02*
X48930000Y-104180000D01*
X46844720Y-104738800D02*
X45664720Y-103558800D01*
X45664720Y-103558800D02*
X46000000Y-67000000D01*
X65078081Y-45418481D02*
X66014840Y-44358800D01*
D19*
X120919100Y-184033780D02*
X120784620Y-184033780D01*
X73335141Y-158540738D02*
X73540738Y-158540738D01*
D20*
X181584098Y-45378501D02*
X182992899Y-45378501D01*
X182992899Y-45378501D02*
X183299100Y-45072300D01*
X124325000Y-25570000D02*
X123677300Y-26627200D01*
X123677300Y-26627200D02*
X123596400Y-26708100D01*
X183375300Y-44996100D02*
X183299100Y-45072300D01*
D19*
X181584098Y-45378501D02*
X181773699Y-45378501D01*
X124325000Y-25570000D02*
X124325000Y-25675000D01*
X124325000Y-25570000D02*
X124325000Y-25525000D01*
D20*
X179155186Y-45976006D02*
X177899594Y-45976006D01*
X177899594Y-45976006D02*
X177393600Y-46482000D01*
D19*
X179155186Y-45976006D02*
X179155186Y-46041214D01*
D20*
X205070000Y-100120000D02*
X206529120Y-101318880D01*
X206529120Y-101318880D02*
X206540100Y-101307900D01*
D19*
X205070000Y-100120000D02*
X205120000Y-100120000D01*
D20*
X129675000Y-177930000D02*
X130010280Y-176416080D01*
X130010280Y-176416080D02*
X129921000Y-176326800D01*
X72324701Y-157621499D02*
X70789800Y-157543500D01*
D19*
X72415902Y-157621499D02*
X72324701Y-157621499D01*
D20*
X201308920Y-97763280D02*
X201279760Y-97734120D01*
X202930000Y-98825000D02*
X201308920Y-97763280D01*
D19*
X183121499Y-156084098D02*
X183121499Y-156146699D01*
D20*
X183121499Y-156146699D02*
X183426100Y-157777180D01*
X70878501Y-46403061D02*
X70878501Y-46915902D01*
X71653400Y-44272200D02*
X70878501Y-46403061D01*
X51070000Y-104175000D02*
X52541880Y-104789680D01*
X52541880Y-104789680D02*
X52638960Y-104886760D01*
D19*
X51070000Y-104175000D02*
X51175000Y-104175000D01*
X51070000Y-104175000D02*
X51070000Y-104230000D01*
X70878501Y-46915902D02*
X70815902Y-46915902D01*
D20*
X182523994Y-153655186D02*
X182523994Y-153186994D01*
X182523994Y-153186994D02*
X182364380Y-152356820D01*
X127625620Y-180915800D02*
X127518160Y-181023260D01*
X128380000Y-180070000D02*
X127625620Y-180915800D01*
D19*
X182523994Y-153655186D02*
X182382586Y-153655186D01*
X182382586Y-153655186D02*
X182364380Y-152356820D01*
D20*
X125620000Y-23430000D02*
X126437880Y-22114020D01*
X126437880Y-22114020D02*
X126492000Y-22059900D01*
X71476006Y-50523994D02*
X70136380Y-51863620D01*
X70136380Y-51863620D02*
X70000000Y-52000000D01*
X71476006Y-49344814D02*
X71476006Y-50523994D01*
D19*
X71476006Y-49344814D02*
X71476006Y-49523994D01*
X125620000Y-23430000D02*
X125620000Y-23380000D01*
D20*
X138973644Y-90503625D02*
X139648227Y-90084525D01*
X139648227Y-90084525D02*
X140529930Y-89202822D01*
D21*
X137708556Y-91309575D02*
X137746656Y-92859944D01*
X137746656Y-92859944D02*
X137439400Y-93167200D01*
X132836920Y-79636620D02*
X134901940Y-79636620D01*
X134901940Y-79636620D02*
X140031192Y-84765872D01*
X140031192Y-84765872D02*
X140031192Y-84952921D01*
X112395000Y-140703300D02*
X112395000Y-150952200D01*
X112395000Y-150952200D02*
X109042200Y-154305000D01*
X76333271Y-153838831D02*
X76198570Y-153838831D01*
X76198570Y-153838831D02*
X73929111Y-156108290D01*
X128470700Y-174993300D02*
X128470700Y-173733500D01*
X128470700Y-173733500D02*
X109042200Y-154305000D01*
X76799440Y-154305000D02*
X76333271Y-153838831D01*
X109042200Y-154305000D02*
X76799440Y-154305000D01*
X128470700Y-174993300D02*
X128470700Y-177839300D01*
X128470700Y-177839300D02*
X128380000Y-177930000D01*
X179375991Y-152383569D02*
X178977369Y-152383569D01*
X178977369Y-152383569D02*
X178841400Y-152247600D01*
X150677920Y-152247600D02*
X128470700Y-174993300D01*
X178841400Y-152247600D02*
X150677920Y-152247600D01*
X179375991Y-152383569D02*
X179420970Y-152383569D01*
X179420970Y-152383569D02*
X181228551Y-154191150D01*
X181228551Y-154191150D02*
X181608290Y-154570889D01*
X199834500Y-100015000D02*
X198389200Y-100015000D01*
X179603400Y-118800800D02*
X179603400Y-152156160D01*
X198389200Y-100015000D02*
X179603400Y-118800800D01*
X179603400Y-152156160D02*
X179375991Y-152383569D01*
X199834500Y-100015000D02*
X199760800Y-100015000D01*
X199760800Y-100015000D02*
X176707800Y-76962000D01*
X176707800Y-50330258D02*
X177920729Y-49117329D01*
X176707800Y-76962000D02*
X176707800Y-50330258D01*
X202930000Y-100120000D02*
X199939500Y-100120000D01*
X199939500Y-100120000D02*
X199834500Y-100015000D01*
X177920729Y-49117329D02*
X177920729Y-49041870D01*
X177920729Y-49041870D02*
X180070889Y-46891710D01*
X125550000Y-28000000D02*
X125550000Y-29233200D01*
X145434129Y-49117329D02*
X177920729Y-49117329D01*
X125550000Y-29233200D02*
X145434129Y-49117329D01*
X125620000Y-25570000D02*
X125620000Y-27930000D01*
X125620000Y-27930000D02*
X125550000Y-28000000D01*
X125550000Y-28000000D02*
X125550000Y-29349360D01*
X75845498Y-51689000D02*
X74828249Y-50671751D01*
X103210360Y-51689000D02*
X75845498Y-51689000D01*
X125550000Y-29349360D02*
X103210360Y-51689000D01*
X74828249Y-50671751D02*
X74828249Y-84734551D01*
X74828249Y-84734551D02*
X56575920Y-102986880D01*
X56575920Y-102986880D02*
X54594760Y-102986880D01*
D19*
X115801168Y-133548759D02*
X116213259Y-133548759D01*
X112395000Y-140703300D02*
X112948936Y-140703300D01*
X202930000Y-100120000D02*
X200430000Y-100120000D01*
X200430000Y-100120000D02*
X199834500Y-100015000D01*
X202930000Y-99470000D02*
X202930000Y-100120000D01*
X179375991Y-152383569D02*
X151121751Y-152828249D01*
X151121751Y-152828249D02*
X128470700Y-174993300D01*
X128470700Y-174993300D02*
X127950000Y-177500000D01*
X127950000Y-177500000D02*
X128380000Y-177930000D01*
X179375991Y-152383569D02*
X179569890Y-152383569D01*
X179569890Y-152383569D02*
X181608290Y-154570889D01*
X180070889Y-47085609D02*
X177920729Y-49117329D01*
X125620000Y-27930000D02*
X125550000Y-28000000D01*
D21*
X52430000Y-102880000D02*
X54594760Y-102986880D01*
X51070000Y-102880000D02*
X52430000Y-102880000D01*
D20*
X51070000Y-103530000D02*
X51070000Y-102880000D01*
D19*
X71932090Y-48888730D02*
X71932091Y-48888730D01*
X71932091Y-48888730D02*
X72391710Y-48429111D01*
X72391710Y-48429111D02*
X72585609Y-48429111D01*
D21*
X72585609Y-48429111D02*
X74828249Y-50671751D01*
D19*
X182000000Y-154000000D02*
X182067910Y-154111270D01*
X181608290Y-154570889D02*
X181608290Y-154391710D01*
X181608290Y-154391710D02*
X182000000Y-154000000D01*
X128380000Y-177930000D02*
X129030000Y-177930000D01*
X74388730Y-156567910D02*
X74388730Y-156567909D01*
X74388730Y-156567909D02*
X73929111Y-156108290D01*
X73929111Y-156108290D02*
X73929111Y-155914391D01*
X73929111Y-155914391D02*
X76333271Y-153838831D01*
X140031192Y-84952921D02*
X140031192Y-84765872D01*
X140031192Y-84765872D02*
X134901940Y-79636620D01*
X179611270Y-46432090D02*
X179611270Y-46611270D01*
X179611270Y-46611270D02*
X180000000Y-47000000D01*
X180070889Y-46891710D02*
X180070889Y-47085609D01*
X180000000Y-47000000D02*
X180070889Y-46891710D01*
D20*
X140160531Y-88493213D02*
X138906593Y-88493213D01*
X138906593Y-88493213D02*
X138142380Y-89257426D01*
X139791132Y-87783605D02*
X139791132Y-88123814D01*
X139791132Y-88123814D02*
X140160531Y-88493213D01*
X138168158Y-89302989D02*
X138408011Y-89302989D01*
X139791132Y-87783605D02*
X139508295Y-87783605D01*
X86773300Y-99650000D02*
X88500000Y-99650000D01*
X88500000Y-99650000D02*
X87100960Y-99650000D01*
X87100960Y-99650000D02*
X86773300Y-99650000D01*
X75885040Y-99522280D02*
X75885040Y-99745800D01*
X85664040Y-101086920D02*
X87100960Y-99650000D01*
X77226160Y-101086920D02*
X85664040Y-101086920D01*
X75885040Y-99745800D02*
X77226160Y-101086920D01*
X63423800Y-99522280D02*
X75885040Y-99522280D01*
X63525760Y-99624240D02*
X63500000Y-99650000D01*
X63423800Y-99522280D02*
X63525760Y-99624240D01*
X75885040Y-99522280D02*
X76000000Y-99637240D01*
X76000000Y-99637240D02*
X76000000Y-99650000D01*
X86773300Y-99650000D02*
X85521800Y-100901500D01*
X85521800Y-100901500D02*
X77251500Y-100901500D01*
X77251500Y-100901500D02*
X76000000Y-99650000D01*
D19*
X140400591Y-85662529D02*
X140595591Y-85662529D01*
D20*
X140595591Y-85662529D02*
X142829280Y-83428840D01*
X85807000Y-77343000D02*
X63500000Y-99650000D01*
X100012500Y-77343000D02*
X85807000Y-77343000D01*
X108458000Y-68897500D02*
X100012500Y-77343000D01*
X128744980Y-68897500D02*
X108458000Y-68897500D01*
X142829280Y-82981800D02*
X128744980Y-68897500D01*
X142829280Y-83428840D02*
X142829280Y-82981800D01*
D19*
X140400591Y-85662529D02*
X140676871Y-85662529D01*
D20*
X63500000Y-99650000D02*
X76000000Y-99650000D01*
X84159608Y-55996088D02*
X84159608Y-56043312D01*
X83428840Y-55265320D02*
X84159608Y-55996088D01*
X92308148Y-64191852D02*
X101308148Y-73191852D01*
X83308148Y-55191852D02*
X84159608Y-56043312D01*
X84159608Y-56043312D02*
X92308148Y-64191852D01*
X140769990Y-86372138D02*
X140965312Y-86372138D01*
X140965312Y-86372138D02*
X143723360Y-83614090D01*
X128663700Y-67000120D02*
X107499880Y-67000120D01*
X143723360Y-82059780D02*
X128663700Y-67000120D01*
X143723360Y-83614090D02*
X143723360Y-82059780D01*
X107499880Y-67000120D02*
X101308148Y-73191852D01*
D19*
X140769990Y-86372138D02*
X140891822Y-86372138D01*
X140891822Y-86372138D02*
X142214600Y-85049360D01*
X140891822Y-86372138D02*
X142214600Y-85049360D01*
X142214600Y-85049360D02*
X143555720Y-83708240D01*
X143555720Y-83708240D02*
X143555720Y-82087720D01*
X128468120Y-67000120D02*
X107499880Y-67000120D01*
X107499880Y-67000120D02*
X101308148Y-73191852D01*
D20*
X128850000Y-63000000D02*
X128859280Y-62990720D01*
X128859280Y-60685680D02*
X128850000Y-60685680D01*
X128859280Y-62990720D02*
X128859280Y-60685680D01*
X128850000Y-38000000D02*
X128850000Y-50500000D01*
X128850000Y-63079240D02*
X128850000Y-63000000D01*
X144617440Y-78846680D02*
X128850000Y-63079240D01*
X144617440Y-83568540D02*
X144617440Y-78846680D01*
X128850000Y-50500000D02*
X128850000Y-60685680D01*
X128850000Y-60685680D02*
X128850000Y-63000000D01*
X141139389Y-87081747D02*
X141139389Y-87046591D01*
X141139389Y-87046591D02*
X144617440Y-83568540D01*
X144617440Y-83568540D02*
X144645380Y-83540600D01*
X155299528Y-75799528D02*
X155281900Y-75781900D01*
X155299528Y-75799528D02*
X155316768Y-75799528D01*
X155308148Y-75808148D02*
X155316768Y-75799528D01*
X173308148Y-57808148D02*
X173282188Y-57834108D01*
X173282188Y-57834108D02*
X173308148Y-57808148D01*
X164308148Y-66808148D02*
X155308148Y-75808148D01*
X153491995Y-75808148D02*
X141508788Y-87791355D01*
X155308148Y-75808148D02*
X153491995Y-75808148D01*
X173308148Y-57808148D02*
X164308148Y-66808148D01*
D19*
X165500000Y-103350000D02*
X165516560Y-103350000D01*
X165516560Y-103350000D02*
X165500000Y-103350000D01*
D20*
X190500000Y-103350000D02*
X190494920Y-103350000D01*
X190494920Y-103350000D02*
X190500000Y-103350000D01*
X178000000Y-103350000D02*
X165500000Y-103350000D01*
X143653391Y-86725760D02*
X141878187Y-88500964D01*
X148626830Y-89338150D02*
X146014440Y-86725760D01*
X162638680Y-103350000D02*
X148626830Y-89338150D01*
X165500000Y-103350000D02*
X162638680Y-103350000D01*
X146014440Y-86725760D02*
X143653391Y-86725760D01*
X190500000Y-103350000D02*
X178000000Y-103350000D01*
X153209412Y-130325708D02*
X153209412Y-130298612D01*
X153209412Y-130298612D02*
X153205400Y-130294600D01*
X162191852Y-139308148D02*
X171174832Y-148291128D01*
D19*
X171208872Y-148291128D02*
X171233340Y-148266660D01*
X171174832Y-148291128D02*
X171208872Y-148291128D01*
D20*
X153191852Y-130308148D02*
X153209412Y-130325708D01*
X153209412Y-130325708D02*
X162191852Y-139308148D01*
X142247585Y-89210573D02*
X142439967Y-89210573D01*
X142439967Y-89210573D02*
X142996920Y-88653620D01*
X153191852Y-97870652D02*
X153191852Y-130308148D01*
X143974820Y-88653620D02*
X153191852Y-97870652D01*
X142996920Y-88653620D02*
X143974820Y-88653620D01*
D19*
X153191852Y-98541212D02*
X153024212Y-98541212D01*
X153191852Y-98541212D02*
X153191852Y-130308148D01*
X125150000Y-165000000D02*
X125219520Y-165069520D01*
X125219520Y-165069520D02*
X126177040Y-165069520D01*
D20*
X125150000Y-140147040D02*
X125150000Y-152500000D01*
X125171200Y-140147040D02*
X125150000Y-140147040D01*
X125150000Y-152500000D02*
X125150000Y-165000000D01*
X125150000Y-140000000D02*
X125150000Y-152500000D01*
X142616984Y-89920181D02*
X142950301Y-89920181D01*
X142950301Y-89920181D02*
X151485600Y-98455480D01*
X131465040Y-140000000D02*
X125150000Y-140000000D01*
X151485600Y-119979440D02*
X131465040Y-140000000D01*
X151485600Y-98455480D02*
X151485600Y-119979440D01*
D19*
X142616984Y-89920181D02*
X143145881Y-89920181D01*
X151485600Y-99860100D02*
X151396700Y-99860100D01*
X151485600Y-98259900D02*
X151485600Y-99860100D01*
X143145881Y-89920181D02*
X151485600Y-98259900D01*
X151396700Y-119926100D02*
X151396700Y-99860100D01*
X151396700Y-119926100D02*
X144640300Y-126682500D01*
X125150000Y-140000000D02*
X131322800Y-140000000D01*
X131322800Y-140000000D02*
X144640300Y-126682500D01*
X144640300Y-126682500D02*
X144907000Y-126415800D01*
D20*
X80699092Y-145184612D02*
X89691852Y-136191852D01*
X80578960Y-145064480D02*
X80699092Y-145184612D01*
X89691852Y-136191852D02*
X98691852Y-127191852D01*
X80691852Y-145191852D02*
X89691852Y-136191852D01*
X98691852Y-127191852D02*
X109155300Y-137655300D01*
X109155300Y-137655300D02*
X132054600Y-137655300D01*
X132054600Y-137655300D02*
X150075900Y-119634000D01*
X150075900Y-119634000D02*
X150075900Y-103695500D01*
X150075900Y-103695500D02*
X140398500Y-92951300D01*
X140398500Y-92951300D02*
X140398500Y-90413260D01*
X140398500Y-90413260D02*
X140899329Y-89912431D01*
D19*
X140899329Y-89912431D02*
X140821169Y-89912431D01*
X132054600Y-137655300D02*
X109155300Y-137655300D01*
X150075900Y-119634000D02*
X132054600Y-137655300D01*
X140899329Y-89912431D02*
X140859269Y-89912431D01*
D20*
X138120120Y-87668100D02*
X138737340Y-87668100D01*
X138737340Y-87668100D02*
X138836400Y-87569040D01*
X139421733Y-87073996D02*
X139331444Y-87073996D01*
X139331444Y-87073996D02*
X138836400Y-87569040D01*
X138455400Y-87668100D02*
X138120120Y-87668100D01*
X138120120Y-87668100D02*
X137045700Y-87668100D01*
X137045700Y-87668100D02*
X134073900Y-90106500D01*
X134073900Y-90106500D02*
X134073900Y-107195888D01*
X134073900Y-107195888D02*
X143917424Y-116048812D01*
D19*
X143917424Y-116048812D02*
X143917424Y-115865664D01*
D20*
X138682936Y-85654779D02*
X138682936Y-85647736D01*
X138682936Y-85647736D02*
X137845800Y-84810600D01*
X137845800Y-84810600D02*
X136817100Y-84810600D01*
X136817100Y-84810600D02*
X136817100Y-84930879D01*
X137768536Y-84930879D02*
X137356479Y-84930879D01*
X137356479Y-84930879D02*
X136817100Y-84930879D01*
X136817100Y-84930879D02*
X130346079Y-84930879D01*
X129780558Y-109168458D02*
X139006595Y-118394495D01*
X129780558Y-87134700D02*
X129780558Y-109168458D01*
X130346079Y-84930879D02*
X129780558Y-87134700D01*
X139006595Y-118394495D02*
X139411409Y-118394495D01*
X132892800Y-89877900D02*
X132892800Y-108204000D01*
X132892800Y-108204000D02*
X132873750Y-108223050D01*
X132873750Y-108223050D02*
X141664416Y-117013716D01*
X141664416Y-117013716D02*
X141664416Y-117221653D01*
X139052335Y-86364387D02*
X138910583Y-86364387D01*
X138910583Y-86364387D02*
X138483170Y-86791800D01*
X135978900Y-86791800D02*
X132892800Y-89877900D01*
X138483170Y-86791800D02*
X135978900Y-86791800D01*
X112058450Y-87877650D02*
X112052100Y-87884000D01*
X112052100Y-87884000D02*
X112052100Y-96774000D01*
X112052100Y-96774000D02*
X112776000Y-97497900D01*
X112776000Y-97497900D02*
X112890300Y-97497900D01*
D19*
X83832700Y-158153100D02*
X83832700Y-158153100D01*
D20*
X83847940Y-158224220D02*
X83832700Y-158153100D01*
X74844814Y-157023994D02*
X83847940Y-158224220D01*
D19*
X74844814Y-157023994D02*
X75023994Y-157023994D01*
D22*
G36*
X161822682Y-17430610D02*
X191343925Y-37156075D01*
X211069390Y-66677318D01*
X217996052Y-101500000D01*
X211069390Y-136322682D01*
X191343925Y-165843925D01*
X161822682Y-185569390D01*
X127000000Y-192496052D01*
X92177318Y-185569390D01*
X62656075Y-165843925D01*
X52773909Y-151054218D01*
X67746201Y-151054218D01*
X67746201Y-151278724D01*
X68311356Y-151843879D01*
X68735239Y-151419996D01*
X74318548Y-151419996D01*
X74318548Y-151644503D01*
X74989769Y-152315724D01*
X75501891Y-151803602D01*
X75501891Y-151579095D01*
X75190369Y-151267573D01*
X74956980Y-151170900D01*
X74704361Y-151170900D01*
X74470972Y-151267572D01*
X74318548Y-151419996D01*
X68735239Y-151419996D01*
X68736504Y-151418731D01*
X68736504Y-151194225D01*
X68531047Y-150988768D01*
X68297658Y-150892095D01*
X68045039Y-150892096D01*
X67811650Y-150988768D01*
X67746201Y-151054218D01*
X52773909Y-151054218D01*
X42930610Y-136322682D01*
X36003948Y-101500000D01*
X42930610Y-66677318D01*
X62656075Y-37156075D01*
X90894109Y-18288023D01*
X67527286Y-41654846D01*
X67505861Y-41686911D01*
X65424406Y-43768366D01*
X65409948Y-43790004D01*
X65389237Y-43805766D01*
X64452478Y-44865447D01*
X64452476Y-44865450D01*
X45374397Y-66446967D01*
X45306962Y-66562708D01*
X45231524Y-66673398D01*
X45225425Y-66702652D01*
X45210382Y-66728472D01*
X45192372Y-66861209D01*
X45165035Y-66992343D01*
X44829755Y-103551143D01*
X44830481Y-103554975D01*
X44829720Y-103558800D01*
X44860763Y-103714865D01*
X44890383Y-103871253D01*
X44892520Y-103874516D01*
X44893281Y-103878340D01*
X44981666Y-104010618D01*
X45068896Y-104143795D01*
X45072120Y-104145992D01*
X45074286Y-104149234D01*
X46124762Y-105199710D01*
X46245304Y-105380114D01*
X46263142Y-105406810D01*
X47860066Y-107003734D01*
X48130960Y-107184740D01*
X48450500Y-107248300D01*
X96931480Y-107248300D01*
X97251021Y-107184739D01*
X97521914Y-107003734D01*
X104219894Y-100305754D01*
X109909494Y-94616155D01*
X110002682Y-94476688D01*
X110090499Y-94345261D01*
X110154060Y-94025720D01*
X110154060Y-89148920D01*
X110143521Y-89095935D01*
X110143732Y-88853263D01*
X110001687Y-88509487D01*
X109738897Y-88246238D01*
X109395369Y-88103592D01*
X109023403Y-88103268D01*
X108679627Y-88245313D01*
X108416378Y-88508103D01*
X108273732Y-88851631D01*
X108273408Y-89223597D01*
X108415453Y-89567373D01*
X108484060Y-89636100D01*
X108484060Y-93679851D01*
X103039026Y-99124886D01*
X96585612Y-105578300D01*
X53269657Y-105578300D01*
X53431152Y-105417087D01*
X53573798Y-105073559D01*
X53574122Y-104701593D01*
X53432077Y-104357817D01*
X53169287Y-104094568D01*
X53055352Y-104047258D01*
X53824314Y-104085223D01*
X53967870Y-104183311D01*
X54219760Y-104234320D01*
X54969760Y-104234320D01*
X55205077Y-104190042D01*
X55311004Y-104121880D01*
X56575920Y-104121880D01*
X57010266Y-104035483D01*
X57378486Y-103789446D01*
X61460485Y-99707447D01*
X62488638Y-99707447D01*
X62630683Y-100051223D01*
X62893473Y-100314472D01*
X63237001Y-100457118D01*
X63360369Y-100457225D01*
X63500000Y-100485000D01*
X75443372Y-100485000D01*
X76635726Y-101677354D01*
X76906619Y-101858359D01*
X77226160Y-101921920D01*
X85664040Y-101921920D01*
X85983581Y-101858359D01*
X86254474Y-101677354D01*
X87446828Y-100485000D01*
X88072766Y-100485000D01*
X88313201Y-100584838D01*
X88685167Y-100585162D01*
X89028943Y-100443117D01*
X89292192Y-100180327D01*
X89434838Y-99836799D01*
X89435162Y-99464833D01*
X89293117Y-99121057D01*
X89030327Y-98857808D01*
X88686799Y-98715162D01*
X88314833Y-98714838D01*
X88072422Y-98815000D01*
X86773300Y-98815000D01*
X86453759Y-98878561D01*
X86221419Y-99033806D01*
X86182866Y-99059566D01*
X85175932Y-100066500D01*
X77597368Y-100066500D01*
X76786559Y-99255691D01*
X76678157Y-98993337D01*
X76415367Y-98730088D01*
X76071839Y-98587442D01*
X75699873Y-98587118D01*
X75457462Y-98687280D01*
X65643588Y-98687280D01*
X66250192Y-98080676D01*
X78473869Y-98080676D01*
X78705548Y-98641380D01*
X79134163Y-99070744D01*
X79694462Y-99303400D01*
X80301145Y-99303930D01*
X80861849Y-99072251D01*
X81291213Y-98643636D01*
X81523869Y-98083337D01*
X81524399Y-97476654D01*
X81292720Y-96915950D01*
X80864105Y-96486586D01*
X80303806Y-96253930D01*
X79697123Y-96253400D01*
X79136419Y-96485079D01*
X78707055Y-96913694D01*
X78474399Y-97473993D01*
X78473869Y-98080676D01*
X66250192Y-98080676D01*
X68095914Y-96234954D01*
X81714371Y-96234954D01*
X81871043Y-96772497D01*
X81897006Y-96822371D01*
X82247461Y-97259040D01*
X82738345Y-97528356D01*
X83144860Y-97572881D01*
X82948175Y-97931381D01*
X82887212Y-98487961D01*
X83043884Y-99025504D01*
X83069847Y-99075378D01*
X83420302Y-99512047D01*
X83911186Y-99781363D01*
X84467766Y-99842325D01*
X85005309Y-99685653D01*
X85441978Y-99335197D01*
X85711293Y-98844313D01*
X85761329Y-98387496D01*
X86164194Y-98608522D01*
X86720774Y-98669484D01*
X87258317Y-98512812D01*
X87694986Y-98162356D01*
X87964301Y-97671472D01*
X88014337Y-97214655D01*
X88417201Y-97435680D01*
X88973781Y-97496642D01*
X89511324Y-97339970D01*
X89947993Y-96989514D01*
X90217308Y-96498630D01*
X90267344Y-96041813D01*
X90670209Y-96262839D01*
X91226789Y-96323801D01*
X91764332Y-96167129D01*
X92201001Y-95816673D01*
X92470316Y-95325789D01*
X92520352Y-94868972D01*
X92923216Y-95089997D01*
X93479796Y-95150959D01*
X94017339Y-94994287D01*
X94454008Y-94643831D01*
X94723323Y-94152947D01*
X94773359Y-93696130D01*
X95176224Y-93917156D01*
X95732804Y-93978118D01*
X96270347Y-93821446D01*
X96707016Y-93470990D01*
X96976331Y-92980106D01*
X97026367Y-92523289D01*
X97429231Y-92744314D01*
X97985811Y-92805276D01*
X98523354Y-92648604D01*
X98960023Y-92298148D01*
X99229338Y-91807264D01*
X99279374Y-91350447D01*
X99682239Y-91571473D01*
X100238819Y-91632435D01*
X100776362Y-91475763D01*
X101213031Y-91125307D01*
X101482346Y-90634423D01*
X101532382Y-90177605D01*
X101935247Y-90398631D01*
X102491827Y-90459593D01*
X103029370Y-90302921D01*
X103466039Y-89952465D01*
X103735354Y-89461581D01*
X103785390Y-89004765D01*
X104188254Y-89225790D01*
X104744834Y-89286752D01*
X105282377Y-89130080D01*
X105719046Y-88779624D01*
X105988361Y-88288740D01*
X106013106Y-88062817D01*
X111123288Y-88062817D01*
X111217100Y-88289860D01*
X111217100Y-96774000D01*
X111280661Y-97093541D01*
X111433194Y-97321822D01*
X111461666Y-97364434D01*
X112078248Y-97981016D01*
X112097183Y-98026843D01*
X112359973Y-98290092D01*
X112703501Y-98432738D01*
X113075467Y-98433062D01*
X113419243Y-98291017D01*
X113682492Y-98028227D01*
X113825138Y-97684699D01*
X113825462Y-97312733D01*
X113683417Y-96968957D01*
X113420627Y-96705708D01*
X113077099Y-96563062D01*
X113021982Y-96563014D01*
X112887100Y-96428132D01*
X112887100Y-88320177D01*
X112993288Y-88064449D01*
X112993612Y-87692483D01*
X112851567Y-87348707D01*
X112588777Y-87085458D01*
X112245249Y-86942812D01*
X111873283Y-86942488D01*
X111529507Y-87084533D01*
X111266258Y-87347323D01*
X111123612Y-87690851D01*
X111123288Y-88062817D01*
X106013106Y-88062817D01*
X106049324Y-87732160D01*
X105892652Y-87194617D01*
X105866690Y-87144743D01*
X105516234Y-86708074D01*
X105025350Y-86438759D01*
X104618835Y-86394233D01*
X104815520Y-86035732D01*
X104876483Y-85479152D01*
X104719811Y-84941609D01*
X104693849Y-84891735D01*
X104343393Y-84455066D01*
X103852509Y-84185751D01*
X103295929Y-84124788D01*
X102758386Y-84281460D01*
X102321717Y-84631916D01*
X102052402Y-85122800D01*
X102002366Y-85579618D01*
X101599501Y-85358593D01*
X101042921Y-85297630D01*
X100505378Y-85454302D01*
X100068709Y-85804758D01*
X99799394Y-86295642D01*
X99749358Y-86752458D01*
X99346494Y-86531434D01*
X98789914Y-86470471D01*
X98252371Y-86627143D01*
X97815702Y-86977599D01*
X97546387Y-87468483D01*
X97496351Y-87925301D01*
X97093486Y-87704276D01*
X96536906Y-87643313D01*
X95999363Y-87799985D01*
X95562694Y-88150441D01*
X95293379Y-88641325D01*
X95243343Y-89098142D01*
X94840478Y-88877117D01*
X94283898Y-88816154D01*
X93746355Y-88972826D01*
X93309686Y-89323282D01*
X93040371Y-89814166D01*
X92990335Y-90270983D01*
X92587471Y-90049959D01*
X92030891Y-89988996D01*
X91493348Y-90145668D01*
X91056679Y-90496124D01*
X90787364Y-90987008D01*
X90737328Y-91443825D01*
X90334463Y-91222800D01*
X89777883Y-91161837D01*
X89240340Y-91318509D01*
X88803671Y-91668965D01*
X88534356Y-92159849D01*
X88484320Y-92616666D01*
X88081456Y-92395642D01*
X87524876Y-92334679D01*
X86987333Y-92491351D01*
X86550664Y-92841807D01*
X86281349Y-93332691D01*
X86231313Y-93789508D01*
X85828448Y-93568483D01*
X85271868Y-93507520D01*
X84734325Y-93664192D01*
X84297656Y-94014648D01*
X84028341Y-94505532D01*
X83978305Y-94962349D01*
X83575441Y-94741325D01*
X83018861Y-94680362D01*
X82481318Y-94837034D01*
X82044649Y-95187490D01*
X81775334Y-95678374D01*
X81714371Y-96234954D01*
X68095914Y-96234954D01*
X80526187Y-83804681D01*
X105592703Y-83804681D01*
X105749375Y-84342224D01*
X105775338Y-84392098D01*
X106125793Y-84828767D01*
X106616677Y-85098083D01*
X107023192Y-85142608D01*
X106826507Y-85501108D01*
X106765544Y-86057688D01*
X106922216Y-86595231D01*
X106948179Y-86645105D01*
X107298634Y-87081774D01*
X107789518Y-87351090D01*
X108346098Y-87412052D01*
X108883641Y-87255380D01*
X109320310Y-86904924D01*
X109589625Y-86414040D01*
X109639661Y-85957223D01*
X110042526Y-86178249D01*
X110599106Y-86239211D01*
X111136649Y-86082539D01*
X111573318Y-85732083D01*
X111842633Y-85241199D01*
X111892669Y-84784382D01*
X112295533Y-85005407D01*
X112852113Y-85066369D01*
X113389656Y-84909697D01*
X113826325Y-84559241D01*
X114095640Y-84068357D01*
X114145676Y-83611540D01*
X114548541Y-83832566D01*
X115105121Y-83893528D01*
X115642664Y-83736856D01*
X116079333Y-83386400D01*
X116348648Y-82895516D01*
X116398684Y-82438699D01*
X116801548Y-82659724D01*
X117358128Y-82720686D01*
X117895671Y-82564014D01*
X118332340Y-82213558D01*
X118601655Y-81722674D01*
X118651691Y-81265857D01*
X119054556Y-81486883D01*
X119611136Y-81547845D01*
X120148679Y-81391173D01*
X120585348Y-81040717D01*
X120854663Y-80549833D01*
X120904699Y-80093016D01*
X121307563Y-80314041D01*
X121864143Y-80375003D01*
X122401686Y-80218331D01*
X122838355Y-79867875D01*
X123107670Y-79376991D01*
X123157706Y-78920174D01*
X123560571Y-79141200D01*
X124117151Y-79202162D01*
X124654694Y-79045490D01*
X125091363Y-78695034D01*
X125360678Y-78204150D01*
X125421641Y-77647570D01*
X125264969Y-77110027D01*
X125239007Y-77060153D01*
X124888551Y-76623484D01*
X124397667Y-76354169D01*
X123991151Y-76309643D01*
X124187836Y-75951143D01*
X124248799Y-75394563D01*
X124092127Y-74857020D01*
X124066165Y-74807146D01*
X123715709Y-74370477D01*
X123224825Y-74101162D01*
X122668245Y-74040199D01*
X122130702Y-74196871D01*
X121694033Y-74547327D01*
X121424718Y-75038211D01*
X121374682Y-75495027D01*
X120971818Y-75274003D01*
X120415238Y-75213040D01*
X119877695Y-75369712D01*
X119441026Y-75720168D01*
X119171711Y-76211052D01*
X119121675Y-76667869D01*
X118718810Y-76446844D01*
X118162230Y-76385881D01*
X117624687Y-76542553D01*
X117188018Y-76893009D01*
X116918703Y-77383893D01*
X116868667Y-77840710D01*
X116465803Y-77619686D01*
X115909223Y-77558723D01*
X115371680Y-77715395D01*
X114935011Y-78065851D01*
X114665696Y-78556735D01*
X114615660Y-79013552D01*
X114212795Y-78792527D01*
X113656215Y-78731564D01*
X113118672Y-78888236D01*
X112682003Y-79238692D01*
X112412688Y-79729576D01*
X112362652Y-80186393D01*
X111959788Y-79965369D01*
X111403208Y-79904406D01*
X110865665Y-80061078D01*
X110428996Y-80411534D01*
X110159681Y-80902418D01*
X110109645Y-81359235D01*
X109706780Y-81138210D01*
X109150200Y-81077247D01*
X108612657Y-81233919D01*
X108175988Y-81584375D01*
X107906673Y-82075259D01*
X107856637Y-82532076D01*
X107453773Y-82311052D01*
X106897193Y-82250089D01*
X106359650Y-82406761D01*
X105922981Y-82757217D01*
X105653666Y-83248101D01*
X105592703Y-83804681D01*
X80526187Y-83804681D01*
X86152868Y-78178000D01*
X100012500Y-78178000D01*
X100332041Y-78114439D01*
X100602934Y-77933434D01*
X108803868Y-69732500D01*
X128399112Y-69732500D01*
X141871932Y-83205320D01*
X140945986Y-84131266D01*
X140833758Y-83963306D01*
X135704506Y-78834054D01*
X135646897Y-78795561D01*
X135336286Y-78588017D01*
X134901940Y-78501620D01*
X134366917Y-78501620D01*
X133905899Y-78039798D01*
X133213451Y-77752268D01*
X132463679Y-77751614D01*
X131770729Y-78037934D01*
X131240098Y-78567641D01*
X130952568Y-79260089D01*
X130951914Y-80009861D01*
X131238234Y-80702811D01*
X131767941Y-81233442D01*
X132460389Y-81520972D01*
X133210161Y-81521626D01*
X133903111Y-81235306D01*
X134367606Y-80771620D01*
X134431808Y-80771620D01*
X137635788Y-83975600D01*
X136817100Y-83975600D01*
X136497559Y-84039161D01*
X136412675Y-84095879D01*
X130346079Y-84095879D01*
X130287721Y-84107487D01*
X130228312Y-84104226D01*
X130129384Y-84138983D01*
X130026538Y-84159440D01*
X129977064Y-84192497D01*
X129920930Y-84212219D01*
X129842833Y-84282188D01*
X129755645Y-84340445D01*
X129722588Y-84389918D01*
X129678274Y-84429620D01*
X129632897Y-84524151D01*
X129574640Y-84611338D01*
X129563032Y-84669694D01*
X129537283Y-84723335D01*
X128971762Y-86927156D01*
X128966015Y-87031858D01*
X128945558Y-87134700D01*
X128945558Y-109168458D01*
X129009119Y-109487999D01*
X129190124Y-109758892D01*
X137639213Y-118207981D01*
X137576949Y-118173821D01*
X137020369Y-118112858D01*
X136482826Y-118269530D01*
X136046157Y-118619986D01*
X135776842Y-119110870D01*
X135726806Y-119567687D01*
X135323942Y-119346663D01*
X134767362Y-119285700D01*
X134229819Y-119442372D01*
X133793150Y-119792828D01*
X133523835Y-120283712D01*
X133473799Y-120740529D01*
X133070934Y-120519504D01*
X132514354Y-120458541D01*
X131976811Y-120615213D01*
X131540142Y-120965669D01*
X131270827Y-121456553D01*
X131209864Y-122013133D01*
X131366536Y-122550676D01*
X131392499Y-122600550D01*
X131742954Y-123037219D01*
X132233838Y-123306535D01*
X132640354Y-123351061D01*
X132443669Y-123709561D01*
X132382706Y-124266141D01*
X132539378Y-124803684D01*
X132565341Y-124853558D01*
X132915796Y-125290227D01*
X133406680Y-125559543D01*
X133963260Y-125620505D01*
X134500803Y-125463833D01*
X134937472Y-125113377D01*
X135206787Y-124622493D01*
X135256823Y-124165676D01*
X135659687Y-124386701D01*
X136216267Y-124447663D01*
X136753810Y-124290991D01*
X137190479Y-123940535D01*
X137459794Y-123449651D01*
X137509830Y-122992834D01*
X137912695Y-123213860D01*
X138469275Y-123274822D01*
X139006818Y-123118150D01*
X139443487Y-122767694D01*
X139712802Y-122276810D01*
X139762838Y-121819993D01*
X140165702Y-122041018D01*
X140722282Y-122101980D01*
X141259825Y-121945308D01*
X141696494Y-121594852D01*
X141965809Y-121103968D01*
X142015845Y-120647151D01*
X142418710Y-120868177D01*
X142975290Y-120929139D01*
X143512833Y-120772467D01*
X143949502Y-120422011D01*
X144218817Y-119931127D01*
X144268853Y-119474310D01*
X144671717Y-119695335D01*
X145228297Y-119756297D01*
X145765840Y-119599625D01*
X146202509Y-119249169D01*
X146471824Y-118758285D01*
X146532787Y-118201705D01*
X146376115Y-117664162D01*
X146350153Y-117614288D01*
X145999697Y-117177619D01*
X145508813Y-116908304D01*
X145102298Y-116863778D01*
X145298983Y-116505278D01*
X145359946Y-115948698D01*
X145203274Y-115411155D01*
X145177312Y-115361281D01*
X144826856Y-114924612D01*
X144335972Y-114655297D01*
X143779392Y-114594334D01*
X143605299Y-114645075D01*
X141692728Y-112924974D01*
X143472325Y-112924974D01*
X143704004Y-113485678D01*
X144132619Y-113915042D01*
X144692918Y-114147698D01*
X145299601Y-114148228D01*
X145860305Y-113916549D01*
X146289669Y-113487934D01*
X146522325Y-112927635D01*
X146522855Y-112320952D01*
X146291176Y-111760248D01*
X145862561Y-111330884D01*
X145302262Y-111098228D01*
X144695579Y-111097698D01*
X144134875Y-111329377D01*
X143705511Y-111757992D01*
X143472855Y-112318291D01*
X143472325Y-112924974D01*
X141692728Y-112924974D01*
X134908900Y-106823834D01*
X134908900Y-90501476D01*
X135772921Y-89792536D01*
X135807712Y-90012200D01*
X135939705Y-90227593D01*
X135959529Y-90259943D01*
X136177833Y-90312353D01*
X136690483Y-89998201D01*
X136680033Y-89981148D01*
X136893193Y-89850524D01*
X136903643Y-89867576D01*
X136922401Y-89856081D01*
X137055115Y-90072652D01*
X137036357Y-90084147D01*
X137046807Y-90101200D01*
X136833647Y-90231824D01*
X136823197Y-90214772D01*
X136310547Y-90528924D01*
X136258137Y-90747227D01*
X136277962Y-90779577D01*
X136409955Y-90994970D01*
X136608314Y-91139088D01*
X136573899Y-91337459D01*
X136577503Y-91484102D01*
X136373209Y-91568514D01*
X135842578Y-92098221D01*
X135555048Y-92790669D01*
X135554394Y-93540441D01*
X135840714Y-94233391D01*
X136370421Y-94764022D01*
X137062869Y-95051552D01*
X137812641Y-95052206D01*
X138505591Y-94765886D01*
X139036222Y-94236179D01*
X139323752Y-93543731D01*
X139324406Y-92793959D01*
X139038086Y-92101009D01*
X138858937Y-91921548D01*
X138852164Y-91645929D01*
X138855731Y-91647573D01*
X139112601Y-91655841D01*
X139352450Y-91563521D01*
X139563500Y-91429067D01*
X139563500Y-92951300D01*
X139591109Y-93090099D01*
X139611441Y-93230161D01*
X139622748Y-93249160D01*
X139627061Y-93270841D01*
X139705683Y-93388507D01*
X139778068Y-93510129D01*
X149240900Y-104016107D01*
X149240900Y-119288132D01*
X131708732Y-136820300D01*
X109501168Y-136820300D01*
X104566169Y-131885301D01*
X110727210Y-131885301D01*
X110754306Y-132140872D01*
X111235435Y-133666819D01*
X111348425Y-133877930D01*
X111546050Y-134042231D01*
X111792028Y-134116701D01*
X111910392Y-134104152D01*
X111900051Y-134138309D01*
X111927147Y-134393880D01*
X112408276Y-135919827D01*
X112521266Y-136130938D01*
X112718891Y-136295239D01*
X112964869Y-136369709D01*
X113220440Y-136342613D01*
X114746387Y-135861484D01*
X114957498Y-135748494D01*
X115121799Y-135550869D01*
X115196269Y-135304891D01*
X115169173Y-135049320D01*
X115083716Y-134778286D01*
X115382620Y-134942275D01*
X115939200Y-135003237D01*
X116476743Y-134846565D01*
X116913412Y-134496109D01*
X117182727Y-134005225D01*
X117232763Y-133548408D01*
X117635627Y-133769433D01*
X118192207Y-133830395D01*
X118729750Y-133673723D01*
X119166419Y-133323267D01*
X119435734Y-132832383D01*
X119485770Y-132375566D01*
X119888635Y-132596592D01*
X120445215Y-132657554D01*
X120982758Y-132500882D01*
X121419427Y-132150426D01*
X121688742Y-131659542D01*
X121738778Y-131202725D01*
X122141642Y-131423750D01*
X122698222Y-131484712D01*
X123235765Y-131328040D01*
X123672434Y-130977584D01*
X123941749Y-130486700D01*
X123994721Y-130003072D01*
X124185873Y-130148020D01*
X124727527Y-130289844D01*
X125146306Y-130253195D01*
X125286929Y-130042463D01*
X124759190Y-129028685D01*
X124741449Y-129037920D01*
X124675588Y-128911401D01*
X124984490Y-128911401D01*
X125512230Y-129925179D01*
X125765509Y-129930859D01*
X126035732Y-129608836D01*
X126230236Y-129083792D01*
X126219814Y-128809063D01*
X126438880Y-128975178D01*
X126980534Y-129117002D01*
X127399313Y-129080353D01*
X127539936Y-128869621D01*
X127012197Y-127855843D01*
X125997785Y-128383913D01*
X124984490Y-128911401D01*
X124675588Y-128911401D01*
X124624165Y-128812620D01*
X124641906Y-128803385D01*
X124632671Y-128785644D01*
X124857971Y-128668360D01*
X124867206Y-128686101D01*
X125881618Y-128158031D01*
X126894913Y-127630543D01*
X126885678Y-127612802D01*
X127110978Y-127495518D01*
X127120213Y-127513259D01*
X127137954Y-127504024D01*
X127255238Y-127729324D01*
X127237497Y-127738559D01*
X127765237Y-128752337D01*
X128018516Y-128758017D01*
X128288739Y-128435994D01*
X128483243Y-127910950D01*
X128474149Y-127671224D01*
X128900665Y-127905226D01*
X129457245Y-127966188D01*
X129994788Y-127809516D01*
X130431457Y-127459060D01*
X130700772Y-126968176D01*
X130761735Y-126411596D01*
X130605063Y-125874053D01*
X130579101Y-125824179D01*
X130228645Y-125387510D01*
X129737761Y-125118195D01*
X129331245Y-125073669D01*
X129527930Y-124715168D01*
X129588893Y-124158588D01*
X129432221Y-123621045D01*
X129406259Y-123571171D01*
X129055803Y-123134502D01*
X128564919Y-122865187D01*
X128008339Y-122804224D01*
X127470796Y-122960896D01*
X127034127Y-123311352D01*
X126764812Y-123802236D01*
X126714776Y-124259053D01*
X126311912Y-124038029D01*
X125755332Y-123977066D01*
X125217789Y-124133738D01*
X124781120Y-124484194D01*
X124511805Y-124975078D01*
X124461769Y-125431895D01*
X124058904Y-125210870D01*
X123502324Y-125149907D01*
X122964781Y-125306579D01*
X122528112Y-125657035D01*
X122258797Y-126147919D01*
X122208761Y-126604736D01*
X121805897Y-126383712D01*
X121249317Y-126322749D01*
X120711774Y-126479421D01*
X120275105Y-126829877D01*
X120005790Y-127320761D01*
X119955754Y-127777578D01*
X119552889Y-127556553D01*
X118996309Y-127495590D01*
X118458766Y-127652262D01*
X118022097Y-128002718D01*
X117752782Y-128493602D01*
X117702746Y-128950419D01*
X117299882Y-128729395D01*
X116743302Y-128668432D01*
X116205759Y-128825104D01*
X115769090Y-129175560D01*
X115499775Y-129666444D01*
X115490666Y-129749607D01*
X115457595Y-129722112D01*
X115211617Y-129647642D01*
X114956046Y-129674738D01*
X113430099Y-130155867D01*
X113218988Y-130268857D01*
X113054687Y-130466482D01*
X112980217Y-130712460D01*
X112992766Y-130830824D01*
X112958610Y-130820483D01*
X112703039Y-130847579D01*
X111177092Y-131328708D01*
X110965981Y-131441698D01*
X110801680Y-131639323D01*
X110727210Y-131885301D01*
X104566169Y-131885301D01*
X99584387Y-126903519D01*
X99484969Y-126662909D01*
X99222179Y-126399660D01*
X98878651Y-126257014D01*
X98506685Y-126256690D01*
X98162909Y-126398735D01*
X97899660Y-126661525D01*
X97799074Y-126903762D01*
X89403519Y-135299317D01*
X89162909Y-135398735D01*
X88899660Y-135661525D01*
X88799074Y-135903762D01*
X80573362Y-144129474D01*
X80393793Y-144129318D01*
X80050017Y-144271363D01*
X79786768Y-144534153D01*
X79644122Y-144877681D01*
X79643798Y-145249647D01*
X79785843Y-145593423D01*
X80048633Y-145856672D01*
X80392161Y-145999318D01*
X80554140Y-145999459D01*
X80691852Y-146026852D01*
X81011392Y-145963291D01*
X81282286Y-145782286D01*
X85590333Y-141474239D01*
X99631354Y-141474239D01*
X99863033Y-142034943D01*
X100291648Y-142464307D01*
X100851947Y-142696963D01*
X101458630Y-142697493D01*
X102019334Y-142465814D01*
X102448698Y-142037199D01*
X102681354Y-141476900D01*
X102681884Y-140870217D01*
X102450205Y-140309513D01*
X102021590Y-139880149D01*
X101461291Y-139647493D01*
X100854608Y-139646963D01*
X100293904Y-139878642D01*
X99864540Y-140307257D01*
X99631884Y-140867556D01*
X99631354Y-141474239D01*
X85590333Y-141474239D01*
X89980185Y-137084387D01*
X90220795Y-136984969D01*
X90484044Y-136722179D01*
X90584630Y-136479942D01*
X98691852Y-128372720D01*
X108564866Y-138245734D01*
X108835759Y-138426739D01*
X109155300Y-138490300D01*
X131757698Y-138490300D01*
X131082998Y-139165000D01*
X125150000Y-139165000D01*
X124830459Y-139228561D01*
X124643789Y-139353290D01*
X124642257Y-139353923D01*
X124641074Y-139355104D01*
X124559566Y-139409566D01*
X124505580Y-139490362D01*
X124379008Y-139616713D01*
X124236362Y-139960241D01*
X124236038Y-140332207D01*
X124315000Y-140523310D01*
X124315000Y-152072766D01*
X124215162Y-152313201D01*
X124214838Y-152685167D01*
X124315000Y-152927578D01*
X124315000Y-164572766D01*
X124215162Y-164813201D01*
X124214838Y-165185167D01*
X124356883Y-165528943D01*
X124619673Y-165792192D01*
X124963201Y-165934838D01*
X125335167Y-165935162D01*
X125590841Y-165829520D01*
X126177040Y-165829520D01*
X126467879Y-165771668D01*
X126714441Y-165606921D01*
X126879188Y-165360359D01*
X126937040Y-165069520D01*
X126879188Y-164778681D01*
X126714441Y-164532119D01*
X126467879Y-164367372D01*
X126177040Y-164309520D01*
X125985000Y-164309520D01*
X125985000Y-152927234D01*
X126084838Y-152686799D01*
X126085162Y-152314833D01*
X125985000Y-152072422D01*
X125985000Y-140835000D01*
X131465040Y-140835000D01*
X131784581Y-140771439D01*
X132055474Y-140590434D01*
X152076034Y-120569875D01*
X152212348Y-120365866D01*
X152257039Y-120298981D01*
X152320600Y-119979440D01*
X152320600Y-98824691D01*
X152322064Y-98832051D01*
X152356852Y-98884115D01*
X152356852Y-129899993D01*
X152270562Y-130107801D01*
X152270238Y-130479767D01*
X152412283Y-130823543D01*
X152675073Y-131086792D01*
X152870973Y-131168137D01*
X161299317Y-139596481D01*
X161398735Y-139837091D01*
X161661525Y-140100340D01*
X161903762Y-140200926D01*
X170399231Y-148696395D01*
X170440223Y-148795603D01*
X170703013Y-149058852D01*
X171046541Y-149201498D01*
X171418507Y-149201822D01*
X171762283Y-149059777D01*
X172025532Y-148796987D01*
X172168178Y-148453459D01*
X172168502Y-148081493D01*
X172026457Y-147737717D01*
X171763667Y-147474468D01*
X171420139Y-147331822D01*
X171396373Y-147331801D01*
X163084387Y-139019815D01*
X162984969Y-138779205D01*
X162722179Y-138515956D01*
X162479942Y-138415370D01*
X154117014Y-130052442D01*
X154026852Y-129834233D01*
X154026852Y-97870652D01*
X154016268Y-97817441D01*
X153963292Y-97551112D01*
X153782286Y-97280218D01*
X144565254Y-88063186D01*
X144508199Y-88025063D01*
X144294361Y-87882181D01*
X143974820Y-87818620D01*
X143741399Y-87818620D01*
X143999259Y-87560760D01*
X145668572Y-87560760D01*
X162048246Y-103940434D01*
X162319139Y-104121439D01*
X162638680Y-104185000D01*
X165072766Y-104185000D01*
X165313201Y-104284838D01*
X165685167Y-104285162D01*
X165927578Y-104185000D01*
X177572766Y-104185000D01*
X177813201Y-104284838D01*
X178185167Y-104285162D01*
X178427578Y-104185000D01*
X190072766Y-104185000D01*
X190313201Y-104284838D01*
X190685167Y-104285162D01*
X191028943Y-104143117D01*
X191292192Y-103880327D01*
X191434838Y-103536799D01*
X191435162Y-103164833D01*
X191293117Y-102821057D01*
X191030327Y-102557808D01*
X190686799Y-102415162D01*
X190314833Y-102414838D01*
X190072422Y-102515000D01*
X178427234Y-102515000D01*
X178186799Y-102415162D01*
X177814833Y-102414838D01*
X177572422Y-102515000D01*
X165927234Y-102515000D01*
X165686799Y-102415162D01*
X165314833Y-102414838D01*
X165072422Y-102515000D01*
X162984548Y-102515000D01*
X146604874Y-86135326D01*
X146558180Y-86104126D01*
X146333981Y-85954321D01*
X146014440Y-85890760D01*
X144590251Y-85890760D01*
X153837863Y-76643148D01*
X154917877Y-76643148D01*
X155095101Y-76716738D01*
X155467067Y-76717062D01*
X155810843Y-76575017D01*
X156074092Y-76312227D01*
X156137401Y-76159763D01*
X164596481Y-67700683D01*
X164837091Y-67601265D01*
X165100340Y-67338475D01*
X165200926Y-67096238D01*
X173596481Y-58700683D01*
X173837091Y-58601265D01*
X174100340Y-58338475D01*
X174242986Y-57994947D01*
X174243310Y-57622981D01*
X174101265Y-57279205D01*
X173838475Y-57015956D01*
X173494947Y-56873310D01*
X173122981Y-56872986D01*
X172779205Y-57015031D01*
X172515956Y-57277821D01*
X172415370Y-57520058D01*
X164019815Y-65915613D01*
X163779205Y-66015031D01*
X163515956Y-66277821D01*
X163415370Y-66520058D01*
X155083027Y-74852401D01*
X154790797Y-74973148D01*
X153491995Y-74973148D01*
X153172454Y-75036709D01*
X152940844Y-75191466D01*
X152901561Y-75217714D01*
X145452440Y-82666835D01*
X145452440Y-78846680D01*
X145388879Y-78527139D01*
X145254262Y-78325670D01*
X145207874Y-78256245D01*
X129785146Y-62833518D01*
X129785162Y-62814833D01*
X129694280Y-62594881D01*
X129694280Y-60685680D01*
X129685000Y-60639027D01*
X129685000Y-50927234D01*
X129784838Y-50686799D01*
X129785162Y-50314833D01*
X129685000Y-50072422D01*
X129685000Y-38427234D01*
X129784838Y-38186799D01*
X129785162Y-37814833D01*
X129643117Y-37471057D01*
X129380327Y-37207808D01*
X129036799Y-37065162D01*
X128664833Y-37064838D01*
X128321057Y-37206883D01*
X128057808Y-37469673D01*
X127915162Y-37813201D01*
X127914838Y-38185167D01*
X128015000Y-38427578D01*
X128015000Y-50072766D01*
X127915162Y-50313201D01*
X127914838Y-50685167D01*
X128015000Y-50927578D01*
X128015000Y-62572766D01*
X127915162Y-62813201D01*
X127914838Y-63185167D01*
X128056883Y-63528943D01*
X128319673Y-63792192D01*
X128426402Y-63836510D01*
X143782440Y-79192549D01*
X143782440Y-80937992D01*
X129254134Y-66409686D01*
X129058855Y-66279205D01*
X128983241Y-66228681D01*
X128663700Y-66165120D01*
X107499880Y-66165120D01*
X107180339Y-66228681D01*
X107104725Y-66279205D01*
X106909446Y-66409686D01*
X101308148Y-72010984D01*
X93200683Y-63903519D01*
X93101265Y-63662909D01*
X92838475Y-63399660D01*
X92596238Y-63299074D01*
X84845136Y-55547972D01*
X84750042Y-55405654D01*
X84321375Y-54976987D01*
X84221957Y-54736377D01*
X83959167Y-54473128D01*
X83615639Y-54330482D01*
X83243673Y-54330158D01*
X83059243Y-54406363D01*
X82988608Y-54420413D01*
X82929250Y-54460075D01*
X82899897Y-54472203D01*
X82877222Y-54494839D01*
X82717714Y-54601418D01*
X82536709Y-54872312D01*
X82497244Y-55070713D01*
X82494002Y-55078521D01*
X82493995Y-55087050D01*
X82473148Y-55191852D01*
X82493813Y-55295740D01*
X82493678Y-55450487D01*
X82635723Y-55794263D01*
X82898513Y-56057512D01*
X83059992Y-56124564D01*
X91415613Y-64480185D01*
X91515031Y-64720795D01*
X91777821Y-64984044D01*
X92020058Y-65084630D01*
X100415613Y-73480185D01*
X100515031Y-73720795D01*
X100777821Y-73984044D01*
X101121349Y-74126690D01*
X101493315Y-74127014D01*
X101837091Y-73984969D01*
X102100340Y-73722179D01*
X102200926Y-73479942D01*
X107845748Y-67835120D01*
X128317832Y-67835120D01*
X128545212Y-68062500D01*
X108458000Y-68062500D01*
X108138460Y-68126060D01*
X107867566Y-68307066D01*
X99666632Y-76508000D01*
X85807000Y-76508000D01*
X85487459Y-76571561D01*
X85216566Y-76752566D01*
X63381889Y-98587243D01*
X63238633Y-98587118D01*
X62894857Y-98729163D01*
X62631608Y-98991953D01*
X62488962Y-99335481D01*
X62488638Y-99707447D01*
X61460485Y-99707447D01*
X75630815Y-85537117D01*
X75721743Y-85401034D01*
X75876852Y-85168897D01*
X75963249Y-84734551D01*
X75963249Y-52824000D01*
X103210360Y-52824000D01*
X103644706Y-52737603D01*
X104012926Y-52491566D01*
X125608080Y-30896412D01*
X144631563Y-49919895D01*
X144999783Y-50165932D01*
X145434129Y-50252329D01*
X175588301Y-50252329D01*
X175572800Y-50330258D01*
X175572800Y-76962000D01*
X175659197Y-77396346D01*
X175837063Y-77662541D01*
X175905234Y-77764566D01*
X197469868Y-99329200D01*
X178800834Y-117998234D01*
X178554797Y-118366454D01*
X178468400Y-118800800D01*
X178468400Y-151112600D01*
X150677920Y-151112600D01*
X150671129Y-151113951D01*
X150664325Y-151112682D01*
X150454208Y-151157099D01*
X150243574Y-151198997D01*
X150237819Y-151202842D01*
X150231046Y-151204274D01*
X150053888Y-151325741D01*
X149875354Y-151445034D01*
X149871509Y-151450788D01*
X149865798Y-151454704D01*
X129083383Y-172741051D01*
X110647332Y-154305000D01*
X113197566Y-151754766D01*
X113239438Y-151692100D01*
X113443603Y-151386546D01*
X113530000Y-150952200D01*
X113530000Y-142233297D01*
X113991822Y-141772279D01*
X114279352Y-141079831D01*
X114280006Y-140330059D01*
X113993686Y-139637109D01*
X113463979Y-139106478D01*
X112771531Y-138818948D01*
X112021759Y-138818294D01*
X111328809Y-139104614D01*
X110798178Y-139634321D01*
X110510648Y-140326769D01*
X110509994Y-141076541D01*
X110796314Y-141769491D01*
X111260000Y-142233986D01*
X111260000Y-150482068D01*
X108572068Y-153170000D01*
X77269572Y-153170000D01*
X77135837Y-153036265D01*
X77092714Y-153007451D01*
X76767617Y-152790228D01*
X76721429Y-152781041D01*
X76631981Y-152691593D01*
X76434278Y-152556508D01*
X76314198Y-152530459D01*
X76314198Y-152528118D01*
X76217525Y-152294729D01*
X75906003Y-151983207D01*
X75681496Y-151983207D01*
X75169374Y-152495329D01*
X75183517Y-152509472D01*
X75003912Y-152689077D01*
X74989769Y-152674934D01*
X74477647Y-153187056D01*
X74477647Y-153411563D01*
X74749177Y-153683093D01*
X73411524Y-155020745D01*
X73043525Y-154685235D01*
X72631937Y-154514750D01*
X72401481Y-154636023D01*
X72401481Y-155832798D01*
X72848910Y-155832798D01*
X72798386Y-156086798D01*
X72581089Y-156086798D01*
X72468230Y-155973939D01*
X72288622Y-156153547D01*
X72401481Y-156266406D01*
X72401481Y-156638269D01*
X72242986Y-156668092D01*
X72147481Y-156731431D01*
X72147481Y-156266406D01*
X72260340Y-156153547D01*
X72080732Y-155973939D01*
X71967873Y-156086798D01*
X70950706Y-156086798D01*
X70829433Y-156317254D01*
X70966208Y-156608653D01*
X70604633Y-156608338D01*
X70260857Y-156750383D01*
X69997608Y-157013173D01*
X69854962Y-157356701D01*
X69854638Y-157728667D01*
X69996683Y-158072443D01*
X70259473Y-158335692D01*
X70603001Y-158478338D01*
X70974967Y-158478662D01*
X71168229Y-158398808D01*
X71366870Y-158408902D01*
X70768326Y-159007446D01*
X70701891Y-159106873D01*
X70625336Y-159198739D01*
X70206235Y-159968839D01*
X70192978Y-160011389D01*
X70168221Y-160048440D01*
X70144892Y-160165723D01*
X70109320Y-160279892D01*
X70113354Y-160324271D01*
X70104660Y-160367980D01*
X70127990Y-160485268D01*
X70138816Y-160604354D01*
X70159527Y-160643812D01*
X70168221Y-160687520D01*
X70234658Y-160786950D01*
X70290233Y-160892831D01*
X70324467Y-160921360D01*
X70349226Y-160958414D01*
X71248957Y-161858145D01*
X71064408Y-162042373D01*
X71057389Y-162059277D01*
X70578527Y-161565321D01*
X68902686Y-158341326D01*
X68895624Y-158332516D01*
X68892184Y-158321763D01*
X67385460Y-155602342D01*
X70829433Y-155602342D01*
X70950706Y-155832798D01*
X72147481Y-155832798D01*
X72147481Y-154636023D01*
X71917025Y-154514750D01*
X71391239Y-154761540D01*
X70999918Y-155190754D01*
X70829433Y-155602342D01*
X67385460Y-155602342D01*
X66948184Y-154813123D01*
X66835000Y-154679373D01*
X66835000Y-154345868D01*
X66906880Y-154273988D01*
X67193382Y-154216999D01*
X67231110Y-154191790D01*
X67384587Y-154225083D01*
X67637158Y-154177559D01*
X67851340Y-154035514D01*
X68204894Y-153681960D01*
X68339979Y-153484257D01*
X68394463Y-153233095D01*
X68379213Y-153152045D01*
X68580501Y-153152044D01*
X68813890Y-153055372D01*
X68879339Y-152989922D01*
X68879339Y-152765416D01*
X68314184Y-152200261D01*
X68298628Y-152215818D01*
X68119023Y-152036213D01*
X68131751Y-152023484D01*
X68490961Y-152023484D01*
X69056116Y-152588639D01*
X69280622Y-152588639D01*
X69346072Y-152523190D01*
X69442744Y-152289801D01*
X69442744Y-152209921D01*
X73665340Y-152209921D01*
X73665340Y-152462540D01*
X73762013Y-152695929D01*
X74073535Y-153007451D01*
X74298042Y-153007451D01*
X74810164Y-152495329D01*
X74138943Y-151824108D01*
X73914436Y-151824108D01*
X73762012Y-151976532D01*
X73665340Y-152209921D01*
X69442744Y-152209921D01*
X69442745Y-152037182D01*
X69346072Y-151803793D01*
X69140615Y-151598336D01*
X68916109Y-151598336D01*
X68490961Y-152023484D01*
X68131751Y-152023484D01*
X68134579Y-152020656D01*
X67569424Y-151455501D01*
X67344918Y-151455501D01*
X67279468Y-151520950D01*
X67182796Y-151754339D01*
X67182795Y-151954079D01*
X67119633Y-151940377D01*
X66867062Y-151987901D01*
X66652880Y-152129946D01*
X66299326Y-152483500D01*
X66164241Y-152681203D01*
X66154060Y-152728136D01*
X65964006Y-152855126D01*
X65409566Y-153409566D01*
X65228561Y-153680459D01*
X65165000Y-154000000D01*
X65165000Y-155000000D01*
X65228561Y-155319541D01*
X65409566Y-155590434D01*
X65504989Y-155654194D01*
X67426037Y-159121410D01*
X69153094Y-162443935D01*
X69228792Y-162538368D01*
X69294457Y-162640023D01*
X70625112Y-164012620D01*
X70630538Y-164016368D01*
X70634201Y-164021851D01*
X91085562Y-184473212D01*
X91198132Y-184548429D01*
X91305394Y-184631028D01*
X91332829Y-184638430D01*
X91356456Y-184654217D01*
X91489237Y-184680629D01*
X91619948Y-184715895D01*
X96603652Y-185051175D01*
X96631831Y-185047515D01*
X96659700Y-185053058D01*
X129794000Y-185053058D01*
X129798250Y-185052213D01*
X129802511Y-185053015D01*
X130795171Y-185042897D01*
X162696032Y-184717735D01*
X162851404Y-184685180D01*
X163007062Y-184654217D01*
X163010666Y-184651809D01*
X163014909Y-184650920D01*
X163145976Y-184561398D01*
X163277956Y-184473212D01*
X173935085Y-173816083D01*
X173949634Y-173794309D01*
X173970466Y-173778442D01*
X177875923Y-169357085D01*
X187799222Y-159433786D01*
X187942300Y-159292632D01*
X187952354Y-159285914D01*
X188180467Y-159057801D01*
X188584290Y-158685309D01*
X190669365Y-156762008D01*
X190972213Y-156701767D01*
X191243106Y-156520762D01*
X209756894Y-138006974D01*
X209787582Y-137961046D01*
X210304934Y-137443694D01*
X210485940Y-137172800D01*
X210549500Y-136853260D01*
X210549500Y-98882368D01*
X210561525Y-98821915D01*
X210561525Y-96730342D01*
X210729295Y-67349111D01*
X210728843Y-67346770D01*
X210729309Y-67344429D01*
X210729309Y-67344343D01*
X210697978Y-67186832D01*
X210667560Y-67029212D01*
X210666222Y-67027184D01*
X210665748Y-67024802D01*
X210576558Y-66891320D01*
X210488105Y-66757290D01*
X210486092Y-66755929D01*
X210484743Y-66753909D01*
X210484484Y-66753736D01*
X163712966Y-19982218D01*
X163564305Y-19882886D01*
X163442073Y-19801213D01*
X163122532Y-19737652D01*
X161074949Y-19737652D01*
X134211146Y-17842969D01*
X134181604Y-17846709D01*
X134152400Y-17840900D01*
X129184455Y-17840900D01*
X127102111Y-17680797D01*
X127069909Y-17684667D01*
X127038100Y-17678340D01*
X124355860Y-17678340D01*
X124243176Y-17700754D01*
X124128645Y-17709849D01*
X124124969Y-17711725D01*
X94416195Y-16985270D01*
X127000000Y-10503948D01*
X161822682Y-17430610D01*
X161822682Y-17430610D01*
G37*
X161822682Y-17430610D02*
X191343925Y-37156075D01*
X211069390Y-66677318D01*
X217996052Y-101500000D01*
X211069390Y-136322682D01*
X191343925Y-165843925D01*
X161822682Y-185569390D01*
X127000000Y-192496052D01*
X92177318Y-185569390D01*
X62656075Y-165843925D01*
X52773909Y-151054218D01*
X67746201Y-151054218D01*
X67746201Y-151278724D01*
X68311356Y-151843879D01*
X68735239Y-151419996D01*
X74318548Y-151419996D01*
X74318548Y-151644503D01*
X74989769Y-152315724D01*
X75501891Y-151803602D01*
X75501891Y-151579095D01*
X75190369Y-151267573D01*
X74956980Y-151170900D01*
X74704361Y-151170900D01*
X74470972Y-151267572D01*
X74318548Y-151419996D01*
X68735239Y-151419996D01*
X68736504Y-151418731D01*
X68736504Y-151194225D01*
X68531047Y-150988768D01*
X68297658Y-150892095D01*
X68045039Y-150892096D01*
X67811650Y-150988768D01*
X67746201Y-151054218D01*
X52773909Y-151054218D01*
X42930610Y-136322682D01*
X36003948Y-101500000D01*
X42930610Y-66677318D01*
X62656075Y-37156075D01*
X90894109Y-18288023D01*
X67527286Y-41654846D01*
X67505861Y-41686911D01*
X65424406Y-43768366D01*
X65409948Y-43790004D01*
X65389237Y-43805766D01*
X64452478Y-44865447D01*
X64452476Y-44865450D01*
X45374397Y-66446967D01*
X45306962Y-66562708D01*
X45231524Y-66673398D01*
X45225425Y-66702652D01*
X45210382Y-66728472D01*
X45192372Y-66861209D01*
X45165035Y-66992343D01*
X44829755Y-103551143D01*
X44830481Y-103554975D01*
X44829720Y-103558800D01*
X44860763Y-103714865D01*
X44890383Y-103871253D01*
X44892520Y-103874516D01*
X44893281Y-103878340D01*
X44981666Y-104010618D01*
X45068896Y-104143795D01*
X45072120Y-104145992D01*
X45074286Y-104149234D01*
X46124762Y-105199710D01*
X46245304Y-105380114D01*
X46263142Y-105406810D01*
X47860066Y-107003734D01*
X48130960Y-107184740D01*
X48450500Y-107248300D01*
X96931480Y-107248300D01*
X97251021Y-107184739D01*
X97521914Y-107003734D01*
X104219894Y-100305754D01*
X109909494Y-94616155D01*
X110002682Y-94476688D01*
X110090499Y-94345261D01*
X110154060Y-94025720D01*
X110154060Y-89148920D01*
X110143521Y-89095935D01*
X110143732Y-88853263D01*
X110001687Y-88509487D01*
X109738897Y-88246238D01*
X109395369Y-88103592D01*
X109023403Y-88103268D01*
X108679627Y-88245313D01*
X108416378Y-88508103D01*
X108273732Y-88851631D01*
X108273408Y-89223597D01*
X108415453Y-89567373D01*
X108484060Y-89636100D01*
X108484060Y-93679851D01*
X103039026Y-99124886D01*
X96585612Y-105578300D01*
X53269657Y-105578300D01*
X53431152Y-105417087D01*
X53573798Y-105073559D01*
X53574122Y-104701593D01*
X53432077Y-104357817D01*
X53169287Y-104094568D01*
X53055352Y-104047258D01*
X53824314Y-104085223D01*
X53967870Y-104183311D01*
X54219760Y-104234320D01*
X54969760Y-104234320D01*
X55205077Y-104190042D01*
X55311004Y-104121880D01*
X56575920Y-104121880D01*
X57010266Y-104035483D01*
X57378486Y-103789446D01*
X61460485Y-99707447D01*
X62488638Y-99707447D01*
X62630683Y-100051223D01*
X62893473Y-100314472D01*
X63237001Y-100457118D01*
X63360369Y-100457225D01*
X63500000Y-100485000D01*
X75443372Y-100485000D01*
X76635726Y-101677354D01*
X76906619Y-101858359D01*
X77226160Y-101921920D01*
X85664040Y-101921920D01*
X85983581Y-101858359D01*
X86254474Y-101677354D01*
X87446828Y-100485000D01*
X88072766Y-100485000D01*
X88313201Y-100584838D01*
X88685167Y-100585162D01*
X89028943Y-100443117D01*
X89292192Y-100180327D01*
X89434838Y-99836799D01*
X89435162Y-99464833D01*
X89293117Y-99121057D01*
X89030327Y-98857808D01*
X88686799Y-98715162D01*
X88314833Y-98714838D01*
X88072422Y-98815000D01*
X86773300Y-98815000D01*
X86453759Y-98878561D01*
X86221419Y-99033806D01*
X86182866Y-99059566D01*
X85175932Y-100066500D01*
X77597368Y-100066500D01*
X76786559Y-99255691D01*
X76678157Y-98993337D01*
X76415367Y-98730088D01*
X76071839Y-98587442D01*
X75699873Y-98587118D01*
X75457462Y-98687280D01*
X65643588Y-98687280D01*
X66250192Y-98080676D01*
X78473869Y-98080676D01*
X78705548Y-98641380D01*
X79134163Y-99070744D01*
X79694462Y-99303400D01*
X80301145Y-99303930D01*
X80861849Y-99072251D01*
X81291213Y-98643636D01*
X81523869Y-98083337D01*
X81524399Y-97476654D01*
X81292720Y-96915950D01*
X80864105Y-96486586D01*
X80303806Y-96253930D01*
X79697123Y-96253400D01*
X79136419Y-96485079D01*
X78707055Y-96913694D01*
X78474399Y-97473993D01*
X78473869Y-98080676D01*
X66250192Y-98080676D01*
X68095914Y-96234954D01*
X81714371Y-96234954D01*
X81871043Y-96772497D01*
X81897006Y-96822371D01*
X82247461Y-97259040D01*
X82738345Y-97528356D01*
X83144860Y-97572881D01*
X82948175Y-97931381D01*
X82887212Y-98487961D01*
X83043884Y-99025504D01*
X83069847Y-99075378D01*
X83420302Y-99512047D01*
X83911186Y-99781363D01*
X84467766Y-99842325D01*
X85005309Y-99685653D01*
X85441978Y-99335197D01*
X85711293Y-98844313D01*
X85761329Y-98387496D01*
X86164194Y-98608522D01*
X86720774Y-98669484D01*
X87258317Y-98512812D01*
X87694986Y-98162356D01*
X87964301Y-97671472D01*
X88014337Y-97214655D01*
X88417201Y-97435680D01*
X88973781Y-97496642D01*
X89511324Y-97339970D01*
X89947993Y-96989514D01*
X90217308Y-96498630D01*
X90267344Y-96041813D01*
X90670209Y-96262839D01*
X91226789Y-96323801D01*
X91764332Y-96167129D01*
X92201001Y-95816673D01*
X92470316Y-95325789D01*
X92520352Y-94868972D01*
X92923216Y-95089997D01*
X93479796Y-95150959D01*
X94017339Y-94994287D01*
X94454008Y-94643831D01*
X94723323Y-94152947D01*
X94773359Y-93696130D01*
X95176224Y-93917156D01*
X95732804Y-93978118D01*
X96270347Y-93821446D01*
X96707016Y-93470990D01*
X96976331Y-92980106D01*
X97026367Y-92523289D01*
X97429231Y-92744314D01*
X97985811Y-92805276D01*
X98523354Y-92648604D01*
X98960023Y-92298148D01*
X99229338Y-91807264D01*
X99279374Y-91350447D01*
X99682239Y-91571473D01*
X100238819Y-91632435D01*
X100776362Y-91475763D01*
X101213031Y-91125307D01*
X101482346Y-90634423D01*
X101532382Y-90177605D01*
X101935247Y-90398631D01*
X102491827Y-90459593D01*
X103029370Y-90302921D01*
X103466039Y-89952465D01*
X103735354Y-89461581D01*
X103785390Y-89004765D01*
X104188254Y-89225790D01*
X104744834Y-89286752D01*
X105282377Y-89130080D01*
X105719046Y-88779624D01*
X105988361Y-88288740D01*
X106013106Y-88062817D01*
X111123288Y-88062817D01*
X111217100Y-88289860D01*
X111217100Y-96774000D01*
X111280661Y-97093541D01*
X111433194Y-97321822D01*
X111461666Y-97364434D01*
X112078248Y-97981016D01*
X112097183Y-98026843D01*
X112359973Y-98290092D01*
X112703501Y-98432738D01*
X113075467Y-98433062D01*
X113419243Y-98291017D01*
X113682492Y-98028227D01*
X113825138Y-97684699D01*
X113825462Y-97312733D01*
X113683417Y-96968957D01*
X113420627Y-96705708D01*
X113077099Y-96563062D01*
X113021982Y-96563014D01*
X112887100Y-96428132D01*
X112887100Y-88320177D01*
X112993288Y-88064449D01*
X112993612Y-87692483D01*
X112851567Y-87348707D01*
X112588777Y-87085458D01*
X112245249Y-86942812D01*
X111873283Y-86942488D01*
X111529507Y-87084533D01*
X111266258Y-87347323D01*
X111123612Y-87690851D01*
X111123288Y-88062817D01*
X106013106Y-88062817D01*
X106049324Y-87732160D01*
X105892652Y-87194617D01*
X105866690Y-87144743D01*
X105516234Y-86708074D01*
X105025350Y-86438759D01*
X104618835Y-86394233D01*
X104815520Y-86035732D01*
X104876483Y-85479152D01*
X104719811Y-84941609D01*
X104693849Y-84891735D01*
X104343393Y-84455066D01*
X103852509Y-84185751D01*
X103295929Y-84124788D01*
X102758386Y-84281460D01*
X102321717Y-84631916D01*
X102052402Y-85122800D01*
X102002366Y-85579618D01*
X101599501Y-85358593D01*
X101042921Y-85297630D01*
X100505378Y-85454302D01*
X100068709Y-85804758D01*
X99799394Y-86295642D01*
X99749358Y-86752458D01*
X99346494Y-86531434D01*
X98789914Y-86470471D01*
X98252371Y-86627143D01*
X97815702Y-86977599D01*
X97546387Y-87468483D01*
X97496351Y-87925301D01*
X97093486Y-87704276D01*
X96536906Y-87643313D01*
X95999363Y-87799985D01*
X95562694Y-88150441D01*
X95293379Y-88641325D01*
X95243343Y-89098142D01*
X94840478Y-88877117D01*
X94283898Y-88816154D01*
X93746355Y-88972826D01*
X93309686Y-89323282D01*
X93040371Y-89814166D01*
X92990335Y-90270983D01*
X92587471Y-90049959D01*
X92030891Y-89988996D01*
X91493348Y-90145668D01*
X91056679Y-90496124D01*
X90787364Y-90987008D01*
X90737328Y-91443825D01*
X90334463Y-91222800D01*
X89777883Y-91161837D01*
X89240340Y-91318509D01*
X88803671Y-91668965D01*
X88534356Y-92159849D01*
X88484320Y-92616666D01*
X88081456Y-92395642D01*
X87524876Y-92334679D01*
X86987333Y-92491351D01*
X86550664Y-92841807D01*
X86281349Y-93332691D01*
X86231313Y-93789508D01*
X85828448Y-93568483D01*
X85271868Y-93507520D01*
X84734325Y-93664192D01*
X84297656Y-94014648D01*
X84028341Y-94505532D01*
X83978305Y-94962349D01*
X83575441Y-94741325D01*
X83018861Y-94680362D01*
X82481318Y-94837034D01*
X82044649Y-95187490D01*
X81775334Y-95678374D01*
X81714371Y-96234954D01*
X68095914Y-96234954D01*
X80526187Y-83804681D01*
X105592703Y-83804681D01*
X105749375Y-84342224D01*
X105775338Y-84392098D01*
X106125793Y-84828767D01*
X106616677Y-85098083D01*
X107023192Y-85142608D01*
X106826507Y-85501108D01*
X106765544Y-86057688D01*
X106922216Y-86595231D01*
X106948179Y-86645105D01*
X107298634Y-87081774D01*
X107789518Y-87351090D01*
X108346098Y-87412052D01*
X108883641Y-87255380D01*
X109320310Y-86904924D01*
X109589625Y-86414040D01*
X109639661Y-85957223D01*
X110042526Y-86178249D01*
X110599106Y-86239211D01*
X111136649Y-86082539D01*
X111573318Y-85732083D01*
X111842633Y-85241199D01*
X111892669Y-84784382D01*
X112295533Y-85005407D01*
X112852113Y-85066369D01*
X113389656Y-84909697D01*
X113826325Y-84559241D01*
X114095640Y-84068357D01*
X114145676Y-83611540D01*
X114548541Y-83832566D01*
X115105121Y-83893528D01*
X115642664Y-83736856D01*
X116079333Y-83386400D01*
X116348648Y-82895516D01*
X116398684Y-82438699D01*
X116801548Y-82659724D01*
X117358128Y-82720686D01*
X117895671Y-82564014D01*
X118332340Y-82213558D01*
X118601655Y-81722674D01*
X118651691Y-81265857D01*
X119054556Y-81486883D01*
X119611136Y-81547845D01*
X120148679Y-81391173D01*
X120585348Y-81040717D01*
X120854663Y-80549833D01*
X120904699Y-80093016D01*
X121307563Y-80314041D01*
X121864143Y-80375003D01*
X122401686Y-80218331D01*
X122838355Y-79867875D01*
X123107670Y-79376991D01*
X123157706Y-78920174D01*
X123560571Y-79141200D01*
X124117151Y-79202162D01*
X124654694Y-79045490D01*
X125091363Y-78695034D01*
X125360678Y-78204150D01*
X125421641Y-77647570D01*
X125264969Y-77110027D01*
X125239007Y-77060153D01*
X124888551Y-76623484D01*
X124397667Y-76354169D01*
X123991151Y-76309643D01*
X124187836Y-75951143D01*
X124248799Y-75394563D01*
X124092127Y-74857020D01*
X124066165Y-74807146D01*
X123715709Y-74370477D01*
X123224825Y-74101162D01*
X122668245Y-74040199D01*
X122130702Y-74196871D01*
X121694033Y-74547327D01*
X121424718Y-75038211D01*
X121374682Y-75495027D01*
X120971818Y-75274003D01*
X120415238Y-75213040D01*
X119877695Y-75369712D01*
X119441026Y-75720168D01*
X119171711Y-76211052D01*
X119121675Y-76667869D01*
X118718810Y-76446844D01*
X118162230Y-76385881D01*
X117624687Y-76542553D01*
X117188018Y-76893009D01*
X116918703Y-77383893D01*
X116868667Y-77840710D01*
X116465803Y-77619686D01*
X115909223Y-77558723D01*
X115371680Y-77715395D01*
X114935011Y-78065851D01*
X114665696Y-78556735D01*
X114615660Y-79013552D01*
X114212795Y-78792527D01*
X113656215Y-78731564D01*
X113118672Y-78888236D01*
X112682003Y-79238692D01*
X112412688Y-79729576D01*
X112362652Y-80186393D01*
X111959788Y-79965369D01*
X111403208Y-79904406D01*
X110865665Y-80061078D01*
X110428996Y-80411534D01*
X110159681Y-80902418D01*
X110109645Y-81359235D01*
X109706780Y-81138210D01*
X109150200Y-81077247D01*
X108612657Y-81233919D01*
X108175988Y-81584375D01*
X107906673Y-82075259D01*
X107856637Y-82532076D01*
X107453773Y-82311052D01*
X106897193Y-82250089D01*
X106359650Y-82406761D01*
X105922981Y-82757217D01*
X105653666Y-83248101D01*
X105592703Y-83804681D01*
X80526187Y-83804681D01*
X86152868Y-78178000D01*
X100012500Y-78178000D01*
X100332041Y-78114439D01*
X100602934Y-77933434D01*
X108803868Y-69732500D01*
X128399112Y-69732500D01*
X141871932Y-83205320D01*
X140945986Y-84131266D01*
X140833758Y-83963306D01*
X135704506Y-78834054D01*
X135646897Y-78795561D01*
X135336286Y-78588017D01*
X134901940Y-78501620D01*
X134366917Y-78501620D01*
X133905899Y-78039798D01*
X133213451Y-77752268D01*
X132463679Y-77751614D01*
X131770729Y-78037934D01*
X131240098Y-78567641D01*
X130952568Y-79260089D01*
X130951914Y-80009861D01*
X131238234Y-80702811D01*
X131767941Y-81233442D01*
X132460389Y-81520972D01*
X133210161Y-81521626D01*
X133903111Y-81235306D01*
X134367606Y-80771620D01*
X134431808Y-80771620D01*
X137635788Y-83975600D01*
X136817100Y-83975600D01*
X136497559Y-84039161D01*
X136412675Y-84095879D01*
X130346079Y-84095879D01*
X130287721Y-84107487D01*
X130228312Y-84104226D01*
X130129384Y-84138983D01*
X130026538Y-84159440D01*
X129977064Y-84192497D01*
X129920930Y-84212219D01*
X129842833Y-84282188D01*
X129755645Y-84340445D01*
X129722588Y-84389918D01*
X129678274Y-84429620D01*
X129632897Y-84524151D01*
X129574640Y-84611338D01*
X129563032Y-84669694D01*
X129537283Y-84723335D01*
X128971762Y-86927156D01*
X128966015Y-87031858D01*
X128945558Y-87134700D01*
X128945558Y-109168458D01*
X129009119Y-109487999D01*
X129190124Y-109758892D01*
X137639213Y-118207981D01*
X137576949Y-118173821D01*
X137020369Y-118112858D01*
X136482826Y-118269530D01*
X136046157Y-118619986D01*
X135776842Y-119110870D01*
X135726806Y-119567687D01*
X135323942Y-119346663D01*
X134767362Y-119285700D01*
X134229819Y-119442372D01*
X133793150Y-119792828D01*
X133523835Y-120283712D01*
X133473799Y-120740529D01*
X133070934Y-120519504D01*
X132514354Y-120458541D01*
X131976811Y-120615213D01*
X131540142Y-120965669D01*
X131270827Y-121456553D01*
X131209864Y-122013133D01*
X131366536Y-122550676D01*
X131392499Y-122600550D01*
X131742954Y-123037219D01*
X132233838Y-123306535D01*
X132640354Y-123351061D01*
X132443669Y-123709561D01*
X132382706Y-124266141D01*
X132539378Y-124803684D01*
X132565341Y-124853558D01*
X132915796Y-125290227D01*
X133406680Y-125559543D01*
X133963260Y-125620505D01*
X134500803Y-125463833D01*
X134937472Y-125113377D01*
X135206787Y-124622493D01*
X135256823Y-124165676D01*
X135659687Y-124386701D01*
X136216267Y-124447663D01*
X136753810Y-124290991D01*
X137190479Y-123940535D01*
X137459794Y-123449651D01*
X137509830Y-122992834D01*
X137912695Y-123213860D01*
X138469275Y-123274822D01*
X139006818Y-123118150D01*
X139443487Y-122767694D01*
X139712802Y-122276810D01*
X139762838Y-121819993D01*
X140165702Y-122041018D01*
X140722282Y-122101980D01*
X141259825Y-121945308D01*
X141696494Y-121594852D01*
X141965809Y-121103968D01*
X142015845Y-120647151D01*
X142418710Y-120868177D01*
X142975290Y-120929139D01*
X143512833Y-120772467D01*
X143949502Y-120422011D01*
X144218817Y-119931127D01*
X144268853Y-119474310D01*
X144671717Y-119695335D01*
X145228297Y-119756297D01*
X145765840Y-119599625D01*
X146202509Y-119249169D01*
X146471824Y-118758285D01*
X146532787Y-118201705D01*
X146376115Y-117664162D01*
X146350153Y-117614288D01*
X145999697Y-117177619D01*
X145508813Y-116908304D01*
X145102298Y-116863778D01*
X145298983Y-116505278D01*
X145359946Y-115948698D01*
X145203274Y-115411155D01*
X145177312Y-115361281D01*
X144826856Y-114924612D01*
X144335972Y-114655297D01*
X143779392Y-114594334D01*
X143605299Y-114645075D01*
X141692728Y-112924974D01*
X143472325Y-112924974D01*
X143704004Y-113485678D01*
X144132619Y-113915042D01*
X144692918Y-114147698D01*
X145299601Y-114148228D01*
X145860305Y-113916549D01*
X146289669Y-113487934D01*
X146522325Y-112927635D01*
X146522855Y-112320952D01*
X146291176Y-111760248D01*
X145862561Y-111330884D01*
X145302262Y-111098228D01*
X144695579Y-111097698D01*
X144134875Y-111329377D01*
X143705511Y-111757992D01*
X143472855Y-112318291D01*
X143472325Y-112924974D01*
X141692728Y-112924974D01*
X134908900Y-106823834D01*
X134908900Y-90501476D01*
X135772921Y-89792536D01*
X135807712Y-90012200D01*
X135939705Y-90227593D01*
X135959529Y-90259943D01*
X136177833Y-90312353D01*
X136690483Y-89998201D01*
X136680033Y-89981148D01*
X136893193Y-89850524D01*
X136903643Y-89867576D01*
X136922401Y-89856081D01*
X137055115Y-90072652D01*
X137036357Y-90084147D01*
X137046807Y-90101200D01*
X136833647Y-90231824D01*
X136823197Y-90214772D01*
X136310547Y-90528924D01*
X136258137Y-90747227D01*
X136277962Y-90779577D01*
X136409955Y-90994970D01*
X136608314Y-91139088D01*
X136573899Y-91337459D01*
X136577503Y-91484102D01*
X136373209Y-91568514D01*
X135842578Y-92098221D01*
X135555048Y-92790669D01*
X135554394Y-93540441D01*
X135840714Y-94233391D01*
X136370421Y-94764022D01*
X137062869Y-95051552D01*
X137812641Y-95052206D01*
X138505591Y-94765886D01*
X139036222Y-94236179D01*
X139323752Y-93543731D01*
X139324406Y-92793959D01*
X139038086Y-92101009D01*
X138858937Y-91921548D01*
X138852164Y-91645929D01*
X138855731Y-91647573D01*
X139112601Y-91655841D01*
X139352450Y-91563521D01*
X139563500Y-91429067D01*
X139563500Y-92951300D01*
X139591109Y-93090099D01*
X139611441Y-93230161D01*
X139622748Y-93249160D01*
X139627061Y-93270841D01*
X139705683Y-93388507D01*
X139778068Y-93510129D01*
X149240900Y-104016107D01*
X149240900Y-119288132D01*
X131708732Y-136820300D01*
X109501168Y-136820300D01*
X104566169Y-131885301D01*
X110727210Y-131885301D01*
X110754306Y-132140872D01*
X111235435Y-133666819D01*
X111348425Y-133877930D01*
X111546050Y-134042231D01*
X111792028Y-134116701D01*
X111910392Y-134104152D01*
X111900051Y-134138309D01*
X111927147Y-134393880D01*
X112408276Y-135919827D01*
X112521266Y-136130938D01*
X112718891Y-136295239D01*
X112964869Y-136369709D01*
X113220440Y-136342613D01*
X114746387Y-135861484D01*
X114957498Y-135748494D01*
X115121799Y-135550869D01*
X115196269Y-135304891D01*
X115169173Y-135049320D01*
X115083716Y-134778286D01*
X115382620Y-134942275D01*
X115939200Y-135003237D01*
X116476743Y-134846565D01*
X116913412Y-134496109D01*
X117182727Y-134005225D01*
X117232763Y-133548408D01*
X117635627Y-133769433D01*
X118192207Y-133830395D01*
X118729750Y-133673723D01*
X119166419Y-133323267D01*
X119435734Y-132832383D01*
X119485770Y-132375566D01*
X119888635Y-132596592D01*
X120445215Y-132657554D01*
X120982758Y-132500882D01*
X121419427Y-132150426D01*
X121688742Y-131659542D01*
X121738778Y-131202725D01*
X122141642Y-131423750D01*
X122698222Y-131484712D01*
X123235765Y-131328040D01*
X123672434Y-130977584D01*
X123941749Y-130486700D01*
X123994721Y-130003072D01*
X124185873Y-130148020D01*
X124727527Y-130289844D01*
X125146306Y-130253195D01*
X125286929Y-130042463D01*
X124759190Y-129028685D01*
X124741449Y-129037920D01*
X124675588Y-128911401D01*
X124984490Y-128911401D01*
X125512230Y-129925179D01*
X125765509Y-129930859D01*
X126035732Y-129608836D01*
X126230236Y-129083792D01*
X126219814Y-128809063D01*
X126438880Y-128975178D01*
X126980534Y-129117002D01*
X127399313Y-129080353D01*
X127539936Y-128869621D01*
X127012197Y-127855843D01*
X125997785Y-128383913D01*
X124984490Y-128911401D01*
X124675588Y-128911401D01*
X124624165Y-128812620D01*
X124641906Y-128803385D01*
X124632671Y-128785644D01*
X124857971Y-128668360D01*
X124867206Y-128686101D01*
X125881618Y-128158031D01*
X126894913Y-127630543D01*
X126885678Y-127612802D01*
X127110978Y-127495518D01*
X127120213Y-127513259D01*
X127137954Y-127504024D01*
X127255238Y-127729324D01*
X127237497Y-127738559D01*
X127765237Y-128752337D01*
X128018516Y-128758017D01*
X128288739Y-128435994D01*
X128483243Y-127910950D01*
X128474149Y-127671224D01*
X128900665Y-127905226D01*
X129457245Y-127966188D01*
X129994788Y-127809516D01*
X130431457Y-127459060D01*
X130700772Y-126968176D01*
X130761735Y-126411596D01*
X130605063Y-125874053D01*
X130579101Y-125824179D01*
X130228645Y-125387510D01*
X129737761Y-125118195D01*
X129331245Y-125073669D01*
X129527930Y-124715168D01*
X129588893Y-124158588D01*
X129432221Y-123621045D01*
X129406259Y-123571171D01*
X129055803Y-123134502D01*
X128564919Y-122865187D01*
X128008339Y-122804224D01*
X127470796Y-122960896D01*
X127034127Y-123311352D01*
X126764812Y-123802236D01*
X126714776Y-124259053D01*
X126311912Y-124038029D01*
X125755332Y-123977066D01*
X125217789Y-124133738D01*
X124781120Y-124484194D01*
X124511805Y-124975078D01*
X124461769Y-125431895D01*
X124058904Y-125210870D01*
X123502324Y-125149907D01*
X122964781Y-125306579D01*
X122528112Y-125657035D01*
X122258797Y-126147919D01*
X122208761Y-126604736D01*
X121805897Y-126383712D01*
X121249317Y-126322749D01*
X120711774Y-126479421D01*
X120275105Y-126829877D01*
X120005790Y-127320761D01*
X119955754Y-127777578D01*
X119552889Y-127556553D01*
X118996309Y-127495590D01*
X118458766Y-127652262D01*
X118022097Y-128002718D01*
X117752782Y-128493602D01*
X117702746Y-128950419D01*
X117299882Y-128729395D01*
X116743302Y-128668432D01*
X116205759Y-128825104D01*
X115769090Y-129175560D01*
X115499775Y-129666444D01*
X115490666Y-129749607D01*
X115457595Y-129722112D01*
X115211617Y-129647642D01*
X114956046Y-129674738D01*
X113430099Y-130155867D01*
X113218988Y-130268857D01*
X113054687Y-130466482D01*
X112980217Y-130712460D01*
X112992766Y-130830824D01*
X112958610Y-130820483D01*
X112703039Y-130847579D01*
X111177092Y-131328708D01*
X110965981Y-131441698D01*
X110801680Y-131639323D01*
X110727210Y-131885301D01*
X104566169Y-131885301D01*
X99584387Y-126903519D01*
X99484969Y-126662909D01*
X99222179Y-126399660D01*
X98878651Y-126257014D01*
X98506685Y-126256690D01*
X98162909Y-126398735D01*
X97899660Y-126661525D01*
X97799074Y-126903762D01*
X89403519Y-135299317D01*
X89162909Y-135398735D01*
X88899660Y-135661525D01*
X88799074Y-135903762D01*
X80573362Y-144129474D01*
X80393793Y-144129318D01*
X80050017Y-144271363D01*
X79786768Y-144534153D01*
X79644122Y-144877681D01*
X79643798Y-145249647D01*
X79785843Y-145593423D01*
X80048633Y-145856672D01*
X80392161Y-145999318D01*
X80554140Y-145999459D01*
X80691852Y-146026852D01*
X81011392Y-145963291D01*
X81282286Y-145782286D01*
X85590333Y-141474239D01*
X99631354Y-141474239D01*
X99863033Y-142034943D01*
X100291648Y-142464307D01*
X100851947Y-142696963D01*
X101458630Y-142697493D01*
X102019334Y-142465814D01*
X102448698Y-142037199D01*
X102681354Y-141476900D01*
X102681884Y-140870217D01*
X102450205Y-140309513D01*
X102021590Y-139880149D01*
X101461291Y-139647493D01*
X100854608Y-139646963D01*
X100293904Y-139878642D01*
X99864540Y-140307257D01*
X99631884Y-140867556D01*
X99631354Y-141474239D01*
X85590333Y-141474239D01*
X89980185Y-137084387D01*
X90220795Y-136984969D01*
X90484044Y-136722179D01*
X90584630Y-136479942D01*
X98691852Y-128372720D01*
X108564866Y-138245734D01*
X108835759Y-138426739D01*
X109155300Y-138490300D01*
X131757698Y-138490300D01*
X131082998Y-139165000D01*
X125150000Y-139165000D01*
X124830459Y-139228561D01*
X124643789Y-139353290D01*
X124642257Y-139353923D01*
X124641074Y-139355104D01*
X124559566Y-139409566D01*
X124505580Y-139490362D01*
X124379008Y-139616713D01*
X124236362Y-139960241D01*
X124236038Y-140332207D01*
X124315000Y-140523310D01*
X124315000Y-152072766D01*
X124215162Y-152313201D01*
X124214838Y-152685167D01*
X124315000Y-152927578D01*
X124315000Y-164572766D01*
X124215162Y-164813201D01*
X124214838Y-165185167D01*
X124356883Y-165528943D01*
X124619673Y-165792192D01*
X124963201Y-165934838D01*
X125335167Y-165935162D01*
X125590841Y-165829520D01*
X126177040Y-165829520D01*
X126467879Y-165771668D01*
X126714441Y-165606921D01*
X126879188Y-165360359D01*
X126937040Y-165069520D01*
X126879188Y-164778681D01*
X126714441Y-164532119D01*
X126467879Y-164367372D01*
X126177040Y-164309520D01*
X125985000Y-164309520D01*
X125985000Y-152927234D01*
X126084838Y-152686799D01*
X126085162Y-152314833D01*
X125985000Y-152072422D01*
X125985000Y-140835000D01*
X131465040Y-140835000D01*
X131784581Y-140771439D01*
X132055474Y-140590434D01*
X152076034Y-120569875D01*
X152212348Y-120365866D01*
X152257039Y-120298981D01*
X152320600Y-119979440D01*
X152320600Y-98824691D01*
X152322064Y-98832051D01*
X152356852Y-98884115D01*
X152356852Y-129899993D01*
X152270562Y-130107801D01*
X152270238Y-130479767D01*
X152412283Y-130823543D01*
X152675073Y-131086792D01*
X152870973Y-131168137D01*
X161299317Y-139596481D01*
X161398735Y-139837091D01*
X161661525Y-140100340D01*
X161903762Y-140200926D01*
X170399231Y-148696395D01*
X170440223Y-148795603D01*
X170703013Y-149058852D01*
X171046541Y-149201498D01*
X171418507Y-149201822D01*
X171762283Y-149059777D01*
X172025532Y-148796987D01*
X172168178Y-148453459D01*
X172168502Y-148081493D01*
X172026457Y-147737717D01*
X171763667Y-147474468D01*
X171420139Y-147331822D01*
X171396373Y-147331801D01*
X163084387Y-139019815D01*
X162984969Y-138779205D01*
X162722179Y-138515956D01*
X162479942Y-138415370D01*
X154117014Y-130052442D01*
X154026852Y-129834233D01*
X154026852Y-97870652D01*
X154016268Y-97817441D01*
X153963292Y-97551112D01*
X153782286Y-97280218D01*
X144565254Y-88063186D01*
X144508199Y-88025063D01*
X144294361Y-87882181D01*
X143974820Y-87818620D01*
X143741399Y-87818620D01*
X143999259Y-87560760D01*
X145668572Y-87560760D01*
X162048246Y-103940434D01*
X162319139Y-104121439D01*
X162638680Y-104185000D01*
X165072766Y-104185000D01*
X165313201Y-104284838D01*
X165685167Y-104285162D01*
X165927578Y-104185000D01*
X177572766Y-104185000D01*
X177813201Y-104284838D01*
X178185167Y-104285162D01*
X178427578Y-104185000D01*
X190072766Y-104185000D01*
X190313201Y-104284838D01*
X190685167Y-104285162D01*
X191028943Y-104143117D01*
X191292192Y-103880327D01*
X191434838Y-103536799D01*
X191435162Y-103164833D01*
X191293117Y-102821057D01*
X191030327Y-102557808D01*
X190686799Y-102415162D01*
X190314833Y-102414838D01*
X190072422Y-102515000D01*
X178427234Y-102515000D01*
X178186799Y-102415162D01*
X177814833Y-102414838D01*
X177572422Y-102515000D01*
X165927234Y-102515000D01*
X165686799Y-102415162D01*
X165314833Y-102414838D01*
X165072422Y-102515000D01*
X162984548Y-102515000D01*
X146604874Y-86135326D01*
X146558180Y-86104126D01*
X146333981Y-85954321D01*
X146014440Y-85890760D01*
X144590251Y-85890760D01*
X153837863Y-76643148D01*
X154917877Y-76643148D01*
X155095101Y-76716738D01*
X155467067Y-76717062D01*
X155810843Y-76575017D01*
X156074092Y-76312227D01*
X156137401Y-76159763D01*
X164596481Y-67700683D01*
X164837091Y-67601265D01*
X165100340Y-67338475D01*
X165200926Y-67096238D01*
X173596481Y-58700683D01*
X173837091Y-58601265D01*
X174100340Y-58338475D01*
X174242986Y-57994947D01*
X174243310Y-57622981D01*
X174101265Y-57279205D01*
X173838475Y-57015956D01*
X173494947Y-56873310D01*
X173122981Y-56872986D01*
X172779205Y-57015031D01*
X172515956Y-57277821D01*
X172415370Y-57520058D01*
X164019815Y-65915613D01*
X163779205Y-66015031D01*
X163515956Y-66277821D01*
X163415370Y-66520058D01*
X155083027Y-74852401D01*
X154790797Y-74973148D01*
X153491995Y-74973148D01*
X153172454Y-75036709D01*
X152940844Y-75191466D01*
X152901561Y-75217714D01*
X145452440Y-82666835D01*
X145452440Y-78846680D01*
X145388879Y-78527139D01*
X145254262Y-78325670D01*
X145207874Y-78256245D01*
X129785146Y-62833518D01*
X129785162Y-62814833D01*
X129694280Y-62594881D01*
X129694280Y-60685680D01*
X129685000Y-60639027D01*
X129685000Y-50927234D01*
X129784838Y-50686799D01*
X129785162Y-50314833D01*
X129685000Y-50072422D01*
X129685000Y-38427234D01*
X129784838Y-38186799D01*
X129785162Y-37814833D01*
X129643117Y-37471057D01*
X129380327Y-37207808D01*
X129036799Y-37065162D01*
X128664833Y-37064838D01*
X128321057Y-37206883D01*
X128057808Y-37469673D01*
X127915162Y-37813201D01*
X127914838Y-38185167D01*
X128015000Y-38427578D01*
X128015000Y-50072766D01*
X127915162Y-50313201D01*
X127914838Y-50685167D01*
X128015000Y-50927578D01*
X128015000Y-62572766D01*
X127915162Y-62813201D01*
X127914838Y-63185167D01*
X128056883Y-63528943D01*
X128319673Y-63792192D01*
X128426402Y-63836510D01*
X143782440Y-79192549D01*
X143782440Y-80937992D01*
X129254134Y-66409686D01*
X129058855Y-66279205D01*
X128983241Y-66228681D01*
X128663700Y-66165120D01*
X107499880Y-66165120D01*
X107180339Y-66228681D01*
X107104725Y-66279205D01*
X106909446Y-66409686D01*
X101308148Y-72010984D01*
X93200683Y-63903519D01*
X93101265Y-63662909D01*
X92838475Y-63399660D01*
X92596238Y-63299074D01*
X84845136Y-55547972D01*
X84750042Y-55405654D01*
X84321375Y-54976987D01*
X84221957Y-54736377D01*
X83959167Y-54473128D01*
X83615639Y-54330482D01*
X83243673Y-54330158D01*
X83059243Y-54406363D01*
X82988608Y-54420413D01*
X82929250Y-54460075D01*
X82899897Y-54472203D01*
X82877222Y-54494839D01*
X82717714Y-54601418D01*
X82536709Y-54872312D01*
X82497244Y-55070713D01*
X82494002Y-55078521D01*
X82493995Y-55087050D01*
X82473148Y-55191852D01*
X82493813Y-55295740D01*
X82493678Y-55450487D01*
X82635723Y-55794263D01*
X82898513Y-56057512D01*
X83059992Y-56124564D01*
X91415613Y-64480185D01*
X91515031Y-64720795D01*
X91777821Y-64984044D01*
X92020058Y-65084630D01*
X100415613Y-73480185D01*
X100515031Y-73720795D01*
X100777821Y-73984044D01*
X101121349Y-74126690D01*
X101493315Y-74127014D01*
X101837091Y-73984969D01*
X102100340Y-73722179D01*
X102200926Y-73479942D01*
X107845748Y-67835120D01*
X128317832Y-67835120D01*
X128545212Y-68062500D01*
X108458000Y-68062500D01*
X108138460Y-68126060D01*
X107867566Y-68307066D01*
X99666632Y-76508000D01*
X85807000Y-76508000D01*
X85487459Y-76571561D01*
X85216566Y-76752566D01*
X63381889Y-98587243D01*
X63238633Y-98587118D01*
X62894857Y-98729163D01*
X62631608Y-98991953D01*
X62488962Y-99335481D01*
X62488638Y-99707447D01*
X61460485Y-99707447D01*
X75630815Y-85537117D01*
X75721743Y-85401034D01*
X75876852Y-85168897D01*
X75963249Y-84734551D01*
X75963249Y-52824000D01*
X103210360Y-52824000D01*
X103644706Y-52737603D01*
X104012926Y-52491566D01*
X125608080Y-30896412D01*
X144631563Y-49919895D01*
X144999783Y-50165932D01*
X145434129Y-50252329D01*
X175588301Y-50252329D01*
X175572800Y-50330258D01*
X175572800Y-76962000D01*
X175659197Y-77396346D01*
X175837063Y-77662541D01*
X175905234Y-77764566D01*
X197469868Y-99329200D01*
X178800834Y-117998234D01*
X178554797Y-118366454D01*
X178468400Y-118800800D01*
X178468400Y-151112600D01*
X150677920Y-151112600D01*
X150671129Y-151113951D01*
X150664325Y-151112682D01*
X150454208Y-151157099D01*
X150243574Y-151198997D01*
X150237819Y-151202842D01*
X150231046Y-151204274D01*
X150053888Y-151325741D01*
X149875354Y-151445034D01*
X149871509Y-151450788D01*
X149865798Y-151454704D01*
X129083383Y-172741051D01*
X110647332Y-154305000D01*
X113197566Y-151754766D01*
X113239438Y-151692100D01*
X113443603Y-151386546D01*
X113530000Y-150952200D01*
X113530000Y-142233297D01*
X113991822Y-141772279D01*
X114279352Y-141079831D01*
X114280006Y-140330059D01*
X113993686Y-139637109D01*
X113463979Y-139106478D01*
X112771531Y-138818948D01*
X112021759Y-138818294D01*
X111328809Y-139104614D01*
X110798178Y-139634321D01*
X110510648Y-140326769D01*
X110509994Y-141076541D01*
X110796314Y-141769491D01*
X111260000Y-142233986D01*
X111260000Y-150482068D01*
X108572068Y-153170000D01*
X77269572Y-153170000D01*
X77135837Y-153036265D01*
X77092714Y-153007451D01*
X76767617Y-152790228D01*
X76721429Y-152781041D01*
X76631981Y-152691593D01*
X76434278Y-152556508D01*
X76314198Y-152530459D01*
X76314198Y-152528118D01*
X76217525Y-152294729D01*
X75906003Y-151983207D01*
X75681496Y-151983207D01*
X75169374Y-152495329D01*
X75183517Y-152509472D01*
X75003912Y-152689077D01*
X74989769Y-152674934D01*
X74477647Y-153187056D01*
X74477647Y-153411563D01*
X74749177Y-153683093D01*
X73411524Y-155020745D01*
X73043525Y-154685235D01*
X72631937Y-154514750D01*
X72401481Y-154636023D01*
X72401481Y-155832798D01*
X72848910Y-155832798D01*
X72798386Y-156086798D01*
X72581089Y-156086798D01*
X72468230Y-155973939D01*
X72288622Y-156153547D01*
X72401481Y-156266406D01*
X72401481Y-156638269D01*
X72242986Y-156668092D01*
X72147481Y-156731431D01*
X72147481Y-156266406D01*
X72260340Y-156153547D01*
X72080732Y-155973939D01*
X71967873Y-156086798D01*
X70950706Y-156086798D01*
X70829433Y-156317254D01*
X70966208Y-156608653D01*
X70604633Y-156608338D01*
X70260857Y-156750383D01*
X69997608Y-157013173D01*
X69854962Y-157356701D01*
X69854638Y-157728667D01*
X69996683Y-158072443D01*
X70259473Y-158335692D01*
X70603001Y-158478338D01*
X70974967Y-158478662D01*
X71168229Y-158398808D01*
X71366870Y-158408902D01*
X70768326Y-159007446D01*
X70701891Y-159106873D01*
X70625336Y-159198739D01*
X70206235Y-159968839D01*
X70192978Y-160011389D01*
X70168221Y-160048440D01*
X70144892Y-160165723D01*
X70109320Y-160279892D01*
X70113354Y-160324271D01*
X70104660Y-160367980D01*
X70127990Y-160485268D01*
X70138816Y-160604354D01*
X70159527Y-160643812D01*
X70168221Y-160687520D01*
X70234658Y-160786950D01*
X70290233Y-160892831D01*
X70324467Y-160921360D01*
X70349226Y-160958414D01*
X71248957Y-161858145D01*
X71064408Y-162042373D01*
X71057389Y-162059277D01*
X70578527Y-161565321D01*
X68902686Y-158341326D01*
X68895624Y-158332516D01*
X68892184Y-158321763D01*
X67385460Y-155602342D01*
X70829433Y-155602342D01*
X70950706Y-155832798D01*
X72147481Y-155832798D01*
X72147481Y-154636023D01*
X71917025Y-154514750D01*
X71391239Y-154761540D01*
X70999918Y-155190754D01*
X70829433Y-155602342D01*
X67385460Y-155602342D01*
X66948184Y-154813123D01*
X66835000Y-154679373D01*
X66835000Y-154345868D01*
X66906880Y-154273988D01*
X67193382Y-154216999D01*
X67231110Y-154191790D01*
X67384587Y-154225083D01*
X67637158Y-154177559D01*
X67851340Y-154035514D01*
X68204894Y-153681960D01*
X68339979Y-153484257D01*
X68394463Y-153233095D01*
X68379213Y-153152045D01*
X68580501Y-153152044D01*
X68813890Y-153055372D01*
X68879339Y-152989922D01*
X68879339Y-152765416D01*
X68314184Y-152200261D01*
X68298628Y-152215818D01*
X68119023Y-152036213D01*
X68131751Y-152023484D01*
X68490961Y-152023484D01*
X69056116Y-152588639D01*
X69280622Y-152588639D01*
X69346072Y-152523190D01*
X69442744Y-152289801D01*
X69442744Y-152209921D01*
X73665340Y-152209921D01*
X73665340Y-152462540D01*
X73762013Y-152695929D01*
X74073535Y-153007451D01*
X74298042Y-153007451D01*
X74810164Y-152495329D01*
X74138943Y-151824108D01*
X73914436Y-151824108D01*
X73762012Y-151976532D01*
X73665340Y-152209921D01*
X69442744Y-152209921D01*
X69442745Y-152037182D01*
X69346072Y-151803793D01*
X69140615Y-151598336D01*
X68916109Y-151598336D01*
X68490961Y-152023484D01*
X68131751Y-152023484D01*
X68134579Y-152020656D01*
X67569424Y-151455501D01*
X67344918Y-151455501D01*
X67279468Y-151520950D01*
X67182796Y-151754339D01*
X67182795Y-151954079D01*
X67119633Y-151940377D01*
X66867062Y-151987901D01*
X66652880Y-152129946D01*
X66299326Y-152483500D01*
X66164241Y-152681203D01*
X66154060Y-152728136D01*
X65964006Y-152855126D01*
X65409566Y-153409566D01*
X65228561Y-153680459D01*
X65165000Y-154000000D01*
X65165000Y-155000000D01*
X65228561Y-155319541D01*
X65409566Y-155590434D01*
X65504989Y-155654194D01*
X67426037Y-159121410D01*
X69153094Y-162443935D01*
X69228792Y-162538368D01*
X69294457Y-162640023D01*
X70625112Y-164012620D01*
X70630538Y-164016368D01*
X70634201Y-164021851D01*
X91085562Y-184473212D01*
X91198132Y-184548429D01*
X91305394Y-184631028D01*
X91332829Y-184638430D01*
X91356456Y-184654217D01*
X91489237Y-184680629D01*
X91619948Y-184715895D01*
X96603652Y-185051175D01*
X96631831Y-185047515D01*
X96659700Y-185053058D01*
X129794000Y-185053058D01*
X129798250Y-185052213D01*
X129802511Y-185053015D01*
X130795171Y-185042897D01*
X162696032Y-184717735D01*
X162851404Y-184685180D01*
X163007062Y-184654217D01*
X163010666Y-184651809D01*
X163014909Y-184650920D01*
X163145976Y-184561398D01*
X163277956Y-184473212D01*
X173935085Y-173816083D01*
X173949634Y-173794309D01*
X173970466Y-173778442D01*
X177875923Y-169357085D01*
X187799222Y-159433786D01*
X187942300Y-159292632D01*
X187952354Y-159285914D01*
X188180467Y-159057801D01*
X188584290Y-158685309D01*
X190669365Y-156762008D01*
X190972213Y-156701767D01*
X191243106Y-156520762D01*
X209756894Y-138006974D01*
X209787582Y-137961046D01*
X210304934Y-137443694D01*
X210485940Y-137172800D01*
X210549500Y-136853260D01*
X210549500Y-98882368D01*
X210561525Y-98821915D01*
X210561525Y-96730342D01*
X210729295Y-67349111D01*
X210728843Y-67346770D01*
X210729309Y-67344429D01*
X210729309Y-67344343D01*
X210697978Y-67186832D01*
X210667560Y-67029212D01*
X210666222Y-67027184D01*
X210665748Y-67024802D01*
X210576558Y-66891320D01*
X210488105Y-66757290D01*
X210486092Y-66755929D01*
X210484743Y-66753909D01*
X210484484Y-66753736D01*
X163712966Y-19982218D01*
X163564305Y-19882886D01*
X163442073Y-19801213D01*
X163122532Y-19737652D01*
X161074949Y-19737652D01*
X134211146Y-17842969D01*
X134181604Y-17846709D01*
X134152400Y-17840900D01*
X129184455Y-17840900D01*
X127102111Y-17680797D01*
X127069909Y-17684667D01*
X127038100Y-17678340D01*
X124355860Y-17678340D01*
X124243176Y-17700754D01*
X124128645Y-17709849D01*
X124124969Y-17711725D01*
X94416195Y-16985270D01*
X127000000Y-10503948D01*
X161822682Y-17430610D01*
G36*
X141448757Y-90649516D02*
X141431016Y-90658751D01*
X141700562Y-91176543D01*
X141914678Y-91244054D01*
X142110316Y-91142211D01*
X142272696Y-90948694D01*
X142283636Y-90913998D01*
X142431168Y-90931704D01*
X142678151Y-90860639D01*
X142699025Y-90849773D01*
X145355864Y-93506612D01*
X145015016Y-93515772D01*
X144416125Y-93763841D01*
X144286917Y-94056611D01*
X145440400Y-95210095D01*
X145454542Y-95195952D01*
X145634148Y-95375558D01*
X145620005Y-95389700D01*
X146773489Y-96543183D01*
X147066259Y-96413975D01*
X147334471Y-95713817D01*
X147328158Y-95478906D01*
X150650600Y-98801348D01*
X150650600Y-99790221D01*
X150636700Y-99860100D01*
X150636700Y-103070465D01*
X145417285Y-97275682D01*
X145865784Y-97263628D01*
X146464675Y-97015559D01*
X146593883Y-96722789D01*
X145440400Y-95569305D01*
X145426258Y-95583448D01*
X145246652Y-95403842D01*
X145260795Y-95389700D01*
X144107311Y-94236217D01*
X143814541Y-94365425D01*
X143546329Y-95065583D01*
X143550010Y-95202566D01*
X141233500Y-92630692D01*
X141233500Y-91598653D01*
X141407751Y-91507943D01*
X141475261Y-91293827D01*
X141233500Y-90829408D01*
X141233500Y-90759128D01*
X141334361Y-90658267D01*
X141427951Y-90609547D01*
X141448757Y-90649516D01*
X141448757Y-90649516D01*
G37*
X141448757Y-90649516D02*
X141431016Y-90658751D01*
X141700562Y-91176543D01*
X141914678Y-91244054D01*
X142110316Y-91142211D01*
X142272696Y-90948694D01*
X142283636Y-90913998D01*
X142431168Y-90931704D01*
X142678151Y-90860639D01*
X142699025Y-90849773D01*
X145355864Y-93506612D01*
X145015016Y-93515772D01*
X144416125Y-93763841D01*
X144286917Y-94056611D01*
X145440400Y-95210095D01*
X145454542Y-95195952D01*
X145634148Y-95375558D01*
X145620005Y-95389700D01*
X146773489Y-96543183D01*
X147066259Y-96413975D01*
X147334471Y-95713817D01*
X147328158Y-95478906D01*
X150650600Y-98801348D01*
X150650600Y-99790221D01*
X150636700Y-99860100D01*
X150636700Y-103070465D01*
X145417285Y-97275682D01*
X145865784Y-97263628D01*
X146464675Y-97015559D01*
X146593883Y-96722789D01*
X145440400Y-95569305D01*
X145426258Y-95583448D01*
X145246652Y-95403842D01*
X145260795Y-95389700D01*
X144107311Y-94236217D01*
X143814541Y-94365425D01*
X143546329Y-95065583D01*
X143550010Y-95202566D01*
X141233500Y-92630692D01*
X141233500Y-91598653D01*
X141407751Y-91507943D01*
X141475261Y-91293827D01*
X141233500Y-90829408D01*
X141233500Y-90759128D01*
X141334361Y-90658267D01*
X141427951Y-90609547D01*
X141448757Y-90649516D01*
G36*
X176804733Y-153526471D02*
X176708060Y-153759860D01*
X176708060Y-154012479D01*
X176804732Y-154245868D01*
X176957156Y-154398292D01*
X177181663Y-154398292D01*
X177852884Y-153727071D01*
X177838742Y-153712929D01*
X178018347Y-153533324D01*
X178032489Y-153547466D01*
X178046632Y-153533324D01*
X178226237Y-153712929D01*
X178212094Y-153727071D01*
X178724216Y-154239193D01*
X178948723Y-154239193D01*
X179260245Y-153927671D01*
X179289445Y-153857176D01*
X180425985Y-154993717D01*
X180425988Y-154993719D01*
X180520745Y-155088476D01*
X180185235Y-155456475D01*
X180014750Y-155868063D01*
X180136023Y-156098519D01*
X181332798Y-156098519D01*
X181332798Y-155651090D01*
X181586798Y-155701614D01*
X181586798Y-155918911D01*
X181473939Y-156031770D01*
X181653547Y-156211378D01*
X181766406Y-156098519D01*
X182138269Y-156098519D01*
X182168092Y-156257014D01*
X182231431Y-156352519D01*
X181766406Y-156352519D01*
X181653547Y-156239660D01*
X181473939Y-156419268D01*
X181586798Y-156532127D01*
X181586798Y-157549294D01*
X181817254Y-157670567D01*
X182343040Y-157423777D01*
X182407617Y-157352946D01*
X182420836Y-157366165D01*
X182487428Y-157299573D01*
X182526088Y-157506511D01*
X182491262Y-157590381D01*
X182490938Y-157962347D01*
X182632983Y-158306123D01*
X182895773Y-158569372D01*
X183239301Y-158712018D01*
X183388929Y-158712148D01*
X159658458Y-181173551D01*
X131880684Y-181891658D01*
X131582482Y-181897733D01*
X131582602Y-181760113D01*
X131440557Y-181416337D01*
X131177767Y-181153088D01*
X131172476Y-181150891D01*
X130527440Y-179892699D01*
X130527440Y-179770000D01*
X130483162Y-179534683D01*
X130344090Y-179318559D01*
X130131890Y-179173569D01*
X129880000Y-179122560D01*
X129480000Y-179122560D01*
X129350411Y-179146944D01*
X129230000Y-179122560D01*
X128830000Y-179122560D01*
X128700411Y-179146944D01*
X128580000Y-179122560D01*
X128572447Y-179122560D01*
X128568061Y-179027592D01*
X128814345Y-178978603D01*
X128965746Y-178877440D01*
X129230000Y-178877440D01*
X129356997Y-178853544D01*
X129475000Y-178877440D01*
X129875000Y-178877440D01*
X130110317Y-178833162D01*
X130326441Y-178694090D01*
X130471431Y-178481890D01*
X130522440Y-178230000D01*
X130522440Y-177965184D01*
X130825527Y-176596628D01*
X130825756Y-176586045D01*
X130855838Y-176513599D01*
X130856162Y-176141633D01*
X130714117Y-175797857D01*
X130451327Y-175534608D01*
X130107799Y-175391962D01*
X129735833Y-175391638D01*
X129711367Y-175401747D01*
X129718140Y-175368300D01*
X129718140Y-175340322D01*
X140753584Y-164037291D01*
X148371345Y-156582975D01*
X180014750Y-156582975D01*
X180261540Y-157108761D01*
X180690754Y-157500082D01*
X181102342Y-157670567D01*
X181332798Y-157549294D01*
X181332798Y-156352519D01*
X180136023Y-156352519D01*
X180014750Y-156582975D01*
X148371345Y-156582975D01*
X150420388Y-154577897D01*
X177361268Y-154577897D01*
X177361268Y-154802404D01*
X177513692Y-154954828D01*
X177747081Y-155051500D01*
X177999700Y-155051500D01*
X178233089Y-154954827D01*
X178544611Y-154643305D01*
X178544611Y-154418798D01*
X178032489Y-153906676D01*
X177361268Y-154577897D01*
X150420388Y-154577897D01*
X151436706Y-153583386D01*
X164194340Y-153382600D01*
X176948604Y-153382600D01*
X176804733Y-153526471D01*
X176804733Y-153526471D01*
G37*
X176804733Y-153526471D02*
X176708060Y-153759860D01*
X176708060Y-154012479D01*
X176804732Y-154245868D01*
X176957156Y-154398292D01*
X177181663Y-154398292D01*
X177852884Y-153727071D01*
X177838742Y-153712929D01*
X178018347Y-153533324D01*
X178032489Y-153547466D01*
X178046632Y-153533324D01*
X178226237Y-153712929D01*
X178212094Y-153727071D01*
X178724216Y-154239193D01*
X178948723Y-154239193D01*
X179260245Y-153927671D01*
X179289445Y-153857176D01*
X180425985Y-154993717D01*
X180425988Y-154993719D01*
X180520745Y-155088476D01*
X180185235Y-155456475D01*
X180014750Y-155868063D01*
X180136023Y-156098519D01*
X181332798Y-156098519D01*
X181332798Y-155651090D01*
X181586798Y-155701614D01*
X181586798Y-155918911D01*
X181473939Y-156031770D01*
X181653547Y-156211378D01*
X181766406Y-156098519D01*
X182138269Y-156098519D01*
X182168092Y-156257014D01*
X182231431Y-156352519D01*
X181766406Y-156352519D01*
X181653547Y-156239660D01*
X181473939Y-156419268D01*
X181586798Y-156532127D01*
X181586798Y-157549294D01*
X181817254Y-157670567D01*
X182343040Y-157423777D01*
X182407617Y-157352946D01*
X182420836Y-157366165D01*
X182487428Y-157299573D01*
X182526088Y-157506511D01*
X182491262Y-157590381D01*
X182490938Y-157962347D01*
X182632983Y-158306123D01*
X182895773Y-158569372D01*
X183239301Y-158712018D01*
X183388929Y-158712148D01*
X159658458Y-181173551D01*
X131880684Y-181891658D01*
X131582482Y-181897733D01*
X131582602Y-181760113D01*
X131440557Y-181416337D01*
X131177767Y-181153088D01*
X131172476Y-181150891D01*
X130527440Y-179892699D01*
X130527440Y-179770000D01*
X130483162Y-179534683D01*
X130344090Y-179318559D01*
X130131890Y-179173569D01*
X129880000Y-179122560D01*
X129480000Y-179122560D01*
X129350411Y-179146944D01*
X129230000Y-179122560D01*
X128830000Y-179122560D01*
X128700411Y-179146944D01*
X128580000Y-179122560D01*
X128572447Y-179122560D01*
X128568061Y-179027592D01*
X128814345Y-178978603D01*
X128965746Y-178877440D01*
X129230000Y-178877440D01*
X129356997Y-178853544D01*
X129475000Y-178877440D01*
X129875000Y-178877440D01*
X130110317Y-178833162D01*
X130326441Y-178694090D01*
X130471431Y-178481890D01*
X130522440Y-178230000D01*
X130522440Y-177965184D01*
X130825527Y-176596628D01*
X130825756Y-176586045D01*
X130855838Y-176513599D01*
X130856162Y-176141633D01*
X130714117Y-175797857D01*
X130451327Y-175534608D01*
X130107799Y-175391962D01*
X129735833Y-175391638D01*
X129711367Y-175401747D01*
X129718140Y-175368300D01*
X129718140Y-175340322D01*
X140753584Y-164037291D01*
X148371345Y-156582975D01*
X180014750Y-156582975D01*
X180261540Y-157108761D01*
X180690754Y-157500082D01*
X181102342Y-157670567D01*
X181332798Y-157549294D01*
X181332798Y-156352519D01*
X180136023Y-156352519D01*
X180014750Y-156582975D01*
X148371345Y-156582975D01*
X150420388Y-154577897D01*
X177361268Y-154577897D01*
X177361268Y-154802404D01*
X177513692Y-154954828D01*
X177747081Y-155051500D01*
X177999700Y-155051500D01*
X178233089Y-154954827D01*
X178544611Y-154643305D01*
X178544611Y-154418798D01*
X178032489Y-153906676D01*
X177361268Y-154577897D01*
X150420388Y-154577897D01*
X151436706Y-153583386D01*
X164194340Y-153382600D01*
X176948604Y-153382600D01*
X176804733Y-153526471D01*
G36*
X76365095Y-155353604D02*
X76799440Y-155440000D01*
X108572068Y-155440000D01*
X127115368Y-173983300D01*
X126856450Y-173983300D01*
X126697700Y-174142050D01*
X126697700Y-174866300D01*
X126717700Y-174866300D01*
X126717700Y-175120300D01*
X126697700Y-175120300D01*
X126697700Y-175844550D01*
X126856450Y-176003300D01*
X127297009Y-176003300D01*
X127335700Y-175987274D01*
X127335700Y-176720483D01*
X127205884Y-177345430D01*
X127205224Y-177423465D01*
X127190000Y-177500000D01*
X127195818Y-177529250D01*
X126747544Y-177549952D01*
X126335956Y-177720437D01*
X126258752Y-177969147D01*
X127105000Y-178815395D01*
X127119143Y-178801253D01*
X127298748Y-178980858D01*
X127284605Y-178995000D01*
X127298748Y-179009143D01*
X127119143Y-179188748D01*
X127105000Y-179174605D01*
X126258752Y-180020853D01*
X126335956Y-180269563D01*
X126786677Y-180432329D01*
X126725968Y-180492933D01*
X126583322Y-180836461D01*
X126582998Y-181208427D01*
X126725043Y-181552203D01*
X126987833Y-181815452D01*
X127078942Y-181853284D01*
X99864894Y-181697034D01*
X99862496Y-181697497D01*
X99860100Y-181697020D01*
X95241208Y-181697020D01*
X95230959Y-181690172D01*
X94940120Y-181632320D01*
X94649281Y-181690172D01*
X94639032Y-181697020D01*
X93457188Y-181697020D01*
X90532418Y-178772250D01*
X125633157Y-178772250D01*
X125659952Y-179352456D01*
X125830437Y-179764044D01*
X126079147Y-179841248D01*
X126925395Y-178995000D01*
X126079147Y-178148752D01*
X125830437Y-178225956D01*
X125633157Y-178772250D01*
X90532418Y-178772250D01*
X89172934Y-177412766D01*
X89149970Y-177397422D01*
X87031598Y-175279050D01*
X125335700Y-175279050D01*
X125335700Y-175494610D01*
X125432373Y-175727999D01*
X125611002Y-175906627D01*
X125844391Y-176003300D01*
X126284950Y-176003300D01*
X126443700Y-175844550D01*
X126443700Y-175120300D01*
X125494450Y-175120300D01*
X125335700Y-175279050D01*
X87031598Y-175279050D01*
X86244538Y-174491990D01*
X125335700Y-174491990D01*
X125335700Y-174707550D01*
X125494450Y-174866300D01*
X126443700Y-174866300D01*
X126443700Y-174142050D01*
X126284950Y-173983300D01*
X125844391Y-173983300D01*
X125611002Y-174079973D01*
X125432373Y-174258601D01*
X125335700Y-174491990D01*
X86244538Y-174491990D01*
X73619679Y-161867131D01*
X73680943Y-161841817D01*
X73944192Y-161579027D01*
X74086838Y-161235499D01*
X74086856Y-161214619D01*
X74106580Y-161185100D01*
X74170141Y-160865559D01*
X74170141Y-158940448D01*
X74242886Y-158831577D01*
X74255458Y-158768376D01*
X74281588Y-158730133D01*
X74336072Y-158478971D01*
X74288548Y-158226400D01*
X74146503Y-158012218D01*
X73863661Y-157729376D01*
X73754787Y-157654986D01*
X73686884Y-157552598D01*
X73404042Y-157269756D01*
X73295165Y-157195363D01*
X73227264Y-157092979D01*
X73221924Y-157087639D01*
X73222301Y-157087226D01*
X73235519Y-157100444D01*
X73305520Y-157030443D01*
X73494766Y-157156893D01*
X73673355Y-157192417D01*
X73860210Y-157379272D01*
X73966908Y-157452176D01*
X74033452Y-157552514D01*
X74316294Y-157835356D01*
X74513997Y-157970441D01*
X74765159Y-158024925D01*
X75017730Y-157977401D01*
X75128171Y-157904157D01*
X83294003Y-158992761D01*
X83317613Y-159016412D01*
X83661141Y-159159058D01*
X84033107Y-159159382D01*
X84376883Y-159017337D01*
X84640132Y-158754547D01*
X84782778Y-158411019D01*
X84783102Y-158039053D01*
X84641057Y-157695277D01*
X84378267Y-157432028D01*
X84034739Y-157289382D01*
X83662773Y-157289058D01*
X83538182Y-157340538D01*
X75418832Y-156258130D01*
X75401618Y-156240916D01*
X76319437Y-155323096D01*
X76365095Y-155353604D01*
X76365095Y-155353604D01*
G37*
X76365095Y-155353604D02*
X76799440Y-155440000D01*
X108572068Y-155440000D01*
X127115368Y-173983300D01*
X126856450Y-173983300D01*
X126697700Y-174142050D01*
X126697700Y-174866300D01*
X126717700Y-174866300D01*
X126717700Y-175120300D01*
X126697700Y-175120300D01*
X126697700Y-175844550D01*
X126856450Y-176003300D01*
X127297009Y-176003300D01*
X127335700Y-175987274D01*
X127335700Y-176720483D01*
X127205884Y-177345430D01*
X127205224Y-177423465D01*
X127190000Y-177500000D01*
X127195818Y-177529250D01*
X126747544Y-177549952D01*
X126335956Y-177720437D01*
X126258752Y-177969147D01*
X127105000Y-178815395D01*
X127119143Y-178801253D01*
X127298748Y-178980858D01*
X127284605Y-178995000D01*
X127298748Y-179009143D01*
X127119143Y-179188748D01*
X127105000Y-179174605D01*
X126258752Y-180020853D01*
X126335956Y-180269563D01*
X126786677Y-180432329D01*
X126725968Y-180492933D01*
X126583322Y-180836461D01*
X126582998Y-181208427D01*
X126725043Y-181552203D01*
X126987833Y-181815452D01*
X127078942Y-181853284D01*
X99864894Y-181697034D01*
X99862496Y-181697497D01*
X99860100Y-181697020D01*
X95241208Y-181697020D01*
X95230959Y-181690172D01*
X94940120Y-181632320D01*
X94649281Y-181690172D01*
X94639032Y-181697020D01*
X93457188Y-181697020D01*
X90532418Y-178772250D01*
X125633157Y-178772250D01*
X125659952Y-179352456D01*
X125830437Y-179764044D01*
X126079147Y-179841248D01*
X126925395Y-178995000D01*
X126079147Y-178148752D01*
X125830437Y-178225956D01*
X125633157Y-178772250D01*
X90532418Y-178772250D01*
X89172934Y-177412766D01*
X89149970Y-177397422D01*
X87031598Y-175279050D01*
X125335700Y-175279050D01*
X125335700Y-175494610D01*
X125432373Y-175727999D01*
X125611002Y-175906627D01*
X125844391Y-176003300D01*
X126284950Y-176003300D01*
X126443700Y-175844550D01*
X126443700Y-175120300D01*
X125494450Y-175120300D01*
X125335700Y-175279050D01*
X87031598Y-175279050D01*
X86244538Y-174491990D01*
X125335700Y-174491990D01*
X125335700Y-174707550D01*
X125494450Y-174866300D01*
X126443700Y-174866300D01*
X126443700Y-174142050D01*
X126284950Y-173983300D01*
X125844391Y-173983300D01*
X125611002Y-174079973D01*
X125432373Y-174258601D01*
X125335700Y-174491990D01*
X86244538Y-174491990D01*
X73619679Y-161867131D01*
X73680943Y-161841817D01*
X73944192Y-161579027D01*
X74086838Y-161235499D01*
X74086856Y-161214619D01*
X74106580Y-161185100D01*
X74170141Y-160865559D01*
X74170141Y-158940448D01*
X74242886Y-158831577D01*
X74255458Y-158768376D01*
X74281588Y-158730133D01*
X74336072Y-158478971D01*
X74288548Y-158226400D01*
X74146503Y-158012218D01*
X73863661Y-157729376D01*
X73754787Y-157654986D01*
X73686884Y-157552598D01*
X73404042Y-157269756D01*
X73295165Y-157195363D01*
X73227264Y-157092979D01*
X73221924Y-157087639D01*
X73222301Y-157087226D01*
X73235519Y-157100444D01*
X73305520Y-157030443D01*
X73494766Y-157156893D01*
X73673355Y-157192417D01*
X73860210Y-157379272D01*
X73966908Y-157452176D01*
X74033452Y-157552514D01*
X74316294Y-157835356D01*
X74513997Y-157970441D01*
X74765159Y-158024925D01*
X75017730Y-157977401D01*
X75128171Y-157904157D01*
X83294003Y-158992761D01*
X83317613Y-159016412D01*
X83661141Y-159159058D01*
X84033107Y-159159382D01*
X84376883Y-159017337D01*
X84640132Y-158754547D01*
X84782778Y-158411019D01*
X84783102Y-158039053D01*
X84641057Y-157695277D01*
X84378267Y-157432028D01*
X84034739Y-157289382D01*
X83662773Y-157289058D01*
X83538182Y-157340538D01*
X75418832Y-156258130D01*
X75401618Y-156240916D01*
X76319437Y-155323096D01*
X76365095Y-155353604D01*
G36*
X198824500Y-101188691D02*
X198824500Y-101629250D01*
X198983250Y-101788000D01*
X199707500Y-101788000D01*
X199707500Y-101768000D01*
X199961500Y-101768000D01*
X199961500Y-101788000D01*
X200685750Y-101788000D01*
X200844500Y-101629250D01*
X200844500Y-101255000D01*
X202526979Y-101255000D01*
X202549952Y-101752456D01*
X202720437Y-102164044D01*
X202969147Y-102241248D01*
X203815395Y-101395000D01*
X203801253Y-101380858D01*
X203980858Y-101201253D01*
X203995000Y-101215395D01*
X204009143Y-101201253D01*
X204188748Y-101380858D01*
X204174605Y-101395000D01*
X205020853Y-102241248D01*
X205269563Y-102164044D01*
X205466843Y-101617750D01*
X205462476Y-101523181D01*
X205697002Y-101715878D01*
X205746983Y-101836843D01*
X206009773Y-102100092D01*
X206353301Y-102242738D01*
X206725267Y-102243062D01*
X207069043Y-102101017D01*
X207332292Y-101838227D01*
X207457700Y-101536213D01*
X207457700Y-135749872D01*
X202435904Y-140771668D01*
X187027162Y-155278368D01*
X186806307Y-155057128D01*
X186462779Y-154914482D01*
X186090813Y-154914158D01*
X186036747Y-154936497D01*
X184600444Y-154526105D01*
X184427836Y-154353497D01*
X184230133Y-154218412D01*
X183978971Y-154163928D01*
X183726400Y-154211452D01*
X183512218Y-154353497D01*
X183229376Y-154636339D01*
X183154986Y-154745213D01*
X183052598Y-154813116D01*
X182769756Y-155095958D01*
X182695363Y-155204835D01*
X182592979Y-155272736D01*
X182587639Y-155278076D01*
X182587226Y-155277699D01*
X182600444Y-155264481D01*
X182530443Y-155194480D01*
X182656893Y-155005234D01*
X182692417Y-154826645D01*
X182879272Y-154639790D01*
X182952176Y-154533092D01*
X183052514Y-154466548D01*
X183335356Y-154183706D01*
X183470441Y-153986003D01*
X183524925Y-153734841D01*
X183477401Y-153482270D01*
X183358994Y-153303730D01*
X183358994Y-153186994D01*
X183343466Y-153108932D01*
X183343976Y-153029340D01*
X183265979Y-152623667D01*
X183299218Y-152543619D01*
X183299542Y-152171653D01*
X183157497Y-151827877D01*
X182894707Y-151564628D01*
X182551179Y-151421982D01*
X182179213Y-151421658D01*
X181835437Y-151563703D01*
X181572188Y-151826493D01*
X181429542Y-152170021D01*
X181429218Y-152541987D01*
X181571263Y-152885763D01*
X181612299Y-152926871D01*
X181612909Y-152970375D01*
X180738400Y-152095867D01*
X180738400Y-119270932D01*
X197808582Y-102200750D01*
X198824500Y-102200750D01*
X198824500Y-102641309D01*
X198921173Y-102874698D01*
X199099801Y-103053327D01*
X199333190Y-103150000D01*
X199548750Y-103150000D01*
X199707500Y-102991250D01*
X199707500Y-102042000D01*
X199961500Y-102042000D01*
X199961500Y-102991250D01*
X200120250Y-103150000D01*
X200335810Y-103150000D01*
X200569199Y-103053327D01*
X200747827Y-102874698D01*
X200844500Y-102641309D01*
X200844500Y-102420853D01*
X203148752Y-102420853D01*
X203225956Y-102669563D01*
X203772250Y-102866843D01*
X204352456Y-102840048D01*
X204764044Y-102669563D01*
X204841248Y-102420853D01*
X203995000Y-101574605D01*
X203148752Y-102420853D01*
X200844500Y-102420853D01*
X200844500Y-102200750D01*
X200685750Y-102042000D01*
X199961500Y-102042000D01*
X199707500Y-102042000D01*
X198983250Y-102042000D01*
X198824500Y-102200750D01*
X197808582Y-102200750D01*
X198827229Y-101182103D01*
X198824500Y-101188691D01*
X198824500Y-101188691D01*
G37*
X198824500Y-101188691D02*
X198824500Y-101629250D01*
X198983250Y-101788000D01*
X199707500Y-101788000D01*
X199707500Y-101768000D01*
X199961500Y-101768000D01*
X199961500Y-101788000D01*
X200685750Y-101788000D01*
X200844500Y-101629250D01*
X200844500Y-101255000D01*
X202526979Y-101255000D01*
X202549952Y-101752456D01*
X202720437Y-102164044D01*
X202969147Y-102241248D01*
X203815395Y-101395000D01*
X203801253Y-101380858D01*
X203980858Y-101201253D01*
X203995000Y-101215395D01*
X204009143Y-101201253D01*
X204188748Y-101380858D01*
X204174605Y-101395000D01*
X205020853Y-102241248D01*
X205269563Y-102164044D01*
X205466843Y-101617750D01*
X205462476Y-101523181D01*
X205697002Y-101715878D01*
X205746983Y-101836843D01*
X206009773Y-102100092D01*
X206353301Y-102242738D01*
X206725267Y-102243062D01*
X207069043Y-102101017D01*
X207332292Y-101838227D01*
X207457700Y-101536213D01*
X207457700Y-135749872D01*
X202435904Y-140771668D01*
X187027162Y-155278368D01*
X186806307Y-155057128D01*
X186462779Y-154914482D01*
X186090813Y-154914158D01*
X186036747Y-154936497D01*
X184600444Y-154526105D01*
X184427836Y-154353497D01*
X184230133Y-154218412D01*
X183978971Y-154163928D01*
X183726400Y-154211452D01*
X183512218Y-154353497D01*
X183229376Y-154636339D01*
X183154986Y-154745213D01*
X183052598Y-154813116D01*
X182769756Y-155095958D01*
X182695363Y-155204835D01*
X182592979Y-155272736D01*
X182587639Y-155278076D01*
X182587226Y-155277699D01*
X182600444Y-155264481D01*
X182530443Y-155194480D01*
X182656893Y-155005234D01*
X182692417Y-154826645D01*
X182879272Y-154639790D01*
X182952176Y-154533092D01*
X183052514Y-154466548D01*
X183335356Y-154183706D01*
X183470441Y-153986003D01*
X183524925Y-153734841D01*
X183477401Y-153482270D01*
X183358994Y-153303730D01*
X183358994Y-153186994D01*
X183343466Y-153108932D01*
X183343976Y-153029340D01*
X183265979Y-152623667D01*
X183299218Y-152543619D01*
X183299542Y-152171653D01*
X183157497Y-151827877D01*
X182894707Y-151564628D01*
X182551179Y-151421982D01*
X182179213Y-151421658D01*
X181835437Y-151563703D01*
X181572188Y-151826493D01*
X181429542Y-152170021D01*
X181429218Y-152541987D01*
X181571263Y-152885763D01*
X181612299Y-152926871D01*
X181612909Y-152970375D01*
X180738400Y-152095867D01*
X180738400Y-119270932D01*
X197808582Y-102200750D01*
X198824500Y-102200750D01*
X198824500Y-102641309D01*
X198921173Y-102874698D01*
X199099801Y-103053327D01*
X199333190Y-103150000D01*
X199548750Y-103150000D01*
X199707500Y-102991250D01*
X199707500Y-102042000D01*
X199961500Y-102042000D01*
X199961500Y-102991250D01*
X200120250Y-103150000D01*
X200335810Y-103150000D01*
X200569199Y-103053327D01*
X200747827Y-102874698D01*
X200844500Y-102641309D01*
X200844500Y-102420853D01*
X203148752Y-102420853D01*
X203225956Y-102669563D01*
X203772250Y-102866843D01*
X204352456Y-102840048D01*
X204764044Y-102669563D01*
X204841248Y-102420853D01*
X203995000Y-101574605D01*
X203148752Y-102420853D01*
X200844500Y-102420853D01*
X200844500Y-102200750D01*
X200685750Y-102042000D01*
X199961500Y-102042000D01*
X199707500Y-102042000D01*
X198983250Y-102042000D01*
X198824500Y-102200750D01*
X197808582Y-102200750D01*
X198827229Y-101182103D01*
X198824500Y-101188691D01*
G36*
X66643883Y-47811043D02*
X66906673Y-48074292D01*
X67250201Y-48216938D01*
X67622167Y-48217262D01*
X67684037Y-48191698D01*
X69523186Y-48597525D01*
X69572164Y-48646503D01*
X69769867Y-48781588D01*
X70021029Y-48836072D01*
X70273600Y-48788548D01*
X70487782Y-48646503D01*
X70770624Y-48363661D01*
X70845014Y-48254787D01*
X70947402Y-48186884D01*
X71230244Y-47904042D01*
X71304637Y-47795165D01*
X71407021Y-47727264D01*
X71412361Y-47721924D01*
X71593693Y-47887246D01*
X71580348Y-47900591D01*
X71505958Y-48009465D01*
X71403570Y-48077368D01*
X71120728Y-48360210D01*
X71047824Y-48466908D01*
X70947486Y-48533452D01*
X70664644Y-48816294D01*
X70529559Y-49013997D01*
X70475075Y-49265159D01*
X70522599Y-49517730D01*
X70641006Y-49696270D01*
X70641006Y-50178126D01*
X69848047Y-50971085D01*
X69607437Y-51070503D01*
X69344188Y-51333293D01*
X69201542Y-51676821D01*
X69201420Y-51816906D01*
X69165000Y-52000000D01*
X69228561Y-52319540D01*
X69409566Y-52590434D01*
X69680460Y-52771439D01*
X70000000Y-52835000D01*
X70182687Y-52798661D01*
X70321547Y-52798782D01*
X70665323Y-52656737D01*
X70928572Y-52393947D01*
X71029158Y-52151710D01*
X72066440Y-51114428D01*
X72095790Y-51070503D01*
X72247445Y-50843535D01*
X72311006Y-50523994D01*
X72311006Y-49838739D01*
X72343114Y-49791748D01*
X73518830Y-50967464D01*
X73538966Y-51074477D01*
X73681011Y-51288659D01*
X73693249Y-51300897D01*
X73693249Y-84264419D01*
X56105788Y-101851880D01*
X55588734Y-101851880D01*
X55604760Y-101813189D01*
X55604760Y-101372630D01*
X55446010Y-101213880D01*
X54721760Y-101213880D01*
X54721760Y-101233880D01*
X54467760Y-101233880D01*
X54467760Y-101213880D01*
X53743510Y-101213880D01*
X53584760Y-101372630D01*
X53584760Y-101800631D01*
X52485970Y-101746381D01*
X52457866Y-101750543D01*
X52430000Y-101745000D01*
X51473021Y-101745000D01*
X51450048Y-101247544D01*
X51279563Y-100835956D01*
X51030853Y-100758752D01*
X50184605Y-101605000D01*
X50198748Y-101619143D01*
X50019143Y-101798748D01*
X50005000Y-101784605D01*
X49990858Y-101798748D01*
X49811253Y-101619143D01*
X49825395Y-101605000D01*
X48979147Y-100758752D01*
X48835000Y-100803498D01*
X48835000Y-100579147D01*
X49158752Y-100579147D01*
X50005000Y-101425395D01*
X50851248Y-100579147D01*
X50783399Y-100360571D01*
X53584760Y-100360571D01*
X53584760Y-100801130D01*
X53743510Y-100959880D01*
X54467760Y-100959880D01*
X54467760Y-100010630D01*
X54721760Y-100010630D01*
X54721760Y-100959880D01*
X55446010Y-100959880D01*
X55604760Y-100801130D01*
X55604760Y-100360571D01*
X55508087Y-100127182D01*
X55329459Y-99948553D01*
X55096070Y-99851880D01*
X54880510Y-99851880D01*
X54721760Y-100010630D01*
X54467760Y-100010630D01*
X54309010Y-99851880D01*
X54093450Y-99851880D01*
X53860061Y-99948553D01*
X53681433Y-100127182D01*
X53584760Y-100360571D01*
X50783399Y-100360571D01*
X50774044Y-100330437D01*
X50227750Y-100133157D01*
X49647544Y-100159952D01*
X49235956Y-100330437D01*
X49158752Y-100579147D01*
X48835000Y-100579147D01*
X48835000Y-100146815D01*
X48906548Y-99974509D01*
X48906872Y-99602543D01*
X48764827Y-99258767D01*
X48502037Y-98995518D01*
X48158509Y-98852872D01*
X47835000Y-98852590D01*
X47835000Y-96204761D01*
X47897810Y-96053498D01*
X47898134Y-95681532D01*
X47835000Y-95528736D01*
X47835000Y-95491115D01*
X48103230Y-95386990D01*
X48353421Y-95227810D01*
X48523654Y-94985003D01*
X48588009Y-94695533D01*
X48536690Y-94403470D01*
X48377510Y-94153279D01*
X48134703Y-93983046D01*
X47845233Y-93918691D01*
X47835000Y-93920489D01*
X47835000Y-68320146D01*
X66526773Y-47527615D01*
X66643883Y-47811043D01*
X66643883Y-47811043D01*
G37*
X66643883Y-47811043D02*
X66906673Y-48074292D01*
X67250201Y-48216938D01*
X67622167Y-48217262D01*
X67684037Y-48191698D01*
X69523186Y-48597525D01*
X69572164Y-48646503D01*
X69769867Y-48781588D01*
X70021029Y-48836072D01*
X70273600Y-48788548D01*
X70487782Y-48646503D01*
X70770624Y-48363661D01*
X70845014Y-48254787D01*
X70947402Y-48186884D01*
X71230244Y-47904042D01*
X71304637Y-47795165D01*
X71407021Y-47727264D01*
X71412361Y-47721924D01*
X71593693Y-47887246D01*
X71580348Y-47900591D01*
X71505958Y-48009465D01*
X71403570Y-48077368D01*
X71120728Y-48360210D01*
X71047824Y-48466908D01*
X70947486Y-48533452D01*
X70664644Y-48816294D01*
X70529559Y-49013997D01*
X70475075Y-49265159D01*
X70522599Y-49517730D01*
X70641006Y-49696270D01*
X70641006Y-50178126D01*
X69848047Y-50971085D01*
X69607437Y-51070503D01*
X69344188Y-51333293D01*
X69201542Y-51676821D01*
X69201420Y-51816906D01*
X69165000Y-52000000D01*
X69228561Y-52319540D01*
X69409566Y-52590434D01*
X69680460Y-52771439D01*
X70000000Y-52835000D01*
X70182687Y-52798661D01*
X70321547Y-52798782D01*
X70665323Y-52656737D01*
X70928572Y-52393947D01*
X71029158Y-52151710D01*
X72066440Y-51114428D01*
X72095790Y-51070503D01*
X72247445Y-50843535D01*
X72311006Y-50523994D01*
X72311006Y-49838739D01*
X72343114Y-49791748D01*
X73518830Y-50967464D01*
X73538966Y-51074477D01*
X73681011Y-51288659D01*
X73693249Y-51300897D01*
X73693249Y-84264419D01*
X56105788Y-101851880D01*
X55588734Y-101851880D01*
X55604760Y-101813189D01*
X55604760Y-101372630D01*
X55446010Y-101213880D01*
X54721760Y-101213880D01*
X54721760Y-101233880D01*
X54467760Y-101233880D01*
X54467760Y-101213880D01*
X53743510Y-101213880D01*
X53584760Y-101372630D01*
X53584760Y-101800631D01*
X52485970Y-101746381D01*
X52457866Y-101750543D01*
X52430000Y-101745000D01*
X51473021Y-101745000D01*
X51450048Y-101247544D01*
X51279563Y-100835956D01*
X51030853Y-100758752D01*
X50184605Y-101605000D01*
X50198748Y-101619143D01*
X50019143Y-101798748D01*
X50005000Y-101784605D01*
X49990858Y-101798748D01*
X49811253Y-101619143D01*
X49825395Y-101605000D01*
X48979147Y-100758752D01*
X48835000Y-100803498D01*
X48835000Y-100579147D01*
X49158752Y-100579147D01*
X50005000Y-101425395D01*
X50851248Y-100579147D01*
X50783399Y-100360571D01*
X53584760Y-100360571D01*
X53584760Y-100801130D01*
X53743510Y-100959880D01*
X54467760Y-100959880D01*
X54467760Y-100010630D01*
X54721760Y-100010630D01*
X54721760Y-100959880D01*
X55446010Y-100959880D01*
X55604760Y-100801130D01*
X55604760Y-100360571D01*
X55508087Y-100127182D01*
X55329459Y-99948553D01*
X55096070Y-99851880D01*
X54880510Y-99851880D01*
X54721760Y-100010630D01*
X54467760Y-100010630D01*
X54309010Y-99851880D01*
X54093450Y-99851880D01*
X53860061Y-99948553D01*
X53681433Y-100127182D01*
X53584760Y-100360571D01*
X50783399Y-100360571D01*
X50774044Y-100330437D01*
X50227750Y-100133157D01*
X49647544Y-100159952D01*
X49235956Y-100330437D01*
X49158752Y-100579147D01*
X48835000Y-100579147D01*
X48835000Y-100146815D01*
X48906548Y-99974509D01*
X48906872Y-99602543D01*
X48764827Y-99258767D01*
X48502037Y-98995518D01*
X48158509Y-98852872D01*
X47835000Y-98852590D01*
X47835000Y-96204761D01*
X47897810Y-96053498D01*
X47898134Y-95681532D01*
X47835000Y-95528736D01*
X47835000Y-95491115D01*
X48103230Y-95386990D01*
X48353421Y-95227810D01*
X48523654Y-94985003D01*
X48588009Y-94695533D01*
X48536690Y-94403470D01*
X48377510Y-94153279D01*
X48134703Y-93983046D01*
X47845233Y-93918691D01*
X47835000Y-93920489D01*
X47835000Y-68320146D01*
X66526773Y-47527615D01*
X66643883Y-47811043D01*
G36*
X204600926Y-64956574D02*
X204807604Y-65094672D01*
X207597538Y-67884606D01*
X207597538Y-96429014D01*
X207278079Y-96296362D01*
X206906113Y-96296038D01*
X206562337Y-96438083D01*
X206299088Y-96700873D01*
X206198502Y-96943109D01*
X205169052Y-97972560D01*
X204770000Y-97972560D01*
X204534683Y-98016838D01*
X204318559Y-98155910D01*
X204173569Y-98368110D01*
X204122560Y-98620000D01*
X204122560Y-99020000D01*
X204146944Y-99149589D01*
X204122560Y-99270000D01*
X204122560Y-99670000D01*
X204146944Y-99799589D01*
X204122560Y-99920000D01*
X204122560Y-99927553D01*
X204027592Y-99931939D01*
X203978603Y-99685654D01*
X203877440Y-99534253D01*
X203877440Y-99270000D01*
X203853544Y-99143003D01*
X203877440Y-99025000D01*
X203877440Y-98625000D01*
X203833162Y-98389683D01*
X203694090Y-98173559D01*
X203481890Y-98028569D01*
X203230000Y-97977560D01*
X203160109Y-97977560D01*
X202107039Y-97287855D01*
X202072877Y-97205177D01*
X201810087Y-96941928D01*
X201466559Y-96799282D01*
X201094593Y-96798958D01*
X200750817Y-96941003D01*
X200487568Y-97203793D01*
X200344922Y-97547321D01*
X200344598Y-97919287D01*
X200486643Y-98263063D01*
X200749433Y-98526312D01*
X201092961Y-98668958D01*
X201167829Y-98669023D01*
X201650276Y-98985000D01*
X200687387Y-98985000D01*
X200673590Y-98963559D01*
X200461390Y-98818569D01*
X200209500Y-98767560D01*
X200118492Y-98767560D01*
X177842800Y-76491868D01*
X177842800Y-51152558D01*
X178752109Y-51152558D01*
X178752109Y-51377065D01*
X179063631Y-51688587D01*
X179297020Y-51785260D01*
X179549639Y-51785260D01*
X179783028Y-51688588D01*
X179935452Y-51536164D01*
X179935452Y-51311657D01*
X179264231Y-50640436D01*
X178752109Y-51152558D01*
X177842800Y-51152558D01*
X177842800Y-50800390D01*
X178020449Y-50622741D01*
X178036475Y-50661431D01*
X178347997Y-50972953D01*
X178572504Y-50972953D01*
X179084626Y-50460831D01*
X179443836Y-50460831D01*
X180115057Y-51132052D01*
X180339564Y-51132052D01*
X180491988Y-50979628D01*
X180588660Y-50746239D01*
X180588660Y-50493620D01*
X180491987Y-50260231D01*
X180180465Y-49948709D01*
X179955958Y-49948709D01*
X179443836Y-50460831D01*
X179084626Y-50460831D01*
X179070484Y-50446689D01*
X179250089Y-50267084D01*
X179264231Y-50281226D01*
X179776353Y-49769104D01*
X179776353Y-49544597D01*
X179464831Y-49233075D01*
X179372784Y-49194948D01*
X180588477Y-47979255D01*
X180956475Y-48314765D01*
X181368063Y-48485250D01*
X181598519Y-48363977D01*
X181598519Y-47167202D01*
X181852519Y-47167202D01*
X181852519Y-48363977D01*
X182082975Y-48485250D01*
X182608761Y-48238460D01*
X183000082Y-47809246D01*
X183170567Y-47397658D01*
X183049294Y-47167202D01*
X181852519Y-47167202D01*
X181598519Y-47167202D01*
X181151090Y-47167202D01*
X181201613Y-46913202D01*
X181418911Y-46913202D01*
X181531770Y-47026061D01*
X181711378Y-46846453D01*
X181598519Y-46733594D01*
X181598519Y-46361731D01*
X181757014Y-46331908D01*
X181852519Y-46268569D01*
X181852519Y-46733594D01*
X181739660Y-46846453D01*
X181919268Y-47026061D01*
X182032127Y-46913202D01*
X183049294Y-46913202D01*
X183170567Y-46682746D01*
X182950316Y-46213501D01*
X182992899Y-46213501D01*
X183312440Y-46149940D01*
X183583333Y-45968935D01*
X183587433Y-45964835D01*
X183828043Y-45865417D01*
X184091292Y-45602627D01*
X184233938Y-45259099D01*
X184234262Y-44887133D01*
X184092217Y-44543357D01*
X183987936Y-44438894D01*
X183965734Y-44405666D01*
X183932796Y-44383658D01*
X183829427Y-44280108D01*
X183485899Y-44137462D01*
X183120614Y-44137144D01*
X183472880Y-43828528D01*
X204600926Y-64956574D01*
X204600926Y-64956574D01*
G37*
X204600926Y-64956574D02*
X204807604Y-65094672D01*
X207597538Y-67884606D01*
X207597538Y-96429014D01*
X207278079Y-96296362D01*
X206906113Y-96296038D01*
X206562337Y-96438083D01*
X206299088Y-96700873D01*
X206198502Y-96943109D01*
X205169052Y-97972560D01*
X204770000Y-97972560D01*
X204534683Y-98016838D01*
X204318559Y-98155910D01*
X204173569Y-98368110D01*
X204122560Y-98620000D01*
X204122560Y-99020000D01*
X204146944Y-99149589D01*
X204122560Y-99270000D01*
X204122560Y-99670000D01*
X204146944Y-99799589D01*
X204122560Y-99920000D01*
X204122560Y-99927553D01*
X204027592Y-99931939D01*
X203978603Y-99685654D01*
X203877440Y-99534253D01*
X203877440Y-99270000D01*
X203853544Y-99143003D01*
X203877440Y-99025000D01*
X203877440Y-98625000D01*
X203833162Y-98389683D01*
X203694090Y-98173559D01*
X203481890Y-98028569D01*
X203230000Y-97977560D01*
X203160109Y-97977560D01*
X202107039Y-97287855D01*
X202072877Y-97205177D01*
X201810087Y-96941928D01*
X201466559Y-96799282D01*
X201094593Y-96798958D01*
X200750817Y-96941003D01*
X200487568Y-97203793D01*
X200344922Y-97547321D01*
X200344598Y-97919287D01*
X200486643Y-98263063D01*
X200749433Y-98526312D01*
X201092961Y-98668958D01*
X201167829Y-98669023D01*
X201650276Y-98985000D01*
X200687387Y-98985000D01*
X200673590Y-98963559D01*
X200461390Y-98818569D01*
X200209500Y-98767560D01*
X200118492Y-98767560D01*
X177842800Y-76491868D01*
X177842800Y-51152558D01*
X178752109Y-51152558D01*
X178752109Y-51377065D01*
X179063631Y-51688587D01*
X179297020Y-51785260D01*
X179549639Y-51785260D01*
X179783028Y-51688588D01*
X179935452Y-51536164D01*
X179935452Y-51311657D01*
X179264231Y-50640436D01*
X178752109Y-51152558D01*
X177842800Y-51152558D01*
X177842800Y-50800390D01*
X178020449Y-50622741D01*
X178036475Y-50661431D01*
X178347997Y-50972953D01*
X178572504Y-50972953D01*
X179084626Y-50460831D01*
X179443836Y-50460831D01*
X180115057Y-51132052D01*
X180339564Y-51132052D01*
X180491988Y-50979628D01*
X180588660Y-50746239D01*
X180588660Y-50493620D01*
X180491987Y-50260231D01*
X180180465Y-49948709D01*
X179955958Y-49948709D01*
X179443836Y-50460831D01*
X179084626Y-50460831D01*
X179070484Y-50446689D01*
X179250089Y-50267084D01*
X179264231Y-50281226D01*
X179776353Y-49769104D01*
X179776353Y-49544597D01*
X179464831Y-49233075D01*
X179372784Y-49194948D01*
X180588477Y-47979255D01*
X180956475Y-48314765D01*
X181368063Y-48485250D01*
X181598519Y-48363977D01*
X181598519Y-47167202D01*
X181852519Y-47167202D01*
X181852519Y-48363977D01*
X182082975Y-48485250D01*
X182608761Y-48238460D01*
X183000082Y-47809246D01*
X183170567Y-47397658D01*
X183049294Y-47167202D01*
X181852519Y-47167202D01*
X181598519Y-47167202D01*
X181151090Y-47167202D01*
X181201613Y-46913202D01*
X181418911Y-46913202D01*
X181531770Y-47026061D01*
X181711378Y-46846453D01*
X181598519Y-46733594D01*
X181598519Y-46361731D01*
X181757014Y-46331908D01*
X181852519Y-46268569D01*
X181852519Y-46733594D01*
X181739660Y-46846453D01*
X181919268Y-47026061D01*
X182032127Y-46913202D01*
X183049294Y-46913202D01*
X183170567Y-46682746D01*
X182950316Y-46213501D01*
X182992899Y-46213501D01*
X183312440Y-46149940D01*
X183583333Y-45968935D01*
X183587433Y-45964835D01*
X183828043Y-45865417D01*
X184091292Y-45602627D01*
X184233938Y-45259099D01*
X184234262Y-44887133D01*
X184092217Y-44543357D01*
X183987936Y-44438894D01*
X183965734Y-44405666D01*
X183932796Y-44383658D01*
X183829427Y-44280108D01*
X183485899Y-44137462D01*
X183120614Y-44137144D01*
X183472880Y-43828528D01*
X204600926Y-64956574D01*
G36*
X123118624Y-21149610D02*
X123118438Y-21363687D01*
X123260483Y-21707463D01*
X123279156Y-21726169D01*
X123472560Y-23372940D01*
X123472560Y-23730000D01*
X123516838Y-23965317D01*
X123655910Y-24181441D01*
X123868110Y-24326431D01*
X124120000Y-24377440D01*
X124520000Y-24377440D01*
X124649589Y-24353056D01*
X124770000Y-24377440D01*
X125170000Y-24377440D01*
X125299589Y-24353056D01*
X125420000Y-24377440D01*
X125427553Y-24377440D01*
X125431939Y-24472408D01*
X125185654Y-24521397D01*
X125034253Y-24622560D01*
X124770000Y-24622560D01*
X124643003Y-24646456D01*
X124525000Y-24622560D01*
X124125000Y-24622560D01*
X123889683Y-24666838D01*
X123673559Y-24805910D01*
X123528569Y-25018110D01*
X123477560Y-25270000D01*
X123477560Y-25354858D01*
X123157085Y-25877949D01*
X123067457Y-25914983D01*
X122804208Y-26177773D01*
X122661562Y-26521301D01*
X122661238Y-26893267D01*
X122803283Y-27237043D01*
X123066073Y-27500292D01*
X123409601Y-27642938D01*
X123781567Y-27643262D01*
X124125343Y-27501217D01*
X124388592Y-27238427D01*
X124485000Y-27006252D01*
X124485000Y-27180754D01*
X124353569Y-27373110D01*
X124302560Y-27625000D01*
X124302560Y-28375000D01*
X124346838Y-28610317D01*
X124415000Y-28716244D01*
X124415000Y-28879228D01*
X102740228Y-50554000D01*
X76374356Y-50554000D01*
X76683873Y-50244483D01*
X76683873Y-50019976D01*
X76171751Y-49507854D01*
X76157609Y-49521997D01*
X75978004Y-49342392D01*
X75992146Y-49328249D01*
X76351356Y-49328249D01*
X76863478Y-49840371D01*
X77087985Y-49840371D01*
X77399507Y-49528849D01*
X77496180Y-49295460D01*
X77496180Y-49042841D01*
X77399508Y-48809452D01*
X77247084Y-48657028D01*
X77022577Y-48657028D01*
X76351356Y-49328249D01*
X75992146Y-49328249D01*
X75480024Y-48816127D01*
X75255517Y-48816127D01*
X74943995Y-49127649D01*
X74927969Y-49166339D01*
X74173645Y-48412015D01*
X75659629Y-48412015D01*
X75659629Y-48636522D01*
X76171751Y-49148644D01*
X76842972Y-48477423D01*
X76842972Y-48252916D01*
X76690548Y-48100492D01*
X76457159Y-48003820D01*
X76204540Y-48003820D01*
X75971151Y-48100493D01*
X75659629Y-48412015D01*
X74173645Y-48412015D01*
X73571727Y-47810097D01*
X73814765Y-47543525D01*
X73985250Y-47131937D01*
X73863977Y-46901481D01*
X72667202Y-46901481D01*
X72667202Y-47310341D01*
X72585609Y-47294111D01*
X72413202Y-47328405D01*
X72413202Y-46901481D01*
X71861731Y-46901481D01*
X71831908Y-46742986D01*
X71768569Y-46647481D01*
X72233594Y-46647481D01*
X72346453Y-46760340D01*
X72526061Y-46580732D01*
X72413202Y-46467873D01*
X72413202Y-45450706D01*
X72667202Y-45450706D01*
X72667202Y-46647481D01*
X73863977Y-46647481D01*
X73985250Y-46417025D01*
X73738460Y-45891239D01*
X73309246Y-45499918D01*
X72897658Y-45329433D01*
X72667202Y-45450706D01*
X72413202Y-45450706D01*
X72182746Y-45329433D01*
X72152220Y-45343761D01*
X72294018Y-44953837D01*
X72445592Y-44802527D01*
X72588238Y-44458999D01*
X72588562Y-44087033D01*
X72446517Y-43743257D01*
X72183727Y-43480008D01*
X71840199Y-43337362D01*
X71468233Y-43337038D01*
X71124457Y-43479083D01*
X70861208Y-43741873D01*
X70718562Y-44085401D01*
X70718288Y-44400380D01*
X70158123Y-45940752D01*
X69050467Y-44783441D01*
X93770309Y-20063599D01*
X93862697Y-20063599D01*
X123118624Y-21149610D01*
X123118624Y-21149610D01*
G37*
X123118624Y-21149610D02*
X123118438Y-21363687D01*
X123260483Y-21707463D01*
X123279156Y-21726169D01*
X123472560Y-23372940D01*
X123472560Y-23730000D01*
X123516838Y-23965317D01*
X123655910Y-24181441D01*
X123868110Y-24326431D01*
X124120000Y-24377440D01*
X124520000Y-24377440D01*
X124649589Y-24353056D01*
X124770000Y-24377440D01*
X125170000Y-24377440D01*
X125299589Y-24353056D01*
X125420000Y-24377440D01*
X125427553Y-24377440D01*
X125431939Y-24472408D01*
X125185654Y-24521397D01*
X125034253Y-24622560D01*
X124770000Y-24622560D01*
X124643003Y-24646456D01*
X124525000Y-24622560D01*
X124125000Y-24622560D01*
X123889683Y-24666838D01*
X123673559Y-24805910D01*
X123528569Y-25018110D01*
X123477560Y-25270000D01*
X123477560Y-25354858D01*
X123157085Y-25877949D01*
X123067457Y-25914983D01*
X122804208Y-26177773D01*
X122661562Y-26521301D01*
X122661238Y-26893267D01*
X122803283Y-27237043D01*
X123066073Y-27500292D01*
X123409601Y-27642938D01*
X123781567Y-27643262D01*
X124125343Y-27501217D01*
X124388592Y-27238427D01*
X124485000Y-27006252D01*
X124485000Y-27180754D01*
X124353569Y-27373110D01*
X124302560Y-27625000D01*
X124302560Y-28375000D01*
X124346838Y-28610317D01*
X124415000Y-28716244D01*
X124415000Y-28879228D01*
X102740228Y-50554000D01*
X76374356Y-50554000D01*
X76683873Y-50244483D01*
X76683873Y-50019976D01*
X76171751Y-49507854D01*
X76157609Y-49521997D01*
X75978004Y-49342392D01*
X75992146Y-49328249D01*
X76351356Y-49328249D01*
X76863478Y-49840371D01*
X77087985Y-49840371D01*
X77399507Y-49528849D01*
X77496180Y-49295460D01*
X77496180Y-49042841D01*
X77399508Y-48809452D01*
X77247084Y-48657028D01*
X77022577Y-48657028D01*
X76351356Y-49328249D01*
X75992146Y-49328249D01*
X75480024Y-48816127D01*
X75255517Y-48816127D01*
X74943995Y-49127649D01*
X74927969Y-49166339D01*
X74173645Y-48412015D01*
X75659629Y-48412015D01*
X75659629Y-48636522D01*
X76171751Y-49148644D01*
X76842972Y-48477423D01*
X76842972Y-48252916D01*
X76690548Y-48100492D01*
X76457159Y-48003820D01*
X76204540Y-48003820D01*
X75971151Y-48100493D01*
X75659629Y-48412015D01*
X74173645Y-48412015D01*
X73571727Y-47810097D01*
X73814765Y-47543525D01*
X73985250Y-47131937D01*
X73863977Y-46901481D01*
X72667202Y-46901481D01*
X72667202Y-47310341D01*
X72585609Y-47294111D01*
X72413202Y-47328405D01*
X72413202Y-46901481D01*
X71861731Y-46901481D01*
X71831908Y-46742986D01*
X71768569Y-46647481D01*
X72233594Y-46647481D01*
X72346453Y-46760340D01*
X72526061Y-46580732D01*
X72413202Y-46467873D01*
X72413202Y-45450706D01*
X72667202Y-45450706D01*
X72667202Y-46647481D01*
X73863977Y-46647481D01*
X73985250Y-46417025D01*
X73738460Y-45891239D01*
X73309246Y-45499918D01*
X72897658Y-45329433D01*
X72667202Y-45450706D01*
X72413202Y-45450706D01*
X72182746Y-45329433D01*
X72152220Y-45343761D01*
X72294018Y-44953837D01*
X72445592Y-44802527D01*
X72588238Y-44458999D01*
X72588562Y-44087033D01*
X72446517Y-43743257D01*
X72183727Y-43480008D01*
X71840199Y-43337362D01*
X71468233Y-43337038D01*
X71124457Y-43479083D01*
X70861208Y-43741873D01*
X70718562Y-44085401D01*
X70718288Y-44400380D01*
X70158123Y-45940752D01*
X69050467Y-44783441D01*
X93770309Y-20063599D01*
X93862697Y-20063599D01*
X123118624Y-21149610D01*
G36*
X160122190Y-22476137D02*
X180707482Y-41262335D01*
X180598457Y-41307383D01*
X180335208Y-41570173D01*
X180192562Y-41913701D01*
X180192238Y-42285667D01*
X180230241Y-42377641D01*
X179946252Y-43979409D01*
X179853497Y-44072164D01*
X179718412Y-44269867D01*
X179663928Y-44521029D01*
X179711452Y-44773600D01*
X179853497Y-44987782D01*
X180136339Y-45270624D01*
X180245213Y-45345014D01*
X180313116Y-45447402D01*
X180595958Y-45730244D01*
X180704835Y-45804637D01*
X180772736Y-45907021D01*
X180778076Y-45912361D01*
X180777699Y-45912774D01*
X180764481Y-45899556D01*
X180694480Y-45969557D01*
X180505234Y-45843107D01*
X180326646Y-45807584D01*
X180139790Y-45620728D01*
X180033092Y-45547824D01*
X179966548Y-45447486D01*
X179683706Y-45164644D01*
X179486003Y-45029559D01*
X179234841Y-44975075D01*
X178982270Y-45022599D01*
X178803730Y-45141006D01*
X177899594Y-45141006D01*
X177580054Y-45204566D01*
X177309160Y-45385572D01*
X177105267Y-45589465D01*
X176864657Y-45688883D01*
X176601408Y-45951673D01*
X176458762Y-46295201D01*
X176458438Y-46667167D01*
X176600483Y-47010943D01*
X176863273Y-47274192D01*
X177206801Y-47416838D01*
X177578767Y-47417162D01*
X177922543Y-47275117D01*
X178185792Y-47012327D01*
X178269388Y-46811006D01*
X178546460Y-46811006D01*
X177532067Y-47825400D01*
X177518003Y-47828046D01*
X177303821Y-47970091D01*
X177291583Y-47982329D01*
X145904261Y-47982329D01*
X126931932Y-29010000D01*
X127164250Y-29010000D01*
X127323000Y-28851250D01*
X127323000Y-28127000D01*
X127577000Y-28127000D01*
X127577000Y-28851250D01*
X127735750Y-29010000D01*
X128176309Y-29010000D01*
X128409698Y-28913327D01*
X128588327Y-28734699D01*
X128685000Y-28501310D01*
X128685000Y-28285750D01*
X128526250Y-28127000D01*
X127577000Y-28127000D01*
X127323000Y-28127000D01*
X127303000Y-28127000D01*
X127303000Y-27873000D01*
X127323000Y-27873000D01*
X127323000Y-27148750D01*
X127577000Y-27148750D01*
X127577000Y-27873000D01*
X128526250Y-27873000D01*
X128685000Y-27714250D01*
X128685000Y-27498690D01*
X128588327Y-27265301D01*
X128409698Y-27086673D01*
X128176309Y-26990000D01*
X127735750Y-26990000D01*
X127577000Y-27148750D01*
X127323000Y-27148750D01*
X127164250Y-26990000D01*
X126755000Y-26990000D01*
X126755000Y-25973021D01*
X127252456Y-25950048D01*
X127664044Y-25779563D01*
X127741248Y-25530853D01*
X126895000Y-24684605D01*
X126880858Y-24698748D01*
X126701253Y-24519143D01*
X126715395Y-24505000D01*
X127074605Y-24505000D01*
X127920853Y-25351248D01*
X128169563Y-25274044D01*
X128366843Y-24727750D01*
X128340048Y-24147544D01*
X128169563Y-23735956D01*
X127920853Y-23658752D01*
X127074605Y-24505000D01*
X126715395Y-24505000D01*
X126701253Y-24490858D01*
X126880858Y-24311253D01*
X126895000Y-24325395D01*
X127741248Y-23479147D01*
X127664044Y-23230437D01*
X127117750Y-23033157D01*
X126841843Y-23045899D01*
X126941256Y-22885943D01*
X127020943Y-22853017D01*
X127284192Y-22590227D01*
X127426838Y-22246699D01*
X127427162Y-21874733D01*
X127285117Y-21530957D01*
X127022327Y-21267708D01*
X127008539Y-21261983D01*
X160122190Y-22476137D01*
X160122190Y-22476137D01*
G37*
X160122190Y-22476137D02*
X180707482Y-41262335D01*
X180598457Y-41307383D01*
X180335208Y-41570173D01*
X180192562Y-41913701D01*
X180192238Y-42285667D01*
X180230241Y-42377641D01*
X179946252Y-43979409D01*
X179853497Y-44072164D01*
X179718412Y-44269867D01*
X179663928Y-44521029D01*
X179711452Y-44773600D01*
X179853497Y-44987782D01*
X180136339Y-45270624D01*
X180245213Y-45345014D01*
X180313116Y-45447402D01*
X180595958Y-45730244D01*
X180704835Y-45804637D01*
X180772736Y-45907021D01*
X180778076Y-45912361D01*
X180777699Y-45912774D01*
X180764481Y-45899556D01*
X180694480Y-45969557D01*
X180505234Y-45843107D01*
X180326646Y-45807584D01*
X180139790Y-45620728D01*
X180033092Y-45547824D01*
X179966548Y-45447486D01*
X179683706Y-45164644D01*
X179486003Y-45029559D01*
X179234841Y-44975075D01*
X178982270Y-45022599D01*
X178803730Y-45141006D01*
X177899594Y-45141006D01*
X177580054Y-45204566D01*
X177309160Y-45385572D01*
X177105267Y-45589465D01*
X176864657Y-45688883D01*
X176601408Y-45951673D01*
X176458762Y-46295201D01*
X176458438Y-46667167D01*
X176600483Y-47010943D01*
X176863273Y-47274192D01*
X177206801Y-47416838D01*
X177578767Y-47417162D01*
X177922543Y-47275117D01*
X178185792Y-47012327D01*
X178269388Y-46811006D01*
X178546460Y-46811006D01*
X177532067Y-47825400D01*
X177518003Y-47828046D01*
X177303821Y-47970091D01*
X177291583Y-47982329D01*
X145904261Y-47982329D01*
X126931932Y-29010000D01*
X127164250Y-29010000D01*
X127323000Y-28851250D01*
X127323000Y-28127000D01*
X127577000Y-28127000D01*
X127577000Y-28851250D01*
X127735750Y-29010000D01*
X128176309Y-29010000D01*
X128409698Y-28913327D01*
X128588327Y-28734699D01*
X128685000Y-28501310D01*
X128685000Y-28285750D01*
X128526250Y-28127000D01*
X127577000Y-28127000D01*
X127323000Y-28127000D01*
X127303000Y-28127000D01*
X127303000Y-27873000D01*
X127323000Y-27873000D01*
X127323000Y-27148750D01*
X127577000Y-27148750D01*
X127577000Y-27873000D01*
X128526250Y-27873000D01*
X128685000Y-27714250D01*
X128685000Y-27498690D01*
X128588327Y-27265301D01*
X128409698Y-27086673D01*
X128176309Y-26990000D01*
X127735750Y-26990000D01*
X127577000Y-27148750D01*
X127323000Y-27148750D01*
X127164250Y-26990000D01*
X126755000Y-26990000D01*
X126755000Y-25973021D01*
X127252456Y-25950048D01*
X127664044Y-25779563D01*
X127741248Y-25530853D01*
X126895000Y-24684605D01*
X126880858Y-24698748D01*
X126701253Y-24519143D01*
X126715395Y-24505000D01*
X127074605Y-24505000D01*
X127920853Y-25351248D01*
X128169563Y-25274044D01*
X128366843Y-24727750D01*
X128340048Y-24147544D01*
X128169563Y-23735956D01*
X127920853Y-23658752D01*
X127074605Y-24505000D01*
X126715395Y-24505000D01*
X126701253Y-24490858D01*
X126880858Y-24311253D01*
X126895000Y-24325395D01*
X127741248Y-23479147D01*
X127664044Y-23230437D01*
X127117750Y-23033157D01*
X126841843Y-23045899D01*
X126941256Y-22885943D01*
X127020943Y-22853017D01*
X127284192Y-22590227D01*
X127426838Y-22246699D01*
X127427162Y-21874733D01*
X127285117Y-21530957D01*
X127022327Y-21267708D01*
X127008539Y-21261983D01*
X160122190Y-22476137D01*
M02*
