M48
METRIC,TZ
T1C0.762
T2C0.800
T3C0.800
T4C1.000
T5C1.001
%
G90
G05
T1
X63500Y-99650
X76000Y-99650
X80692Y-145192
X83308Y-55192
X88500Y-99650
X89692Y-136192
X92308Y-64192
X98692Y-127192
X101308Y-73192
X125150Y-140000
X125150Y-152500
X125150Y-165000
X128850Y-38000
X128850Y-50500
X128850Y-63000
X153192Y-130308
X155308Y-75808
X162192Y-139308
X164308Y-66808
X165500Y-103350
X171192Y-148308
X173308Y-57808
X178000Y-103350
X190500Y-103350
T2
X83157Y-96135
X84330Y-98388
X85410Y-94962
X86583Y-97215
X87663Y-93789
X88836Y-96042
X89916Y-92616
X91089Y-94869
X92169Y-91443
X93342Y-93696
X94422Y-90271
X95595Y-92524
X96675Y-89098
X97848Y-91351
X98928Y-87925
X100101Y-90178
X101181Y-86752
X102354Y-89005
X103434Y-85579
X104607Y-87832
X107035Y-83705
X108208Y-85958
X109288Y-82532
X110461Y-84785
X111541Y-81359
X112375Y-132469
X112714Y-83612
X113548Y-134722
X113794Y-80186
X114628Y-131296
X114967Y-82439
X115801Y-133549
X116047Y-79013
X116881Y-130123
X117220Y-81266
X118054Y-132376
X118300Y-77840
X119134Y-128950
X119473Y-80093
X120307Y-131203
X120553Y-76668
X121387Y-127777
X121726Y-78921
X122560Y-130030
X122806Y-75495
X123640Y-126604
X123979Y-77748
X124813Y-128857
X125893Y-125432
X127066Y-127685
X128146Y-124259
X129319Y-126512
X132652Y-121913
X133825Y-124166
X134905Y-120740
X136078Y-122993
X137158Y-119567
X138331Y-121820
X139411Y-118394
X140584Y-120648
X141664Y-117222
X142837Y-119475
X143917Y-116049
X145090Y-118302
T3
X47828Y-94679
X48727Y-98628
X54204Y-105501
X54539Y-93934
X65500Y-52000
X66000Y-154000
X68000Y-50000
X69403Y-155402
X70000Y-52000
X71000Y-41000
X76500Y-161000
X76899Y-41072
X79000Y-163500
X80099Y-42405
X103629Y-99715
X109319Y-89149
X111658Y-87300
X113538Y-97536
X115448Y-179766
X116815Y-176378
X118000Y-24000
X120000Y-184000
X121000Y-24000
X121000Y-27000
X121425Y-82702
X125286Y-81280
X133000Y-177000
X133000Y-180000
X134000Y-20000
X136000Y-180000
X136106Y-26670
X139319Y-24384
X173060Y-160599
X174681Y-163784
X176000Y-40500
X176000Y-45000
X178000Y-43000
X183789Y-161046
X184000Y-151000
X186000Y-153000
X186601Y-56185
X186751Y-46660
X188024Y-52540
X188500Y-151000
X202000Y-96000
X202248Y-110236
X205000Y-93000
X205000Y-96000
X205415Y-108910
X209000Y-105000
T4
X50005Y-101605
X72274Y-155960
X72540Y-46774
X126895Y-24505
X127105Y-178995
X181460Y-156226
X181726Y-47040
X203995Y-101395
T5
X55446Y-74028
X83848Y-158168
X97424Y-31666
X99350Y-172618
X112395Y-140703
X132837Y-79637
X137439Y-93167
X145440Y-95390
X154805Y-31666
X158272Y-173004
X198323Y-73645
X198709Y-131026
T0
M30
